<svg width="1004" height="614" viewBox="0 0 1004 614" fill="none" xmlns="http://www.w3.org/2000/svg">
<g clip-path="url(#clip0_10744_183835)">
<rect x="1" y="1" width="1002" height="612" rx="30" fill="black"/>
<g opacity="0.1">
<path d="M696.436 79.043H872.622V255.078H696.436V79.043Z" fill="white"/>
<path d="M1220.1 255.078C1196.61 -20.7103 978.66 -89.6575 872.622 -89.6575V79.043C997.91 82.9549 1040.65 198.03 1046.36 255.078H1220.1Z" fill="white"/>
</g>
<rect width="397.818" height="258.908" rx="11.9286" transform="matrix(-1 0 0 1 502 63.0117)" fill="url(#paint0_linear_10744_183835)"/>
<path d="M199.331 197.371C199.331 136.035 239.146 96.9381 292.949 96.9381C332.405 96.9381 359.306 118.101 370.426 142.85V99.8076H395.534V295.651H370.426V252.25C358.948 277.358 331.687 298.521 292.59 298.521C239.146 298.521 199.331 258.706 199.331 197.371ZM370.426 197.729C370.426 148.948 337.785 118.818 297.612 118.818C256.363 118.818 224.798 147.513 224.798 197.371C224.798 246.87 256.363 276.641 297.612 276.641C337.785 276.641 370.426 246.511 370.426 197.729Z" fill="black"/>
<g opacity="0.8">
<mask id="path-6-outside-1_10744_183835" maskUnits="userSpaceOnUse" x="201.628" y="92.1377" width="199" height="204" fill="black">
<rect fill="white" x="201.628" y="92.1377" width="199" height="204"/>
<path d="M202.845 193.857C202.845 132.521 242.659 93.4244 296.463 93.4244C335.918 93.4244 362.82 114.587 373.939 139.336V96.2939H399.047V292.138H373.939V248.736C362.461 273.845 335.201 295.007 296.104 295.007C242.659 295.007 202.845 255.193 202.845 193.857ZM373.939 194.216C373.939 145.434 341.299 115.304 301.126 115.304C259.876 115.304 228.312 143.999 228.312 193.857C228.312 243.356 259.876 273.127 301.126 273.127C341.299 273.127 373.939 242.997 373.939 194.216Z"/>
</mask>
<path d="M373.939 139.337L373.162 139.686L374.791 139.337H373.939ZM373.939 96.2939V95.4421H373.087V96.2939H373.939ZM399.047 96.2939H399.899V95.4421H399.047V96.2939ZM399.047 292.138V292.99H399.899V292.138H399.047ZM373.939 292.138H373.087V292.99H373.939V292.138ZM373.939 248.736H374.791L373.165 248.382L373.939 248.736ZM202.845 193.857H203.697C203.697 163.377 213.587 138.49 230.093 121.229C246.599 103.969 269.774 94.2762 296.463 94.2762V93.4244V92.5726C269.348 92.5726 245.715 102.428 228.862 120.051C212.011 137.673 201.993 163.002 201.993 193.857H202.845ZM296.463 93.4244V94.2762C335.587 94.2762 362.182 115.246 373.162 139.686L373.939 139.337L374.716 138.987C363.458 113.928 336.249 92.5726 296.463 92.5726V93.4244ZM373.939 139.337H374.791V96.2939H373.939H373.087V139.337H373.939ZM373.939 96.2939V97.1457H399.047V96.2939V95.4421H373.939V96.2939ZM399.047 96.2939H398.196V292.138H399.047H399.899V96.2939H399.047ZM399.047 292.138V291.286H373.939V292.138V292.99H399.047V292.138ZM373.939 292.138H374.791V248.736H373.939H373.087V292.138H373.939ZM373.939 248.736L373.165 248.382C361.825 273.187 334.868 294.155 296.104 294.155V295.007V295.859C335.534 295.859 363.097 274.503 374.714 249.091L373.939 248.736ZM296.104 295.007V294.155C269.601 294.155 246.515 284.288 230.052 266.848C213.587 249.407 203.697 224.338 203.697 193.857H202.845H201.993C201.993 224.712 212.01 250.218 228.813 268.018C245.618 285.819 269.162 295.859 296.104 295.859V295.007ZM373.939 194.216H374.791C374.791 169.63 366.562 149.681 353.21 135.875C339.859 122.07 321.43 114.453 301.126 114.453V115.304V116.156C320.994 116.156 338.972 123.604 351.985 137.059C364.996 150.513 373.087 170.02 373.087 194.216H373.939ZM301.126 115.304V114.453C280.299 114.453 261.866 121.7 248.64 135.29C235.413 148.881 227.46 168.745 227.46 193.857H228.312H229.164C229.164 169.112 236.993 149.7 249.861 136.478C262.729 123.256 280.703 116.156 301.126 116.156V115.304ZM228.312 193.857H227.46C227.46 218.791 235.413 238.831 248.635 252.643C261.857 266.456 280.29 273.979 301.126 273.979V273.127V272.275C280.712 272.275 262.738 264.913 249.866 251.465C236.993 238.017 229.164 218.422 229.164 193.857H228.312ZM301.126 273.127V273.979C321.43 273.979 339.859 266.362 353.21 252.557C366.562 238.75 374.791 218.802 374.791 194.216H373.939H373.087C373.087 218.411 364.996 237.919 351.985 251.372C338.972 264.828 320.994 272.275 301.126 272.275V273.127Z" fill="black" mask="url(#path-6-outside-1_10744_183835)"/>
</g>
<g opacity="0.7">
<mask id="path-8-outside-2_10744_183835" maskUnits="userSpaceOnUse" x="204.822" y="88.9443" width="199" height="204" fill="black">
<rect fill="white" x="204.822" y="88.9443" width="199" height="204"/>
<path d="M206.039 190.664C206.039 129.328 245.854 90.231 299.657 90.231C339.113 90.231 366.014 111.394 377.134 136.143V93.1006H402.242V288.944H377.134V245.543C365.656 270.651 338.395 291.814 299.298 291.814C245.854 291.814 206.039 251.999 206.039 190.664ZM377.134 191.022C377.134 142.241 344.493 112.111 304.32 112.111C263.071 112.111 231.506 140.806 231.506 190.664C231.506 240.163 263.071 269.934 304.32 269.934C344.493 269.934 377.134 239.804 377.134 191.022Z"/>
</mask>
<path d="M377.134 136.143L376.357 136.492L377.985 136.143H377.134ZM377.134 93.1006V92.2487H376.282V93.1006H377.134ZM402.242 93.1006H403.094V92.2487H402.242V93.1006ZM402.242 288.944V289.796H403.094V288.944H402.242ZM377.134 288.944H376.282V289.796H377.134V288.944ZM377.134 245.543H377.985L376.359 245.189L377.134 245.543ZM206.039 190.664H206.891C206.891 160.183 216.781 135.296 233.288 118.035C249.793 100.776 272.968 91.0829 299.657 91.0829V90.231V89.3792C272.542 89.3792 248.909 99.235 232.056 116.858C215.205 134.479 205.187 159.809 205.187 190.664H206.039ZM299.657 90.231V91.0829C338.781 91.0829 365.376 112.052 376.357 136.492L377.134 136.143L377.911 135.794C366.652 110.735 339.444 89.3792 299.657 89.3792V90.231ZM377.134 136.143H377.985V93.1006H377.134H376.282V136.143H377.134ZM377.134 93.1006V93.9524H402.242V93.1006V92.2487H377.134V93.1006ZM402.242 93.1006H401.39V288.944H402.242H403.094V93.1006H402.242ZM402.242 288.944V288.093H377.134V288.944V289.796H402.242V288.944ZM377.134 288.944H377.985V245.543H377.134H376.282V288.944H377.134ZM377.134 245.543L376.359 245.189C365.02 269.993 338.063 290.962 299.298 290.962V291.814V292.666C338.728 292.666 366.291 271.309 377.908 245.897L377.134 245.543ZM299.298 291.814V290.962C272.795 290.962 249.71 281.094 233.246 263.655C216.781 246.213 206.891 221.145 206.891 190.664H206.039H205.187C205.187 221.518 215.205 247.025 232.008 264.824C248.813 282.626 272.357 292.666 299.298 292.666V291.814ZM377.134 191.022H377.985C377.985 166.436 369.756 146.488 356.404 132.681C343.053 118.876 324.624 111.259 304.32 111.259V112.111V112.963C324.189 112.963 342.167 120.411 355.179 133.866C368.19 147.32 376.282 166.827 376.282 191.022H377.134ZM304.32 112.111V111.259C283.494 111.259 265.061 118.507 251.834 132.097C238.607 145.687 230.654 165.551 230.654 190.664H231.506H232.358C232.358 165.918 240.187 146.506 253.055 133.285C265.923 120.063 283.897 112.963 304.32 112.963V112.111ZM231.506 190.664H230.654C230.654 215.598 238.607 235.638 251.829 249.45C265.052 263.263 283.485 270.786 304.32 270.786V269.934V269.082C283.906 269.082 265.932 261.719 253.06 248.272C240.187 234.824 232.358 215.229 232.358 190.664H231.506ZM304.32 269.934V270.786C324.624 270.786 343.053 263.169 356.404 249.363C369.756 235.557 377.985 215.608 377.985 191.022H377.134H376.282C376.282 215.218 368.19 234.725 355.179 248.179C342.167 261.634 324.189 269.082 304.32 269.082V269.934Z" fill="black" mask="url(#path-8-outside-2_10744_183835)"/>
</g>
<g opacity="0.6">
<mask id="path-10-outside-3_10744_183835" maskUnits="userSpaceOnUse" x="208.017" y="85.75" width="199" height="204" fill="black">
<rect fill="white" x="208.017" y="85.75" width="199" height="204"/>
<path d="M209.234 187.469C209.234 126.134 249.048 87.0367 302.851 87.0367C342.307 87.0367 369.209 108.199 380.328 132.949V89.9062H405.436V285.75H380.328V242.349C368.85 267.457 341.59 288.62 302.493 288.62C249.048 288.62 209.234 248.805 209.234 187.469ZM380.328 187.828C380.328 139.047 347.687 108.917 307.514 108.917C266.265 108.917 234.701 137.612 234.701 187.469C234.701 236.968 266.265 266.74 307.514 266.74C347.687 266.74 380.328 236.61 380.328 187.828Z"/>
</mask>
<path d="M380.328 132.949L379.551 133.298L381.18 132.949H380.328ZM380.328 89.9062V89.0544H379.476V89.9062H380.328ZM405.436 89.9062H406.288V89.0544H405.436V89.9062ZM405.436 285.75V286.602H406.288V285.75H405.436ZM380.328 285.75H379.476V286.602H380.328V285.75ZM380.328 242.349H381.18L379.553 241.995L380.328 242.349ZM209.234 187.469H210.085C210.085 156.989 219.975 132.102 236.482 114.841C252.987 97.5813 276.163 87.8885 302.851 87.8885V87.0367V86.1849C275.737 86.1849 252.103 96.0407 235.251 113.663C218.399 131.285 208.382 156.614 208.382 187.469H209.234ZM302.851 87.0367V87.8885C341.976 87.8885 368.571 108.858 379.551 133.298L380.328 132.949L381.105 132.6C369.846 107.54 342.638 86.1849 302.851 86.1849V87.0367ZM380.328 132.949H381.18V89.9062H380.328H379.476V132.949H380.328ZM380.328 89.9062V90.758H405.436V89.9062V89.0544H380.328V89.9062ZM405.436 89.9062H404.584V285.75H405.436H406.288V89.9062H405.436ZM405.436 285.75V284.898H380.328V285.75V286.602H405.436V285.75ZM380.328 285.75H381.18V242.349H380.328H379.476V285.75H380.328ZM380.328 242.349L379.553 241.995C368.214 266.799 341.257 287.768 302.493 287.768V288.62V289.471C341.922 289.471 369.486 268.115 381.103 242.703L380.328 242.349ZM302.493 288.62V287.768C275.99 287.768 252.904 277.9 236.441 260.461C219.976 243.019 210.085 217.95 210.085 187.469H209.234H208.382C208.382 218.324 218.399 243.831 235.202 261.63C252.007 279.432 275.551 289.471 302.493 289.471V288.62ZM380.328 187.828H381.18C381.18 163.242 372.951 143.294 359.598 129.487C346.247 115.682 327.819 108.065 307.514 108.065V108.917V109.769C327.383 109.769 345.361 117.216 358.374 130.671C371.385 144.125 379.476 163.633 379.476 187.828H380.328ZM307.514 108.917V108.065C286.688 108.065 268.255 115.312 255.028 128.902C241.802 142.493 233.849 162.357 233.849 187.469H234.701H235.552C235.552 162.724 243.382 143.312 256.249 130.091C269.118 116.869 287.091 109.769 307.514 109.769V108.917ZM234.701 187.469H233.849C233.849 212.403 241.802 232.443 255.024 246.256C268.246 260.069 286.679 267.591 307.514 267.591V266.74V265.888C287.1 265.888 269.127 258.525 256.254 245.078C243.381 231.63 235.552 212.035 235.552 187.469H234.701ZM307.514 266.74V267.591C327.819 267.591 346.247 259.974 359.598 246.169C372.951 232.362 381.18 212.414 381.18 187.828H380.328H379.476C379.476 212.024 371.385 231.531 358.374 244.985C345.361 258.44 327.383 265.888 307.514 265.888V266.74Z" fill="black" mask="url(#path-10-outside-3_10744_183835)"/>
</g>
<g opacity="0.5">
<mask id="path-12-outside-4_10744_183835" maskUnits="userSpaceOnUse" x="211.21" y="82.5557" width="199" height="204" fill="black">
<rect fill="white" x="211.21" y="82.5557" width="199" height="204"/>
<path d="M212.427 184.275C212.427 122.939 252.241 83.8424 306.045 83.8424C345.5 83.8424 372.402 105.005 383.521 129.754V86.7119H408.629V282.556H383.521V239.154C372.043 264.263 344.783 285.425 305.686 285.425C252.241 285.425 212.427 245.611 212.427 184.275ZM383.521 184.634C383.521 135.852 350.881 105.722 310.708 105.722C269.458 105.722 237.894 134.417 237.894 184.275C237.894 233.774 269.458 263.545 310.708 263.545C350.881 263.545 383.521 233.415 383.521 184.634Z"/>
</mask>
<path d="M383.521 129.754L382.744 130.104L384.373 129.754H383.521ZM383.521 86.7119V85.8601H382.669V86.7119H383.521ZM408.629 86.7119H409.481V85.8601H408.629V86.7119ZM408.629 282.556V283.407H409.481V282.556H408.629ZM383.521 282.556H382.669V283.407H383.521V282.556ZM383.521 239.154H384.373L382.747 238.8L383.521 239.154ZM212.427 184.275H213.279C213.279 153.795 223.169 128.908 239.675 111.647C256.181 94.3869 279.356 84.6942 306.045 84.6942V83.8424V82.9906C278.93 82.9906 255.297 92.8463 238.444 110.469C221.593 128.091 211.575 153.42 211.575 184.275H212.427ZM306.045 83.8424V84.6942C345.169 84.6942 371.764 105.664 382.744 130.104L383.521 129.754L384.298 129.405C373.04 104.346 345.832 82.9906 306.045 82.9906V83.8424ZM383.521 129.754H384.373V86.7119H383.521H382.669V129.754H383.521ZM383.521 86.7119V87.5637H408.629V86.7119V85.8601H383.521V86.7119ZM408.629 86.7119H407.778V282.556H408.629H409.481V86.7119H408.629ZM408.629 282.556V281.704H383.521V282.556V283.407H408.629V282.556ZM383.521 282.556H384.373V239.154H383.521H382.669V282.556H383.521ZM383.521 239.154L382.747 238.8C371.407 263.605 344.45 284.573 305.686 284.573V285.425V286.277C345.116 286.277 372.679 264.921 384.296 239.509L383.521 239.154ZM305.686 285.425V284.573C279.183 284.573 256.097 274.706 239.634 257.266C223.169 239.825 213.279 214.756 213.279 184.275H212.427H211.575C211.575 215.13 221.592 240.636 238.395 258.436C255.2 276.237 278.744 286.277 305.686 286.277V285.425ZM383.521 184.634H384.373C384.373 160.048 376.144 140.099 362.792 126.293C349.441 112.488 331.012 104.871 310.708 104.871V105.722V106.574C330.576 106.574 348.555 114.022 361.567 127.477C374.578 140.931 382.669 160.438 382.669 184.634H383.521ZM310.708 105.722V104.871C289.881 104.871 271.448 112.118 258.222 125.708C244.995 139.299 237.042 159.163 237.042 184.275H237.894H238.746C238.746 159.53 246.575 140.118 259.443 126.896C272.311 113.674 290.285 106.574 310.708 106.574V105.722ZM237.894 184.275H237.042C237.042 209.209 244.995 229.249 258.217 243.061C271.439 256.874 289.872 264.397 310.708 264.397V263.545V262.693C290.294 262.693 272.32 255.331 259.448 241.883C246.575 228.435 238.746 208.84 238.746 184.275H237.894ZM310.708 263.545V264.397C331.012 264.397 349.441 256.78 362.792 242.975C376.144 229.168 384.373 209.22 384.373 184.634H383.521H382.669C382.669 208.829 374.578 228.337 361.567 241.79C348.555 255.246 330.576 262.693 310.708 262.693V263.545Z" fill="black" mask="url(#path-12-outside-4_10744_183835)"/>
</g>
<g opacity="0.3">
<mask id="path-14-outside-5_10744_183835" maskUnits="userSpaceOnUse" x="214.404" y="79.3623" width="199" height="204" fill="black">
<rect fill="white" x="214.404" y="79.3623" width="199" height="204"/>
<path d="M215.621 181.082C215.621 119.746 255.436 80.649 309.239 80.649C348.695 80.649 375.596 101.812 386.716 126.561V83.5185H411.824V279.362H386.716V235.961C375.238 261.069 347.977 282.232 308.88 282.232C255.436 282.232 215.621 242.417 215.621 181.082ZM386.716 181.44C386.716 132.659 354.075 102.529 313.902 102.529C272.653 102.529 241.088 131.224 241.088 181.082C241.088 230.581 272.653 260.352 313.902 260.352C354.075 260.352 386.716 230.222 386.716 181.44Z"/>
</mask>
<path d="M386.716 126.561L385.939 126.91L387.567 126.561H386.716ZM386.716 83.5185V82.6667H385.864V83.5185H386.716ZM411.824 83.5185H412.676V82.6667H411.824V83.5185ZM411.824 279.362V280.214H412.676V279.362H411.824ZM386.716 279.362H385.864V280.214H386.716V279.362ZM386.716 235.961H387.567L385.941 235.607L386.716 235.961ZM215.621 181.082H216.473C216.473 150.601 226.363 125.714 242.87 108.453C259.375 91.1936 282.55 81.5008 309.239 81.5008V80.649V79.7972C282.124 79.7972 258.491 89.653 241.638 107.276C224.787 124.897 214.77 150.227 214.77 181.082H215.621ZM309.239 80.649V81.5008C348.364 81.5008 374.958 102.47 385.939 126.91L386.716 126.561L387.493 126.212C376.234 101.153 349.026 79.7972 309.239 79.7972V80.649ZM386.716 126.561H387.567V83.5185H386.716H385.864V126.561H386.716ZM386.716 83.5185V84.3703H411.824V83.5185V82.6667H386.716V83.5185ZM411.824 83.5185H410.972V279.362H411.824H412.676V83.5185H411.824ZM411.824 279.362V278.51H386.716V279.362V280.214H411.824V279.362ZM386.716 279.362H387.567V235.961H386.716H385.864V279.362H386.716ZM386.716 235.961L385.941 235.607C374.602 260.411 347.645 281.38 308.88 281.38V282.232V283.084C348.31 283.084 375.873 261.727 387.49 236.315L386.716 235.961ZM308.88 282.232V281.38C282.377 281.38 259.292 271.512 242.829 254.073C226.363 236.631 216.473 211.563 216.473 181.082H215.621H214.77C214.77 211.936 224.787 237.443 241.59 255.242C258.395 273.044 281.939 283.084 308.88 283.084V282.232ZM386.716 181.44H387.567C387.567 156.854 379.338 136.906 365.986 123.099C352.635 109.294 334.206 101.677 313.902 101.677V102.529V103.381C333.771 103.381 351.749 110.829 364.761 124.284C377.773 137.737 385.864 157.245 385.864 181.44H386.716ZM313.902 102.529V101.677C293.076 101.677 274.643 108.925 261.416 122.515C248.189 136.105 240.236 155.969 240.236 181.082H241.088H241.94C241.94 156.336 249.769 136.924 262.637 123.703C275.505 110.481 293.479 103.381 313.902 103.381V102.529ZM241.088 181.082H240.236C240.236 206.015 248.19 226.055 261.411 239.868C274.634 253.681 293.067 261.204 313.902 261.204V260.352V259.5C293.488 259.5 275.514 252.137 262.642 238.69C249.769 225.242 241.94 205.647 241.94 181.082H241.088ZM313.902 260.352V261.204C334.206 261.204 352.635 253.587 365.986 239.781C379.338 225.975 387.567 206.026 387.567 181.44H386.716H385.864C385.864 205.636 377.773 225.143 364.761 238.597C351.749 252.052 333.771 259.5 313.902 259.5V260.352Z" fill="black" mask="url(#path-14-outside-5_10744_183835)"/>
</g>
<g opacity="0.1">
<mask id="path-16-outside-6_10744_183835" maskUnits="userSpaceOnUse" x="217.599" y="76.168" width="199" height="204" fill="black">
<rect fill="white" x="217.599" y="76.168" width="199" height="204"/>
<path d="M218.816 177.887C218.816 116.552 258.63 77.4547 312.433 77.4547C351.889 77.4547 378.791 98.6173 389.91 123.367V80.3242H415.018V276.168H389.91V232.767C378.432 257.875 351.172 279.037 312.075 279.037C258.63 279.037 218.816 239.223 218.816 177.887ZM389.91 178.246C389.91 129.464 357.269 99.3347 317.096 99.3347C275.847 99.3347 244.283 128.03 244.283 177.887C244.283 227.386 275.847 257.157 317.096 257.157C357.269 257.157 389.91 227.028 389.91 178.246Z"/>
</mask>
<path d="M389.91 123.367L389.133 123.716L390.762 123.367H389.91ZM389.91 80.3242V79.4724H389.058V80.3242H389.91ZM415.018 80.3242H415.87V79.4724H415.018V80.3242ZM415.018 276.168V277.02H415.87V276.168H415.018ZM389.91 276.168H389.058V277.02H389.91V276.168ZM389.91 232.767H390.762L389.135 232.413L389.91 232.767ZM218.816 177.887H219.667C219.667 147.407 229.557 122.52 246.064 105.259C262.569 87.9992 285.745 78.3065 312.433 78.3065V77.4547V76.6029C285.319 76.6029 261.685 86.4586 244.833 104.081C227.981 121.703 217.964 147.032 217.964 177.887H218.816ZM312.433 77.4547V78.3065C351.558 78.3065 378.153 99.2761 389.133 123.716L389.91 123.367L390.687 123.018C379.428 97.9585 352.22 76.6029 312.433 76.6029V77.4547ZM389.91 123.367H390.762V80.3242H389.91H389.058V123.367H389.91ZM389.91 80.3242V81.176H415.018V80.3242V79.4724H389.91V80.3242ZM415.018 80.3242H414.166V276.168H415.018H415.87V80.3242H415.018ZM415.018 276.168V275.316H389.91V276.168V277.02H415.018V276.168ZM389.91 276.168H390.762V232.767H389.91H389.058V276.168H389.91ZM389.91 232.767L389.135 232.413C377.796 257.217 350.839 278.186 312.075 278.186V279.037V279.889C351.504 279.889 379.068 258.533 390.685 233.121L389.91 232.767ZM312.075 279.037V278.186C285.572 278.186 262.486 268.318 246.023 250.879C229.558 233.437 219.667 208.368 219.667 177.887H218.816H217.964C217.964 208.742 227.981 234.248 244.784 252.048C261.589 269.85 285.133 279.889 312.075 279.889V279.037ZM389.91 178.246H390.762C390.762 153.66 382.533 133.712 369.18 119.905C355.829 106.1 337.401 98.4828 317.096 98.4828V99.3347V100.186C336.965 100.186 354.943 107.634 367.956 121.089C380.967 134.543 389.058 154.051 389.058 178.246H389.91ZM317.096 99.3347V98.4828C296.27 98.4828 277.837 105.73 264.611 119.32C251.384 132.911 243.431 152.775 243.431 177.887H244.283H245.134C245.134 153.142 252.964 133.73 265.831 120.508C278.7 107.287 296.673 100.186 317.096 100.186V99.3347ZM244.283 177.887H243.431C243.431 202.821 251.384 222.861 264.606 236.674C277.828 250.487 296.261 258.009 317.096 258.009V257.158V256.306C296.682 256.306 278.709 248.943 265.836 235.496C252.963 222.048 245.134 202.453 245.134 177.887H244.283ZM317.096 257.158V258.009C337.401 258.009 355.829 250.392 369.18 236.587C382.533 222.78 390.762 202.832 390.762 178.246H389.91H389.058C389.058 202.442 380.967 221.949 367.956 235.403C354.943 248.858 336.965 256.306 317.096 256.306V257.158Z" fill="black" mask="url(#path-16-outside-6_10744_183835)"/>
</g>
<g filter="url(#filter0_f_10744_183835)">
<ellipse cx="582.741" cy="679.923" rx="235.691" ry="620.364" transform="rotate(-134.079 582.741 679.923)" fill="url(#paint1_linear_10744_183835)"/>
</g>
<path d="M548.467 437.538H579.336V626H548.467L455.59 485.466V626H424.721V437.538H455.59L548.467 577.801V437.538ZM740.369 551.265C740.369 598.11 705.709 628.437 662.926 628.437C620.414 628.437 588.191 598.11 588.191 551.265C588.191 504.42 621.768 474.364 664.28 474.364C706.792 474.364 740.369 504.42 740.369 551.265ZM619.602 551.265C619.602 585.112 639.639 601.63 662.926 601.63C685.942 601.63 708.688 585.112 708.688 551.265C708.688 517.418 686.755 501.171 663.739 501.171C640.452 501.171 619.602 517.418 619.602 551.265ZM749.222 626V425.624H780.091V626H749.222ZM934.075 476.801V626H903.206V608.129C893.458 620.855 876.67 628.166 859.069 628.166C824.139 628.166 797.603 606.233 797.603 564.533V476.801H828.201V559.93C828.201 587.279 843.093 601.359 865.568 601.359C888.313 601.359 903.206 587.279 903.206 559.93V476.801H934.075ZM1030.31 626L998.091 575.364L967.764 626H935.541L983.74 552.619L935.541 476.801H970.471L1002.69 527.437L1033.02 476.801H1065.24L1017.05 550.453L1065.24 626H1030.31Z" fill="url(#paint2_linear_10744_183835)"/>
</g>
<rect x="0.5" y="0.5" width="1003" height="613" rx="30.5" stroke="#373737"/>
<defs>
<filter id="filter0_f_10744_183835" x="-168.993" y="-60.5252" width="1503.47" height="1480.9" filterUnits="userSpaceOnUse" color-interpolation-filters="sRGB">
<feFlood flood-opacity="0" result="BackgroundImageFix"/>
<feBlend mode="normal" in="SourceGraphic" in2="BackgroundImageFix" result="shape"/>
<feGaussianBlur stdDeviation="138.371" result="effect1_foregroundBlur_10744_183835"/>
</filter>
<linearGradient id="paint0_linear_10744_183835" x1="0" y1="0" x2="428.794" y2="188.412" gradientUnits="userSpaceOnUse">
<stop stop-color="#FCC188"/>
<stop offset="0.650677" stop-color="#7042D2"/>
<stop offset="1" stop-color="#2E008E"/>
</linearGradient>
<linearGradient id="paint1_linear_10744_183835" x1="347.05" y1="59.5596" x2="946.162" y2="124.652" gradientUnits="userSpaceOnUse">
<stop stop-color="#FCC188"/>
<stop offset="0.650677" stop-color="#7042D2"/>
<stop offset="1" stop-color="#2E008E"/>
</linearGradient>
<linearGradient id="paint2_linear_10744_183835" x1="404.186" y1="382" x2="1011.49" y2="768.974" gradientUnits="userSpaceOnUse">
<stop stop-color="#2E008E"/>
<stop offset="0.34375" stop-color="#7042D2"/>
<stop offset="0.497696" stop-color="#FCC188"/>
<stop offset="0.990449" stop-color="#FCC188"/>
</linearGradient>
<clipPath id="clip0_10744_183835">
<rect x="1" y="1" width="1002" height="612" rx="30" fill="white"/>
</clipPath>
</defs>
</svg>
