<svg width="1004" height="614" viewBox="0 0 1004 614" fill="none" xmlns="http://www.w3.org/2000/svg">
<g clip-path="url(#clip0_10747_24442)">
<rect x="1" y="1" width="1002" height="612" rx="30" fill="black"/>
<path d="M43.939 36.7843C43.939 35.9369 43.3007 35.4086 42.3212 35.4086H40.5823V38.116H42.3542C43.3447 38.116 43.939 37.6207 43.939 36.7843ZM43.7409 33.3396C43.7409 32.5802 43.2237 32.0959 42.2442 32.0959H40.5823V34.5832H42.2662C43.2017 34.5832 43.7409 34.121 43.7409 33.3396ZM44.9405 36.8834C44.9405 38.039 44.0271 38.9414 42.4423 38.9414H39.5808V31.2705H42.3322C43.95 31.2705 44.7644 32.151 44.7644 33.2185C44.7644 34.187 44.1591 34.7483 43.4218 34.9904C44.2582 35.1335 44.9405 35.9369 44.9405 36.8834ZM47.4419 35.6618V38.9414H46.4404V32.9104H47.4419V33.8899C47.7831 33.2185 48.4324 32.8003 49.3899 32.8003V33.8348H49.1257C48.1683 33.8348 47.4419 34.264 47.4419 35.6618ZM50.2818 35.9039C50.2818 34.0219 51.5255 32.8113 53.1433 32.8113C54.2659 32.8113 55.0362 33.3836 55.3884 34.0109V32.9104H56.4009V38.9414H55.3884V37.8188C55.0252 38.4682 54.2438 39.0405 53.1323 39.0405C51.5255 39.0405 50.2818 37.7748 50.2818 35.9039ZM55.3884 35.9149C55.3884 34.5172 54.4419 33.6808 53.3414 33.6808C52.2408 33.6808 51.3054 34.4842 51.3054 35.9039C51.3054 37.3236 52.2408 38.16 53.3414 38.16C54.4419 38.16 55.3884 37.3346 55.3884 35.9149ZM62.6167 38.9414V35.5297C62.6167 34.2971 61.9453 33.6697 60.9328 33.6697C59.9093 33.6697 59.2049 34.3081 59.2049 35.6067V38.9414H58.2034V32.9104H59.2049V33.7688C59.6011 33.1415 60.3275 32.8003 61.1419 32.8003C62.5396 32.8003 63.6072 33.6587 63.6072 35.3866V38.9414H62.6167ZM64.979 35.9039C64.979 34.0219 66.2226 32.8113 67.8514 32.8113C68.7979 32.8113 69.6674 33.2956 70.0856 33.9889V30.7973H71.0981V38.9414H70.0856V37.8078C69.7224 38.4792 68.941 39.0405 67.8404 39.0405C66.2226 39.0405 64.979 37.7748 64.979 35.9039ZM70.0856 35.9149C70.0856 34.5172 69.1391 33.6808 68.0385 33.6808C66.938 33.6808 66.0025 34.4842 66.0025 35.9039C66.0025 37.3236 66.938 38.16 68.0385 38.16C69.1391 38.16 70.0856 37.3346 70.0856 35.9149ZM80.0718 31.2595V32.0849H76.9462V34.6492H79.7416V35.4747H76.9462V38.116H80.0718V38.9414H75.9447V31.2595H80.0718ZM81.6973 38.9414V30.7973H82.6988V38.9414H81.6973ZM87.08 33.6587C86.1005 33.6587 85.2861 34.3081 85.1761 35.4857H88.984C88.995 34.3081 88.1146 33.6587 87.08 33.6587ZM89.8975 37.0815C89.5893 38.182 88.6208 39.0405 87.1241 39.0405C85.4072 39.0405 84.1415 37.8298 84.1415 35.9149C84.1415 34.0109 85.3632 32.8113 87.1241 32.8113C88.8739 32.8113 90.0185 34.0439 90.0185 35.6948C90.0185 35.9149 90.0075 36.091 89.9855 36.3001H85.1651C85.2421 37.5217 86.1005 38.193 87.1241 38.193C88.0265 38.193 88.5988 37.7308 88.8189 37.0815H89.8975ZM100.156 38.9414V35.5297C100.156 34.2971 99.4956 33.6697 98.5051 33.6697C97.4926 33.6697 96.7992 34.3191 96.7992 35.6177V38.9414H95.8087V35.5297C95.8087 34.2971 95.1484 33.6697 94.1579 33.6697C93.1454 33.6697 92.452 34.3191 92.452 35.6177V38.9414H91.4505V32.9104H92.452V33.7798C92.8482 33.1415 93.5636 32.8003 94.356 32.8003C95.3465 32.8003 96.1719 33.2405 96.5681 34.143C96.9203 33.2735 97.7787 32.8003 98.7032 32.8003C100.079 32.8003 101.146 33.6587 101.146 35.3866V38.9414H100.156ZM105.464 33.6587C104.484 33.6587 103.67 34.3081 103.56 35.4857H107.368C107.379 34.3081 106.498 33.6587 105.464 33.6587ZM108.281 37.0815C107.973 38.182 107.004 39.0405 105.508 39.0405C103.791 39.0405 102.525 37.8298 102.525 35.9149C102.525 34.0109 103.747 32.8113 105.508 32.8113C107.258 32.8113 108.402 34.0439 108.402 35.6948C108.402 35.9149 108.391 36.091 108.369 36.3001H103.549C103.626 37.5217 104.484 38.193 105.508 38.193C106.41 38.193 106.982 37.7308 107.202 37.0815H108.281ZM114.247 38.9414V35.5297C114.247 34.2971 113.576 33.6697 112.563 33.6697C111.54 33.6697 110.836 34.3081 110.836 35.6067V38.9414H109.834V32.9104H110.836V33.7688C111.232 33.1415 111.958 32.8003 112.773 32.8003C114.17 32.8003 115.238 33.6587 115.238 35.3866V38.9414H114.247ZM117.204 37.2906V33.7358H116.423V32.9104H117.204V31.3916H118.205V32.9104H119.779V33.7358H118.205V37.2906C118.205 37.8849 118.426 38.094 119.042 38.094H119.779V38.9414H118.877C117.809 38.9414 117.204 38.5012 117.204 37.2906ZM125.439 37.3016C125.439 38.2921 124.57 39.0405 123.238 39.0405C121.829 39.0405 120.839 38.2701 120.773 37.1695H121.807C121.862 37.7528 122.379 38.193 123.227 38.193C124.019 38.193 124.459 37.7968 124.459 37.3016C124.459 35.9589 120.894 36.7403 120.894 34.4952C120.894 33.5707 121.763 32.8113 123.106 32.8113C124.437 32.8113 125.318 33.5267 125.384 34.7043H124.382C124.338 34.099 123.876 33.6587 123.073 33.6587C122.335 33.6587 121.895 34.0109 121.895 34.4952C121.895 35.9259 125.395 35.1445 125.439 37.3016Z" fill="white"/>
<path d="M879.614 534.393C879.614 533.546 878.976 533.017 877.996 533.017H876.257V535.725H878.029C879.02 535.725 879.614 535.229 879.614 534.393ZM879.416 530.948C879.416 530.189 878.899 529.705 877.919 529.705H876.257V532.192H877.941C878.877 532.192 879.416 531.73 879.416 530.948ZM880.616 534.492C880.616 535.648 879.702 536.55 878.117 536.55H875.256V528.879H878.007C879.625 528.879 880.44 529.76 880.44 530.827C880.44 531.796 879.834 532.357 879.097 532.599C879.933 532.742 880.616 533.546 880.616 534.492ZM883.117 533.27V536.55H882.115V530.519H883.117V531.498C883.458 530.827 884.107 530.409 885.065 530.409V531.443H884.801C883.843 531.443 883.117 531.873 883.117 533.27ZM885.957 533.513C885.957 531.631 887.201 530.42 888.818 530.42C889.941 530.42 890.711 530.992 891.064 531.62V530.519H892.076V536.55H891.064V535.427C890.7 536.077 889.919 536.649 888.807 536.649C887.201 536.649 885.957 535.383 885.957 533.513ZM891.064 533.524C891.064 532.126 890.117 531.289 889.016 531.289C887.916 531.289 886.98 532.093 886.98 533.513C886.98 534.932 887.916 535.769 889.016 535.769C890.117 535.769 891.064 534.943 891.064 533.524ZM898.292 536.55V533.138C898.292 531.906 897.62 531.278 896.608 531.278C895.584 531.278 894.88 531.917 894.88 533.215V536.55H893.879V530.519H894.88V531.377C895.276 530.75 896.003 530.409 896.817 530.409C898.215 530.409 899.282 531.267 899.282 532.995V536.55H898.292ZM900.654 533.513C900.654 531.631 901.898 530.42 903.527 530.42C904.473 530.42 905.342 530.904 905.761 531.598V528.406H906.773V536.55H905.761V535.416C905.397 536.088 904.616 536.649 903.516 536.649C901.898 536.649 900.654 535.383 900.654 533.513ZM905.761 533.524C905.761 532.126 904.814 531.289 903.714 531.289C902.613 531.289 901.678 532.093 901.678 533.513C901.678 534.932 902.613 535.769 903.714 535.769C904.814 535.769 905.761 534.943 905.761 533.524ZM915.098 528.791C916.715 528.791 918.058 529.628 918.63 531.102H917.431C917.013 530.211 916.176 529.694 915.098 529.694C913.48 529.694 912.269 530.86 912.269 532.709C912.269 534.547 913.48 535.714 915.098 535.714C916.605 535.714 917.64 534.745 917.794 533.226H914.734V532.412H918.861V533.182C918.685 535.086 917.178 536.616 915.098 536.616C912.941 536.616 911.246 535.009 911.246 532.709C911.246 530.409 912.941 528.791 915.098 528.791ZM925.644 530.519V536.55H924.643V535.659C924.258 536.286 923.52 536.638 922.717 536.638C921.33 536.638 920.241 535.78 920.241 534.052V530.519H921.231V533.92C921.231 535.141 921.903 535.769 922.915 535.769C923.95 535.769 924.643 535.13 924.643 533.832V530.519H925.644ZM927.445 536.55V530.519H928.447V536.55H927.445ZM927.963 529.54C927.578 529.54 927.28 529.242 927.28 528.857C927.28 528.472 927.578 528.175 927.963 528.175C928.326 528.175 928.623 528.472 928.623 528.857C928.623 529.242 928.326 529.54 927.963 529.54ZM929.89 533.513C929.89 531.631 931.133 530.42 932.762 530.42C933.709 530.42 934.578 530.904 934.996 531.598V528.406H936.009V536.55H934.996V535.416C934.633 536.088 933.852 536.649 932.751 536.649C931.133 536.649 929.89 535.383 929.89 533.513ZM934.996 533.524C934.996 532.126 934.05 531.289 932.949 531.289C931.849 531.289 930.913 532.093 930.913 533.513C930.913 534.932 931.849 535.769 932.949 535.769C934.05 535.769 934.996 534.943 934.996 533.524ZM940.376 531.267C939.396 531.267 938.582 531.917 938.472 533.094H942.28C942.291 531.917 941.41 531.267 940.376 531.267ZM943.193 534.69C942.885 535.791 941.916 536.649 940.42 536.649C938.703 536.649 937.437 535.438 937.437 533.524C937.437 531.62 938.659 530.42 940.42 530.42C942.17 530.42 943.314 531.653 943.314 533.303C943.314 533.524 943.303 533.7 943.281 533.909H938.461C938.538 535.13 939.396 535.802 940.42 535.802C941.322 535.802 941.894 535.339 942.115 534.69H943.193ZM944.746 536.55V528.406H945.748V536.55H944.746ZM947.565 536.55V530.519H948.566V536.55H947.565ZM948.082 529.54C947.697 529.54 947.4 529.242 947.4 528.857C947.4 528.472 947.697 528.175 948.082 528.175C948.445 528.175 948.742 528.472 948.742 528.857C948.742 529.242 948.445 529.54 948.082 529.54ZM954.796 536.55V533.138C954.796 531.906 954.125 531.278 953.112 531.278C952.089 531.278 951.385 531.917 951.385 533.215V536.55H950.383V530.519H951.385V531.377C951.781 530.75 952.507 530.409 953.322 530.409C954.719 530.409 955.787 531.267 955.787 532.995V536.55H954.796ZM960.097 531.267C959.118 531.267 958.303 531.917 958.193 533.094H962.001C962.012 531.917 961.132 531.267 960.097 531.267ZM962.915 534.69C962.606 535.791 961.638 536.649 960.141 536.649C958.424 536.649 957.159 535.438 957.159 533.524C957.159 531.62 958.38 530.42 960.141 530.42C961.891 530.42 963.036 531.653 963.036 533.303C963.036 533.524 963.025 533.7 963.003 533.909H958.182C958.259 535.13 959.118 535.802 960.141 535.802C961.044 535.802 961.616 535.339 961.836 534.69H962.915ZM968.804 534.91C968.804 535.901 967.934 536.649 966.603 536.649C965.194 536.649 964.203 535.879 964.137 534.778H965.172C965.227 535.361 965.744 535.802 966.592 535.802C967.384 535.802 967.824 535.405 967.824 534.91C967.824 533.568 964.258 534.349 964.258 532.104C964.258 531.179 965.128 530.42 966.471 530.42C967.802 530.42 968.683 531.135 968.749 532.313H967.747C967.703 531.708 967.241 531.267 966.438 531.267C965.7 531.267 965.26 531.62 965.26 532.104C965.26 533.535 968.76 532.753 968.804 534.91Z" fill="white"/>
<path d="M39.4157 532.489C39.4157 530.211 39.988 528.472 42.1891 528.472C44.3792 528.472 44.9515 530.211 44.9515 532.489C44.9515 534.8 44.3792 536.55 42.1891 536.55C39.988 536.55 39.4157 534.8 39.4157 532.489ZM43.961 532.489C43.961 530.838 43.7519 529.385 42.1891 529.385C40.6153 529.385 40.4062 530.838 40.4062 532.489C40.4062 534.206 40.6153 535.637 42.1891 535.637C43.7519 535.637 43.961 534.206 43.961 532.489ZM51.7962 530.486H50.8718C50.7177 529.716 50.2664 529.264 49.364 529.264C48.0984 529.264 47.416 530.134 47.427 532.5C47.7682 531.719 48.6376 531.278 49.5841 531.278C51.0699 531.278 52.0714 532.258 52.0714 533.931C52.0714 535.383 51.2129 536.572 49.474 536.572C47.1189 536.572 46.5576 534.877 46.5576 532.467C46.5576 529.969 47.361 528.428 49.375 528.428C50.8938 528.428 51.6642 529.374 51.7962 530.486ZM49.375 532.126C48.4615 532.126 47.5481 532.665 47.5481 533.854C47.5481 534.91 48.1644 535.736 49.419 535.736C50.4535 535.736 51.1029 535.042 51.1029 533.964C51.1029 532.841 50.5196 532.126 49.375 532.126Z" fill="white"/>
<path opacity="0.16" d="M1 56.0273H1007.22" stroke="white" stroke-width="0.786111"/>
<path opacity="0.16" d="M1 511.973H1007.22" stroke="white" stroke-width="0.786111"/>
<path d="M64.8509 126.364V124.798C68.0959 121.949 71.5108 119.459 71.5108 116.761C71.5108 115.327 70.8882 114.346 69.2845 114.346C67.7752 114.346 66.9639 115.403 66.9073 116.95H64.832C64.9075 113.969 66.8319 112.516 69.2657 112.516C72.0579 112.516 73.6427 114.195 73.6427 116.667C73.6427 120.006 70.2467 122.553 68.0393 124.572H74.0201V126.364H64.8509ZM78.4188 125.308C78.4188 126.081 77.8151 126.685 77.0604 126.685C76.2869 126.685 75.6831 126.081 75.6831 125.308C75.6831 124.534 76.2869 123.93 77.0604 123.93C77.8151 123.93 78.4188 124.534 78.4188 125.308ZM80.2906 126.364V124.798C83.5357 121.949 86.9505 119.459 86.9505 116.761C86.9505 115.327 86.3279 114.346 84.7243 114.346C83.2149 114.346 82.4037 115.403 82.3471 116.95H80.2717C80.3472 113.969 82.2716 112.516 84.7054 112.516C87.4977 112.516 89.0825 114.195 89.0825 116.667C89.0825 120.006 85.6865 122.553 83.4791 124.572H89.4598V126.364H80.2906ZM96.5332 113.44H98.684V124.817H103.118V126.553H96.5332V113.44ZM114.821 121.346C114.821 124.609 112.406 126.723 109.425 126.723C106.463 126.723 104.218 124.609 104.218 121.346C104.218 118.082 106.558 115.987 109.52 115.987C112.482 115.987 114.821 118.082 114.821 121.346ZM106.407 121.346C106.407 123.704 107.803 124.855 109.425 124.855C111.029 124.855 112.614 123.704 112.614 121.346C112.614 118.987 111.086 117.855 109.482 117.855C107.86 117.855 106.407 118.987 106.407 121.346ZM116.231 121.308C116.231 118.1 118.4 115.987 121.136 115.987C122.834 115.987 124.098 116.78 124.739 117.667V116.157H126.909V126.723C126.909 129.553 125.079 131.684 121.834 131.684C119.061 131.684 117.004 130.307 116.74 128.005H118.872C119.193 129.081 120.343 129.817 121.834 129.817C123.494 129.817 124.739 128.798 124.739 126.723V124.987C124.079 125.874 122.834 126.723 121.136 126.723C118.4 126.723 116.231 124.515 116.231 121.308ZM124.739 121.346C124.739 119.119 123.211 117.855 121.589 117.855C119.985 117.855 118.438 119.063 118.438 121.308C118.438 123.553 119.985 124.855 121.589 124.855C123.211 124.855 124.739 123.591 124.739 121.346ZM139.639 121.346C139.639 124.609 137.224 126.723 134.243 126.723C131.281 126.723 129.036 124.609 129.036 121.346C129.036 118.082 131.375 115.987 134.338 115.987C137.3 115.987 139.639 118.082 139.639 121.346ZM131.225 121.346C131.225 123.704 132.621 124.855 134.243 124.855C135.847 124.855 137.432 123.704 137.432 121.346C137.432 118.987 135.903 117.855 134.3 117.855C132.677 117.855 131.225 118.987 131.225 121.346ZM145.949 121.346C145.949 118.1 148.062 115.987 151.043 115.987C153.59 115.987 155.251 117.251 155.835 119.44H153.515C153.156 118.44 152.326 117.799 151.043 117.799C149.308 117.799 148.157 119.082 148.157 121.346C148.157 123.628 149.308 124.911 151.043 124.911C152.326 124.911 153.119 124.345 153.515 123.27H155.835C155.251 125.308 153.59 126.723 151.043 126.723C148.062 126.723 145.949 124.609 145.949 121.346ZM167.884 121.346C167.884 124.609 165.469 126.723 162.488 126.723C159.526 126.723 157.281 124.609 157.281 121.346C157.281 118.082 159.62 115.987 162.582 115.987C165.544 115.987 167.884 118.082 167.884 121.346ZM159.469 121.346C159.469 123.704 160.865 124.855 162.488 124.855C164.092 124.855 165.676 123.704 165.676 121.346C165.676 118.987 164.148 117.855 162.545 117.855C160.922 117.855 159.469 118.987 159.469 121.346ZM177.387 126.553V120.742C177.387 118.836 176.349 117.855 174.783 117.855C173.198 117.855 172.161 118.836 172.161 120.742V126.553H170.01V116.157H172.161V117.346C172.859 116.497 174.01 115.987 175.255 115.987C177.689 115.987 179.519 117.516 179.519 120.421V126.553H177.387ZM190.016 123.647C190.016 125.402 188.488 126.723 186.036 126.723C183.545 126.723 181.791 125.251 181.696 123.364H183.923C183.998 124.213 184.809 124.911 185.998 124.911C187.243 124.911 187.903 124.383 187.903 123.666C187.903 121.629 181.866 122.798 181.866 118.987C181.866 117.327 183.413 115.987 185.866 115.987C188.224 115.987 189.771 117.251 189.884 119.327H187.734C187.658 118.421 186.96 117.799 185.79 117.799C184.639 117.799 184.036 118.27 184.036 118.968C184.036 121.063 189.903 119.893 190.016 123.647ZM192.68 123.666V117.912H191.454V116.157H192.68V113.572H194.85V116.157H197.378V117.912H194.85V123.666C194.85 124.44 195.152 124.76 196.057 124.76H197.378V126.553H195.68C193.831 126.553 192.68 125.779 192.68 123.666ZM201.511 121.081V126.553H199.36V116.157H201.511V117.667C202.115 116.629 203.152 115.987 204.624 115.987V118.214H204.077C202.492 118.214 201.511 118.874 201.511 121.081ZM216.015 116.157V126.553H213.865V125.308C213.185 126.194 212.016 126.704 210.789 126.704C208.356 126.704 206.507 125.175 206.507 122.27V116.157H208.639V121.949C208.639 123.855 209.676 124.836 211.242 124.836C212.827 124.836 213.865 123.855 213.865 121.949V116.157H216.015ZM218.136 121.346C218.136 118.1 220.249 115.987 223.23 115.987C225.777 115.987 227.438 117.251 228.022 119.44H225.702C225.343 118.44 224.513 117.799 223.23 117.799C221.495 117.799 220.344 119.082 220.344 121.346C220.344 123.628 221.495 124.911 223.23 124.911C224.513 124.911 225.306 124.345 225.702 123.27H228.022C227.438 125.308 225.777 126.723 223.23 126.723C220.249 126.723 218.136 124.609 218.136 121.346ZM230.506 123.666V117.912H229.279V116.157H230.506V113.572H232.675V116.157H235.203V117.912H232.675V123.666C232.675 124.44 232.977 124.76 233.883 124.76H235.203V126.553H233.505C231.656 126.553 230.506 125.779 230.506 123.666ZM237.186 126.553V116.157H239.336V126.553H237.186ZM238.28 114.78C237.506 114.78 236.903 114.176 236.903 113.403C236.903 112.629 237.506 112.025 238.28 112.025C239.035 112.025 239.638 112.629 239.638 113.403C239.638 114.176 239.035 114.78 238.28 114.78ZM252.065 121.346C252.065 124.609 249.65 126.723 246.669 126.723C243.707 126.723 241.462 124.609 241.462 121.346C241.462 118.082 243.802 115.987 246.764 115.987C249.726 115.987 252.065 118.082 252.065 121.346ZM243.651 121.346C243.651 123.704 245.047 124.855 246.669 124.855C248.273 124.855 249.858 123.704 249.858 121.346C249.858 118.987 248.33 117.855 246.726 117.855C245.103 117.855 243.651 118.987 243.651 121.346ZM261.568 126.553V120.742C261.568 118.836 260.531 117.855 258.965 117.855C257.38 117.855 256.342 118.836 256.342 120.742V126.553H254.191V116.157H256.342V117.346C257.04 116.497 258.191 115.987 259.436 115.987C261.87 115.987 263.7 117.516 263.7 120.421V126.553H261.568Z" fill="white"/>
<path d="M324.878 56.0273L324.878 183.377" stroke="#302F30" stroke-width="0.786111"/>
<path d="M1007.22 183.378L1.00043 183.378" stroke="#302F30" stroke-width="0.786111"/>
<g clip-path="url(#clip1_10747_24442)">
<path d="M415.074 317.11L397.854 378.511H383.342L371.823 334.837L359.763 378.511H345.351L328.809 317.11H342.002L352.827 364.776L365.311 317.11H379.028L390.869 364.472L401.779 317.11H415.074Z" fill="#4D4D4D"/>
<path d="M435.676 375.076C430.928 372.43 426.979 368.557 424.242 363.862C421.382 358.934 419.92 353.32 420.013 347.624C419.923 341.949 421.385 336.357 424.242 331.453C426.979 326.758 430.928 322.885 435.676 320.239C440.537 317.586 445.987 316.195 451.525 316.195C457.063 316.195 462.513 317.586 467.374 320.239C472.101 322.883 476.023 326.758 478.724 331.453C481.543 336.358 482.986 341.933 482.902 347.59C482.995 353.28 481.552 358.89 478.724 363.828C476.015 368.528 472.08 372.404 467.34 375.042C462.485 377.695 457.041 379.086 451.508 379.086C445.975 379.086 440.531 377.695 435.676 375.042V375.076ZM461.268 365.621C464.104 363.936 466.394 361.469 467.865 358.517C469.513 355.15 470.331 351.438 470.25 347.691C470.333 343.96 469.514 340.264 467.865 336.917C466.414 333.937 464.12 331.449 461.268 329.762C458.295 328.077 454.924 327.224 451.508 327.292C448.076 327.226 444.689 328.078 441.698 329.762C438.839 331.419 436.528 333.876 435.05 336.832C433.414 340.184 432.602 343.878 432.682 347.607C432.604 351.352 433.416 355.062 435.05 358.432C436.524 361.417 438.833 363.908 441.698 365.604C444.68 367.313 448.071 368.178 451.508 368.107C454.928 368.186 458.303 367.326 461.268 365.621Z" fill="#4D4D4D"/>
<path d="M504.367 368.667H524.664V378.443H492.053V317.11H504.367V368.667Z" fill="#4D4D4D"/>
<path d="M544.742 368.667H565.039V378.443H532.428V317.11H544.742V368.667Z" fill="#4D4D4D"/>
<path d="M585.456 375.076C580.73 372.418 576.801 368.547 574.072 363.862C571.226 358.929 569.77 353.317 569.86 347.623C569.773 341.951 571.228 336.362 574.072 331.453C576.814 326.761 580.763 322.889 585.506 320.239C590.371 317.586 595.823 316.195 601.364 316.195C606.905 316.195 612.357 317.586 617.222 320.239C621.926 322.895 625.829 326.768 628.521 331.453C631.333 336.361 632.775 341.934 632.699 347.59C632.784 353.279 631.341 358.886 628.521 363.828C625.806 368.529 621.865 372.405 617.12 375.042C612.265 377.695 606.821 379.086 601.288 379.086C595.755 379.086 590.311 377.695 585.456 375.042V375.076ZM611.065 365.621C613.906 363.913 616.196 361.423 617.661 358.449C619.296 355.078 620.107 351.368 620.029 347.623C620.11 343.895 619.298 340.2 617.661 336.849C616.196 333.897 613.904 331.435 611.065 329.762C608.058 328.14 604.695 327.292 601.279 327.292C597.864 327.292 594.501 328.14 591.494 329.762C588.631 331.413 586.319 333.872 584.847 336.832C583.202 340.181 582.39 343.877 582.479 347.607C582.392 351.352 583.204 355.064 584.847 358.432C586.316 361.42 588.626 363.913 591.494 365.604C594.492 367.253 597.858 368.118 601.279 368.118C604.701 368.118 608.067 367.253 611.065 365.604V365.621Z" fill="#4D4D4D"/>
<path d="M679.754 317.11V327.056H654.163V342.787H673.767V352.564H654.163V378.511H641.849V317.11H679.754Z" fill="#4D4D4D"/>
</g>
<line x1="281.642" y1="316.624" x2="564.642" y2="316.624" stroke="#F0DB2A" stroke-width="0.786111" stroke-dasharray="4.49 2.24"/>
<line x1="636.964" y1="316.624" x2="727.367" y2="316.624" stroke="#F0DB2A" stroke-width="0.786111" stroke-dasharray="4.49 2.24"/>
<line x1="679.807" y1="269.063" x2="679.807" y2="426.286" stroke="#F0DB2A" stroke-width="0.786111" stroke-dasharray="4.49 2.24"/>
<line x1="642.074" y1="269.063" x2="642.074" y2="426.286" stroke="#F0DB2A" stroke-width="0.786111" stroke-dasharray="4.49 2.24"/>
<line x1="654.651" y1="269.063" x2="654.651" y2="426.286" stroke="#F0DB2A" stroke-width="0.786111" stroke-dasharray="4.49 2.24"/>
<line x1="532.018" y1="269.063" x2="532.018" y2="426.286" stroke="#F0DB2A" stroke-width="0.786111" stroke-dasharray="4.49 2.24"/>
<line x1="491.926" y1="269.063" x2="491.926" y2="426.286" stroke="#F0DB2A" stroke-width="0.786111" stroke-dasharray="4.49 2.24"/>
<line x1="504.504" y1="269.063" x2="504.504" y2="426.286" stroke="#F0DB2A" stroke-width="0.786111" stroke-dasharray="4.49 2.24"/>
<line x1="544.596" y1="269.063" x2="544.596" y2="426.286" stroke="#F0DB2A" stroke-width="0.786111" stroke-dasharray="4.49 2.24"/>
<line x1="329.202" y1="269.063" x2="329.202" y2="426.286" stroke="#F0DB2A" stroke-width="0.786111" stroke-dasharray="4.49 2.24"/>
<line x1="426.724" y1="271.844" x2="386.032" y2="423.709" stroke="#F0DB2A" stroke-width="0.786111" stroke-dasharray="4.49 2.24"/>
<line y1="-0.393056" x2="157.222" y2="-0.393056" transform="matrix(0.258819 0.965926 0.965926 -0.258819 317.017 271.742)" stroke="#F0DB2A" stroke-width="0.786111" stroke-dasharray="4.49 2.24"/>
<line x1="486.816" y1="378.726" x2="727.366" y2="378.726" stroke="#F0DB2A" stroke-width="0.786111" stroke-dasharray="4.49 2.24"/>
<line x1="281.642" y1="378.726" x2="412.922" y2="378.726" stroke="#F0DB2A" stroke-width="0.786111" stroke-dasharray="4.49 2.24"/>
<path d="M452.489 316.231V316.623H453.8C454.542 316.623 455.278 316.651 456.007 316.705L456.035 316.313C456.782 316.368 457.521 316.452 458.251 316.561L458.194 316.949C459.666 317.169 461.102 317.497 462.493 317.926L462.607 317.551C463.322 317.771 464.025 318.017 464.715 318.288L464.572 318.653C465.949 319.194 467.276 319.836 468.543 320.569L468.738 320.23C469.384 320.603 470.013 321 470.627 321.419L470.406 321.742C471.623 322.574 472.775 323.494 473.852 324.493L474.117 324.206C474.663 324.712 475.189 325.239 475.695 325.784L475.409 326.051C476.409 327.128 477.329 328.28 478.16 329.497L478.483 329.275C478.902 329.888 479.299 330.518 479.672 331.163L479.333 331.36C480.066 332.627 480.708 333.953 481.249 335.33L481.613 335.187C481.884 335.877 482.13 336.58 482.351 337.294H482.352L481.977 337.409C482.405 338.801 482.734 340.237 482.954 341.708L483.341 341.651C483.45 342.381 483.534 343.12 483.589 343.867L483.197 343.896C483.251 344.624 483.279 345.36 483.279 346.103V348.305H483.672V350.504H483.279V354.908H483.672V357.108H483.279V361.512H483.672V363.71H483.279V368.115H483.672V370.314H483.279V374.719H483.672V376.917H483.279V378.727H481.312V379.119H478.957V378.727H474.237V379.119H471.882V378.727H467.162V379.119H464.807V378.727H460.087V379.119H457.731V378.727H453.013V379.119H450.657V378.727H445.938V379.119H443.582V378.727H438.862V379.119H436.507V378.727H431.787V379.119H429.432V378.727H424.712V379.119H422.356V378.727H420.39V376.917H419.997V374.719H420.39V370.314H419.997V368.115H420.39V363.71H419.997V361.512H420.39V357.108H419.997V354.908H420.39V350.504H419.997V348.305H420.39V346.103C420.39 345.36 420.418 344.624 420.472 343.896L420.079 343.867C420.134 343.12 420.218 342.381 420.327 341.651L420.716 341.708C420.936 340.237 421.264 338.801 421.692 337.409L421.317 337.294C421.537 336.58 421.784 335.877 422.055 335.187L422.42 335.33C422.961 333.953 423.603 332.627 424.336 331.36L423.996 331.163C424.369 330.518 424.766 329.888 425.186 329.275L425.509 329.496C426.34 328.279 427.26 327.128 428.26 326.051L427.974 325.785C428.48 325.24 429.006 324.713 429.552 324.207L429.817 324.493C430.894 323.494 432.047 322.574 433.264 321.742L433.042 321.418C433.655 320.999 434.285 320.603 434.93 320.23L435.127 320.569C436.394 319.836 437.72 319.194 439.097 318.653L438.953 318.288C439.643 318.017 440.346 317.771 441.061 317.551L441.176 317.926C442.567 317.497 444.003 317.169 445.475 316.949L445.417 316.561C446.148 316.451 446.887 316.368 447.634 316.313L447.662 316.705C448.391 316.651 449.127 316.623 449.869 316.623H451.181V316.231H452.489Z" stroke="#F0DB2A" stroke-width="0.786111" stroke-dasharray="4.49 2.24"/>
<path d="M601.851 379.119V378.727H603.161C603.904 378.727 604.64 378.698 605.368 378.645L605.396 379.037C606.143 378.982 606.882 378.898 607.612 378.789L607.556 378.4C609.027 378.181 610.463 377.853 611.854 377.424L611.969 377.799C612.683 377.579 613.386 377.333 614.076 377.062L613.934 376.696C615.311 376.155 616.637 375.513 617.904 374.78L618.1 375.12C618.745 374.747 619.375 374.35 619.988 373.931L619.768 373.607C620.985 372.776 622.136 371.856 623.213 370.856L623.479 371.144C624.024 370.637 624.55 370.111 625.057 369.565L624.771 369.299C625.77 368.222 626.69 367.07 627.521 365.853L627.845 366.075C628.264 365.462 628.66 364.832 629.033 364.187L628.694 363.989C629.427 362.722 630.07 361.396 630.61 360.02L630.975 360.163C631.246 359.473 631.492 358.77 631.712 358.056H631.713L631.338 357.94C631.767 356.549 632.096 355.113 632.315 353.642L632.702 353.699C632.811 352.969 632.895 352.229 632.95 351.482L632.559 351.454C632.612 350.726 632.641 349.989 632.641 349.247V347.045H633.033V344.846H632.641V340.441H633.033V338.242H632.641V333.838H633.033V331.64H632.641V327.234H633.033V325.036H632.641V320.631H633.033V318.433H632.641V316.623H630.674V316.23H628.318V316.623H623.599V316.23H621.243V316.623H616.523V316.23H614.168V316.623H609.448V316.23H607.093V316.623H602.374V316.23H600.019V316.623H595.299V316.23H592.943V316.623H588.224V316.23H585.868V316.623H581.148V316.23H578.793V316.623H574.073V316.23H571.718V316.623H569.751V318.433H569.358V320.631H569.751V325.036H569.358V327.234H569.751V331.64H569.358V333.838H569.751V338.242H569.358V340.441H569.751V344.846H569.358V347.045H569.751V349.247C569.751 349.989 569.779 350.726 569.833 351.454L569.44 351.482C569.496 352.229 569.579 352.969 569.688 353.699L570.077 353.642C570.297 355.113 570.625 356.549 571.054 357.94L570.679 358.056C570.899 358.77 571.145 359.473 571.416 360.163L571.781 360.02C572.322 361.396 572.964 362.722 573.697 363.989L573.357 364.187C573.731 364.832 574.128 365.462 574.547 366.075L574.87 365.854C575.701 367.071 576.621 368.222 577.621 369.299L577.335 369.564C577.841 370.11 578.368 370.636 578.913 371.143L579.179 370.856C580.256 371.856 581.408 372.776 582.625 373.607L582.403 373.932C583.017 374.35 583.646 374.747 584.291 375.12L584.488 374.78C585.755 375.513 587.081 376.155 588.458 376.696L588.314 377.062C589.005 377.333 589.708 377.579 590.422 377.799L590.537 377.424C591.929 377.853 593.365 378.181 594.836 378.4L594.778 378.789C595.509 378.898 596.248 378.982 596.995 379.037L597.023 378.645C597.752 378.698 598.488 378.727 599.23 378.727H600.542V379.119H601.851Z" stroke="#F0DB2A" stroke-width="0.786111" stroke-dasharray="4.49 2.24"/>
<g clip-path="url(#clip2_10747_24442)">
<path d="M926.717 28.6547L923.957 38.4971H921.63L919.784 31.4962L917.851 38.4971H915.54L912.889 28.6547H915.004L916.739 36.2954L918.74 28.6547H920.939L922.837 36.2466L924.586 28.6547H926.717Z" fill="white"/>
<path d="M930.019 37.9465C929.258 37.5223 928.625 36.9014 928.186 36.1488C927.728 35.3589 927.494 34.459 927.508 33.5458C927.494 32.6362 927.728 31.7398 928.186 30.9537C928.625 30.2011 929.258 29.5802 930.019 29.1561C930.799 28.7308 931.672 28.5079 932.56 28.5079C933.448 28.5079 934.321 28.7308 935.1 29.1561C935.858 29.5799 936.487 30.2011 936.92 30.9537C937.372 31.74 937.603 32.6336 937.59 33.5404C937.604 34.4525 937.373 35.3518 936.92 36.1434C936.486 36.8968 935.855 37.5181 935.095 37.941C934.317 38.3663 933.444 38.5892 932.557 38.5892C931.67 38.5892 930.798 38.3663 930.019 37.941V37.9465ZM934.122 36.4308C934.576 36.1607 934.943 35.7653 935.179 35.292C935.443 34.7524 935.574 34.1574 935.561 33.5567C935.575 32.9586 935.444 32.3661 935.179 31.8295C934.947 31.3519 934.579 30.953 934.122 30.6826C933.645 30.4126 933.105 30.2758 932.557 30.2867C932.007 30.2761 931.464 30.4128 930.985 30.6826C930.526 30.9482 930.156 31.3422 929.919 31.816C929.657 32.3532 929.526 32.9454 929.539 33.5431C929.527 34.1434 929.657 34.7382 929.919 35.2784C930.155 35.7568 930.525 36.1563 930.985 36.4281C931.463 36.702 932.006 36.8408 932.557 36.8294C933.105 36.842 933.646 36.7042 934.122 36.4308Z" fill="white"/>
<path d="M941.031 36.9191H944.284V38.4862H939.057V28.6547H941.031V36.9191Z" fill="white"/>
<path d="M947.502 36.9191H950.756V38.4862H945.528V28.6547H947.502V36.9191Z" fill="white"/>
<path d="M954.029 37.9465C953.271 37.5204 952.641 36.8998 952.204 36.1488C951.748 35.3581 951.515 34.4586 951.529 33.5458C951.515 32.6366 951.748 31.7406 952.204 30.9537C952.644 30.2017 953.277 29.581 954.037 29.156C954.817 28.7308 955.691 28.5079 956.579 28.5079C957.467 28.5079 958.341 28.7308 959.121 29.156C959.875 29.5818 960.501 30.2028 960.932 30.9537C961.383 31.7405 961.614 32.6338 961.602 33.5404C961.615 34.4523 961.384 35.3512 960.932 36.1434C960.497 36.8969 959.865 37.5183 959.105 37.941C958.326 38.3663 957.454 38.5892 956.567 38.5892C955.68 38.5892 954.807 38.3663 954.029 37.941V37.9465ZM958.134 36.4308C958.589 36.157 958.957 35.7579 959.191 35.2811C959.453 34.7409 959.583 34.1461 959.571 33.5458C959.584 32.9481 959.454 32.3559 959.191 31.8187C958.957 31.3455 958.589 30.9508 958.134 30.6826C957.652 30.4227 957.113 30.2867 956.565 30.2867C956.018 30.2867 955.479 30.4227 954.997 30.6826C954.538 30.9473 954.167 31.3415 953.931 31.8159C953.668 32.3527 953.537 32.9452 953.552 33.5431C953.538 34.1436 953.668 34.7386 953.931 35.2784C954.167 35.7574 954.537 36.157 954.997 36.4281C955.477 36.6925 956.017 36.8311 956.565 36.8311C957.114 36.8311 957.653 36.6925 958.134 36.4281V36.4308Z" fill="white"/>
<path d="M969.145 28.6547V30.249H965.042V32.7706H968.185V34.3378H965.042V38.4971H963.068V28.6547H969.145Z" fill="white"/>
</g>
</g>
<rect x="0.5" y="0.5" width="1003" height="613" rx="30.5" stroke="#373737"/>
<defs>
<clipPath id="clip0_10747_24442">
<rect x="1" y="1" width="1002" height="612" rx="30" fill="white"/>
</clipPath>
<clipPath id="clip1_10747_24442">
<rect width="350.946" height="62.8889" fill="white" transform="translate(328.809 316.231)"/>
</clipPath>
<clipPath id="clip2_10747_24442">
<rect width="56.2564" height="10.081" fill="white" transform="translate(912.889 28.5139)"/>
</clipPath>
</defs>
</svg>
