<svg width="1004" height="614" viewBox="0 0 1004 614" fill="none" xmlns="http://www.w3.org/2000/svg">
<rect x="0.5" y="0.5" width="1003" height="613" rx="30.5" fill="black"/>
<rect x="0.5" y="0.5" width="1003" height="613" rx="30.5" stroke="#373737"/>
<rect x="45" y="318.312" width="915" height="194.438" rx="9.15" fill="#16171F"/>
<rect x="513.938" y="101" width="446.062" height="194.438" rx="9.15" fill="#16171F"/>
<rect x="45" y="101" width="446.062" height="194.438" rx="9.15" fill="#16171F"/>
<rect x="884.798" y="153.898" width="88.0687" height="26.8781" transform="rotate(90 884.798 153.898)" fill="#333338" stroke="white" stroke-width="0.571875"/>
<path d="M615.731 197.495H643.147V224.787H615.731V197.495Z" fill="white"/>
<path d="M697.216 224.787C693.56 182.03 659.647 171.34 643.147 171.34V197.495C662.642 198.102 669.293 215.942 670.181 224.787H697.216Z" fill="white"/>
<path d="M738.892 182.3H745.851V224.788H738.892L717.953 193.105V224.788H710.994V182.3H717.953L738.892 213.922V182.3Z" fill="white"/>
<path d="M782.765 207.939C782.765 218.5 774.952 225.337 765.306 225.337C755.722 225.337 748.458 218.5 748.458 207.939C748.458 197.378 756.028 190.602 765.612 190.602C775.196 190.602 782.765 197.378 782.765 207.939ZM755.539 207.939C755.539 215.57 760.057 219.294 765.306 219.294C770.495 219.294 775.623 215.57 775.623 207.939C775.623 200.308 770.678 196.646 765.49 196.646C760.24 196.646 755.539 200.308 755.539 207.939Z" fill="white"/>
<path d="M785.372 224.788V179.614H792.331V224.788H785.372Z" fill="white"/>
<path d="M827.656 191.152V224.788H820.697V220.759C818.499 223.628 814.715 225.276 810.747 225.276C802.872 225.276 796.889 220.331 796.889 210.93V191.152H803.787V209.893C803.787 216.058 807.145 219.232 812.212 219.232C817.34 219.232 820.697 216.058 820.697 209.893V191.152H827.656Z" fill="white"/>
<path d="M849.963 224.788L842.699 213.372L835.862 224.788H828.597L839.463 208.244L828.597 191.152H836.472L843.736 202.567L850.574 191.152H857.838L846.972 207.756L857.838 224.788H849.963Z" fill="white"/>
<rect x="615.445" y="144.177" width="242.475" height="26.8781" fill="#333338" stroke="white" stroke-width="0.571875"/>
<rect x="598.289" y="224.811" width="259.631" height="26.8781" fill="#333338" stroke="white" stroke-width="0.571875"/>
<rect x="615.446" y="144.177" width="97.7906" height="26.8781" transform="rotate(90 615.446 144.177)" fill="#333338" stroke="white" stroke-width="0.571875"/>
<rect x="588.567" y="144.177" width="26.8781" height="26.8781" fill="#333338" stroke="white" stroke-width="0.571875"/>
<rect x="857.921" y="144.177" width="26.8781" height="26.8781" fill="#333338" stroke="white" stroke-width="0.571875"/>
<rect x="588.567" y="224.811" width="26.8781" height="26.8781" fill="#333338" stroke="white" stroke-width="0.571875"/>
<rect x="857.921" y="224.811" width="26.8781" height="26.8781" fill="#333338" stroke="white" stroke-width="0.571875"/>
<path d="M595.904 236.668C595.904 237.028 595.626 237.306 595.286 237.306C594.926 237.306 594.648 237.028 594.648 236.668C594.648 236.307 594.926 236.029 595.286 236.029C595.626 236.029 595.904 236.307 595.904 236.668ZM598.292 229.791H602.77V230.615H599.156V232.962C599.465 232.54 600.124 232.21 600.855 232.21C602.667 232.21 603.243 233.518 603.243 234.671C603.243 236.112 602.44 237.265 600.7 237.265C599.218 237.265 598.323 236.431 598.137 235.227H599.053C599.228 236.009 599.836 236.472 600.711 236.472C601.843 236.472 602.347 235.71 602.347 234.691C602.347 233.631 601.802 233.013 600.721 233.013C599.97 233.013 599.424 233.405 599.177 233.991H598.292V229.791ZM608.616 237.244L607.277 235.144L605.991 237.244H605.013L606.835 234.444L605.013 231.603H606.073L607.411 233.693L608.688 231.603H609.666L607.854 234.393L609.676 237.244H608.616Z" fill="white"/>
<rect x="594" y="243.969" width="16.0125" height="0.571875" fill="white"/>
<rect x="594" y="246.256" width="4.00313" height="0.571875" transform="rotate(-90 594 246.256)" fill="white"/>
<rect x="609.44" y="246.256" width="4.00313" height="0.571875" transform="rotate(-90 609.44 246.256)" fill="white"/>
<path d="M865.258 236.668C865.258 237.028 864.98 237.306 864.64 237.306C864.28 237.306 864.002 237.028 864.002 236.668C864.002 236.307 864.28 236.029 864.64 236.029C864.98 236.029 865.258 236.307 865.258 236.668ZM867.645 229.791H872.123V230.615H868.51V232.962C868.819 232.54 869.478 232.21 870.208 232.21C872.02 232.21 872.597 233.518 872.597 234.671C872.597 236.112 871.794 237.265 870.054 237.265C868.572 237.265 867.676 236.431 867.491 235.227H868.407C868.582 236.009 869.189 236.472 870.064 236.472C871.197 236.472 871.701 235.71 871.701 234.691C871.701 233.631 871.155 233.013 870.075 233.013C869.323 233.013 868.778 233.405 868.531 233.991H867.645V229.791ZM877.969 237.244L876.631 235.144L875.344 237.244H874.366L876.188 234.444L874.366 231.603H875.427L876.765 233.693L878.041 231.603H879.019L877.207 234.393L879.029 237.244H877.969Z" fill="white"/>
<rect x="863.354" y="243.969" width="16.0125" height="0.571875" fill="white"/>
<rect x="863.354" y="246.256" width="4.00313" height="0.571875" transform="rotate(-90 863.354 246.256)" fill="white"/>
<rect x="878.794" y="246.256" width="4.00313" height="0.571875" transform="rotate(-90 878.794 246.256)" fill="white"/>
<path d="M595.904 156.033C595.904 156.393 595.626 156.671 595.286 156.671C594.926 156.671 594.648 156.393 594.648 156.033C594.648 155.673 594.926 155.395 595.286 155.395C595.626 155.395 595.904 155.673 595.904 156.033ZM598.292 149.157H602.77V149.98H599.156V152.327C599.465 151.905 600.124 151.576 600.855 151.576C602.667 151.576 603.243 152.883 603.243 154.036C603.243 155.477 602.44 156.63 600.7 156.63C599.218 156.63 598.323 155.796 598.137 154.592H599.053C599.228 155.374 599.836 155.837 600.711 155.837C601.843 155.837 602.347 155.076 602.347 154.057C602.347 152.996 601.802 152.379 600.721 152.379C599.97 152.379 599.424 152.77 599.177 153.357H598.292V149.157ZM608.616 156.609L607.277 154.509L605.991 156.609H605.013L606.835 153.809L605.013 150.968H606.073L607.411 153.058L608.688 150.968H609.666L607.854 153.758L609.676 156.609H608.616Z" fill="white"/>
<rect x="594" y="163.334" width="16.0125" height="0.571875" fill="white"/>
<rect x="594" y="165.622" width="4.00313" height="0.571875" transform="rotate(-90 594 165.622)" fill="white"/>
<rect x="609.44" y="165.622" width="4.00313" height="0.571875" transform="rotate(-90 609.44 165.622)" fill="white"/>
<path d="M865.258 156.033C865.258 156.393 864.98 156.671 864.64 156.671C864.28 156.671 864.002 156.393 864.002 156.033C864.002 155.673 864.28 155.395 864.64 155.395C864.98 155.395 865.258 155.673 865.258 156.033ZM867.645 149.157H872.123V149.98H868.51V152.327C868.819 151.905 869.478 151.576 870.208 151.576C872.02 151.576 872.597 152.883 872.597 154.036C872.597 155.477 871.794 156.63 870.054 156.63C868.572 156.63 867.676 155.796 867.491 154.592H868.407C868.582 155.374 869.189 155.837 870.064 155.837C871.197 155.837 871.701 155.076 871.701 154.057C871.701 152.996 871.155 152.379 870.075 152.379C869.323 152.379 868.778 152.77 868.531 153.357H867.645V149.157ZM877.969 156.609L876.631 154.509L875.344 156.609H874.366L876.188 153.809L874.366 150.968H875.427L876.765 153.058L878.041 150.968H879.019L877.207 153.758L879.029 156.609H877.969Z" fill="white"/>
<rect x="863.354" y="163.334" width="16.0125" height="0.571875" fill="white"/>
<rect x="863.354" y="165.622" width="4.00313" height="0.571875" transform="rotate(-90 863.354 165.622)" fill="white"/>
<rect x="878.794" y="165.622" width="4.00313" height="0.571875" transform="rotate(-90 878.794 165.622)" fill="white"/>
<path d="M227.429 197.495H254.844V224.787H227.429V197.495Z" fill="white"/>
<path d="M308.913 224.787C305.257 182.03 271.344 171.341 254.844 171.341V197.495C274.339 198.102 280.99 215.943 281.878 224.787H308.913Z" fill="white"/>
<rect x="335.799" y="153.898" width="88.0687" height="26.8781" transform="rotate(90 335.799 153.898)" fill="#333338" stroke="white" stroke-width="0.571875"/>
<rect x="200.264" y="144.177" width="135.534" height="26.8781" fill="#333338" stroke="white" stroke-width="0.571875"/>
<rect x="200.264" y="224.811" width="135.534" height="26.8781" fill="#333338" stroke="white" stroke-width="0.571875"/>
<rect x="227.143" y="144.177" width="97.7906" height="26.8781" transform="rotate(90 227.143 144.177)" fill="#333338" stroke="white" stroke-width="0.571875"/>
<rect x="200.264" y="144.177" width="26.8781" height="26.8781" fill="#333338" stroke="white" stroke-width="0.571875"/>
<rect x="308.921" y="144.177" width="26.8781" height="26.8781" fill="#333338" stroke="white" stroke-width="0.571875"/>
<rect x="200.264" y="224.811" width="26.8781" height="26.8781" fill="#333338" stroke="white" stroke-width="0.571875"/>
<rect x="308.921" y="224.811" width="26.8781" height="26.8781" fill="#333338" stroke="white" stroke-width="0.571875"/>
<path d="M207.601 236.668C207.601 237.028 207.323 237.306 206.984 237.306C206.623 237.306 206.345 237.028 206.345 236.668C206.345 236.307 206.623 236.029 206.984 236.029C207.323 236.029 207.601 236.307 207.601 236.668ZM209.989 229.791H214.467V230.615H210.854V232.962C211.163 232.54 211.821 232.21 212.552 232.21C214.364 232.21 214.94 233.518 214.94 234.671C214.94 236.112 214.137 237.265 212.398 237.265C210.915 237.265 210.02 236.431 209.835 235.227H210.751C210.926 236.009 211.533 236.472 212.408 236.472C213.54 236.472 214.045 235.71 214.045 234.691C214.045 233.631 213.499 233.013 212.418 233.013C211.667 233.013 211.121 233.405 210.874 233.991H209.989V229.791ZM220.313 237.244L218.975 235.144L217.688 237.244H216.71L218.532 234.444L216.71 231.603H217.77L219.109 233.693L220.385 231.603H221.363L219.551 234.393L221.373 237.244H220.313Z" fill="white"/>
<rect x="205.697" y="243.969" width="16.0125" height="0.571875" fill="white"/>
<rect x="205.697" y="246.256" width="4.00313" height="0.571875" transform="rotate(-90 205.697 246.256)" fill="white"/>
<rect x="221.138" y="246.256" width="4.00313" height="0.571875" transform="rotate(-90 221.138 246.256)" fill="white"/>
<path d="M316.258 236.668C316.258 237.028 315.98 237.306 315.64 237.306C315.28 237.306 315.002 237.028 315.002 236.668C315.002 236.307 315.28 236.029 315.64 236.029C315.98 236.029 316.258 236.307 316.258 236.668ZM318.645 229.791H323.123V230.615H319.51V232.962C319.819 232.54 320.478 232.21 321.208 232.21C323.02 232.21 323.597 233.518 323.597 234.671C323.597 236.112 322.794 237.265 321.054 237.265C319.572 237.265 318.676 236.431 318.491 235.227H319.407C319.582 236.009 320.189 236.472 321.064 236.472C322.197 236.472 322.701 235.71 322.701 234.691C322.701 233.631 322.155 233.013 321.075 233.013C320.323 233.013 319.778 233.405 319.531 233.991H318.645V229.791ZM328.969 237.244L327.631 235.144L326.344 237.244H325.366L327.188 234.444L325.366 231.603H326.427L327.765 233.693L329.041 231.603H330.019L328.207 234.393L330.029 237.244H328.969Z" fill="white"/>
<rect x="314.354" y="243.969" width="16.0125" height="0.571875" fill="white"/>
<rect x="314.354" y="246.256" width="4.00313" height="0.571875" transform="rotate(-90 314.354 246.256)" fill="white"/>
<rect x="329.794" y="246.256" width="4.00313" height="0.571875" transform="rotate(-90 329.794 246.256)" fill="white"/>
<path d="M207.601 156.033C207.601 156.393 207.323 156.671 206.984 156.671C206.623 156.671 206.345 156.393 206.345 156.033C206.345 155.673 206.623 155.395 206.984 155.395C207.323 155.395 207.601 155.673 207.601 156.033ZM209.989 149.157H214.467V149.98H210.854V152.327C211.163 151.905 211.821 151.576 212.552 151.576C214.364 151.576 214.94 152.883 214.94 154.036C214.94 155.477 214.137 156.63 212.398 156.63C210.915 156.63 210.02 155.796 209.835 154.592H210.751C210.926 155.374 211.533 155.837 212.408 155.837C213.54 155.837 214.045 155.076 214.045 154.057C214.045 152.996 213.499 152.379 212.418 152.379C211.667 152.379 211.121 152.77 210.874 153.357H209.989V149.157ZM220.313 156.609L218.975 154.509L217.688 156.609H216.71L218.532 153.809L216.71 150.968H217.77L219.109 153.058L220.385 150.968H221.363L219.551 153.758L221.373 156.609H220.313Z" fill="white"/>
<rect x="205.697" y="163.334" width="16.0125" height="0.571875" fill="white"/>
<rect x="205.697" y="165.622" width="4.00313" height="0.571875" transform="rotate(-90 205.697 165.622)" fill="white"/>
<rect x="221.138" y="165.622" width="4.00313" height="0.571875" transform="rotate(-90 221.138 165.622)" fill="white"/>
<path d="M316.258 156.033C316.258 156.393 315.98 156.671 315.64 156.671C315.28 156.671 315.002 156.393 315.002 156.033C315.002 155.673 315.28 155.395 315.64 155.395C315.98 155.395 316.258 155.673 316.258 156.033ZM318.645 149.157H323.123V149.98H319.51V152.327C319.819 151.905 320.478 151.576 321.208 151.576C323.02 151.576 323.597 152.883 323.597 154.036C323.597 155.477 322.794 156.63 321.054 156.63C319.572 156.63 318.676 155.796 318.491 154.592H319.407C319.582 155.374 320.189 155.837 321.064 155.837C322.197 155.837 322.701 155.076 322.701 154.057C322.701 152.996 322.155 152.379 321.075 152.379C320.323 152.379 319.778 152.77 319.531 153.357H318.645V149.157ZM328.969 156.609L327.631 154.509L326.344 156.609H325.366L327.188 153.809L325.366 150.968H326.427L327.765 153.058L329.041 150.968H330.019L328.207 153.758L330.029 156.609H328.969Z" fill="white"/>
<rect x="314.354" y="163.334" width="16.0125" height="0.571875" fill="white"/>
<rect x="314.354" y="165.622" width="4.00313" height="0.571875" transform="rotate(-90 314.354 165.622)" fill="white"/>
<rect x="329.794" y="165.622" width="4.00313" height="0.571875" transform="rotate(-90 329.794 165.622)" fill="white"/>
<mask id="path-56-inside-1_10747_24521" fill="white">
<path d="M455.605 318.312L455.605 512.75L423.009 512.75L423.009 318.312L455.605 318.312Z"/>
</mask>
<path d="M455.605 318.312L455.605 512.75L423.009 512.75L423.009 318.312L455.605 318.312Z" fill="#333338"/>
<path d="M455.605 318.312L455.034 318.312L455.034 512.75L455.605 512.75L456.177 512.75L456.177 318.313L455.605 318.312ZM423.009 512.75L423.58 512.75L423.58 318.312L423.009 318.312L422.437 318.312L422.437 512.75L423.009 512.75Z" fill="white" mask="url(#path-56-inside-1_10747_24521)"/>
<path d="M358.959 414.479H391.425V446.8H358.959V414.479Z" fill="white"/>
<path d="M455.456 446.8C451.127 396.165 410.965 383.506 391.425 383.506V414.479C414.512 415.198 422.388 436.325 423.441 446.8H455.456Z" fill="white"/>
<path d="M514.378 396.409H522.619V446.725H514.378L489.581 409.205V446.725H481.34V396.409H489.581L514.378 433.857V396.409Z" fill="white"/>
<path d="M566.334 426.772C566.334 439.279 557.081 447.376 545.659 447.376C534.309 447.376 525.706 439.279 525.706 426.772C525.706 414.266 534.67 406.241 546.02 406.241C557.37 406.241 566.334 414.266 566.334 426.772ZM534.092 426.772C534.092 435.809 539.442 440.219 545.659 440.219C551.804 440.219 557.876 435.809 557.876 426.772C557.876 417.736 552.021 413.398 545.876 413.398C539.658 413.398 534.092 417.736 534.092 426.772Z" fill="white"/>
<path d="M569.421 446.725V393.229H577.662V446.725H569.421Z" fill="white"/>
<path d="M619.496 406.892V446.725H611.255V441.954C608.652 445.351 604.17 447.303 599.471 447.303C590.145 447.303 583.061 441.448 583.061 430.315V406.892H591.23V429.086C591.23 436.387 595.206 440.146 601.206 440.146C607.279 440.146 611.255 436.387 611.255 429.086V406.892H619.496Z" fill="white"/>
<path d="M645.913 446.725L637.31 433.206L629.213 446.725H620.61L633.478 427.134L620.61 406.892H629.936L638.539 420.411L646.636 406.892H655.238L642.37 426.555L655.238 446.725H645.913Z" fill="white"/>
<mask id="path-60-inside-2_10747_24521" fill="white">
<path d="M481.912 318.312L481.912 512.75L454.462 512.75L454.462 318.312L481.912 318.312Z"/>
</mask>
<path d="M481.912 318.312L481.912 512.75L454.462 512.75L454.462 318.312L481.912 318.312Z" fill="#333338"/>
<path d="M481.912 318.312L481.34 318.312L481.34 512.75L481.912 512.75L482.484 512.75L482.484 318.313L481.912 318.312ZM454.462 512.75L455.034 512.75L455.034 318.312L454.462 318.312L453.89 318.312L453.89 512.75L454.462 512.75Z" fill="white" mask="url(#path-60-inside-2_10747_24521)"/>
<path d="M440.508 363.057L439.17 360.957L437.883 363.057H436.905L438.727 360.257L436.905 357.416H437.966L439.304 359.505L440.58 357.416H441.558L439.746 360.205L441.568 363.057H440.508Z" fill="white"/>
<rect x="431.016" y="369.781" width="16.0125" height="0.571875" fill="white"/>
<rect x="431.016" y="372.069" width="4.00313" height="0.571875" transform="rotate(-90 431.016 372.069)" fill="white"/>
<rect x="446.456" y="372.069" width="4.00313" height="0.571875" transform="rotate(-90 446.456 372.069)" fill="white"/>
<path d="M462.085 418.523C462.085 418.883 461.807 419.161 461.467 419.161C461.107 419.161 460.829 418.883 460.829 418.523C460.829 418.163 461.107 417.885 461.467 417.885C461.807 417.885 462.085 418.163 462.085 418.523ZM464.472 411.647H468.95V412.47H465.337V414.817C465.646 414.395 466.305 414.066 467.036 414.066C468.847 414.066 469.424 415.373 469.424 416.526C469.424 417.967 468.621 419.12 466.881 419.12C465.399 419.12 464.503 418.286 464.318 417.082H465.234C465.409 417.864 466.016 418.328 466.891 418.328C468.024 418.328 468.528 417.566 468.528 416.547C468.528 415.487 467.983 414.869 466.902 414.869C466.15 414.869 465.605 415.26 465.358 415.847H464.472V411.647ZM474.796 419.1L473.458 417L472.171 419.1H471.194L473.016 416.3L471.194 413.459H472.254L473.592 415.548L474.868 413.459H475.846L474.035 416.248L475.857 419.1H474.796Z" fill="white"/>
<rect x="460.181" y="425.825" width="16.0125" height="0.571875" fill="white"/>
<rect x="460.181" y="428.113" width="4.00313" height="0.571875" transform="rotate(-90 460.181 428.113)" fill="white"/>
<rect x="475.621" y="428.113" width="4.00313" height="0.571875" transform="rotate(-90 475.621 428.113)" fill="white"/>
</svg>
