<svg width="1004" height="614" viewBox="0 0 1004 614" fill="none" xmlns="http://www.w3.org/2000/svg">
<g clip-path="url(#clip0_10747_24281)">
<rect x="1" y="1" width="1002" height="612" rx="30" fill="black"/>
<g filter="url(#filter0_f_10747_24281)">
<ellipse cx="866.112" cy="880.449" rx="395.171" ry="1040.13" transform="rotate(-134.079 866.112 880.449)" fill="url(#paint0_linear_10747_24281)"/>
</g>
<path d="M178.821 213L175.318 203.049H154.926L151.422 213H143.083L160.532 164.228H169.782L187.23 213H178.821ZM173.075 196.532L165.157 173.898L157.168 196.532H173.075ZM192.154 193.519C192.154 181.606 200.213 173.758 210.374 173.758C216.891 173.758 221.375 176.841 223.758 179.995V174.389H231.817V213H223.758V207.254C221.305 210.547 216.68 213.631 210.234 213.631C200.213 213.631 192.154 205.432 192.154 193.519ZM223.758 193.659C223.758 185.391 218.082 180.696 212.055 180.696C206.099 180.696 200.353 185.18 200.353 193.519C200.353 201.858 206.099 206.693 212.055 206.693C218.082 206.693 223.758 201.998 223.758 193.659Z" fill="white"/>
<path d="M313.872 199.055C313.872 194.22 310.228 191.277 304.902 191.277H294.391V206.483H305.183C310.578 206.483 313.872 203.75 313.872 199.055ZM312.611 177.822C312.611 173.408 309.457 170.815 304.272 170.815H294.391V184.76H304.272C309.457 184.76 312.611 182.307 312.611 177.822ZM321.86 199.896C321.86 207.324 315.834 213 305.883 213H286.403V164.298H304.972C315.273 164.298 320.739 169.974 320.739 176.841C320.739 182.728 317.165 186.301 312.47 187.983C317.656 188.894 321.86 194.08 321.86 199.896ZM335.026 180.135C337.549 176.631 342.384 173.758 348.481 173.758C358.712 173.758 366.63 181.606 366.63 193.519C366.63 205.432 358.642 213.631 348.481 213.631C342.104 213.631 337.549 210.758 335.026 207.394V213H327.038V161.145H335.026V180.135ZM358.501 193.519C358.501 185.18 352.755 180.696 346.729 180.696C340.772 180.696 335.026 185.391 335.026 193.659C335.026 201.998 340.772 206.693 346.729 206.693C352.755 206.693 358.501 201.858 358.501 193.519Z" fill="white"/>
<path d="M416.186 188.544C416.186 173.968 427.328 163.667 441.063 163.667C451.223 163.667 459.983 168.783 463.697 178.313H454.097C451.504 173.127 446.879 170.675 441.063 170.675C431.392 170.675 424.385 177.542 424.385 188.544C424.385 199.546 431.392 206.483 441.063 206.483C446.879 206.483 451.504 204.03 454.097 198.845H463.697C459.983 208.375 451.223 213.42 441.063 213.42C427.328 213.42 416.186 203.19 416.186 188.544ZM466.881 193.659C466.881 181.606 474.729 173.758 485.801 173.758C495.261 173.758 501.428 178.453 503.6 186.582H494.981C493.649 182.868 490.566 180.485 485.801 180.485C479.354 180.485 475.08 185.25 475.08 193.659C475.08 202.138 479.354 206.903 485.801 206.903C490.566 206.903 493.509 204.801 494.981 200.807H503.6C501.428 208.375 495.261 213.631 485.801 213.631C474.729 213.631 466.881 205.782 466.881 193.659Z" fill="white"/>
<path d="M571.203 164.298C586.829 164.298 597.06 173.758 597.06 188.824C597.06 203.82 586.829 213 571.203 213H555.296V164.298H571.203ZM563.284 206.483H571.203C582.695 206.483 588.861 199.896 588.861 188.824C588.861 177.682 582.695 170.815 571.203 170.815H563.284V206.483ZM598.811 193.519C598.811 181.606 606.87 173.758 617.101 173.758C622.146 173.758 627.472 176.141 630.415 179.785V161.145H638.473V213H630.415V207.184C627.962 210.688 623.337 213.631 617.03 213.631C606.87 213.631 598.811 205.432 598.811 193.519ZM630.415 193.659C630.415 185.391 624.739 180.696 618.712 180.696C612.756 180.696 607.01 185.18 607.01 193.519C607.01 201.858 612.756 206.693 618.712 206.693C624.739 206.693 630.415 201.998 630.415 193.659Z" fill="url(#paint1_linear_10747_24281)"/>
<path d="M719.651 164.228V170.745H700.73V185.04H717.548V191.557H700.73V206.483H719.651V213H692.742V164.228H719.651ZM742.244 180.485C736.848 180.485 732.503 184.129 731.662 190.226H753.035C752.895 184.269 748.2 180.485 742.244 180.485ZM760.323 201.508C758.151 208.235 752.054 213.631 742.594 213.631C731.522 213.631 723.324 205.782 723.324 193.659C723.324 181.536 731.172 173.758 742.594 173.758C753.596 173.758 761.374 181.396 761.374 192.748C761.374 194.08 761.304 195.341 761.094 196.673H731.592C732.153 203.049 736.708 206.903 742.594 206.903C747.499 206.903 750.232 204.521 751.704 201.508H760.323Z" fill="white"/>
<path d="M813.188 213V164.298H841.849V170.815H821.177V185.18H837.294V191.697H821.177V213H813.188ZM846.729 213V180.906H842.175V174.389H846.729V171.656C846.729 162.756 851.284 158.902 861.375 158.902V165.559C856.47 165.559 854.788 167.241 854.788 171.656V174.389H861.936V180.906H854.788V213H846.729Z" fill="white"/>
<path d="M153.071 242.982C163.232 242.982 171.992 248.097 175.706 257.627H166.105C163.513 252.722 158.888 250.269 153.071 250.269C143.401 250.269 136.394 257.137 136.394 267.858C136.394 278.58 143.401 285.517 153.071 285.517C161.901 285.517 167.437 280.191 168.628 271.993H150.338V265.616H177.177V271.852C175.706 283.134 166.175 292.735 153.071 292.735C139.337 292.735 128.195 282.504 128.195 267.858C128.195 253.283 139.337 242.982 153.071 242.982ZM178.89 272.833C178.89 260.921 186.948 253.072 197.109 253.072C203.416 253.072 208.111 256.015 210.493 259.309V253.703H218.552V292.945C218.552 303.456 211.755 311.375 199.702 311.375C189.401 311.375 181.763 306.259 180.782 297.71H188.7C189.891 301.704 194.166 304.437 199.702 304.437C205.868 304.437 210.493 300.653 210.493 292.945V286.498C208.041 289.792 203.416 292.945 197.109 292.945C186.948 292.945 178.89 284.746 178.89 272.833ZM210.493 272.974C210.493 264.705 204.817 260.01 198.791 260.01C192.834 260.01 187.088 264.495 187.088 272.833C187.088 281.172 192.834 286.007 198.791 286.007C204.817 286.007 210.493 281.312 210.493 272.974Z" fill="white"/>
<path d="M296.499 292.314V271.011H273.584V292.314H265.596V243.612H273.584V264.495H296.499V243.612H304.487V292.314H296.499ZM311.5 292.314V240.459H319.489V258.188C322.152 254.964 326.496 253.072 331.472 253.072C340.091 253.072 346.818 258.748 346.818 269.54V292.314H338.9V270.731C338.9 263.654 335.046 260.01 329.229 260.01C323.343 260.01 319.489 263.654 319.489 270.731V292.314H311.5Z" fill="white"/>
<path d="M393.334 292.314V243.612H401.322V292.314H393.334ZM408.307 292.314V253.703H416.295V292.314H408.307ZM412.371 248.588C409.498 248.588 407.256 246.345 407.256 243.472C407.256 240.599 409.498 238.357 412.371 238.357C415.174 238.357 417.416 240.599 417.416 243.472C417.416 246.345 415.174 248.588 412.371 248.588Z" fill="white"/>
<path d="M481.572 278.72V243.612H489.63V278.72C489.63 287.549 483.674 292.805 475.265 292.805C466.856 292.805 460.9 287.549 460.9 278.72H468.958C469.028 282.784 470.99 285.727 475.265 285.727C479.54 285.727 481.572 282.784 481.572 278.72ZM503.187 248.588C500.314 248.588 498.071 246.345 498.071 243.472C498.071 240.599 500.314 238.357 503.187 238.357C505.99 238.357 508.232 240.599 508.232 243.472C508.232 246.345 505.99 248.588 503.187 248.588ZM499.122 253.703H507.111V299.882C507.111 307.731 502.906 310.674 496.039 310.674H491.905V303.947H494.637C498.001 303.947 499.122 302.755 499.122 299.882V253.703Z" fill="white"/>
<path d="M580.649 292.314L561.799 270.521V292.314H553.81V243.612H561.799V265.826L580.719 243.612H590.74L569.577 267.998L591.09 292.314H580.649ZM594.651 292.314V240.459H602.639V270.591L616.654 253.703H627.726L609.927 273.044L627.726 292.314H616.935L602.639 275.706V292.314H594.651Z" fill="white"/>
<path d="M669.549 243.612H677.537V285.867H694.005V292.314H669.549V243.612ZM697.182 292.314V240.459H705.17V292.314H697.182Z" fill="white"/>
<path d="M752.287 292.314V243.612H760.906L778.004 281.803L795.033 243.612H803.582V292.314H795.593V258.959L780.737 292.314H775.201L760.275 258.959V292.314H752.287ZM865.306 292.314V270.731C865.306 263.654 861.452 260.01 855.636 260.01C849.749 260.01 845.895 263.654 845.895 270.731V292.314H837.977V270.731C837.977 263.654 834.123 260.01 828.307 260.01C822.42 260.01 818.566 263.654 818.566 270.731V292.314H810.578V253.703H818.566V258.118C821.159 254.964 825.363 253.072 829.988 253.072C836.085 253.072 841.2 255.665 843.863 260.71C846.246 256.015 851.712 253.072 857.318 253.072C866.357 253.072 873.225 258.748 873.225 269.54V292.314H865.306Z" fill="white"/>
<path d="M138.28 322.856H146.268V371.628H138.28L114.244 335.26V371.628H106.256V322.856H114.244L138.28 359.155V322.856ZM180.654 371.628V350.045C180.654 342.968 176.8 339.324 170.984 339.324C165.098 339.324 161.244 342.968 161.244 350.045V371.628H153.255V333.017H161.244V337.432C163.836 334.279 168.111 332.387 172.736 332.387C181.775 332.387 188.573 338.063 188.573 348.854V371.628H180.654Z" fill="white"/>
<path d="M282.785 347.172C282.785 361.818 271.783 372.119 257.908 372.119C244.174 372.119 233.032 361.818 233.032 347.172C233.032 332.597 244.174 322.296 257.908 322.296C271.783 322.296 282.785 332.597 282.785 347.172ZM241.23 347.172C241.23 358.174 248.238 365.182 257.908 365.182C267.579 365.182 274.586 358.174 274.586 347.172C274.586 336.171 267.579 329.303 257.908 329.303C248.238 329.303 241.23 336.171 241.23 347.172ZM323.931 352.288C323.931 364.411 314.962 372.259 303.89 372.259C292.888 372.259 284.549 364.411 284.549 352.288C284.549 340.165 293.239 332.387 304.24 332.387C315.242 332.387 323.931 340.165 323.931 352.288ZM292.678 352.288C292.678 361.047 297.864 365.322 303.89 365.322C309.846 365.322 315.733 361.047 315.733 352.288C315.733 343.528 310.057 339.324 304.1 339.324C298.074 339.324 292.678 343.528 292.678 352.288Z" fill="white"/>
<path d="M377.122 345.35H385.952C392.188 345.35 394.991 342.337 394.991 337.432C394.991 332.387 392.188 329.443 385.952 329.443H377.122V345.35ZM403.19 337.432C403.19 344.369 398.635 351.867 385.952 351.867H377.122V371.628H369.134V322.926H385.952C397.514 322.926 403.19 329.513 403.19 337.432ZM415.294 338.693C417.746 335.47 422.441 332.387 428.748 332.387C438.909 332.387 446.897 340.235 446.897 352.148C446.897 364.06 438.909 372.259 428.748 372.259C422.371 372.259 417.816 369.036 415.294 366.022V389.988H407.305V333.017H415.294V338.693ZM438.769 352.148C438.769 343.809 433.023 339.324 426.996 339.324C421.04 339.324 415.294 344.019 415.294 352.288C415.294 360.627 421.04 365.322 426.996 365.322C433.023 365.322 438.769 360.487 438.769 352.148Z" fill="white"/>
<path d="M497.108 347.172C497.108 358.174 504.116 365.182 513.786 365.182C523.457 365.182 530.464 358.174 530.464 347.172C530.464 336.171 523.457 329.303 513.786 329.303C504.116 329.303 497.108 336.171 497.108 347.172ZM538.663 347.172C538.663 356.352 534.388 363.78 527.731 368.055L539.434 380.458H529.273L520.724 371.208C518.551 371.839 516.239 372.119 513.786 372.119C500.052 372.119 488.91 361.818 488.91 347.172C488.91 332.597 500.052 322.296 513.786 322.296C527.661 322.296 538.663 332.597 538.663 347.172ZM540.562 352.148C540.562 340.235 548.621 332.387 558.852 332.387C565.229 332.387 569.924 335.47 572.166 338.623V333.017H580.225V389.988H572.166V366.022C569.924 369.036 565.089 372.259 558.572 372.259C548.621 372.259 540.562 364.06 540.562 352.148ZM572.166 352.288C572.166 344.019 566.49 339.324 560.464 339.324C554.507 339.324 548.761 343.809 548.761 352.148C548.761 360.487 554.507 365.322 560.464 365.322C566.49 365.322 572.166 360.627 572.166 352.288Z" fill="white"/>
<path d="M653.869 337.502C653.869 332.597 651.066 329.443 644.829 329.443H636V345.771H644.829C651.066 345.771 653.869 342.337 653.869 337.502ZM628.011 322.926H644.829C656.392 322.926 662.068 329.584 662.068 337.502C662.068 343.248 658.985 349.415 650.786 351.447L662.839 371.628H653.308L642.097 352.148H636V371.628H628.011V322.926ZM676.772 351.307V371.628H668.784V333.017H676.772V338.623C679.014 334.769 682.869 332.387 688.334 332.387V340.655H686.302C680.416 340.655 676.772 343.108 676.772 351.307Z" fill="white"/>
<path d="M765.315 357.824C765.315 365.111 759.359 372.119 748.497 372.119C738.757 372.119 731.259 366.793 731.259 358.174H739.808C740.158 362.168 742.961 365.392 748.497 365.392C754.103 365.392 757.256 362.379 757.256 358.244C757.256 346.472 731.399 354.11 731.399 336.171C731.399 327.621 738.196 322.296 748.147 322.296C757.467 322.296 764.054 327.201 764.754 335.54H755.925C755.645 332.246 752.772 329.233 747.726 329.093C743.101 328.953 739.528 331.195 739.528 335.89C739.528 346.892 765.315 340.025 765.315 357.824ZM800.038 360.837C800.038 367.354 794.362 372.259 785.252 372.259C776.003 372.259 769.486 366.793 769.135 359.786H777.404C777.684 362.939 780.698 365.532 785.112 365.532C789.737 365.532 792.19 363.57 792.19 360.907C792.19 353.339 769.766 357.684 769.766 343.528C769.766 337.362 775.512 332.387 784.622 332.387C793.381 332.387 799.127 337.082 799.548 344.79H791.559C791.279 341.426 788.686 339.114 784.341 339.114C780.067 339.114 777.824 340.866 777.824 343.458C777.824 351.237 799.618 346.892 800.038 360.837Z" fill="url(#paint2_linear_10747_24281)"/>
<path d="M843.367 329.443V322.926H877.353V329.443H864.389V371.628H856.401V329.443H843.367ZM883.201 360.907V339.534H878.646V333.017H883.201V323.417H891.26V333.017H900.65V339.534H891.26V360.907C891.26 363.78 892.381 364.971 895.744 364.971H900.65V371.628H894.343C887.476 371.628 883.201 368.755 883.201 360.907Z" fill="white"/>
<path d="M141.394 433.144V402.241H149.382V433.284C149.382 440.852 153.657 444.426 160.384 444.426C167.181 444.426 171.456 440.852 171.456 433.284V402.241H179.444V433.144C179.444 445.547 170.475 451.433 160.314 451.433C150.083 451.433 141.394 445.547 141.394 433.144ZM221.309 412.331V450.943H213.32V446.318C210.798 449.611 206.453 451.503 201.898 451.503C192.859 451.503 185.991 445.827 185.991 435.036V412.331H193.91V433.844C193.91 440.922 197.764 444.566 203.58 444.566C209.466 444.566 213.32 440.922 213.32 433.844V412.331H221.309Z" fill="white"/>
<path d="M292.168 442.744L306.673 402.241H315.082L296.792 450.943H287.543L269.183 402.241H277.732L292.168 442.744ZM313.704 412.331H322.253L333.185 443.795L344.117 412.331H352.596L337.88 450.943H328.35L313.704 412.331Z" fill="white"/>
<path d="M409.631 451.013L395.826 402.241H404.305L414.396 441.903L425.328 402.241H434.297L444.458 441.693L454.619 402.241H463.168L448.733 450.943H439.693L429.462 414.083L418.6 450.943L409.631 451.013ZM473.751 450.943L461.698 412.331H469.827L477.885 443.375L486.084 412.331H494.423L502.271 443.234L510.26 412.331H518.108L506.125 450.943H497.716L489.938 422.422L482.16 450.943H473.751Z" fill="white"/>
<path d="M593.915 450.943L582.913 433.284L572.612 450.943H563.712L578.849 426.627L563.642 402.241H572.612L583.684 420.04L594.055 402.241H602.954L587.748 426.627L602.884 450.943H593.915ZM628.122 450.943L619.783 437.839L611.935 450.943H603.596L616.069 431.952L603.596 412.331H612.636L620.975 425.435L628.823 412.331H637.162L624.689 431.392L637.162 450.943H628.122Z" fill="white"/>
<path d="M696.02 433.284L679.832 402.241H688.732L700.014 426.136L711.296 402.241H720.125L704.008 433.284V450.943H696.02V433.284ZM738.167 441.763L749.45 412.331H757.718L734.033 469.092H725.764L733.613 450.312L718.406 412.331H727.306L738.167 441.763Z" fill="white"/>
<path d="M835.023 402.241V408.477L812.389 444.005H835.023V450.943H802.929V444.706L825.493 409.178H802.929V402.241H835.023ZM864.848 412.331V418.848L847.329 444.426H864.848V450.943H838.079V444.426L855.668 418.848H838.079V412.331H864.848Z" fill="white"/>
</g>
<rect x="0.5" y="0.5" width="1003" height="613" rx="30.5" stroke="#373737"/>
<defs>
<filter id="filter0_f_10747_24281" x="-394.28" y="-361.021" width="2520.78" height="2482.94" filterUnits="userSpaceOnUse" color-interpolation-filters="sRGB">
<feFlood flood-opacity="0" result="BackgroundImageFix"/>
<feBlend mode="normal" in="SourceGraphic" in2="BackgroundImageFix" result="shape"/>
<feGaussianBlur stdDeviation="232" result="effect1_foregroundBlur_10747_24281"/>
</filter>
<linearGradient id="paint0_linear_10747_24281" x1="470.941" y1="-159.681" x2="1475.44" y2="-50.5452" gradientUnits="userSpaceOnUse">
<stop stop-color="#FCC188"/>
<stop offset="0.650677" stop-color="#7042D2"/>
<stop offset="1" stop-color="#2E008E"/>
</linearGradient>
<linearGradient id="paint1_linear_10747_24281" x1="550.04" y1="155" x2="653.722" y2="197.229" gradientUnits="userSpaceOnUse">
<stop stop-color="#FCC188"/>
<stop offset="0.650677" stop-color="#7042D2"/>
<stop offset="1" stop-color="#2E008E"/>
</linearGradient>
<linearGradient id="paint2_linear_10747_24281" x1="727.194" y1="313.628" x2="816.296" y2="343.356" gradientUnits="userSpaceOnUse">
<stop stop-color="#FCC188"/>
<stop offset="0.650677" stop-color="#7042D2"/>
<stop offset="1" stop-color="#2E008E"/>
</linearGradient>
<clipPath id="clip0_10747_24281">
<rect x="1" y="1" width="1002" height="612" rx="30" fill="white"/>
</clipPath>
</defs>
</svg>
