<svg width="149" height="149" viewBox="0 0 149 149" fill="none" xmlns="http://www.w3.org/2000/svg">
<g clip-path="url(#clip0_10964_64287)">
<rect width="149" height="149" fill="#010101"/>
<rect width="274.071" height="178.37" rx="8.21801" transform="matrix(-1 0 0 1 207.069 -12.3408)" fill="url(#paint0_linear_10964_64287)"/>
<path d="M26.4783 78.5812C26.4783 52.8331 43.192 36.4205 65.778 36.4205C82.3411 36.4205 93.6342 45.3044 98.302 55.694V37.6251H108.842V119.838H98.302V101.619C93.4836 112.159 82.04 121.043 65.6275 121.043C43.192 121.043 26.4783 104.329 26.4783 78.5812ZM98.302 78.7317C98.302 58.2537 84.5997 45.6055 67.7355 45.6055C50.4195 45.6055 37.169 57.6514 37.169 78.5812C37.169 99.3603 50.4195 111.858 67.7355 111.858C84.5997 111.858 98.302 99.2098 98.302 78.7317Z" fill="black"/>
<g opacity="0.8">
<mask id="path-3-outside-1_10964_64287" maskUnits="userSpaceOnUse" x="26.7253" y="34.3633" width="84" height="86" fill="black">
<rect fill="white" x="26.7253" y="34.3633" width="84" height="86"/>
<path d="M27.9529 77.1061C27.9529 51.358 44.6666 34.9454 67.2526 34.9454C83.8158 34.9454 95.1088 43.8293 99.7766 54.2189V36.15H110.317V118.363H99.7766V100.144C94.9582 110.684 83.5146 119.568 67.1021 119.568C44.6666 119.568 27.9529 102.854 27.9529 77.1061ZM99.7766 77.2566C99.7766 56.7786 86.0744 44.1304 69.2101 44.1304C51.8941 44.1304 38.6436 56.1763 38.6436 77.1061C38.6436 97.8852 51.8941 110.383 69.2101 110.383C86.0744 110.383 99.7766 97.7347 99.7766 77.2566Z"/>
</mask>
<path d="M99.7766 54.2189L99.4504 54.3654L100.134 54.2189H99.7766ZM99.7766 36.15V35.7924H99.419V36.15H99.7766ZM110.317 36.15H110.674V35.7924H110.317V36.15ZM110.317 118.363V118.721H110.674V118.363H110.317ZM99.7766 118.363H99.419V118.721H99.7766V118.363ZM99.7766 100.144H100.134L99.4514 99.9952L99.7766 100.144ZM27.9529 77.1061H28.3105C28.3105 64.3107 32.4621 53.8633 39.3914 46.6173C46.3202 39.3719 56.0491 35.303 67.2526 35.303V34.9454V34.5878C55.8701 34.5878 45.9491 38.7252 38.8746 46.1231C31.8005 53.5204 27.5953 64.1534 27.5953 77.1061H27.9529ZM67.2526 34.9454V35.303C83.6767 35.303 94.841 44.1058 99.4504 54.3654L99.7766 54.2189L100.103 54.0723C95.3765 43.5527 83.9548 34.5878 67.2526 34.5878V34.9454ZM99.7766 54.2189H100.134V36.15H99.7766H99.419V54.2189H99.7766ZM99.7766 36.15V36.5076H110.317V36.15V35.7924H99.7766V36.15ZM110.317 36.15H109.959V118.363H110.317H110.674V36.15H110.317ZM110.317 118.363V118.006H99.7766V118.363V118.721H110.317V118.363ZM99.7766 118.363H100.134V100.144H99.7766H99.419V118.363H99.7766ZM99.7766 100.144L99.4514 99.9952C94.6913 110.408 83.375 119.21 67.1021 119.21V119.568V119.925C83.6542 119.925 95.2251 110.96 100.102 100.293L99.7766 100.144ZM67.1021 119.568V119.21C55.9764 119.21 46.2853 115.068 39.3742 107.747C32.4623 100.425 28.3105 89.9017 28.3105 77.1061H27.9529H27.5953C27.5953 90.0586 31.8003 100.766 38.8541 108.238C45.9088 115.711 55.7922 119.925 67.1021 119.925V119.568ZM99.7766 77.2566H100.134C100.134 66.9357 96.6797 58.5616 91.0745 52.7657C85.4698 46.9704 77.7337 43.7728 69.2101 43.7728V44.1304V44.488C77.5508 44.488 85.0979 47.6145 90.5604 53.2629C96.0223 58.9106 99.419 67.0996 99.419 77.2566H99.7766ZM69.2101 44.1304V43.7728C60.4675 43.7728 52.7294 46.8152 47.1771 52.5202C41.6246 58.2254 38.286 66.5642 38.286 77.1061H38.6436H39.0012C39.0012 66.7182 42.2879 58.5692 47.6896 53.019C53.0916 47.4685 60.6367 44.488 69.2101 44.488V44.1304ZM38.6436 77.1061H38.286C38.286 87.573 41.6247 95.9856 47.1751 101.784C52.7257 107.583 60.4636 110.74 69.2101 110.74V110.383V110.025C60.6406 110.025 53.0953 106.934 47.6917 101.289C42.2878 95.6441 39.0012 87.4183 39.0012 77.1061H38.6436ZM69.2101 110.383V110.74C77.7337 110.74 85.4698 107.543 91.0745 101.748C96.6797 95.9517 100.134 87.5776 100.134 77.2566H99.7766H99.419C99.419 87.4137 96.0223 95.6027 90.5604 101.25C85.0979 106.899 77.5508 110.025 69.2101 110.025V110.383Z" fill="black" mask="url(#path-3-outside-1_10964_64287)"/>
</g>
<g opacity="0.7">
<mask id="path-5-outside-2_10964_64287" maskUnits="userSpaceOnUse" x="28.0652" y="33.0225" width="84" height="86" fill="black">
<rect fill="white" x="28.0652" y="33.0225" width="84" height="86"/>
<path d="M29.2927 75.7652C29.2927 50.0171 46.0064 33.6046 68.5925 33.6046C85.1556 33.6046 96.4486 42.4884 101.116 52.878V34.8092H111.657V117.022H101.116V98.803C96.2981 109.343 84.8544 118.227 68.4419 118.227C46.0064 118.227 29.2927 101.513 29.2927 75.7652ZM101.116 75.9158C101.116 55.4378 87.4142 42.7896 70.5499 42.7896C53.234 42.7896 39.9835 54.8355 39.9835 75.7652C39.9835 96.5444 53.234 109.042 70.5499 109.042C87.4142 109.042 101.116 96.3939 101.116 75.9158Z"/>
</mask>
<path d="M101.116 52.878L100.79 53.0246L101.474 52.878H101.116ZM101.116 34.8092V34.4516H100.759V34.8092H101.116ZM111.657 34.8092H112.014V34.4516H111.657V34.8092ZM111.657 117.022V117.38H112.014V117.022H111.657ZM101.116 117.022H100.759V117.38H101.116V117.022ZM101.116 98.803H101.474L100.791 98.6544L101.116 98.803ZM29.2927 75.7653H29.6503C29.6503 62.9698 33.8019 52.5225 40.7313 45.2765C47.6601 38.0311 57.3889 33.9622 68.5925 33.9622V33.6046V33.247C57.21 33.247 47.289 37.3844 40.2144 44.7822C33.1404 52.1795 28.9351 62.8125 28.9351 75.7653H29.2927ZM68.5925 33.6046V33.9622C85.0166 33.9622 96.1809 42.765 100.79 53.0246L101.116 52.878L101.443 52.7315C96.7164 42.2119 85.2946 33.247 68.5925 33.247V33.6046ZM101.116 52.878H101.474V34.8092H101.116H100.759V52.878H101.116ZM101.116 34.8092V35.1668H111.657V34.8092V34.4516H101.116V34.8092ZM111.657 34.8092H111.299V117.022H111.657H112.014V34.8092H111.657ZM111.657 117.022V116.665H101.116V117.022V117.38H111.657V117.022ZM101.116 117.022H101.474V98.803H101.116H100.759V117.022H101.116ZM101.116 98.803L100.791 98.6544C96.0312 109.067 84.7148 117.869 68.4419 117.869V118.227V118.585C84.9941 118.585 96.565 109.619 101.442 98.9517L101.116 98.803ZM68.4419 118.227V117.869C57.3163 117.869 47.6251 113.727 40.714 106.406C33.8021 99.0844 29.6503 88.5609 29.6503 75.7653H29.2927H28.9351C28.9351 88.7178 33.1402 99.4251 40.194 106.897C47.2486 114.37 57.1321 118.585 68.4419 118.585V118.227ZM101.116 75.9158H101.474C101.474 65.5949 98.0195 57.2207 92.4143 51.4249C86.8097 45.6296 79.0735 42.432 70.5499 42.432V42.7896V43.1472C78.8906 43.1472 86.4377 46.2737 91.9002 51.922C97.3622 57.5698 100.759 65.7588 100.759 75.9158H101.116ZM70.5499 42.7896V42.432C61.8073 42.432 54.0693 45.4744 48.517 51.1794C42.9644 56.8846 39.6259 65.2234 39.6259 75.7653H39.9835H40.341C40.341 65.3774 43.6278 57.2284 49.0295 51.6782C54.4314 46.1277 61.9766 43.1472 70.5499 43.1472V42.7896ZM39.9835 75.7653H39.6259C39.6259 86.2322 42.9645 94.6448 48.5149 100.443C54.0655 106.242 61.8035 109.4 70.5499 109.4V109.042V108.684C61.9804 108.684 54.4352 105.594 49.0315 99.9486C43.6276 94.3033 40.341 86.0775 40.341 75.7653H39.9835ZM70.5499 109.042V109.4C79.0735 109.4 86.8097 106.202 92.4143 100.407C98.0195 94.6109 101.474 86.2368 101.474 75.9158H101.116H100.759C100.759 86.0729 97.3622 94.2619 91.9002 99.9096C86.4377 105.558 78.8906 108.684 70.5499 108.684V109.042Z" fill="black" mask="url(#path-5-outside-2_10964_64287)"/>
</g>
<g opacity="0.6">
<mask id="path-7-outside-3_10964_64287" maskUnits="userSpaceOnUse" x="29.407" y="31.6816" width="84" height="86" fill="black">
<rect fill="white" x="29.407" y="31.6816" width="84" height="86"/>
<path d="M30.6345 74.4244C30.6345 48.6763 47.3482 32.2638 69.9343 32.2638C86.4974 32.2638 97.7904 41.1476 102.458 51.5372V33.4684H112.998V115.682H102.458V97.4622C97.6399 108.002 86.1962 116.886 69.7837 116.886C47.3482 116.886 30.6345 100.173 30.6345 74.4244ZM102.458 74.575C102.458 54.097 88.756 41.4488 71.8917 41.4488C54.5758 41.4488 41.3253 53.4947 41.3253 74.4244C41.3253 95.2036 54.5758 107.701 71.8917 107.701C88.756 107.701 102.458 95.053 102.458 74.575Z"/>
</mask>
<path d="M102.458 51.5372L102.132 51.6838L102.816 51.5372H102.458ZM102.458 33.4684V33.1108H102.101V33.4684H102.458ZM112.998 33.4684H113.356V33.1108H112.998V33.4684ZM112.998 115.682V116.039H113.356V115.682H112.998ZM102.458 115.682H102.101V116.039H102.458V115.682ZM102.458 97.4622H102.816L102.133 97.3136L102.458 97.4622ZM30.6345 74.4244H30.9921C30.9921 61.629 35.1437 51.1817 42.0731 43.9357C49.0018 36.6903 58.7307 32.6214 69.9343 32.6214V32.2638V31.9062C58.5518 31.9062 48.6308 36.0435 41.5562 43.4414C34.4822 50.8387 30.2769 61.4717 30.2769 74.4244H30.6345ZM69.9343 32.2638V32.6214C86.3584 32.6214 97.5227 41.4242 102.132 51.6838L102.458 51.5372L102.784 51.3907C98.0582 40.871 86.6364 31.9062 69.9343 31.9062V32.2638ZM102.458 51.5372H102.816V33.4684H102.458H102.101V51.5372H102.458ZM102.458 33.4684V33.826H112.998V33.4684V33.1108H102.458V33.4684ZM112.998 33.4684H112.641V115.682H112.998H113.356V33.4684H112.998ZM112.998 115.682V115.324H102.458V115.682V116.039H112.998V115.682ZM102.458 115.682H102.816V97.4622H102.458H102.101V115.682H102.458ZM102.458 97.4622L102.133 97.3136C97.3729 107.726 86.0566 116.529 69.7837 116.529V116.886V117.244C86.3359 117.244 97.9068 108.279 102.783 97.6109L102.458 97.4622ZM69.7837 116.886V116.529C58.6581 116.529 48.9669 112.386 42.0558 105.065C35.1439 97.7436 30.9921 87.22 30.9921 74.4244H30.6345H30.2769C30.2769 87.3769 34.482 98.0843 41.5358 105.556C48.5904 113.029 58.4739 117.244 69.7837 117.244V116.886ZM102.458 74.575H102.816C102.816 64.254 99.3613 55.8799 93.7561 50.084C88.1515 44.2888 80.4153 41.0912 71.8917 41.0912V41.4488V41.8064C80.2324 41.8064 87.7795 44.9329 93.242 50.5812C98.704 56.2289 102.101 64.4179 102.101 74.575H102.458ZM71.8917 41.4488V41.0912C63.1491 41.0912 55.4111 44.1336 49.8588 49.8385C44.3062 55.5437 40.9677 63.8825 40.9677 74.4244H41.3253H41.6828C41.6828 64.0366 44.9696 55.8875 50.3713 50.3373C55.7732 44.7869 63.3184 41.8064 71.8917 41.8064V41.4488ZM41.3253 74.4244H40.9677C40.9677 84.8914 44.3063 93.304 49.8567 99.1023C55.4073 104.901 63.1453 108.059 71.8917 108.059V107.701V107.344C63.3222 107.344 55.777 104.253 50.3733 98.6078C44.9694 92.9625 41.6828 84.7367 41.6828 74.4244H41.3253ZM71.8917 107.701V108.059C80.4153 108.059 88.1515 104.861 93.7561 99.066C99.3613 93.2701 102.816 84.896 102.816 74.575H102.458H102.101C102.101 84.7321 98.704 92.9211 93.242 98.5688C87.7795 104.217 80.2324 107.344 71.8917 107.344V107.701Z" fill="black" mask="url(#path-7-outside-3_10964_64287)"/>
</g>
<g opacity="0.5">
<mask id="path-9-outside-4_10964_64287" maskUnits="userSpaceOnUse" x="30.7468" y="30.3408" width="84" height="86" fill="black">
<rect fill="white" x="30.7468" y="30.3408" width="84" height="86"/>
<path d="M31.9744 73.0836C31.9744 47.3355 48.6881 30.923 71.2741 30.923C87.8372 30.923 99.1303 39.8068 103.798 50.1964V32.1275H114.338V114.341H103.798V96.1214C98.9797 106.662 87.5361 115.545 71.1235 115.545C48.6881 115.545 31.9744 98.8317 31.9744 73.0836ZM103.798 73.2342C103.798 52.7562 90.0958 40.108 73.2316 40.108C55.9156 40.108 42.6651 52.1539 42.6651 73.0836C42.6651 93.8628 55.9156 106.36 73.2316 106.36C90.0958 106.36 103.798 93.7122 103.798 73.2342Z"/>
</mask>
<path d="M103.798 50.1964L103.472 50.3429L104.156 50.1964H103.798ZM103.798 32.1275V31.77H103.44V32.1275H103.798ZM114.338 32.1275H114.696V31.77H114.338V32.1275ZM114.338 114.341V114.698H114.696V114.341H114.338ZM103.798 114.341H103.44V114.698H103.798V114.341ZM103.798 96.1214H104.156L103.473 95.9727L103.798 96.1214ZM31.9744 73.0836H32.3319C32.3319 60.2882 36.4836 49.8409 43.4129 42.5949C50.3417 35.3494 60.0705 31.2805 71.2741 31.2805V30.923V30.5654C59.8916 30.5654 49.9706 34.7027 42.896 42.1006C35.822 49.4979 31.6168 60.1309 31.6168 73.0836H31.9744ZM71.2741 30.923V31.2805C87.6982 31.2805 98.8625 40.0834 103.472 50.3429L103.798 50.1964L104.124 50.0499C99.398 39.5302 87.9763 30.5654 71.2741 30.5654V30.923ZM103.798 50.1964H104.156V32.1275H103.798H103.44V50.1964H103.798ZM103.798 32.1275V32.4851H114.338V32.1275V31.77H103.798V32.1275ZM114.338 32.1275H113.981V114.341H114.338H114.696V32.1275H114.338ZM114.338 114.341V113.983H103.798V114.341V114.698H114.338V114.341ZM103.798 114.341H104.156V96.1214H103.798H103.44V114.341H103.798ZM103.798 96.1214L103.473 95.9727C98.7128 106.385 87.3964 115.188 71.1236 115.188V115.545V115.903C87.6757 115.903 99.2466 106.938 104.123 96.2701L103.798 96.1214ZM71.1236 115.545V115.188C59.9979 115.188 50.3068 111.046 43.3957 103.725C36.4838 96.4028 32.3319 85.8792 32.3319 73.0836H31.9744H31.6168C31.6168 86.0361 35.8218 96.7434 42.8756 104.216C49.9303 111.688 59.8137 115.903 71.1236 115.903V115.545ZM103.798 73.2342H104.156C104.156 62.9132 100.701 54.5391 95.096 48.7432C89.4913 42.9479 81.7552 39.7504 73.2316 39.7504V40.1079V40.4655C81.5722 40.4655 89.1194 43.5921 94.5819 49.2404C100.044 54.8881 103.44 63.0771 103.44 73.2342H103.798ZM73.2316 40.1079V39.7504C64.489 39.7504 56.7509 42.7928 51.1986 48.4977C45.646 54.2029 42.3075 62.5417 42.3075 73.0836H42.6651H43.0227C43.0227 62.6957 46.3094 54.5467 51.7111 48.9965C57.113 43.4461 64.6582 40.4655 73.2316 40.4655V40.1079ZM42.6651 73.0836H42.3075C42.3075 83.5506 45.6462 91.9632 51.1965 97.7615C56.7471 103.56 64.4851 106.718 73.2316 106.718V106.36V106.003C64.6621 106.003 57.1168 102.912 51.7132 97.2669C46.3093 91.6216 43.0227 83.3958 43.0227 73.0836H42.6651ZM73.2316 106.36V106.718C81.7552 106.718 89.4913 103.52 95.096 97.7251C100.701 91.9293 104.156 83.5552 104.156 73.2342H103.798H103.44C103.44 83.3912 100.044 91.5802 94.5819 97.228C89.1194 102.876 81.5722 106.003 73.2316 106.003V106.36Z" fill="black" mask="url(#path-9-outside-4_10964_64287)"/>
</g>
<g opacity="0.3">
<mask id="path-11-outside-5_10964_64287" maskUnits="userSpaceOnUse" x="32.0886" y="29" width="84" height="86" fill="black">
<rect fill="white" x="32.0886" y="29" width="84" height="86"/>
<path d="M33.3162 71.7428C33.3162 45.9947 50.0299 29.5821 72.6159 29.5821C89.179 29.5821 100.472 38.466 105.14 48.8556V30.7867H115.68V113H105.14V94.7806C100.321 105.321 88.8779 114.205 72.4653 114.205C50.0299 114.205 33.3162 97.4909 33.3162 71.7428ZM105.14 71.8934C105.14 51.4153 91.4376 38.7671 74.5734 38.7671C57.2574 38.7671 44.0069 50.813 44.0069 71.7428C44.0069 92.522 57.2574 105.02 74.5734 105.02C91.4376 105.02 105.14 92.3714 105.14 71.8934Z"/>
</mask>
<path d="M105.14 48.8556L104.814 49.0021L105.497 48.8556H105.14ZM105.14 30.7867V30.4291H104.782V30.7867H105.14ZM115.68 30.7867H116.038V30.4291H115.68V30.7867ZM115.68 113V113.358H116.038V113H115.68ZM105.14 113H104.782V113.358H105.14V113ZM105.14 94.7806H105.497L104.815 94.6319L105.14 94.7806ZM33.3162 71.7428H33.6737C33.6737 58.9474 37.8254 48.5001 44.7547 41.2541C51.6835 34.0086 61.4123 29.9397 72.6159 29.9397V29.5821V29.2245C61.2334 29.2245 51.3124 33.3619 44.2378 40.7598C37.1638 48.1571 32.9586 58.7901 32.9586 71.7428H33.3162ZM72.6159 29.5821V29.9397C89.04 29.9397 100.204 38.7426 104.814 49.0021L105.14 48.8556L105.466 48.709C100.74 38.1894 89.3181 29.2245 72.6159 29.2245V29.5821ZM105.14 48.8556H105.497V30.7867H105.14H104.782V48.8556H105.14ZM105.14 30.7867V31.1443H115.68V30.7867V30.4291H105.14V30.7867ZM115.68 30.7867H115.322V113H115.68H116.038V30.7867H115.68ZM115.68 113V112.642H105.14V113V113.358H115.68V113ZM105.14 113H105.497V94.7806H105.14H104.782V113H105.14ZM105.14 94.7806L104.815 94.6319C100.055 105.045 88.7382 113.847 72.4653 113.847V114.205V114.562C89.0175 114.562 100.588 105.597 105.465 94.9292L105.14 94.7806ZM72.4653 114.205V113.847C61.3397 113.847 51.6486 109.705 44.7375 102.384C37.8255 95.062 33.6737 84.5384 33.6737 71.7428H33.3162H32.9586C32.9586 84.6953 37.1636 95.4026 44.2174 102.875C51.272 110.348 61.1555 114.562 72.4653 114.562V114.205ZM105.14 71.8934H105.497C105.497 61.5724 102.043 53.1983 96.4378 47.4024C90.8331 41.6071 83.097 38.4095 74.5734 38.4095V38.7671V39.1247C82.914 39.1247 90.4612 42.2513 95.9237 47.8996C101.386 53.5473 104.782 61.7363 104.782 71.8934H105.14ZM74.5734 38.7671V38.4095C65.8308 38.4095 58.0927 41.452 52.5404 47.1569C46.9878 52.8621 43.6493 61.2009 43.6493 71.7428H44.0069H44.3645C44.3645 61.3549 47.6512 53.2059 53.0529 47.6557C58.4548 42.1053 66 39.1247 74.5734 39.1247V38.7671ZM44.0069 71.7428H43.6493C43.6493 82.2097 46.988 90.6223 52.5383 96.4206C58.0889 102.219 65.8269 105.377 74.5734 105.377V105.02V104.662C66.0039 104.662 58.4586 101.571 53.055 95.9261C47.6511 90.2808 44.3645 82.055 44.3645 71.7428H44.0069ZM74.5734 105.02V105.377C83.097 105.377 90.8331 102.18 96.4378 96.3843C102.043 90.5885 105.497 82.2143 105.497 71.8934H105.14H104.782C104.782 82.0504 101.386 90.2394 95.9237 95.8871C90.4612 101.535 82.914 104.662 74.5734 104.662V105.02Z" fill="black" mask="url(#path-11-outside-5_10964_64287)"/>
</g>
<g opacity="0.1">
<mask id="path-13-outside-6_10964_64287" maskUnits="userSpaceOnUse" x="28.894" y="33.0002" width="84" height="86" fill="black">
<rect fill="white" x="28.894" y="33.0002" width="84" height="86"/>
<path d="M30.1216 75.743C30.1216 49.9949 46.8353 33.5824 69.4213 33.5824C85.9845 33.5824 97.2775 42.4662 101.945 52.8558V34.787H112.485V117H101.945V98.7808C97.1269 109.321 85.6833 118.205 69.2708 118.205C46.8353 118.205 30.1216 101.491 30.1216 75.743ZM101.945 75.8936C101.945 55.4156 88.2431 42.7674 71.3788 42.7674C54.0628 42.7674 40.8123 54.8133 40.8123 75.743C40.8123 96.5222 54.0628 109.02 71.3788 109.02C88.2431 109.02 101.945 96.3716 101.945 75.8936Z"/>
</mask>
<path d="M101.945 52.8558L101.619 53.0024L102.303 52.8558H101.945ZM101.945 34.787V34.4294H101.588V34.787H101.945ZM112.485 34.787H112.843V34.4294H112.485V34.787ZM112.485 117V117.358H112.843V117H112.485ZM101.945 117H101.588V117.358H101.945V117ZM101.945 98.7808H102.303L101.62 98.6322L101.945 98.7808ZM30.1216 75.743H30.4792C30.4792 62.9476 34.6308 52.5003 41.5601 45.2543C48.4889 38.0089 58.2178 33.94 69.4213 33.94V33.5824V33.2248C58.0388 33.2248 48.1178 37.3622 41.0433 44.76C33.9692 52.1573 29.764 62.7903 29.764 75.743H30.1216ZM69.4213 33.5824V33.94C85.8454 33.94 97.0097 42.7428 101.619 53.0024L101.945 52.8558L102.271 52.7093C97.5452 42.1897 86.1235 33.2248 69.4213 33.2248V33.5824ZM101.945 52.8558H102.303V34.787H101.945H101.588V52.8558H101.945ZM101.945 34.787V35.1446H112.485V34.787V34.4294H101.945V34.787ZM112.485 34.787H112.128V117H112.485H112.843V34.787H112.485ZM112.485 117V116.643H101.945V117V117.358H112.485V117ZM101.945 117H102.303V98.7808H101.945H101.588V117H101.945ZM101.945 98.7808L101.62 98.6322C96.86 109.045 85.5437 117.847 69.2708 117.847V118.205V118.562C85.8229 118.562 97.3938 109.597 102.27 98.9295L101.945 98.7808ZM69.2708 118.205V117.847C58.1451 117.847 48.454 113.705 41.5429 106.384C34.631 99.0622 30.4792 88.5386 30.4792 75.743H30.1216H29.764C29.764 88.6955 33.969 99.4029 41.0228 106.875C48.0775 114.348 57.9609 118.562 69.2708 118.562V118.205ZM101.945 75.8936H102.303C102.303 65.5726 98.8484 57.1985 93.2432 51.4026C87.6385 45.6074 79.9024 42.4098 71.3788 42.4098V42.7674V43.125C79.7195 43.125 87.2666 46.2515 92.7291 51.8998C98.191 57.5475 101.588 65.7365 101.588 75.8936H101.945ZM71.3788 42.7674V42.4098C62.6362 42.4098 54.8981 45.4522 49.3458 51.1572C43.7933 56.8623 40.4547 65.2011 40.4547 75.743H40.8123H41.1699C41.1699 65.3552 44.4566 57.2061 49.8583 51.6559C55.2603 46.1055 62.8054 43.125 71.3788 43.125V42.7674ZM40.8123 75.743H40.4547C40.4547 86.21 43.7934 94.6226 49.3438 100.421C54.8944 106.219 62.6323 109.377 71.3788 109.377V109.02V108.662C62.8093 108.662 55.264 105.571 49.8604 99.9264C44.4565 94.2811 41.1699 86.0553 41.1699 75.743H40.8123ZM71.3788 109.02V109.377C79.9024 109.377 87.6385 106.18 93.2432 100.385C98.8484 94.5887 102.303 86.2146 102.303 75.8936H101.945H101.588C101.588 86.0507 98.191 94.2397 92.7291 99.8874C87.2666 105.536 79.7195 108.662 71.3788 108.662V109.02Z" fill="black" mask="url(#path-13-outside-6_10964_64287)"/>
</g>
</g>
<defs>
<linearGradient id="paint0_linear_10964_64287" x1="0" y1="0" x2="295.411" y2="129.804" gradientUnits="userSpaceOnUse">
<stop stop-color="#FCC188"/>
<stop offset="0.650677" stop-color="#7042D2"/>
<stop offset="1" stop-color="#2E008E"/>
</linearGradient>
<clipPath id="clip0_10964_64287">
<rect width="149" height="149" fill="white"/>
</clipPath>
</defs>
</svg>
