<svg width="149" height="149" viewBox="0 0 149 149" fill="none" xmlns="http://www.w3.org/2000/svg">
<rect width="149" height="149" fill="#010101"/>
<rect x="10" y="79" width="60" height="60" rx="10" fill="white"/>
<rect x="10" y="10" width="60" height="60" rx="10" fill="url(#paint0_linear_10964_64299)"/>
<path d="M18.0007 39.7496H22.9793V44.7058H18.0007V39.7496Z" fill="white"/>
<path d="M32.7981 44.7058C32.1343 36.9412 25.9756 35 22.9793 35V39.7496C26.5196 39.8598 27.7274 43.0996 27.8887 44.7058H32.7981Z" fill="white"/>
<path d="M40.3682 36.99H41.632V44.7056H40.3682L36.5658 38.9521V44.7056H35.302V36.99H36.5658L40.3682 42.7324V36.99Z" fill="white"/>
<path d="M48.3355 41.646C48.3355 43.5638 46.9166 44.8054 45.165 44.8054C43.4246 44.8054 42.1054 43.5638 42.1054 41.646C42.1054 39.7281 43.48 38.4976 45.2204 38.4976C46.9609 38.4976 48.3355 39.7281 48.3355 41.646ZM43.3913 41.646C43.3913 43.0317 44.2116 43.7079 45.165 43.7079C46.1073 43.7079 47.0385 43.0317 47.0385 41.646C47.0385 40.2603 46.1406 39.5951 45.1983 39.5951C44.2449 39.5951 43.3913 40.2603 43.3913 41.646Z" fill="white"/>
<path d="M48.8088 44.7056V36.5022H50.0726V44.7056H48.8088Z" fill="white"/>
<path d="M56.4876 38.5974V44.7056H55.2238V43.974C54.8248 44.495 54.1374 44.7943 53.4169 44.7943C51.9868 44.7943 50.9004 43.8964 50.9004 42.1892V38.5974H52.1531V42.0007C52.1531 43.1204 52.7628 43.6968 53.6829 43.6968C54.6141 43.6968 55.2238 43.1204 55.2238 42.0007V38.5974H56.4876Z" fill="white"/>
<path d="M60.5385 44.7056L59.2193 42.6326L57.9777 44.7056H56.6585L58.6318 41.7014L56.6585 38.5974H58.0886L59.4078 40.6704L60.6494 38.5974H61.9686L59.9953 41.6127L61.9686 44.7056H60.5385Z" fill="white"/>
<path d="M18.0007 108.75H22.9793V113.706H18.0007V108.75Z" fill="black"/>
<path d="M32.7981 113.706C32.1343 105.941 25.9756 104 22.9793 104V108.75C26.5196 108.86 27.7274 112.1 27.8887 113.706H32.7981Z" fill="black"/>
<path d="M40.3682 105.99H41.632V113.706H40.3682L36.5658 107.952V113.706H35.302V105.99H36.5658L40.3682 111.732V105.99Z" fill="black"/>
<path d="M48.3355 110.646C48.3355 112.564 46.9166 113.805 45.165 113.805C43.4246 113.805 42.1054 112.564 42.1054 110.646C42.1054 108.728 43.48 107.498 45.2204 107.498C46.9609 107.498 48.3355 108.728 48.3355 110.646ZM43.3913 110.646C43.3913 112.032 44.2116 112.708 45.165 112.708C46.1073 112.708 47.0385 112.032 47.0385 110.646C47.0385 109.26 46.1406 108.595 45.1983 108.595C44.2449 108.595 43.3913 109.26 43.3913 110.646Z" fill="black"/>
<path d="M48.8088 113.706V105.502H50.0726V113.706H48.8088Z" fill="black"/>
<path d="M56.4876 107.597V113.706H55.2238V112.974C54.8248 113.495 54.1374 113.794 53.4169 113.794C51.9868 113.794 50.9004 112.896 50.9004 111.189V107.597H52.1531V111.001C52.1531 112.12 52.7628 112.697 53.6829 112.697C54.6141 112.697 55.2238 112.12 55.2238 111.001V107.597H56.4876Z" fill="black"/>
<path d="M60.5385 113.706L59.2193 111.633L57.9777 113.706H56.6585L58.6318 110.701L56.6585 107.597H58.0886L59.4078 109.67L60.6494 107.597H61.9686L59.9953 110.613L61.9686 113.706H60.5385Z" fill="black"/>
<rect x="79" y="10" width="60" height="60" rx="10" fill="#4648FF"/>
<rect x="79" y="79" width="60" height="60" rx="10" fill="#16171F"/>
<path d="M87.0007 39.7496H91.9793V44.7058H87.0007V39.7496Z" fill="white"/>
<path d="M101.798 44.7058C101.134 36.9412 94.9756 35 91.9793 35V39.7496C95.5196 39.8598 96.7274 43.0996 96.8887 44.7058H101.798Z" fill="white"/>
<path d="M109.368 36.99H110.632V44.7056H109.368L105.566 38.9521V44.7056H104.302V36.99H105.566L109.368 42.7324V36.99Z" fill="white"/>
<path d="M117.336 41.646C117.336 43.5638 115.917 44.8054 114.165 44.8054C112.425 44.8054 111.105 43.5638 111.105 41.646C111.105 39.7281 112.48 38.4976 114.22 38.4976C115.961 38.4976 117.336 39.7281 117.336 41.646ZM112.391 41.646C112.391 43.0317 113.212 43.7079 114.165 43.7079C115.107 43.7079 116.039 43.0317 116.039 41.646C116.039 40.2603 115.141 39.5951 114.198 39.5951C113.245 39.5951 112.391 40.2603 112.391 41.646Z" fill="white"/>
<path d="M117.809 44.7056V36.5022H119.073V44.7056H117.809Z" fill="white"/>
<path d="M125.488 38.5974V44.7056H124.224V43.974C123.825 44.495 123.137 44.7943 122.417 44.7943C120.987 44.7943 119.9 43.8964 119.9 42.1892V38.5974H121.153V42.0007C121.153 43.1204 121.763 43.6968 122.683 43.6968C123.614 43.6968 124.224 43.1204 124.224 42.0007V38.5974H125.488Z" fill="white"/>
<path d="M129.539 44.7056L128.219 42.6326L126.978 44.7056H125.658L127.632 41.7014L125.658 38.5974H127.089L128.408 40.6704L129.649 38.5974H130.969L128.995 41.6127L130.969 44.7056H129.539Z" fill="white"/>
<path d="M87.0007 108.75H91.9793V113.706H87.0007V108.75Z" fill="white"/>
<path d="M101.798 113.706C101.134 105.941 94.9756 104 91.9793 104V108.75C95.5196 108.86 96.7274 112.1 96.8887 113.706H101.798Z" fill="white"/>
<path d="M109.368 105.99H110.632V113.706H109.368L105.566 107.952V113.706H104.302V105.99H105.566L109.368 111.732V105.99Z" fill="white"/>
<path d="M117.336 110.646C117.336 112.564 115.917 113.805 114.165 113.805C112.425 113.805 111.105 112.564 111.105 110.646C111.105 108.728 112.48 107.498 114.22 107.498C115.961 107.498 117.336 108.728 117.336 110.646ZM112.391 110.646C112.391 112.032 113.212 112.708 114.165 112.708C115.107 112.708 116.039 112.032 116.039 110.646C116.039 109.26 115.141 108.595 114.198 108.595C113.245 108.595 112.391 109.26 112.391 110.646Z" fill="white"/>
<path d="M117.809 113.706V105.502H119.073V113.706H117.809Z" fill="white"/>
<path d="M125.488 107.597V113.706H124.224V112.974C123.825 113.495 123.137 113.794 122.417 113.794C120.987 113.794 119.9 112.896 119.9 111.189V107.597H121.153V111.001C121.153 112.12 121.763 112.697 122.683 112.697C123.614 112.697 124.224 112.12 124.224 111.001V107.597H125.488Z" fill="white"/>
<path d="M129.539 113.706L128.219 111.633L126.978 113.706H125.658L127.632 110.701L125.658 107.597H127.089L128.408 109.67L129.649 107.597H130.969L128.995 110.613L130.969 113.706H129.539Z" fill="white"/>
<defs>
<linearGradient id="paint0_linear_10964_64299" x1="10" y1="10" x2="81.3253" y2="30.397" gradientUnits="userSpaceOnUse">
<stop stop-color="#FCC188"/>
<stop offset="0.650677" stop-color="#7042D2"/>
<stop offset="1" stop-color="#2E008E"/>
</linearGradient>
</defs>
</svg>
