<svg width="231" height="32" viewBox="0 0 231 32" fill="none" xmlns="http://www.w3.org/2000/svg">
<path d="M8.35738 0.792457C10.255 0.769112 12.1559 0.779116 14.0535 0.785786C16.7614 8.6696 19.5028 16.5434 22.2141 24.4272C20.4666 24.4306 18.7224 24.4372 16.9749 24.4239C16.4446 22.7864 15.9144 21.1523 15.3841 19.5148C12.5227 19.5048 9.66134 19.5115 6.79996 19.5115C6.26636 21.149 5.73944 22.7898 5.20585 24.4272C3.47168 24.4339 1.73417 24.4306 0 24.4272C2.78135 16.5501 5.58937 8.67627 8.35738 0.792457ZM11.1287 5.7115C10.1416 8.96308 9.22113 12.238 8.14061 15.4595C10.1249 15.4662 12.1059 15.4629 14.0868 15.4629C12.9829 12.248 12.0925 8.96975 11.1287 5.7115Z" fill="#767676"/>
<path d="M77.799 2.02066C79.5299 0.496594 81.9877 0.813412 84.1154 0.783397C84.1121 2.02733 84.1154 3.2746 84.1088 4.52187C83.205 4.5819 82.1612 4.36513 81.4008 4.97876C80.7538 5.60573 80.9106 6.5762 80.8372 7.38659C81.9277 7.35658 83.0182 7.32323 84.1121 7.28988C84.1121 8.44044 84.1121 9.58766 84.1121 10.7382C83.0282 10.7015 81.9444 10.6682 80.8605 10.6415C80.8539 15.2371 80.8605 19.8326 80.8572 24.4315C79.2998 24.4315 77.739 24.4315 76.1816 24.4282C76.1749 19.8326 76.1849 15.2371 76.1783 10.6382C75.3812 10.6682 74.5842 10.7015 73.7871 10.7349C73.7871 9.58766 73.7871 8.44044 73.7904 7.29321C74.5808 7.32323 75.3745 7.35324 76.1683 7.38659C76.1416 5.51235 76.255 3.3313 77.799 2.02066Z" fill="#767676"/>
<path d="M94.29 0.779785C96.5912 0.779785 98.8956 0.779785 101.197 0.779785C102.767 6.98279 104.682 13.1057 105.849 19.4021C107.183 13.1391 108.964 6.98612 110.535 0.783118C112.869 0.776448 115.207 0.78312 117.545 0.779785C117.541 8.6636 117.545 16.5474 117.541 24.4312C116.017 24.4312 114.493 24.4346 112.969 24.4279C113.009 20.436 112.862 16.4374 113.116 12.4488C113.233 9.63407 113.446 6.81937 113.469 4.00134C112.119 10.8847 110.161 17.6246 108.447 24.4246C106.773 24.4379 105.099 24.4346 103.424 24.4246C101.68 17.6246 99.7994 10.858 98.302 3.99801C98.382 6.92276 98.5754 9.84417 98.7022 12.7689C98.9356 16.6508 98.7922 20.5427 98.8322 24.4279C97.3182 24.4312 95.8074 24.4346 94.2934 24.4279C94.2934 16.5441 94.2967 8.6636 94.29 0.779785Z" fill="#767676"/>
<path d="M170.639 0.779785C172.2 0.779785 173.757 0.779783 175.318 0.783118C175.318 8.6636 175.318 16.5474 175.318 24.4279C173.931 24.4312 172.55 24.4312 171.166 24.4279C171.11 23.7242 171.056 23.0205 171.016 22.3169C170.396 23.1073 169.722 23.8976 168.802 24.3445C166.217 25.6618 162.836 24.8848 160.958 22.7137C159.13 20.6427 158.547 17.758 158.687 15.0667C158.79 12.6789 159.571 10.191 161.372 8.54021C163.899 6.15572 168.392 6.34248 170.646 9.02044C170.636 6.27244 170.646 3.52778 170.639 0.779785ZM165.714 10.9914C162.912 12.2553 162.672 16.1139 163.716 18.6384C164.506 20.7761 167.478 21.6199 169.209 20.0825C171.103 18.3449 171.226 15.3101 170.322 13.039C169.656 11.2515 167.494 10.2444 165.714 10.9914Z" fill="#767676"/>
<path d="M37.8461 2.0069C39.4035 2.00356 40.9642 2.00356 42.5217 2.0069C42.5317 3.8011 42.5217 5.59196 42.5283 7.38616C43.5888 7.35615 44.6493 7.3228 45.7099 7.28945C45.7099 8.44001 45.7099 9.58723 45.7099 10.7378C44.6493 10.7011 43.5888 10.6678 42.5283 10.6377C42.5283 13.3524 42.5183 16.0704 42.5283 18.785C42.5283 19.4387 42.5917 20.3191 43.3354 20.5525C44.1091 20.7426 44.9161 20.6659 45.7065 20.6893C45.7099 21.9365 45.7099 23.1805 45.7099 24.4311C43.6555 24.3277 41.4111 24.7746 39.5302 23.7441C37.9494 22.7903 37.8327 20.7393 37.8427 19.0852C37.8427 16.2705 37.8461 13.4558 37.8427 10.6377C37.0657 10.6711 36.292 10.7011 35.5216 10.7344C35.5149 9.58723 35.5149 8.44001 35.5216 7.28945C36.292 7.31279 37.0657 7.33281 37.8394 7.35615C37.8494 5.57195 37.8394 3.79109 37.8461 2.0069Z" fill="#767676"/>
<path d="M31.1729 7.37618C32.2167 6.7292 33.4873 6.80924 34.6546 6.95264C34.6546 8.35999 34.6546 9.76734 34.6546 11.178C33.3439 11.118 31.8732 11.1247 30.8327 12.0484C29.6855 13.0456 29.4654 14.663 29.4387 16.0971C29.422 18.8751 29.4387 21.6498 29.4354 24.4278C27.8779 24.4344 26.3205 24.4311 24.7598 24.4278C24.7598 18.7183 24.7598 13.0056 24.7631 7.29281C26.2838 7.28947 27.8079 7.28947 29.332 7.29281C29.3153 8.07985 29.2953 8.8669 29.2686 9.65395C29.7422 8.78019 30.2524 7.84974 31.1729 7.37618Z" fill="#767676"/>
<path d="M145.365 9.60041C147.016 6.63898 151.341 6.00534 153.943 8.03632C155.443 9.23357 155.947 11.2445 155.94 13.0888C155.954 16.8673 155.944 20.6491 155.944 24.4276C154.383 24.4309 152.825 24.4309 151.268 24.4276C151.268 21.2027 151.265 17.9811 151.271 14.7562C151.258 13.7357 151.241 12.6152 150.561 11.7848C149.727 10.891 148.273 10.9177 147.256 11.4546C145.969 12.1583 145.432 13.6991 145.422 15.0964C145.392 18.2046 145.418 21.3161 145.412 24.4276C143.851 24.4309 142.29 24.4409 140.729 24.4209C140.746 18.7082 140.726 12.9987 140.74 7.2893C142.26 7.29263 143.784 7.2893 145.308 7.29263C145.332 8.063 145.352 8.83004 145.365 9.60041Z" fill="#767676"/>
<path d="M217.294 8.16985C219.715 6.58909 222.926 6.53239 225.588 7.5062C227.652 8.24655 229.149 10.1641 229.459 12.3252C228.069 12.3852 226.675 12.4553 225.284 12.4953C224.807 10.2142 221.699 9.43046 219.968 10.7611C219.061 11.4448 219.358 12.9588 220.398 13.339C222.963 14.3228 225.954 14.1294 228.289 15.7268C230.32 17.1075 230.483 20.109 229.299 22.0933C228.125 24.0209 225.794 24.8212 223.65 24.988C221.262 25.1647 218.618 24.9213 216.71 23.3238C215.496 22.34 214.892 20.826 214.669 19.3152C216.08 19.2652 217.494 19.2085 218.911 19.1618C219.158 20.1023 219.641 21.0728 220.608 21.4396C222.012 21.9799 223.71 21.9565 225.034 21.2028C226.011 20.5992 225.861 18.9551 224.75 18.5916C222.109 17.5644 218.941 17.8979 216.64 16.0403C214.215 14.0527 214.736 9.82065 217.294 8.16985Z" fill="#767676"/>
<path d="M61.6241 7.14615C64.6022 6.36577 68.0105 7.21619 70.1549 9.46394C73.5966 13.079 73.4232 19.5622 69.6413 22.8738C66.4698 25.6818 61.2373 25.6818 58.0724 22.8671C54.2973 19.5488 54.1272 13.0657 57.5755 9.45727C58.666 8.31672 60.0934 7.523 61.6241 7.14615ZM62.9881 10.6045C61.2206 10.9146 60.0567 12.5821 59.7699 14.2629C59.4197 16.2939 59.5898 18.6651 61.0772 20.2291C62.768 21.97 66.0629 21.6065 67.2469 19.4521C68.3874 17.3911 68.3941 14.7298 67.3702 12.6221C66.5999 11.028 64.6889 10.2176 62.9881 10.6045Z" fill="#767676"/>
<path d="M126.983 7.14951C129.965 6.36579 133.373 7.21621 135.517 9.46396C138.962 13.0757 138.789 19.5588 135.007 22.8738C131.842 25.6818 126.613 25.6818 123.448 22.8738C119.666 19.5622 119.49 13.0824 122.931 9.46729C124.022 8.32341 125.449 7.52636 126.983 7.14951ZM128.364 10.6012C126.596 10.908 125.429 12.5721 125.139 14.2529C124.785 16.2839 124.952 18.6584 126.443 20.2258C128.134 21.97 131.435 21.6065 132.613 19.4455C133.753 17.3845 133.76 14.7165 132.733 12.6121C131.959 11.028 130.061 10.221 128.364 10.6012Z" fill="#767676"/>
<path d="M180.785 8.31285C182.616 6.93885 185.037 6.81879 187.238 6.94886C189.376 7.07892 191.754 7.91265 192.771 9.95364C193.892 12.1647 193.395 14.726 193.508 17.1071C193.618 19.5483 193.151 22.1195 194.142 24.4373C192.571 24.424 191.004 24.4373 189.436 24.424C189.306 23.8504 189.183 23.2768 189.063 22.7031C186.805 25.1944 182.669 25.6379 179.885 23.8103C177.14 21.9928 177.137 17.2839 180.078 15.6497C182.823 14.149 186.064 14.1023 189.046 13.3319C189.006 12.4348 189.233 11.2576 188.329 10.7007C187.318 10.1204 186.064 10.1504 184.947 10.3238C183.853 10.4706 183.266 11.5177 183.003 12.4849C181.596 12.4348 180.188 12.4315 178.784 12.3948C178.981 10.8708 179.501 9.26664 180.785 8.31285ZM183.73 17.5607C182.453 17.9909 181.956 19.8084 182.95 20.7655C184.687 22.0862 187.649 21.5226 188.616 19.5016C189.099 18.5145 189.029 17.3839 189.046 16.3167C187.278 16.7503 185.447 16.9537 183.73 17.5607Z" fill="#767676"/>
<path d="M195.687 7.29289C197.397 7.28955 199.112 7.28955 200.826 7.29289C202.09 11.2748 203.5 15.21 204.618 19.2387C205.728 15.2334 206.985 11.2715 208.176 7.28955C209.833 7.28955 211.487 7.28955 213.145 7.28955C210.831 14.1062 208.543 20.9295 206.212 27.7361C205.728 29.1835 204.764 30.6609 203.177 31.011C201.313 31.3845 199.395 31.1411 197.507 31.2045C197.504 29.8805 197.504 28.5565 197.507 27.2325C198.635 27.1925 199.795 27.3459 200.906 27.0658C201.729 26.8824 202.06 26.042 202.383 25.3616C200.152 19.3387 197.914 13.3158 195.687 7.29289Z" fill="#767676"/>
</svg>
