<svg width="1718" height="360" viewBox="0 0 1718 360" fill="none" xmlns="http://www.w3.org/2000/svg">
<g filter="url(#filter0_di_10418_9726)">
<g clip-path="url(#clip0_10418_9726)">
<path d="M20 0H1698V316H20V0Z" fill="#121212" fill-opacity="0.4" shape-rendering="crispEdges"/>
<path d="M20 0H1698V316H20V0Z" fill="#D4541D" fill-opacity="0.95" shape-rendering="crispEdges"/>
<circle cx="171.052" cy="233.675" r="0.819941" fill="white" fill-opacity="0.5"/>
<circle cx="997.736" cy="88.0746" r="0.981874" fill="white" fill-opacity="0.5"/>
<circle cx="1596.62" cy="230.453" r="0.800893" fill="white" fill-opacity="0.3"/>
<circle cx="1105.19" cy="65.7858" r="1.11836" fill="white" fill-opacity="0.5"/>
<circle cx="339.221" cy="59.0616" r="0.800893" fill="white" fill-opacity="0.5"/>
<circle cx="505.806" cy="59.0616" r="0.800893" fill="white" fill-opacity="0.3"/>
<circle cx="1521.34" cy="28.6276" r="0.800893" fill="white" fill-opacity="0.5"/>
<circle cx="1196.18" cy="103.911" r="0.800893" fill="white" fill-opacity="0.4"/>
<circle cx="223.892" cy="97.504" r="0.800893" fill="white" fill-opacity="0.4"/>
<circle cx="1162.54" cy="268.896" r="0.800893" fill="white" fill-opacity="0.5"/>
<circle cx="1138.75" cy="157.008" r="1.03797" fill="white" fill-opacity="0.5"/>
<circle cx="438.531" cy="238.462" r="0.800893" fill="white" fill-opacity="0.6"/>
<circle cx="1242.63" cy="297.727" r="0.800893" fill="white" fill-opacity="0.5"/>
<circle cx="153.479" cy="195.279" r="0.866631" fill="white" fill-opacity="0.6"/>
<circle cx="1468.48" cy="259.285" r="0.800893" fill="white" fill-opacity="0.6"/>
<circle cx="105.376" cy="208.044" r="0.81762" fill="white" fill-opacity="0.6"/>
<circle cx="161.519" cy="152.062" r="0.897773" fill="white" fill-opacity="0.4"/>
<circle cx="925.523" cy="289.766" r="0.848726" fill="white" fill-opacity="0.5"/>
<circle cx="1492.85" cy="54.6041" r="1.14905" fill="white" fill-opacity="0.3"/>
<circle cx="1488.07" cy="277.275" r="1.17153" fill="white" fill-opacity="0.4"/>
<circle cx="1447.99" cy="11.3378" r="1.13078" fill="white" fill-opacity="0.6"/>
<circle cx="523.426" cy="15.8131" r="0.800893" fill="white" fill-opacity="0.3"/>
<circle cx="1513.33" cy="75.0797" r="0.800893" fill="white" fill-opacity="0.5"/>
<circle cx="352.404" cy="234.025" r="1.16987" fill="white" fill-opacity="0.5"/>
<circle cx="733.503" cy="14.4545" r="1.04386" fill="white" fill-opacity="0.6"/>
<circle cx="1212.21" cy="176.011" r="0.82029" fill="white" fill-opacity="0.4"/>
<circle cx="380.867" cy="51.0528" r="0.800893" fill="white" fill-opacity="0.3"/>
<circle cx="781.597" cy="169.868" r="1.08411" fill="white" fill-opacity="0.5"/>
<circle cx="1305.1" cy="54.256" r="0.800893" fill="white" fill-opacity="0.6"/>
<circle cx="1465.4" cy="203.345" r="0.923123" fill="white" fill-opacity="0.5"/>
<circle cx="738.238" cy="136.12" r="0.973999" fill="white" fill-opacity="0.5"/>
<circle cx="1081.18" cy="169.912" r="1.12814" fill="white" fill-opacity="0.4"/>
<g filter="url(#filter1_d_10418_9726)">
<circle cx="23.904" cy="171.422" r="1.0358" fill="white" fill-opacity="0.6" shape-rendering="crispEdges"/>
</g>
<circle cx="901.727" cy="4.87985" r="1.08004" fill="white" fill-opacity="0.6"/>
<circle cx="834.462" cy="213.123" r="1.09104" fill="white" fill-opacity="0.3"/>
<circle cx="241.511" cy="305.736" r="0.800893" fill="white" fill-opacity="0.6"/>
<circle cx="832.57" cy="62.2652" r="0.800893" fill="white" fill-opacity="0.3"/>
<circle cx="126.29" cy="225.755" r="0.908359" fill="white" fill-opacity="0.5"/>
<circle cx="106.962" cy="47.8487" r="0.800893" fill="white" fill-opacity="0.3"/>
<circle cx="1537.7" cy="315.693" r="1.14651" fill="white" fill-opacity="0.6"/>
<circle cx="890.234" cy="43.0441" r="0.800893" fill="white" fill-opacity="0.5"/>
<circle cx="1164.14" cy="305.736" r="0.800893" fill="white" fill-opacity="0.4"/>
<circle cx="666.028" cy="3.04253" r="0.844289" fill="white" fill-opacity="0.4"/>
<circle cx="493.294" cy="309.242" r="1.10305" fill="white" fill-opacity="0.4"/>
<circle cx="429.29" cy="86.6606" r="1.16984" fill="white" fill-opacity="0.3"/>
<circle cx="1212.42" cy="54.4846" r="1.02954" fill="white" fill-opacity="0.4"/>
<circle cx="1277.87" cy="76.6813" r="0.800893" fill="white" fill-opacity="0.4"/>
<circle cx="449.834" cy="142.445" r="0.891716" fill="white" fill-opacity="0.5"/>
<circle cx="160.108" cy="125.022" r="1.08824" fill="white" fill-opacity="0.6"/>
<circle cx="518.62" cy="307.339" r="0.800893" fill="white" fill-opacity="0.5"/>
<circle cx="1253.84" cy="256.081" r="0.800893" fill="white" fill-opacity="0.5"/>
<circle cx="789.644" cy="294.846" r="1.12282" fill="white" fill-opacity="0.5"/>
<circle cx="995.952" cy="174.39" r="0.800893" fill="white" fill-opacity="0.5"/>
<circle cx="554.158" cy="121.829" r="1.09912" fill="white" fill-opacity="0.4"/>
<circle cx="629.485" cy="288.457" r="1.14158" fill="white" fill-opacity="0.3"/>
<circle cx="260.931" cy="193.809" r="0.998189" fill="white" fill-opacity="0.3"/>
<circle cx="1127.44" cy="104.048" r="0.937939" fill="white" fill-opacity="0.5"/>
<circle cx="1327.52" cy="7.80431" r="0.800893" fill="white" fill-opacity="0.3"/>
<circle cx="1548.57" cy="300.931" r="0.800893" fill="white" fill-opacity="0.4"/>
<circle cx="172.813" cy="91.2752" r="0.978793" fill="white" fill-opacity="0.4"/>
<circle cx="22.0665" cy="225.647" r="0.800893" fill="white" fill-opacity="0.5"/>
<circle cx="1417.24" cy="139.168" r="0.818047" fill="white" fill-opacity="0.4"/>
<circle cx="606.719" cy="232.054" r="0.800893" fill="white" fill-opacity="0.5"/>
<circle cx="571.662" cy="211.414" r="0.983538" fill="white" fill-opacity="0.5"/>
<circle cx="895.04" cy="137.549" r="0.800893" fill="white" fill-opacity="0.4"/>
<circle cx="672.393" cy="217.638" r="0.800893" fill="white" fill-opacity="0.5"/>
<circle cx="1018.38" cy="289.718" r="0.800893" fill="white" fill-opacity="0.5"/>
<circle cx="581.186" cy="182.494" r="0.895997" fill="white" fill-opacity="0.4"/>
<circle cx="1534.15" cy="156.771" r="0.800893" fill="white" fill-opacity="0.4"/>
<circle cx="1569.63" cy="302.774" r="1.04178" fill="white" fill-opacity="0.4"/>
<circle cx="243.47" cy="38.5948" r="1.1573" fill="white" fill-opacity="0.4"/>
<circle cx="1687.92" cy="283.312" r="0.800893" fill="white" fill-opacity="0.6"/>
<circle cx="1197.78" cy="228.851" r="0.800893" fill="white" fill-opacity="0.5"/>
<circle cx="1317.91" cy="179.195" r="0.800893" fill="white" fill-opacity="0.6"/>
<circle cx="999.166" cy="36.6462" r="0.810264" fill="white" fill-opacity="0.6"/>
<circle cx="384.346" cy="195.49" r="1.07694" fill="white" fill-opacity="0.4"/>
<circle cx="703.195" cy="49.8196" r="1.17016" fill="white" fill-opacity="0.6"/>
<circle cx="744.473" cy="217.638" r="0.800893" fill="white" fill-opacity="0.4"/>
<circle cx="861.403" cy="20.6188" r="0.800893" fill="white" fill-opacity="0.6"/>
<circle cx="268.81" cy="84.7574" r="0.868194" fill="white" fill-opacity="0.5"/>
<circle cx="1422.03" cy="17.4147" r="0.800893" fill="white" fill-opacity="0.4"/>
<circle cx="667.587" cy="140.753" r="0.800893" fill="white" fill-opacity="0.4"/>
<circle cx="1494.11" cy="256.081" r="0.800893" fill="white" fill-opacity="0.6"/>
<circle cx="1401.53" cy="24.1451" r="1.12407" fill="white" fill-opacity="0.4"/>
<circle cx="717.533" cy="62.556" r="1.09161" fill="white" fill-opacity="0.3"/>
<circle cx="992.749" cy="134.345" r="0.800893" fill="white" fill-opacity="0.6"/>
<circle cx="302.379" cy="92.6993" r="0.800893" fill="white" fill-opacity="0.6"/>
<circle cx="1419.16" cy="157.111" r="1.14167" fill="white" fill-opacity="0.3"/>
<circle cx="1547.23" cy="161.835" r="1.06088" fill="white" fill-opacity="0.3"/>
<circle cx="1161.21" cy="86.5667" r="1.07597" fill="white" fill-opacity="0.4"/>
<circle cx="1465.28" cy="246.47" r="0.800893" fill="white" fill-opacity="0.6"/>
<circle cx="316.899" cy="102.412" r="0.903532" fill="white" fill-opacity="0.6"/>
<circle cx="653.328" cy="1.55428" r="0.958085" fill="white" fill-opacity="0.5"/>
<circle cx="600.312" cy="179.195" r="0.800893" fill="white" fill-opacity="0.4"/>
<circle cx="230.638" cy="145.897" r="1.14005" fill="white" fill-opacity="0.4"/>
<circle cx="1125.91" cy="83.3025" r="1.01488" fill="white" fill-opacity="0.5"/>
<circle cx="374.604" cy="209.773" r="0.945047" fill="white" fill-opacity="0.3"/>
<circle cx="134.451" cy="246.729" r="1.05997" fill="white" fill-opacity="0.4"/>
<circle cx="238.308" cy="278.506" r="0.800893" fill="white" fill-opacity="0.3"/>
<circle cx="91.1273" cy="259.469" r="0.984731" fill="white" fill-opacity="0.6"/>
<circle cx="1207.39" cy="119.929" r="0.800893" fill="white" fill-opacity="0.5"/>
<circle cx="807.293" cy="208.379" r="1.15266" fill="white" fill-opacity="0.5"/>
<circle cx="1521.34" cy="240.063" r="0.800893" fill="white" fill-opacity="0.4"/>
<circle cx="1311.74" cy="235.489" r="1.03223" fill="white" fill-opacity="0.4"/>
<circle cx="589.1" cy="111.92" r="0.800893" fill="white" fill-opacity="0.6"/>
<circle cx="520.223" cy="124.735" r="0.800893" fill="white" fill-opacity="0.5"/>
<circle cx="224.282" cy="285.304" r="1.19139" fill="white" fill-opacity="0.4"/>
<circle cx="1215.76" cy="251.641" r="1.16634" fill="white" fill-opacity="0.4"/>
<circle cx="665.984" cy="25.4239" r="0.800893" fill="white" fill-opacity="0.5"/>
<circle cx="138.997" cy="25.4239" r="0.800893" fill="white" fill-opacity="0.4"/>
<circle cx="1574.2" cy="19.0172" r="0.800893" fill="white" fill-opacity="0.4"/>
<circle cx="1247.5" cy="30.2958" r="0.867594" fill="white" fill-opacity="0.5"/>
<circle cx="291.491" cy="102.634" r="1.12517" fill="white" fill-opacity="0.4"/>
<circle cx="115.286" cy="270.812" r="1.11609" fill="white" fill-opacity="0.6"/>
<circle cx="253.048" cy="310.865" r="1.12403" fill="white" fill-opacity="0.3"/>
<circle cx="525.028" cy="7.80431" r="0.800893" fill="white" fill-opacity="0.5"/>
<circle cx="807.285" cy="75.4234" r="1.14456" fill="white" fill-opacity="0.4"/>
<circle cx="935.084" cy="264.09" r="0.800893" fill="white" fill-opacity="0.5"/>
<circle cx="172.824" cy="280.297" r="0.990197" fill="white" fill-opacity="0.4"/>
<path d="M-587.44 219.8C-603.16 219.8 -615.4 215.54 -624.16 207.02C-632.8 198.38 -637.42 186.62 -638.02 171.74C-638.14 168.14 -638.2 162.5 -638.2 154.82C-638.2 147.02 -638.14 141.38 -638.02 137.9C-637.42 123.14 -632.74 111.5 -623.98 102.98C-615.22 94.46 -603.04 90.2 -587.44 90.2C-576.88 90.2 -567.94 92.12 -560.62 95.96C-553.18 99.68 -547.6 104.24 -543.88 109.64C-540.16 115.04 -538.18 120.08 -537.94 124.76V125.12C-537.94 126.08 -538.3 126.86 -539.02 127.46C-539.74 128.06 -540.64 128.36 -541.72 128.36H-552.34C-553.54 128.36 -554.44 128.18 -555.04 127.82C-555.52 127.34 -556 126.44 -556.48 125.12C-558.28 119.72 -561.76 115.1 -566.92 111.26C-571.96 107.42 -578.8 105.5 -587.44 105.5C-597.4 105.5 -605.2 108.2 -610.84 113.6C-616.48 119 -619.54 127.4 -620.02 138.8C-620.14 142.28 -620.2 147.62 -620.2 154.82C-620.2 161.9 -620.14 167.24 -620.02 170.84C-619.54 182.36 -616.48 190.88 -610.84 196.4C-605.2 201.8 -597.4 204.5 -587.44 204.5C-577.36 204.5 -569.32 201.74 -563.32 196.22C-557.32 190.7 -554.32 182.42 -554.32 171.38V163.82H-581.32C-582.52 163.82 -583.54 163.46 -584.38 162.74C-585.1 161.9 -585.46 160.82 -585.46 159.5V153.74C-585.46 152.54 -585.1 151.52 -584.38 150.68C-583.54 149.84 -582.52 149.42 -581.32 149.42H-540.64C-539.44 149.42 -538.48 149.84 -537.76 150.68C-536.92 151.4 -536.5 152.42 -536.5 153.74V171.02C-536.5 180.86 -538.54 189.44 -542.62 196.76C-546.7 204.08 -552.58 209.78 -560.26 213.86C-567.94 217.82 -577 219.8 -587.44 219.8ZM-479.32 219.8C-491.68 219.8 -501.58 216.02 -509.02 208.46C-516.34 200.78 -520.36 190.34 -521.08 177.14L-521.26 171.02L-521.08 165.08C-520.24 152.12 -516.16 141.8 -508.84 134.12C-501.4 126.44 -491.62 122.6 -479.5 122.6C-466.18 122.6 -455.86 126.86 -448.54 135.38C-441.22 143.78 -437.56 155.18 -437.56 169.58V172.64C-437.56 173.84 -437.98 174.86 -438.82 175.7C-439.54 176.42 -440.5 176.78 -441.7 176.78H-503.98V178.4C-503.62 186.2 -501.28 192.86 -496.96 198.38C-492.52 203.78 -486.7 206.48 -479.5 206.48C-473.98 206.48 -469.48 205.4 -466 203.24C-462.4 200.96 -459.76 198.62 -458.08 196.22C-457 194.78 -456.22 193.94 -455.74 193.7C-455.14 193.34 -454.12 193.16 -452.68 193.16H-443.86C-442.78 193.16 -441.88 193.46 -441.16 194.06C-440.44 194.66 -440.08 195.5 -440.08 196.58C-440.08 199.22 -441.76 202.4 -445.12 206.12C-448.36 209.84 -452.98 213.08 -458.98 215.84C-464.86 218.48 -471.64 219.8 -479.32 219.8ZM-454.66 164.36V163.82C-454.66 155.54 -456.94 148.82 -461.5 143.66C-465.94 138.38 -471.94 135.74 -479.5 135.74C-487.06 135.74 -493.06 138.38 -497.5 143.66C-501.82 148.82 -503.98 155.54 -503.98 163.82V164.36H-454.66ZM-383.625 218C-402.585 218 -412.065 207.44 -412.065 186.32V138.8H-426.105C-427.305 138.8 -428.325 138.44 -429.165 137.72C-429.885 136.88 -430.245 135.86 -430.245 134.66V128.54C-430.245 127.34 -429.885 126.38 -429.165 125.66C-428.325 124.82 -427.305 124.4 -426.105 124.4H-412.065V94.34C-412.065 93.14 -411.705 92.18 -410.985 91.46C-410.145 90.62 -409.125 90.2 -407.925 90.2H-399.465C-398.265 90.2 -397.305 90.62 -396.585 91.46C-395.745 92.18 -395.325 93.14 -395.325 94.34V124.4H-373.005C-371.805 124.4 -370.845 124.82 -370.125 125.66C-369.285 126.38 -368.865 127.34 -368.865 128.54V134.66C-368.865 135.86 -369.285 136.88 -370.125 137.72C-370.845 138.44 -371.805 138.8 -373.005 138.8H-395.325V185.06C-395.325 191.06 -394.305 195.62 -392.265 198.74C-390.225 201.74 -386.865 203.24 -382.185 203.24H-371.205C-370.005 203.24 -369.045 203.66 -368.325 204.5C-367.485 205.22 -367.065 206.18 -367.065 207.38V213.86C-367.065 215.06 -367.485 216.08 -368.325 216.92C-369.045 217.64 -370.005 218 -371.205 218H-383.625ZM-310.232 106.94C-311.432 106.94 -312.452 106.58 -313.292 105.86C-314.012 105.02 -314.372 104 -314.372 102.8V93.08C-314.372 91.88 -314.012 90.86 -313.292 90.02C-312.452 89.18 -311.432 88.76 -310.232 88.76H-298.892C-297.692 88.76 -296.672 89.18 -295.832 90.02C-294.992 90.86 -294.572 91.88 -294.572 93.08V102.8C-294.572 104 -294.992 105.02 -295.832 105.86C-296.672 106.58 -297.692 106.94 -298.892 106.94H-310.232ZM-308.792 218C-309.992 218 -311.012 217.64 -311.852 216.92C-312.572 216.08 -312.932 215.06 -312.932 213.86V128.54C-312.932 127.34 -312.572 126.38 -311.852 125.66C-311.012 124.82 -309.992 124.4 -308.792 124.4H-300.152C-298.952 124.4 -297.992 124.82 -297.272 125.66C-296.432 126.38 -296.012 127.34 -296.012 128.54V213.86C-296.012 215.06 -296.432 216.08 -297.272 216.92C-297.992 217.64 -298.952 218 -300.152 218H-308.792ZM-268.798 218C-269.998 218 -271.018 217.64 -271.858 216.92C-272.578 216.08 -272.938 215.06 -272.938 213.86V128.54C-272.938 127.34 -272.578 126.38 -271.858 125.66C-271.018 124.82 -269.998 124.4 -268.798 124.4H-260.338C-259.138 124.4 -258.178 124.82 -257.458 125.66C-256.618 126.38 -256.198 127.34 -256.198 128.54V136.46C-252.718 132.02 -248.638 128.6 -243.958 126.2C-239.158 123.8 -233.218 122.6 -226.138 122.6C-214.618 122.6 -205.678 126.32 -199.318 133.76C-192.838 141.08 -189.598 150.86 -189.598 163.1V213.86C-189.598 215.06 -190.018 216.08 -190.858 216.92C-191.578 217.64 -192.538 218 -193.738 218H-202.738C-203.938 218 -204.958 217.64 -205.798 216.92C-206.518 216.08 -206.878 215.06 -206.878 213.86V164C-206.878 155.48 -208.978 148.88 -213.178 144.2C-217.258 139.52 -223.198 137.18 -230.998 137.18C-238.558 137.18 -244.558 139.58 -248.998 144.38C-253.438 149.06 -255.658 155.6 -255.658 164V213.86C-255.658 215.06 -256.078 216.08 -256.918 216.92C-257.638 217.64 -258.598 218 -259.798 218H-268.798ZM-94.1838 218C-113.144 218 -122.624 207.44 -122.624 186.32V138.8H-136.664C-137.864 138.8 -138.884 138.44 -139.724 137.72C-140.444 136.88 -140.804 135.86 -140.804 134.66V128.54C-140.804 127.34 -140.444 126.38 -139.724 125.66C-138.884 124.82 -137.864 124.4 -136.664 124.4H-122.624V94.34C-122.624 93.14 -122.264 92.18 -121.544 91.46C-120.704 90.62 -119.684 90.2 -118.484 90.2H-110.024C-108.824 90.2 -107.864 90.62 -107.144 91.46C-106.304 92.18 -105.884 93.14 -105.884 94.34V124.4H-83.5638C-82.3638 124.4 -81.4038 124.82 -80.6838 125.66C-79.8438 126.38 -79.4238 127.34 -79.4238 128.54V134.66C-79.4238 135.86 -79.8438 136.88 -80.6838 137.72C-81.4038 138.44 -82.3638 138.8 -83.5638 138.8H-105.884V185.06C-105.884 191.06 -104.864 195.62 -102.824 198.74C-100.784 201.74 -97.4238 203.24 -92.7438 203.24H-81.7638C-80.5638 203.24 -79.6038 203.66 -78.8838 204.5C-78.0438 205.22 -77.6238 206.18 -77.6238 207.38V213.86C-77.6238 215.06 -78.0438 216.08 -78.8838 216.92C-79.6038 217.64 -80.5638 218 -81.7638 218H-94.1838ZM-25.6712 219.8C-38.8712 219.8 -49.1312 216.08 -56.4512 208.64C-63.6512 201.2 -67.4912 191.3 -67.9712 178.94L-68.1512 171.2L-67.9712 163.46C-67.4912 151.22 -63.5912 141.38 -56.2712 133.94C-48.9512 126.38 -38.7512 122.6 -25.6712 122.6C-12.5912 122.6 -2.39123 126.38 4.92877 133.94C12.2488 141.38 16.1488 151.22 16.6288 163.46C16.7488 164.78 16.8088 167.36 16.8088 171.2C16.8088 175.04 16.7488 177.62 16.6288 178.94C16.1488 191.3 12.2488 201.2 4.92877 208.64C-2.27123 216.08 -12.4712 219.8 -25.6712 219.8ZM-25.6712 205.94C-18.1112 205.94 -12.1712 203.54 -7.85124 198.74C-3.41124 193.94 -1.01124 187.04 -0.651233 178.04C-0.531234 176.84 -0.471235 174.56 -0.471235 171.2C-0.471235 167.84 -0.531234 165.56 -0.651233 164.36C-1.01124 155.36 -3.41124 148.46 -7.85124 143.66C-12.1712 138.86 -18.1112 136.46 -25.6712 136.46C-33.2312 136.46 -39.2312 138.86 -43.6712 143.66C-48.1112 148.46 -50.4512 155.36 -50.6912 164.36L-50.8712 171.2L-50.6912 178.04C-50.4512 187.04 -48.1112 193.94 -43.6712 198.74C-39.2312 203.54 -33.2312 205.94 -25.6712 205.94ZM70.6681 219.8C59.2681 219.8 50.4481 216.14 44.2081 208.82C37.9681 201.38 34.8481 191.54 34.8481 179.3V128.54C34.8481 127.34 35.2081 126.38 35.9281 125.66C36.7681 124.82 37.7881 124.4 38.9881 124.4H47.9881C49.1881 124.4 50.1481 124.82 50.8681 125.66C51.7081 126.38 52.1281 127.34 52.1281 128.54V178.4C52.1281 196.28 59.9281 205.22 75.5281 205.22C83.0881 205.22 89.0881 202.88 93.5281 198.2C97.9681 193.4 100.188 186.8 100.188 178.4V128.54C100.188 127.34 100.548 126.38 101.268 125.66C102.108 124.82 103.128 124.4 104.328 124.4H113.328C114.528 124.4 115.488 124.82 116.208 125.66C116.928 126.38 117.288 127.34 117.288 128.54V213.86C117.288 215.06 116.928 216.08 116.208 216.92C115.488 217.64 114.528 218 113.328 218H104.868C103.668 218 102.648 217.64 101.808 216.92C101.088 216.08 100.728 215.06 100.728 213.86V205.94C97.3681 210.5 93.2881 213.98 88.4881 216.38C83.6881 218.66 77.7481 219.8 70.6681 219.8ZM178.229 219.8C165.389 219.8 155.309 216.2 147.989 209C140.789 201.68 136.949 191.48 136.469 178.4L136.289 171.2L136.469 164C136.949 150.92 140.789 140.78 147.989 133.58C155.309 126.26 165.389 122.6 178.229 122.6C186.869 122.6 194.189 124.16 200.189 127.28C206.189 130.4 210.629 134.24 213.509 138.8C216.509 143.36 218.129 147.92 218.369 152.48C218.489 153.68 218.129 154.64 217.289 155.36C216.449 156.08 215.429 156.44 214.229 156.44H205.589C204.389 156.44 203.489 156.2 202.889 155.72C202.289 155.24 201.689 154.28 201.089 152.84C199.049 147.08 196.169 143 192.449 140.6C188.729 138.08 184.049 136.82 178.409 136.82C170.969 136.82 165.029 139.16 160.589 143.84C156.269 148.4 153.929 155.42 153.569 164.9L153.389 171.38L153.569 177.5C153.929 187.1 156.269 194.18 160.589 198.74C164.909 203.3 170.849 205.58 178.409 205.58C184.049 205.58 188.729 204.38 192.449 201.98C196.169 199.46 199.049 195.32 201.089 189.56C201.689 188.12 202.289 187.16 202.889 186.68C203.489 186.08 204.389 185.78 205.589 185.78H214.229C215.429 185.78 216.449 186.2 217.289 187.04C218.129 187.76 218.489 188.72 218.369 189.92C218.129 194.36 216.509 198.92 213.509 203.6C210.629 208.16 206.189 212 200.189 215.12C194.309 218.24 186.989 219.8 178.229 219.8ZM240.466 218C239.266 218 238.246 217.64 237.406 216.92C236.686 216.08 236.326 215.06 236.326 213.86V94.34C236.326 93.14 236.686 92.18 237.406 91.46C238.246 90.62 239.266 90.2 240.466 90.2H249.466C250.666 90.2 251.626 90.62 252.346 91.46C253.186 92.18 253.606 93.14 253.606 94.34V136.28C257.086 131.84 261.166 128.48 265.846 126.2C270.526 123.8 276.346 122.6 283.306 122.6C294.826 122.6 303.766 126.32 310.126 133.76C316.606 141.08 319.846 150.86 319.846 163.1V213.86C319.846 215.06 319.426 216.08 318.586 216.92C317.866 217.64 316.906 218 315.706 218H306.706C305.506 218 304.486 217.64 303.646 216.92C302.926 216.08 302.566 215.06 302.566 213.86V164C302.566 155.48 300.466 148.88 296.266 144.2C292.186 139.52 286.246 137.18 278.446 137.18C270.886 137.18 264.826 139.58 260.266 144.38C255.826 149.06 253.606 155.6 253.606 164V213.86C253.606 215.06 253.186 216.08 252.346 216.92C251.626 217.64 250.666 218 249.466 218H240.466Z" fill="url(#paint0_linear_10418_9726)"/>
<path d="M429.56 219.8C413.84 219.8 401.6 215.54 392.84 207.02C384.2 198.38 379.58 186.62 378.98 171.74C378.86 168.14 378.8 162.5 378.8 154.82C378.8 147.02 378.86 141.38 378.98 137.9C379.58 123.14 384.26 111.5 393.02 102.98C401.78 94.46 413.96 90.2 429.56 90.2C440.12 90.2 449.06 92.12 456.38 95.96C463.82 99.68 469.4 104.24 473.12 109.64C476.84 115.04 478.82 120.08 479.06 124.76V125.12C479.06 126.08 478.7 126.86 477.98 127.46C477.26 128.06 476.36 128.36 475.28 128.36H464.66C463.46 128.36 462.56 128.18 461.96 127.82C461.48 127.34 461 126.44 460.52 125.12C458.72 119.72 455.24 115.1 450.08 111.26C445.04 107.42 438.2 105.5 429.56 105.5C419.6 105.5 411.8 108.2 406.16 113.6C400.52 119 397.46 127.4 396.98 138.8C396.86 142.28 396.8 147.62 396.8 154.82C396.8 161.9 396.86 167.24 396.98 170.84C397.46 182.36 400.52 190.88 406.16 196.4C411.8 201.8 419.6 204.5 429.56 204.5C439.64 204.5 447.68 201.74 453.68 196.22C459.68 190.7 462.68 182.42 462.68 171.38V163.82H435.68C434.48 163.82 433.46 163.46 432.62 162.74C431.9 161.9 431.54 160.82 431.54 159.5V153.74C431.54 152.54 431.9 151.52 432.62 150.68C433.46 149.84 434.48 149.42 435.68 149.42H476.36C477.56 149.42 478.52 149.84 479.24 150.68C480.08 151.4 480.5 152.42 480.5 153.74V171.02C480.5 180.86 478.46 189.44 474.38 196.76C470.3 204.08 464.42 209.78 456.74 213.86C449.06 217.82 440 219.8 429.56 219.8ZM537.68 219.8C525.32 219.8 515.42 216.02 507.98 208.46C500.66 200.78 496.64 190.34 495.92 177.14L495.74 171.02L495.92 165.08C496.76 152.12 500.84 141.8 508.16 134.12C515.6 126.44 525.38 122.6 537.5 122.6C550.82 122.6 561.14 126.86 568.46 135.38C575.78 143.78 579.44 155.18 579.44 169.58V172.64C579.44 173.84 579.02 174.86 578.18 175.7C577.46 176.42 576.5 176.78 575.3 176.78H513.02V178.4C513.38 186.2 515.72 192.86 520.04 198.38C524.48 203.78 530.3 206.48 537.5 206.48C543.02 206.48 547.52 205.4 551 203.24C554.6 200.96 557.24 198.62 558.92 196.22C560 194.78 560.78 193.94 561.26 193.7C561.86 193.34 562.88 193.16 564.32 193.16H573.14C574.22 193.16 575.12 193.46 575.84 194.06C576.56 194.66 576.92 195.5 576.92 196.58C576.92 199.22 575.24 202.4 571.88 206.12C568.64 209.84 564.02 213.08 558.02 215.84C552.14 218.48 545.36 219.8 537.68 219.8ZM562.34 164.36V163.82C562.34 155.54 560.06 148.82 555.5 143.66C551.06 138.38 545.06 135.74 537.5 135.74C529.94 135.74 523.94 138.38 519.5 143.66C515.18 148.82 513.02 155.54 513.02 163.82V164.36H562.34ZM633.375 218C614.415 218 604.935 207.44 604.935 186.32V138.8H590.895C589.695 138.8 588.675 138.44 587.835 137.72C587.115 136.88 586.755 135.86 586.755 134.66V128.54C586.755 127.34 587.115 126.38 587.835 125.66C588.675 124.82 589.695 124.4 590.895 124.4H604.935V94.34C604.935 93.14 605.295 92.18 606.015 91.46C606.855 90.62 607.875 90.2 609.075 90.2H617.535C618.735 90.2 619.695 90.62 620.415 91.46C621.255 92.18 621.675 93.14 621.675 94.34V124.4H643.995C645.195 124.4 646.155 124.82 646.875 125.66C647.715 126.38 648.135 127.34 648.135 128.54V134.66C648.135 135.86 647.715 136.88 646.875 137.72C646.155 138.44 645.195 138.8 643.995 138.8H621.675V185.06C621.675 191.06 622.695 195.62 624.735 198.74C626.775 201.74 630.135 203.24 634.815 203.24H645.795C646.995 203.24 647.955 203.66 648.675 204.5C649.515 205.22 649.935 206.18 649.935 207.38V213.86C649.935 215.06 649.515 216.08 648.675 216.92C647.955 217.64 646.995 218 645.795 218H633.375ZM706.768 106.94C705.568 106.94 704.548 106.58 703.708 105.86C702.988 105.02 702.628 104 702.628 102.8V93.08C702.628 91.88 702.988 90.86 703.708 90.02C704.548 89.18 705.568 88.76 706.768 88.76H718.108C719.308 88.76 720.328 89.18 721.168 90.02C722.008 90.86 722.428 91.88 722.428 93.08V102.8C722.428 104 722.008 105.02 721.168 105.86C720.328 106.58 719.308 106.94 718.108 106.94H706.768ZM708.208 218C707.008 218 705.988 217.64 705.148 216.92C704.428 216.08 704.068 215.06 704.068 213.86V128.54C704.068 127.34 704.428 126.38 705.148 125.66C705.988 124.82 707.008 124.4 708.208 124.4H716.848C718.048 124.4 719.008 124.82 719.728 125.66C720.568 126.38 720.988 127.34 720.988 128.54V213.86C720.988 215.06 720.568 216.08 719.728 216.92C719.008 217.64 718.048 218 716.848 218H708.208ZM748.202 218C747.002 218 745.982 217.64 745.142 216.92C744.422 216.08 744.062 215.06 744.062 213.86V128.54C744.062 127.34 744.422 126.38 745.142 125.66C745.982 124.82 747.002 124.4 748.202 124.4H756.662C757.862 124.4 758.822 124.82 759.542 125.66C760.382 126.38 760.802 127.34 760.802 128.54V136.46C764.282 132.02 768.362 128.6 773.042 126.2C777.842 123.8 783.782 122.6 790.862 122.6C802.382 122.6 811.322 126.32 817.682 133.76C824.162 141.08 827.402 150.86 827.402 163.1V213.86C827.402 215.06 826.982 216.08 826.142 216.92C825.422 217.64 824.462 218 823.262 218H814.262C813.062 218 812.042 217.64 811.202 216.92C810.482 216.08 810.122 215.06 810.122 213.86V164C810.122 155.48 808.022 148.88 803.822 144.2C799.742 139.52 793.802 137.18 786.002 137.18C778.442 137.18 772.442 139.58 768.002 144.38C763.562 149.06 761.342 155.6 761.342 164V213.86C761.342 215.06 760.922 216.08 760.082 216.92C759.362 217.64 758.402 218 757.202 218H748.202ZM922.816 218C903.856 218 894.376 207.44 894.376 186.32V138.8H880.336C879.136 138.8 878.116 138.44 877.276 137.72C876.556 136.88 876.196 135.86 876.196 134.66V128.54C876.196 127.34 876.556 126.38 877.276 125.66C878.116 124.82 879.136 124.4 880.336 124.4H894.376V94.34C894.376 93.14 894.736 92.18 895.456 91.46C896.296 90.62 897.316 90.2 898.516 90.2H906.976C908.176 90.2 909.136 90.62 909.856 91.46C910.696 92.18 911.116 93.14 911.116 94.34V124.4H933.436C934.636 124.4 935.596 124.82 936.316 125.66C937.156 126.38 937.576 127.34 937.576 128.54V134.66C937.576 135.86 937.156 136.88 936.316 137.72C935.596 138.44 934.636 138.8 933.436 138.8H911.116V185.06C911.116 191.06 912.136 195.62 914.176 198.74C916.216 201.74 919.576 203.24 924.256 203.24H935.236C936.436 203.24 937.396 203.66 938.116 204.5C938.956 205.22 939.376 206.18 939.376 207.38V213.86C939.376 215.06 938.956 216.08 938.116 216.92C937.396 217.64 936.436 218 935.236 218H922.816ZM991.329 219.8C978.129 219.8 967.869 216.08 960.549 208.64C953.349 201.2 949.509 191.3 949.029 178.94L948.849 171.2L949.029 163.46C949.509 151.22 953.409 141.38 960.729 133.94C968.049 126.38 978.249 122.6 991.329 122.6C1004.41 122.6 1014.61 126.38 1021.93 133.94C1029.25 141.38 1033.15 151.22 1033.63 163.46C1033.75 164.78 1033.81 167.36 1033.81 171.2C1033.81 175.04 1033.75 177.62 1033.63 178.94C1033.15 191.3 1029.25 201.2 1021.93 208.64C1014.73 216.08 1004.53 219.8 991.329 219.8ZM991.329 205.94C998.889 205.94 1004.83 203.54 1009.15 198.74C1013.59 193.94 1015.99 187.04 1016.35 178.04C1016.47 176.84 1016.53 174.56 1016.53 171.2C1016.53 167.84 1016.47 165.56 1016.35 164.36C1015.99 155.36 1013.59 148.46 1009.15 143.66C1004.83 138.86 998.889 136.46 991.329 136.46C983.769 136.46 977.769 138.86 973.329 143.66C968.889 148.46 966.549 155.36 966.309 164.36L966.129 171.2L966.309 178.04C966.549 187.04 968.889 193.94 973.329 198.74C977.769 203.54 983.769 205.94 991.329 205.94ZM1087.67 219.8C1076.27 219.8 1067.45 216.14 1061.21 208.82C1054.97 201.38 1051.85 191.54 1051.85 179.3V128.54C1051.85 127.34 1052.21 126.38 1052.93 125.66C1053.77 124.82 1054.79 124.4 1055.99 124.4H1064.99C1066.19 124.4 1067.15 124.82 1067.87 125.66C1068.71 126.38 1069.13 127.34 1069.13 128.54V178.4C1069.13 196.28 1076.93 205.22 1092.53 205.22C1100.09 205.22 1106.09 202.88 1110.53 198.2C1114.97 193.4 1117.19 186.8 1117.19 178.4V128.54C1117.19 127.34 1117.55 126.38 1118.27 125.66C1119.11 124.82 1120.13 124.4 1121.33 124.4H1130.33C1131.53 124.4 1132.49 124.82 1133.21 125.66C1133.93 126.38 1134.29 127.34 1134.29 128.54V213.86C1134.29 215.06 1133.93 216.08 1133.21 216.92C1132.49 217.64 1131.53 218 1130.33 218H1121.87C1120.67 218 1119.65 217.64 1118.81 216.92C1118.09 216.08 1117.73 215.06 1117.73 213.86V205.94C1114.37 210.5 1110.29 213.98 1105.49 216.38C1100.69 218.66 1094.75 219.8 1087.67 219.8ZM1195.23 219.8C1182.39 219.8 1172.31 216.2 1164.99 209C1157.79 201.68 1153.95 191.48 1153.47 178.4L1153.29 171.2L1153.47 164C1153.95 150.92 1157.79 140.78 1164.99 133.58C1172.31 126.26 1182.39 122.6 1195.23 122.6C1203.87 122.6 1211.19 124.16 1217.19 127.28C1223.19 130.4 1227.63 134.24 1230.51 138.8C1233.51 143.36 1235.13 147.92 1235.37 152.48C1235.49 153.68 1235.13 154.64 1234.29 155.36C1233.45 156.08 1232.43 156.44 1231.23 156.44H1222.59C1221.39 156.44 1220.49 156.2 1219.89 155.72C1219.29 155.24 1218.69 154.28 1218.09 152.84C1216.05 147.08 1213.17 143 1209.45 140.6C1205.73 138.08 1201.05 136.82 1195.41 136.82C1187.97 136.82 1182.03 139.16 1177.59 143.84C1173.27 148.4 1170.93 155.42 1170.57 164.9L1170.39 171.38L1170.57 177.5C1170.93 187.1 1173.27 194.18 1177.59 198.74C1181.91 203.3 1187.85 205.58 1195.41 205.58C1201.05 205.58 1205.73 204.38 1209.45 201.98C1213.17 199.46 1216.05 195.32 1218.09 189.56C1218.69 188.12 1219.29 187.16 1219.89 186.68C1220.49 186.08 1221.39 185.78 1222.59 185.78H1231.23C1232.43 185.78 1233.45 186.2 1234.29 187.04C1235.13 187.76 1235.49 188.72 1235.37 189.92C1235.13 194.36 1233.51 198.92 1230.51 203.6C1227.63 208.16 1223.19 212 1217.19 215.12C1211.31 218.24 1203.99 219.8 1195.23 219.8ZM1257.47 218C1256.27 218 1255.25 217.64 1254.41 216.92C1253.69 216.08 1253.33 215.06 1253.33 213.86V94.34C1253.33 93.14 1253.69 92.18 1254.41 91.46C1255.25 90.62 1256.27 90.2 1257.47 90.2H1266.47C1267.67 90.2 1268.63 90.62 1269.35 91.46C1270.19 92.18 1270.61 93.14 1270.61 94.34V136.28C1274.09 131.84 1278.17 128.48 1282.85 126.2C1287.53 123.8 1293.35 122.6 1300.31 122.6C1311.83 122.6 1320.77 126.32 1327.13 133.76C1333.61 141.08 1336.85 150.86 1336.85 163.1V213.86C1336.85 215.06 1336.43 216.08 1335.59 216.92C1334.87 217.64 1333.91 218 1332.71 218H1323.71C1322.51 218 1321.49 217.64 1320.65 216.92C1319.93 216.08 1319.57 215.06 1319.57 213.86V164C1319.57 155.48 1317.47 148.88 1313.27 144.2C1309.19 139.52 1303.25 137.18 1295.45 137.18C1287.89 137.18 1281.83 139.58 1277.27 144.38C1272.83 149.06 1270.61 155.6 1270.61 164V213.86C1270.61 215.06 1270.19 216.08 1269.35 216.92C1268.63 217.64 1267.67 218 1266.47 218H1257.47Z" fill="url(#paint1_linear_10418_9726)"/>
<path d="M1446.56 219.8C1430.84 219.8 1418.6 215.54 1409.84 207.02C1401.2 198.38 1396.58 186.62 1395.98 171.74C1395.86 168.14 1395.8 162.5 1395.8 154.82C1395.8 147.02 1395.86 141.38 1395.98 137.9C1396.58 123.14 1401.26 111.5 1410.02 102.98C1418.78 94.46 1430.96 90.2 1446.56 90.2C1457.12 90.2 1466.06 92.12 1473.38 95.96C1480.82 99.68 1486.4 104.24 1490.12 109.64C1493.84 115.04 1495.82 120.08 1496.06 124.76V125.12C1496.06 126.08 1495.7 126.86 1494.98 127.46C1494.26 128.06 1493.36 128.36 1492.28 128.36H1481.66C1480.46 128.36 1479.56 128.18 1478.96 127.82C1478.48 127.34 1478 126.44 1477.52 125.12C1475.72 119.72 1472.24 115.1 1467.08 111.26C1462.04 107.42 1455.2 105.5 1446.56 105.5C1436.6 105.5 1428.8 108.2 1423.16 113.6C1417.52 119 1414.46 127.4 1413.98 138.8C1413.86 142.28 1413.8 147.62 1413.8 154.82C1413.8 161.9 1413.86 167.24 1413.98 170.84C1414.46 182.36 1417.52 190.88 1423.16 196.4C1428.8 201.8 1436.6 204.5 1446.56 204.5C1456.64 204.5 1464.68 201.74 1470.68 196.22C1476.68 190.7 1479.68 182.42 1479.68 171.38V163.82H1452.68C1451.48 163.82 1450.46 163.46 1449.62 162.74C1448.9 161.9 1448.54 160.82 1448.54 159.5V153.74C1448.54 152.54 1448.9 151.52 1449.62 150.68C1450.46 149.84 1451.48 149.42 1452.68 149.42H1493.36C1494.56 149.42 1495.52 149.84 1496.24 150.68C1497.08 151.4 1497.5 152.42 1497.5 153.74V171.02C1497.5 180.86 1495.46 189.44 1491.38 196.76C1487.3 204.08 1481.42 209.78 1473.74 213.86C1466.06 217.82 1457 219.8 1446.56 219.8ZM1554.68 219.8C1542.32 219.8 1532.42 216.02 1524.98 208.46C1517.66 200.78 1513.64 190.34 1512.92 177.14L1512.74 171.02L1512.92 165.08C1513.76 152.12 1517.84 141.8 1525.16 134.12C1532.6 126.44 1542.38 122.6 1554.5 122.6C1567.82 122.6 1578.14 126.86 1585.46 135.38C1592.78 143.78 1596.44 155.18 1596.44 169.58V172.64C1596.44 173.84 1596.02 174.86 1595.18 175.7C1594.46 176.42 1593.5 176.78 1592.3 176.78H1530.02V178.4C1530.38 186.2 1532.72 192.86 1537.04 198.38C1541.48 203.78 1547.3 206.48 1554.5 206.48C1560.02 206.48 1564.52 205.4 1568 203.24C1571.6 200.96 1574.24 198.62 1575.92 196.22C1577 194.78 1577.78 193.94 1578.26 193.7C1578.86 193.34 1579.88 193.16 1581.32 193.16H1590.14C1591.22 193.16 1592.12 193.46 1592.84 194.06C1593.56 194.66 1593.92 195.5 1593.92 196.58C1593.92 199.22 1592.24 202.4 1588.88 206.12C1585.64 209.84 1581.02 213.08 1575.02 215.84C1569.14 218.48 1562.36 219.8 1554.68 219.8ZM1579.34 164.36V163.82C1579.34 155.54 1577.06 148.82 1572.5 143.66C1568.06 138.38 1562.06 135.74 1554.5 135.74C1546.94 135.74 1540.94 138.38 1536.5 143.66C1532.18 148.82 1530.02 155.54 1530.02 163.82V164.36H1579.34ZM1650.37 218C1631.41 218 1621.93 207.44 1621.93 186.32V138.8H1607.89C1606.69 138.8 1605.67 138.44 1604.83 137.72C1604.11 136.88 1603.75 135.86 1603.75 134.66V128.54C1603.75 127.34 1604.11 126.38 1604.83 125.66C1605.67 124.82 1606.69 124.4 1607.89 124.4H1621.93V94.34C1621.93 93.14 1622.29 92.18 1623.01 91.46C1623.85 90.62 1624.87 90.2 1626.07 90.2H1634.53C1635.73 90.2 1636.69 90.62 1637.41 91.46C1638.25 92.18 1638.67 93.14 1638.67 94.34V124.4H1660.99C1662.19 124.4 1663.15 124.82 1663.87 125.66C1664.71 126.38 1665.13 127.34 1665.13 128.54V134.66C1665.13 135.86 1664.71 136.88 1663.87 137.72C1663.15 138.44 1662.19 138.8 1660.99 138.8H1638.67V185.06C1638.67 191.06 1639.69 195.62 1641.73 198.74C1643.77 201.74 1647.13 203.24 1651.81 203.24H1662.79C1663.99 203.24 1664.95 203.66 1665.67 204.5C1666.51 205.22 1666.93 206.18 1666.93 207.38V213.86C1666.93 215.06 1666.51 216.08 1665.67 216.92C1664.95 217.64 1663.99 218 1662.79 218H1650.37ZM1723.77 106.94C1722.57 106.94 1721.55 106.58 1720.71 105.86C1719.99 105.02 1719.63 104 1719.63 102.8V93.08C1719.63 91.88 1719.99 90.86 1720.71 90.02C1721.55 89.18 1722.57 88.76 1723.77 88.76H1735.11C1736.31 88.76 1737.33 89.18 1738.17 90.02C1739.01 90.86 1739.43 91.88 1739.43 93.08V102.8C1739.43 104 1739.01 105.02 1738.17 105.86C1737.33 106.58 1736.31 106.94 1735.11 106.94H1723.77ZM1725.21 218C1724.01 218 1722.99 217.64 1722.15 216.92C1721.43 216.08 1721.07 215.06 1721.07 213.86V128.54C1721.07 127.34 1721.43 126.38 1722.15 125.66C1722.99 124.82 1724.01 124.4 1725.21 124.4H1733.85C1735.05 124.4 1736.01 124.82 1736.73 125.66C1737.57 126.38 1737.99 127.34 1737.99 128.54V213.86C1737.99 215.06 1737.57 216.08 1736.73 216.92C1736.01 217.64 1735.05 218 1733.85 218H1725.21ZM1765.2 218C1764 218 1762.98 217.64 1762.14 216.92C1761.42 216.08 1761.06 215.06 1761.06 213.86V128.54C1761.06 127.34 1761.42 126.38 1762.14 125.66C1762.98 124.82 1764 124.4 1765.2 124.4H1773.66C1774.86 124.4 1775.82 124.82 1776.54 125.66C1777.38 126.38 1777.8 127.34 1777.8 128.54V136.46C1781.28 132.02 1785.36 128.6 1790.04 126.2C1794.84 123.8 1800.78 122.6 1807.86 122.6C1819.38 122.6 1828.32 126.32 1834.68 133.76C1841.16 141.08 1844.4 150.86 1844.4 163.1V213.86C1844.4 215.06 1843.98 216.08 1843.14 216.92C1842.42 217.64 1841.46 218 1840.26 218H1831.26C1830.06 218 1829.04 217.64 1828.2 216.92C1827.48 216.08 1827.12 215.06 1827.12 213.86V164C1827.12 155.48 1825.02 148.88 1820.82 144.2C1816.74 139.52 1810.8 137.18 1803 137.18C1795.44 137.18 1789.44 139.58 1785 144.38C1780.56 149.06 1778.34 155.6 1778.34 164V213.86C1778.34 215.06 1777.92 216.08 1777.08 216.92C1776.36 217.64 1775.4 218 1774.2 218H1765.2ZM1939.82 218C1920.86 218 1911.38 207.44 1911.38 186.32V138.8H1897.34C1896.14 138.8 1895.12 138.44 1894.28 137.72C1893.56 136.88 1893.2 135.86 1893.2 134.66V128.54C1893.2 127.34 1893.56 126.38 1894.28 125.66C1895.12 124.82 1896.14 124.4 1897.34 124.4H1911.38V94.34C1911.38 93.14 1911.74 92.18 1912.46 91.46C1913.3 90.62 1914.32 90.2 1915.52 90.2H1923.98C1925.18 90.2 1926.14 90.62 1926.86 91.46C1927.7 92.18 1928.12 93.14 1928.12 94.34V124.4H1950.44C1951.64 124.4 1952.6 124.82 1953.32 125.66C1954.16 126.38 1954.58 127.34 1954.58 128.54V134.66C1954.58 135.86 1954.16 136.88 1953.32 137.72C1952.6 138.44 1951.64 138.8 1950.44 138.8H1928.12V185.06C1928.12 191.06 1929.14 195.62 1931.18 198.74C1933.22 201.74 1936.58 203.24 1941.26 203.24H1952.24C1953.44 203.24 1954.4 203.66 1955.12 204.5C1955.96 205.22 1956.38 206.18 1956.38 207.38V213.86C1956.38 215.06 1955.96 216.08 1955.12 216.92C1954.4 217.64 1953.44 218 1952.24 218H1939.82ZM2008.33 219.8C1995.13 219.8 1984.87 216.08 1977.55 208.64C1970.35 201.2 1966.51 191.3 1966.03 178.94L1965.85 171.2L1966.03 163.46C1966.51 151.22 1970.41 141.38 1977.73 133.94C1985.05 126.38 1995.25 122.6 2008.33 122.6C2021.41 122.6 2031.61 126.38 2038.93 133.94C2046.25 141.38 2050.15 151.22 2050.63 163.46C2050.75 164.78 2050.81 167.36 2050.81 171.2C2050.81 175.04 2050.75 177.62 2050.63 178.94C2050.15 191.3 2046.25 201.2 2038.93 208.64C2031.73 216.08 2021.53 219.8 2008.33 219.8ZM2008.33 205.94C2015.89 205.94 2021.83 203.54 2026.15 198.74C2030.59 193.94 2032.99 187.04 2033.35 178.04C2033.47 176.84 2033.53 174.56 2033.53 171.2C2033.53 167.84 2033.47 165.56 2033.35 164.36C2032.99 155.36 2030.59 148.46 2026.15 143.66C2021.83 138.86 2015.89 136.46 2008.33 136.46C2000.77 136.46 1994.77 138.86 1990.33 143.66C1985.89 148.46 1983.55 155.36 1983.31 164.36L1983.13 171.2L1983.31 178.04C1983.55 187.04 1985.89 193.94 1990.33 198.74C1994.77 203.54 2000.77 205.94 2008.33 205.94ZM2104.67 219.8C2093.27 219.8 2084.45 216.14 2078.21 208.82C2071.97 201.38 2068.85 191.54 2068.85 179.3V128.54C2068.85 127.34 2069.21 126.38 2069.93 125.66C2070.77 124.82 2071.79 124.4 2072.99 124.4H2081.99C2083.19 124.4 2084.15 124.82 2084.87 125.66C2085.71 126.38 2086.13 127.34 2086.13 128.54V178.4C2086.13 196.28 2093.93 205.22 2109.53 205.22C2117.09 205.22 2123.09 202.88 2127.53 198.2C2131.97 193.4 2134.19 186.8 2134.19 178.4V128.54C2134.19 127.34 2134.55 126.38 2135.27 125.66C2136.11 124.82 2137.13 124.4 2138.33 124.4H2147.33C2148.53 124.4 2149.49 124.82 2150.21 125.66C2150.93 126.38 2151.29 127.34 2151.29 128.54V213.86C2151.29 215.06 2150.93 216.08 2150.21 216.92C2149.49 217.64 2148.53 218 2147.33 218H2138.87C2137.67 218 2136.65 217.64 2135.81 216.92C2135.09 216.08 2134.73 215.06 2134.73 213.86V205.94C2131.37 210.5 2127.29 213.98 2122.49 216.38C2117.69 218.66 2111.75 219.8 2104.67 219.8ZM2212.23 219.8C2199.39 219.8 2189.31 216.2 2181.99 209C2174.79 201.68 2170.95 191.48 2170.47 178.4L2170.29 171.2L2170.47 164C2170.95 150.92 2174.79 140.78 2181.99 133.58C2189.31 126.26 2199.39 122.6 2212.23 122.6C2220.87 122.6 2228.19 124.16 2234.19 127.28C2240.19 130.4 2244.63 134.24 2247.51 138.8C2250.51 143.36 2252.13 147.92 2252.37 152.48C2252.49 153.68 2252.13 154.64 2251.29 155.36C2250.45 156.08 2249.43 156.44 2248.23 156.44H2239.59C2238.39 156.44 2237.49 156.2 2236.89 155.72C2236.29 155.24 2235.69 154.28 2235.09 152.84C2233.05 147.08 2230.17 143 2226.45 140.6C2222.73 138.08 2218.05 136.82 2212.41 136.82C2204.97 136.82 2199.03 139.16 2194.59 143.84C2190.27 148.4 2187.93 155.42 2187.57 164.9L2187.39 171.38L2187.57 177.5C2187.93 187.1 2190.27 194.18 2194.59 198.74C2198.91 203.3 2204.85 205.58 2212.41 205.58C2218.05 205.58 2222.73 204.38 2226.45 201.98C2230.17 199.46 2233.05 195.32 2235.09 189.56C2235.69 188.12 2236.29 187.16 2236.89 186.68C2237.49 186.08 2238.39 185.78 2239.59 185.78H2248.23C2249.43 185.78 2250.45 186.2 2251.29 187.04C2252.13 187.76 2252.49 188.72 2252.37 189.92C2252.13 194.36 2250.51 198.92 2247.51 203.6C2244.63 208.16 2240.19 212 2234.19 215.12C2228.31 218.24 2220.99 219.8 2212.23 219.8ZM2274.47 218C2273.27 218 2272.25 217.64 2271.41 216.92C2270.69 216.08 2270.33 215.06 2270.33 213.86V94.34C2270.33 93.14 2270.69 92.18 2271.41 91.46C2272.25 90.62 2273.27 90.2 2274.47 90.2H2283.47C2284.67 90.2 2285.63 90.62 2286.35 91.46C2287.19 92.18 2287.61 93.14 2287.61 94.34V136.28C2291.09 131.84 2295.17 128.48 2299.85 126.2C2304.53 123.8 2310.35 122.6 2317.31 122.6C2328.83 122.6 2337.77 126.32 2344.13 133.76C2350.61 141.08 2353.85 150.86 2353.85 163.1V213.86C2353.85 215.06 2353.43 216.08 2352.59 216.92C2351.87 217.64 2350.91 218 2349.71 218H2340.71C2339.51 218 2338.49 217.64 2337.65 216.92C2336.93 216.08 2336.57 215.06 2336.57 213.86V164C2336.57 155.48 2334.47 148.88 2330.27 144.2C2326.19 139.52 2320.25 137.18 2312.45 137.18C2304.89 137.18 2298.83 139.58 2294.27 144.38C2289.83 149.06 2287.61 155.6 2287.61 164V213.86C2287.61 215.06 2287.19 216.08 2286.35 216.92C2285.63 217.64 2284.67 218 2283.47 218H2274.47Z" fill="url(#paint2_linear_10418_9726)"/>
</g>
<path d="M1697.5 0.5V315.5H20.5V0.5H1697.5Z" stroke="url(#paint3_linear_10418_9726)" stroke-opacity="0.15" shape-rendering="crispEdges"/>
</g>
<defs>
<filter id="filter0_di_10418_9726" x="-12" y="-32" width="1742" height="392" filterUnits="userSpaceOnUse" color-interpolation-filters="sRGB">
<feFlood flood-opacity="0" result="BackgroundImageFix"/>
<feColorMatrix in="SourceAlpha" type="matrix" values="0 0 0 0 0 0 0 0 0 0 0 0 0 0 0 0 0 0 127 0" result="hardAlpha"/>
<feMorphology radius="12" operator="erode" in="SourceAlpha" result="effect1_dropShadow_10418_9726"/>
<feOffset dy="24"/>
<feGaussianBlur stdDeviation="16"/>
<feComposite in2="hardAlpha" operator="out"/>
<feColorMatrix type="matrix" values="0 0 0 0 0.0705882 0 0 0 0 0.0705882 0 0 0 0 0.0705882 0 0 0 0.1 0"/>
<feBlend mode="multiply" in2="BackgroundImageFix" result="effect1_dropShadow_10418_9726"/>
<feBlend mode="normal" in="SourceGraphic" in2="effect1_dropShadow_10418_9726" result="shape"/>
<feColorMatrix in="SourceAlpha" type="matrix" values="0 0 0 0 0 0 0 0 0 0 0 0 0 0 0 0 0 0 127 0" result="hardAlpha"/>
<feOffset dx="2" dy="4"/>
<feGaussianBlur stdDeviation="8"/>
<feComposite in2="hardAlpha" operator="arithmetic" k2="-1" k3="1"/>
<feColorMatrix type="matrix" values="0 0 0 0 0.972549 0 0 0 0 0.972549 0 0 0 0 0.972549 0 0 0 0.06 0"/>
<feBlend mode="normal" in2="shape" result="effect2_innerShadow_10418_9726"/>
</filter>
<filter id="filter1_d_10418_9726" x="-1.15862" y="146.359" width="50.1249" height="50.1253" filterUnits="userSpaceOnUse" color-interpolation-filters="sRGB">
<feFlood flood-opacity="0" result="BackgroundImageFix"/>
<feColorMatrix in="SourceAlpha" type="matrix" values="0 0 0 0 0 0 0 0 0 0 0 0 0 0 0 0 0 0 127 0" result="hardAlpha"/>
<feMorphology radius="4.80536" operator="dilate" in="SourceAlpha" result="effect1_dropShadow_10418_9726"/>
<feOffset/>
<feGaussianBlur stdDeviation="9.61071"/>
<feComposite in2="hardAlpha" operator="out"/>
<feColorMatrix type="matrix" values="0 0 0 0 1 0 0 0 0 1 0 0 0 0 1 0 0 0 0.3 0"/>
<feBlend mode="normal" in2="BackgroundImageFix" result="effect1_dropShadow_10418_9726"/>
<feBlend mode="normal" in="SourceGraphic" in2="effect1_dropShadow_10418_9726" result="shape"/>
</filter>
<linearGradient id="paint0_linear_10418_9726" x1="-648.004" y1="50" x2="329.343" y2="282.554" gradientUnits="userSpaceOnUse">
<stop stop-color="#F8F8F8" stop-opacity="0.9"/>
<stop offset="1" stop-color="#F8F8F8" stop-opacity="0.5"/>
</linearGradient>
<linearGradient id="paint1_linear_10418_9726" x1="368.996" y1="50" x2="1346.34" y2="282.554" gradientUnits="userSpaceOnUse">
<stop stop-color="#F8F8F8" stop-opacity="0.9"/>
<stop offset="1" stop-color="#F8F8F8" stop-opacity="0.5"/>
</linearGradient>
<linearGradient id="paint2_linear_10418_9726" x1="1386" y1="50" x2="2363.34" y2="282.554" gradientUnits="userSpaceOnUse">
<stop stop-color="#F8F8F8" stop-opacity="0.9"/>
<stop offset="1" stop-color="#F8F8F8" stop-opacity="0.5"/>
</linearGradient>
<linearGradient id="paint3_linear_10418_9726" x1="859" y1="-3.5859e-06" x2="888.785" y2="399.242" gradientUnits="userSpaceOnUse">
<stop stop-color="white" stop-opacity="0.4"/>
<stop offset="0.4" stop-color="white" stop-opacity="0.01"/>
<stop offset="0.6" stop-color="white" stop-opacity="0.01"/>
<stop offset="1" stop-color="white" stop-opacity="0.1"/>
</linearGradient>
<clipPath id="clip0_10418_9726">
<path d="M20 0H1698V316H20V0Z" fill="white"/>
</clipPath>
</defs>
</svg>
