<svg width="302" height="108" viewBox="0 0 302 108" fill="none" xmlns="http://www.w3.org/2000/svg">
<path opacity="0.5" d="M16.224 12.12C15.472 12.12 14.832 11.996 14.304 11.748C13.784 11.492 13.38 11.124 13.092 10.644C12.804 10.156 12.644 9.564 12.612 8.868C12.604 8.54 12.6 8.188 12.6 7.812C12.6 7.436 12.604 7.076 12.612 6.732C12.644 6.044 12.804 5.46 13.092 4.98C13.388 4.492 13.8 4.12 14.328 3.864C14.856 3.608 15.488 3.48 16.224 3.48C16.76 3.48 17.248 3.548 17.688 3.684C18.128 3.82 18.508 4.016 18.828 4.272C19.148 4.528 19.396 4.828 19.572 5.172C19.748 5.516 19.844 5.9 19.86 6.324C19.86 6.396 19.832 6.456 19.776 6.504C19.728 6.552 19.668 6.576 19.596 6.576H18.228C18.132 6.576 18.056 6.552 18 6.504C17.944 6.456 17.9 6.376 17.868 6.264C17.748 5.792 17.548 5.468 17.268 5.292C16.988 5.116 16.64 5.028 16.224 5.028C15.728 5.028 15.336 5.164 15.048 5.436C14.76 5.708 14.604 6.16 14.58 6.792C14.556 7.448 14.556 8.12 14.58 8.808C14.604 9.44 14.76 9.892 15.048 10.164C15.336 10.436 15.728 10.572 16.224 10.572C16.64 10.572 16.988 10.484 17.268 10.308C17.556 10.124 17.756 9.8 17.868 9.336C17.9 9.216 17.944 9.136 18 9.096C18.056 9.048 18.132 9.024 18.228 9.024H19.596C19.668 9.024 19.728 9.048 19.776 9.096C19.832 9.144 19.86 9.204 19.86 9.276C19.844 9.7 19.748 10.084 19.572 10.428C19.396 10.772 19.148 11.072 18.828 11.328C18.508 11.584 18.128 11.78 17.688 11.916C17.248 12.052 16.76 12.12 16.224 12.12ZM23.9323 12.12C23.2683 12.12 22.7123 12.012 22.2643 11.796C21.8163 11.572 21.4723 11.256 21.2323 10.848C21.0003 10.44 20.8723 9.964 20.8483 9.42C20.8403 9.26 20.8363 9.08 20.8363 8.88C20.8363 8.672 20.8403 8.492 20.8483 8.34C20.8723 7.788 21.0083 7.312 21.2563 6.912C21.5043 6.504 21.8523 6.192 22.3003 5.976C22.7483 5.752 23.2923 5.64 23.9323 5.64C24.5643 5.64 25.1043 5.752 25.5523 5.976C26.0003 6.192 26.3483 6.504 26.5963 6.912C26.8443 7.312 26.9803 7.788 27.0043 8.34C27.0203 8.492 27.0283 8.672 27.0283 8.88C27.0283 9.08 27.0203 9.26 27.0043 9.42C26.9803 9.964 26.8483 10.44 26.6083 10.848C26.3763 11.256 26.0363 11.572 25.5883 11.796C25.1403 12.012 24.5883 12.12 23.9323 12.12ZM23.9323 10.8C24.3243 10.8 24.6203 10.68 24.8203 10.44C25.0203 10.192 25.1283 9.832 25.1443 9.36C25.1523 9.24 25.1563 9.08 25.1563 8.88C25.1563 8.68 25.1523 8.52 25.1443 8.4C25.1283 7.936 25.0203 7.58 24.8203 7.332C24.6203 7.084 24.3243 6.96 23.9323 6.96C23.5403 6.96 23.2403 7.084 23.0323 7.332C22.8323 7.58 22.7243 7.936 22.7083 8.4C22.7003 8.52 22.6963 8.68 22.6963 8.88C22.6963 9.08 22.7003 9.24 22.7083 9.36C22.7243 9.832 22.8323 10.192 23.0323 10.44C23.2403 10.68 23.5403 10.8 23.9323 10.8ZM28.5833 12C28.4953 12 28.4233 11.972 28.3673 11.916C28.3113 11.86 28.2833 11.788 28.2833 11.7V3.78C28.2833 3.692 28.3113 3.62 28.3673 3.564C28.4233 3.508 28.4953 3.48 28.5833 3.48H29.7833C29.8633 3.48 29.9313 3.508 29.9873 3.564C30.0433 3.62 30.0713 3.692 30.0713 3.78V11.7C30.0713 11.788 30.0433 11.86 29.9873 11.916C29.9313 11.972 29.8633 12 29.7833 12H28.5833ZM34.444 12.12C33.78 12.12 33.224 12.012 32.776 11.796C32.328 11.572 31.984 11.256 31.744 10.848C31.512 10.44 31.384 9.964 31.36 9.42C31.352 9.26 31.348 9.08 31.348 8.88C31.348 8.672 31.352 8.492 31.36 8.34C31.384 7.788 31.52 7.312 31.768 6.912C32.016 6.504 32.364 6.192 32.812 5.976C33.26 5.752 33.804 5.64 34.444 5.64C35.076 5.64 35.616 5.752 36.064 5.976C36.512 6.192 36.86 6.504 37.108 6.912C37.356 7.312 37.492 7.788 37.516 8.34C37.532 8.492 37.54 8.672 37.54 8.88C37.54 9.08 37.532 9.26 37.516 9.42C37.492 9.964 37.36 10.44 37.12 10.848C36.888 11.256 36.548 11.572 36.1 11.796C35.652 12.012 35.1 12.12 34.444 12.12ZM34.444 10.8C34.836 10.8 35.132 10.68 35.332 10.44C35.532 10.192 35.64 9.832 35.656 9.36C35.664 9.24 35.668 9.08 35.668 8.88C35.668 8.68 35.664 8.52 35.656 8.4C35.64 7.936 35.532 7.58 35.332 7.332C35.132 7.084 34.836 6.96 34.444 6.96C34.052 6.96 33.752 7.084 33.544 7.332C33.344 7.58 33.236 7.936 33.22 8.4C33.212 8.52 33.208 8.68 33.208 8.88C33.208 9.08 33.212 9.24 33.22 9.36C33.236 9.832 33.344 10.192 33.544 10.44C33.752 10.68 34.052 10.8 34.444 10.8ZM39.0831 12C39.0031 12 38.9351 11.972 38.8791 11.916C38.8231 11.86 38.7951 11.788 38.7951 11.7V6.06C38.7951 5.98 38.8231 5.912 38.8791 5.856C38.9351 5.792 39.0031 5.76 39.0831 5.76H40.2591C40.3391 5.76 40.4071 5.792 40.4631 5.856C40.5271 5.912 40.5591 5.98 40.5591 6.06V6.54C40.7591 6.292 41.0031 6.1 41.2911 5.964C41.5871 5.828 41.9271 5.76 42.3111 5.76H42.8271C42.9071 5.76 42.9751 5.788 43.0311 5.844C43.0871 5.9 43.1151 5.972 43.1151 6.06V7.092C43.1151 7.18 43.0871 7.252 43.0311 7.308C42.9751 7.364 42.9071 7.392 42.8271 7.392H41.7711C41.4191 7.392 41.1431 7.492 40.9431 7.692C40.7431 7.884 40.6431 8.16 40.6431 8.52V11.7C40.6431 11.788 40.6151 11.86 40.5591 11.916C40.5031 11.972 40.4311 12 40.3431 12H39.0831Z" fill="#F8F8F8" fill-opacity="0.5"/>
<path opacity="0.8" d="M22 54C28.6274 54 34 48.6274 34 42C34 35.3726 28.6274 30 22 30C15.3726 30 10 35.3726 10 42C10 48.6274 15.3726 54 22 54Z" fill="#F8F8F8" fill-opacity="0.95"/>
<circle cx="22" cy="42" r="6" fill="#282828" fill-opacity="0.8"/>
<path d="M66 56C73.732 56 80 49.732 80 42C80 34.268 73.732 28 66 28C58.268 28 52 34.268 52 42C52 49.732 58.268 56 66 56Z" fill="#FF7474"/>
<path d="M110 54C116.627 54 122 48.6274 122 42C122 35.3726 116.627 30 110 30C103.373 30 98 35.3726 98 42C98 48.6274 103.373 54 110 54Z" fill="#FFA502"/>
<path d="M154 54C160.627 54 166 48.6274 166 42C166 35.3726 160.627 30 154 30C147.373 30 142 35.3726 142 42C142 48.6274 147.373 54 154 54Z" fill="#FFFA65"/>
<path d="M198 54C204.627 54 210 48.6274 210 42C210 35.3726 204.627 30 198 30C191.373 30 186 35.3726 186 42C186 48.6274 191.373 54 198 54Z" fill="#2ECC71"/>
<path d="M242 54C248.627 54 254 48.6274 254 42C254 35.3726 248.627 30 242 30C235.373 30 230 35.3726 230 42C230 48.6274 235.373 54 242 54Z" fill="#DEB4F6"/>
<path d="M22 98C28.6274 98 34 92.6274 34 86C34 79.3726 28.6274 74 22 74C15.3726 74 10 79.3726 10 86C10 92.6274 15.3726 98 22 98Z" fill="#B4AAFF"/>
<path d="M66 98C72.6274 98 78 92.6274 78 86C78 79.3726 72.6274 74 66 74C59.3726 74 54 79.3726 54 86C54 92.6274 59.3726 98 66 98Z" fill="#5490FF"/>
<path d="M110 98C116.627 98 122 92.6274 122 86C122 79.3726 116.627 74 110 74C103.373 74 98 79.3726 98 86C98 92.6274 103.373 98 110 98Z" fill="#B3EFB8"/>
</svg>
