<svg width="75" height="75" viewBox="0 0 75 75" fill="none" xmlns="http://www.w3.org/2000/svg">
<rect width="75" height="75" rx="21.4286" fill="#E3612A" fill-opacity="0.05"/>
<rect x="2.00893" y="2.00893" width="70.9821" height="70.9821" rx="19.4196" stroke="#E3612A" stroke-opacity="0.15" stroke-width="4.01786"/>
<path d="M45.7998 21.75C46.4494 21.75 47.0727 22.0073 47.5322 22.4658L47.6953 22.6455C48.0525 23.0807 48.25 23.6285 48.25 24.1963V29.7871L48.2461 29.9277C48.2271 30.2562 48.1423 30.5781 47.9961 30.874C47.8289 31.2122 47.5858 31.5078 47.2861 31.7373L47.2852 31.7383L47.1338 31.5391L47.2842 31.7383L38.9854 38L47.2773 44.2617C47.5786 44.4904 47.8235 44.7858 47.9922 45.124C48.1607 45.4622 48.2489 45.8351 48.25 46.2129V51.8037C48.25 52.4525 47.9915 53.0745 47.5322 53.5332V53.5342C47.0727 53.9926 46.4494 54.25 45.7998 54.25H28.2002C27.5506 54.25 26.9273 53.9926 26.4678 53.5342V53.5332C26.0085 53.0745 25.75 52.4525 25.75 51.8037V46.1562L25.7549 46.0146C25.7747 45.6841 25.861 45.3605 26.0098 45.0635C26.1797 44.7241 26.4261 44.4285 26.7295 44.2002H26.7305L35.0107 38L26.7305 31.7998H26.7295C26.4261 31.5715 26.1798 31.2759 26.0098 30.9365C25.8398 30.5972 25.7508 30.2232 25.75 29.8438V24.1963C25.75 23.5474 26.0083 22.9245 26.4678 22.4658C26.9273 22.0073 27.5506 21.75 28.2002 21.75H45.7998ZM28.1611 46.1064C28.1532 46.1124 28.1469 46.1202 28.1426 46.1289C28.1383 46.1376 28.1357 46.1474 28.1357 46.1572V51.8037C28.1357 51.8204 28.1424 51.8366 28.1543 51.8486L28.1758 51.8623C28.1835 51.8655 28.1918 51.8672 28.2002 51.8672H45.7998C45.8169 51.8672 45.8335 51.8608 45.8457 51.8486L45.8594 51.8281C45.8626 51.8204 45.8643 51.812 45.8643 51.8037V46.2119C45.8642 46.2024 45.8617 46.1932 45.8574 46.1846V46.1836C45.8534 46.1756 45.8475 46.1681 45.8398 46.1621L38.1934 40.3936V44.2744C38.1934 44.5905 38.0674 44.8939 37.8438 45.1172C37.62 45.3405 37.3162 45.4658 37 45.4658C36.6838 45.4658 36.38 45.3405 36.1562 45.1172C35.9325 44.8938 35.8076 44.5904 35.8076 44.2744V40.3809L28.1611 46.1064ZM36.998 36.5088L41.7539 32.917H32.1992L36.998 36.5088ZM28.2002 24.1328C28.183 24.1328 28.1664 24.1393 28.1543 24.1514C28.1424 24.1633 28.1357 24.1796 28.1357 24.1963V29.8428C28.1357 29.8526 28.1383 29.8624 28.1426 29.8711L28.1611 29.8936L29.0176 30.5342H44.915L45.8398 29.8379C45.8474 29.8319 45.8534 29.8244 45.8574 29.8164V29.8154C45.8617 29.8067 45.8643 29.7968 45.8643 29.7871V24.1963C45.8643 24.1798 45.8577 24.1635 45.8457 24.1514C45.8336 24.1393 45.817 24.1328 45.7998 24.1328H28.2002Z" fill="#E3612A" stroke="#E3612A" stroke-width="0.5"/>
</svg>
