<svg width="183" height="24" viewBox="0 0 183 24" fill="none" xmlns="http://www.w3.org/2000/svg">
<path d="M21.0837 9.73524V0H25.8822V23.662H21.0837V13.8254H5.61103V23.662H0.8125V0H5.61103V9.73524H21.0837ZM42.6565 17.6113L46.9001 19.4028C46.182 20.7099 45.0068 21.8028 43.3747 22.6817C41.7425 23.5606 39.8927 24 37.8254 24C34.8438 24 32.4066 23.1099 30.5133 21.3296C28.6417 19.5494 27.706 17.3409 27.706 14.7043C27.706 11.9775 28.6417 9.74652 30.5133 8.01129C32.3848 6.27608 34.7025 5.40847 37.4663 5.40847C40.1212 5.40847 42.3409 6.27608 44.1255 8.01129C45.9316 9.74652 46.8348 12.2592 46.8348 15.5493V16.0226H32.3087C32.5262 17.4198 33.0703 18.5353 33.9408 19.369C34.833 20.2029 36.019 20.6197 37.4989 20.6197C38.761 20.6197 39.8382 20.3493 40.7306 19.8084C41.6228 19.2452 42.2648 18.5127 42.6565 17.6113ZM37.5969 8.78876C36.1387 8.78876 34.931 9.20568 33.9735 10.0395C33.0158 10.8733 32.4501 12.0789 32.2761 13.6564L42.1342 12.6761C41.9166 11.4592 41.4051 10.5127 40.6 9.83665C39.7948 9.13807 38.7936 8.78876 37.5969 8.78876ZM69.6217 19.5718L70.2092 23.1887C69.4693 23.7296 68.2941 24 66.6838 24C65.3128 24 64.1376 23.617 63.1583 22.8507C62.1791 22.062 61.5697 21.0479 61.3303 19.8084C60.4598 20.9353 59.3283 21.9156 57.9355 22.7493C56.5426 23.5832 55.1716 24 53.8224 24C51.8639 24 50.3405 23.5494 49.2524 22.6479C48.186 21.7466 47.6529 20.5859 47.6529 19.1662C47.6529 17.048 48.8281 15.5268 51.1784 14.6029C53.5287 13.6789 56.8691 13.5212 61.1998 14.1296V13.2169C61.1998 11.6395 60.8515 10.5127 60.1552 9.83665C59.4589 9.13807 58.3925 8.78876 56.9562 8.78876C53.8877 8.78876 51.5156 10.3888 49.84 13.5888L47.1306 10.2423C48.2405 8.70989 49.655 7.52679 51.3742 6.69298C53.1151 5.83664 54.9976 5.40847 57.0215 5.40847C59.8506 5.40847 62.0485 6.08452 63.6153 7.43664C65.1822 8.78876 65.9656 10.693 65.9656 13.1493V19.2676C65.9656 19.6958 66.0854 20.0226 66.3247 20.2479C66.564 20.4733 66.8578 20.5859 67.2061 20.5859C68.2725 20.5859 69.0775 20.2479 69.6217 19.5718ZM55.4546 20.7211C57.4566 20.6987 59.3718 19.5944 61.1998 17.4085V16.462C55.2587 15.8987 52.2882 16.6648 52.2882 18.7606C52.2882 20.1127 53.3436 20.7663 55.4546 20.7211ZM83.7287 9.66763V0H88.364V23.662H85.3282L84.0225 19.0986C83.4784 20.5409 82.4991 21.724 81.0847 22.6479C79.6918 23.5494 78.2013 24 76.6126 24C74.1752 24 72.1949 23.1775 70.6715 21.5324C69.17 19.8648 68.4192 17.5888 68.4192 14.7043C68.4192 11.8198 69.17 9.55497 70.6715 7.90988C72.1731 6.24228 74.1425 5.40847 76.5799 5.40847C78.0815 5.40847 79.496 5.80284 80.8235 6.59157C82.1511 7.35777 83.1193 8.38312 83.7287 9.66763ZM78.0162 20.2817C80.3012 20.2817 82.2053 19.279 83.7287 17.2733V12.1352C82.0531 10.1296 80.1488 9.12679 78.0162 9.12679C76.4493 9.12679 75.2307 9.61131 74.3602 10.5803C73.5115 11.5493 73.0871 12.924 73.0871 14.7043C73.0871 16.4846 73.5115 17.8592 74.3602 18.8282C75.2307 19.7972 76.4493 20.2817 78.0162 20.2817ZM99.4119 24C97.4533 24 95.5165 23.6058 93.6014 22.8169C91.6865 22.0056 90.2502 20.9803 89.2925 19.7408L91.4796 16.8001C93.7646 19.4592 96.5393 20.7887 99.8036 20.7887C101.871 20.7887 102.905 20.2141 102.905 19.0648C102.905 18.5465 102.589 18.1184 101.958 17.7803C101.349 17.4423 100.576 17.1944 99.6404 17.0367C98.7047 16.8564 97.6928 16.6198 96.6046 16.3268C95.5383 16.0339 94.5372 15.7071 93.6014 15.3465C92.6658 14.9634 91.8823 14.3888 91.2511 13.6226C90.6419 12.8338 90.3371 11.8874 90.3371 10.7831C90.3371 9.13807 91.0444 7.83102 92.4589 6.86199C93.8736 5.89299 95.7016 5.40847 97.9429 5.40847C99.9886 5.40847 101.871 5.80284 103.59 6.59157C105.331 7.38032 106.615 8.42821 107.442 9.73524L104.896 12.0676C104.178 10.9183 103.177 10.0507 101.893 9.46482C100.609 8.87891 99.1833 8.58594 97.6165 8.58594C96.7461 8.58594 96.0714 8.74369 95.5926 9.05918C95.1356 9.37469 94.9071 9.75778 94.9071 10.2085C94.9071 10.7944 95.2119 11.2902 95.8211 11.6958C96.4524 12.0789 97.2358 12.3719 98.1714 12.5747C99.1072 12.755 100.108 12.9916 101.175 13.2845C102.263 13.555 103.275 13.8592 104.21 14.1972C105.146 14.5353 105.919 15.0648 106.528 15.786C107.159 16.5071 107.475 17.386 107.475 18.4226C107.475 20.1353 106.724 21.4986 105.222 22.5127C103.721 23.5044 101.784 24 99.4119 24ZM120.572 5.40847C122.357 5.40847 123.76 6.03946 124.783 7.30143C125.828 8.54088 126.35 10.2874 126.35 12.5409V23.662H121.682V12.9127C121.682 11.7634 121.41 10.8733 120.866 10.2423C120.344 9.61131 119.604 9.2958 118.646 9.2958C117.515 9.2958 116.47 9.73524 115.513 10.6141C114.555 11.493 113.804 12.5522 113.26 13.7916V23.662H108.592V0H113.26V9.87045C115.262 6.8958 117.7 5.40847 120.572 5.40847ZM130.305 8.04509C132.198 6.28734 134.679 5.40847 137.747 5.40847C140.816 5.40847 143.296 6.28734 145.19 8.04509C147.105 9.78032 148.062 12 148.062 14.7043C148.062 17.3634 147.116 19.5832 145.222 21.3634C143.351 23.1211 140.859 24 137.747 24C134.657 24 132.165 23.1211 130.272 21.3634C128.4 19.5832 127.465 17.3634 127.465 14.7043C127.465 12 128.411 9.78032 130.305 8.04509ZM141.86 18.7944C142.883 17.7803 143.394 16.417 143.394 14.7043C143.394 12.9916 142.883 11.6395 141.86 10.6479C140.837 9.63383 139.466 9.12679 137.747 9.12679C136.028 9.12679 134.657 9.63383 133.634 10.6479C132.633 11.6395 132.133 12.9916 132.133 14.7043C132.133 16.417 132.633 17.7803 133.634 18.7944C134.657 19.786 136.028 20.2817 137.747 20.2817C139.466 20.2817 140.837 19.786 141.86 18.7944ZM164.295 18.8958L165.143 22.5465C164.599 22.9747 163.827 23.3239 162.826 23.5944C161.847 23.8648 160.889 24 159.953 24C157.538 24 155.525 23.3915 153.914 22.1746C152.304 20.9577 151.499 19.0986 151.499 16.5972V9.1944H146.798V6.8958L151.499 5.74649V0H156.167V5.74649H164.458V9.1944H156.167V16.3944C156.167 18.986 157.505 20.2817 160.182 20.2817C161.77 20.2817 163.141 19.8198 164.295 18.8958ZM174.75 24C172.791 24 170.854 23.6058 168.939 22.8169C167.024 22.0056 165.588 20.9803 164.63 19.7408L166.817 16.8001C169.102 19.4592 171.877 20.7887 175.141 20.7887C177.209 20.7887 178.242 20.2141 178.242 19.0648C178.242 18.5465 177.927 18.1184 177.296 17.7803C176.686 17.4423 175.914 17.1944 174.978 17.0367C174.042 16.8564 173.03 16.6198 171.942 16.3268C170.876 16.0339 169.875 15.7071 168.939 15.3465C168.003 14.9634 167.22 14.3888 166.589 13.6226C165.98 12.8338 165.675 11.8874 165.675 10.7831C165.675 9.13807 166.382 7.83102 167.797 6.86199C169.211 5.89299 171.039 5.40847 173.281 5.40847C175.326 5.40847 177.209 5.80284 178.928 6.59157C180.669 7.38032 181.953 8.42821 182.78 9.73524L180.234 12.0676C179.516 10.9183 178.514 10.0507 177.231 9.46482C175.946 8.87891 174.521 8.58594 172.954 8.58594C172.084 8.58594 171.409 8.74369 170.93 9.05918C170.473 9.37469 170.245 9.75778 170.245 10.2085C170.245 10.7944 170.55 11.2902 171.159 11.6958C171.79 12.0789 172.573 12.3719 173.509 12.5747C174.445 12.755 175.446 12.9916 176.512 13.2845C177.6 13.555 178.612 13.8592 179.548 14.1972C180.484 14.5353 181.256 15.0648 181.866 15.786C182.497 16.5071 182.812 17.386 182.812 18.4226C182.812 20.1353 182.062 21.4986 180.56 22.5127C179.059 23.5044 177.122 24 174.75 24Z" fill="#767676"/>
</svg>
