<svg width="215" height="44" viewBox="0 0 215 44" fill="none" xmlns="http://www.w3.org/2000/svg">
<path d="M47.3242 41.3327C50.5947 39.884 51.8562 37.8285 51.8562 29.4662V17.8804C51.8562 15.0308 51.7631 13.6292 51.6695 12.648C52.4636 12.3677 54.3786 12.1806 55.0331 12.1806C55.5005 12.1806 55.6871 12.4143 55.6871 15.0773V29.6533C55.6871 33.5773 55.3133 36.9413 53.8181 39.4637C52.3706 41.8465 50.0808 43.0144 49.1001 43.0144C48.306 43.0144 47.605 42.3604 47.3242 41.4728V41.3327ZM55.9673 4.93963C55.9673 6.24761 55.0796 7.32191 53.7246 7.32191C52.5102 7.32191 51.576 6.48129 51.576 5.03267C51.576 3.39796 52.884 2.65039 53.8652 2.65039C55.1732 2.65039 55.9673 3.72469 55.9673 4.93963Z" fill="#767676"/>
<path d="M59.0514 17.9265C59.0514 15.0304 58.9578 13.6288 58.8643 12.6475C59.6589 12.3673 61.4337 12.1802 62.2283 12.1802C62.6952 12.1802 62.8353 12.4139 62.8353 15.0769C62.8823 18.1602 62.8823 21.6638 62.8823 24.7001C62.8823 29.746 65.4518 30.3534 67.4608 30.3534C69.6559 30.3534 71.4783 28.9519 72.2254 27.9235V14.002C72.2254 12.8812 72.366 12.6475 72.9729 12.4609C74.1879 12.3203 75.2156 12.1802 76.1964 12.1802C76.1964 13.2079 76.0568 16.4784 76.0568 20.5425V28.1578C76.0568 30.493 76.5242 31.0074 77.9257 31.194V31.3812C77.7851 32.2689 76.8038 33.4368 75.8231 33.4368C73.8611 33.4368 72.8793 32.1753 72.5997 30.1197C71.3382 31.5213 69.703 32.3625 68.7217 32.7828C67.7875 33.2031 66.8533 33.4368 65.825 33.4368C61.107 33.4368 59.0514 30.3534 59.0514 25.775V17.9265Z" fill="#767676"/>
<path d="M92.033 13.4886C92.1737 14.1896 91.6598 15.404 90.6786 15.4971C89.6042 14.9372 88.2957 14.5629 87.1749 14.5629C85.3054 14.5629 83.9044 15.6848 83.9044 17.3665C83.9044 18.7681 84.9322 19.6093 86.0065 20.2162C87.3616 20.9172 88.7631 21.5236 90.1181 22.3188C92.2202 23.5327 93.1079 25.215 93.1079 26.9898C93.1079 31.4287 89.277 33.4366 85.5397 33.4366C83.2039 33.4366 81.4286 32.7361 80.4938 31.9886C80.027 31.6613 79.8398 31.241 79.8398 30.9137C79.8398 30.2132 80.2601 29.3726 80.7746 28.9983C82.036 29.933 83.9044 30.7276 85.8199 30.7276C88.2027 30.7276 89.4171 29.4191 89.4171 27.8309C89.4171 26.616 88.8096 25.7748 87.1284 24.9342C85.8669 24.2802 84.8386 23.7663 83.7178 23.1594C81.8489 22.1311 80.4003 20.4493 80.4003 18.0205C80.4003 14.2832 83.6707 11.9004 87.3145 11.9004C88.9968 11.9004 90.9588 12.3212 92.033 13.4886Z" fill="#767676"/>
<path d="M108.104 29.6532C108.338 30.5874 108.291 31.475 107.45 32.1755C106.469 32.9231 104.647 33.437 103.059 33.437C98.9471 33.437 97.3124 30.821 97.3124 27.3174V15.1242C95.7702 15.1242 95.1162 14.6098 95.1162 14.1895C95.537 13.1617 98.3867 10.5922 99.0872 9.98477C99.6482 9.42436 100.255 9.05058 101.376 8.81689C101.283 10.312 101.19 11.4799 101.19 12.4612H108.618C108.151 14.7499 107.169 14.8434 106.329 14.937C104.693 15.0306 104.6 15.0771 101.143 15.0771C100.956 19.8893 100.956 25.0276 101.143 27.0367C101.376 29.8398 102.965 30.5408 104.554 30.5408C105.861 30.5408 107.216 30.12 108.01 29.5596L108.104 29.6532Z" fill="#767676"/>
<path d="M123.381 29.6532C123.615 30.5874 123.569 31.475 122.727 32.1755C121.747 32.9231 119.924 33.437 118.336 33.437C114.224 33.437 112.59 30.821 112.59 27.3174V15.1242C111.048 15.1242 110.394 14.6098 110.394 14.1895C110.814 13.1617 113.664 10.5922 114.365 9.98477C114.926 9.42436 115.532 9.05058 116.654 8.81689C116.561 10.312 116.467 11.4799 116.467 12.4612H123.895C123.428 14.7499 122.447 14.8434 121.606 14.937C119.971 15.0306 119.877 15.0771 116.421 15.0771C116.233 19.8893 116.233 25.0276 116.421 27.0367C116.654 29.8398 118.243 30.5408 119.831 30.5408C121.139 30.5408 122.494 30.12 123.288 29.5596L123.381 29.6532Z" fill="#767676"/>
<path d="M131.09 15.077C133.052 13.3481 135.294 11.9001 138.005 11.9001C143.19 11.9001 144.639 16.1513 144.639 20.4961V26.8964C144.639 29.8861 144.639 31.7551 144.732 32.7828C143.844 32.97 142.676 33.1561 141.415 33.1561C140.948 33.1561 140.808 32.9229 140.808 32.4091V20.6832C140.808 16.3384 138.752 14.8898 136.416 14.8898C133.94 14.8898 132.025 16.525 131.09 17.5063V31.8481C131.09 32.6427 130.903 32.8764 130.202 32.97C129.175 33.1561 128.054 33.1561 127.119 33.1561C127.212 31.5214 127.259 28.7648 127.259 24.5606V6.94779C127.259 4.19173 127.166 2.69658 127.072 1.76239C128.054 1.3886 129.689 1.1084 130.436 1.1084C130.903 1.1084 131.09 1.34154 131.09 4.19173V15.077Z" fill="#767676"/>
<path d="M148.05 13.6292C148.283 12.9752 149.545 11.9004 150.432 11.9004C151.88 11.9004 152.675 13.6292 152.675 16.619C154.123 13.4891 156.178 11.9004 158.28 11.9004C159.448 11.9004 160.337 12.4143 160.663 12.8816C160.663 13.5827 160.29 14.7035 159.729 15.4046C159.402 15.7313 159.028 15.8249 158.468 15.6377C158.047 15.4976 157.627 15.4046 157.02 15.4046C155.992 15.4046 154.45 16.2917 153.469 18.628C153.142 19.4221 152.954 20.1226 152.954 21.1504V31.849C152.954 32.55 152.815 32.8768 152.114 32.9704C150.992 33.1105 149.918 33.157 148.984 33.157C149.077 31.5217 149.124 28.7651 149.124 24.561V16.7591C149.124 15.1709 148.89 14.2367 148.05 13.7693V13.6292Z" fill="#767676"/>
<path d="M167.951 4.93968C167.951 6.15462 167.064 7.27544 165.709 7.27544C164.448 7.27544 163.56 6.43482 163.56 5.03272C163.56 3.39802 164.868 2.6499 165.849 2.6499C167.157 2.6499 167.951 3.67822 167.951 4.93968ZM167.671 31.7549C167.671 32.5961 167.438 32.8292 166.736 32.9228C166.082 33.0634 165.008 33.11 163.7 33.1565C163.747 31.2881 163.84 28.5785 163.84 25.8219V17.9275C163.84 15.0768 163.747 13.6752 163.653 12.6475C164.448 12.3678 166.363 12.1801 167.017 12.1801C167.484 12.1801 167.671 12.4143 167.671 15.0768V31.7549Z" fill="#767676"/>
<path d="M175.332 12.8816C176.267 15.311 179.069 22.8327 180.891 28.4855C182.48 24.2337 185.657 16.1051 187.105 11.9004C187.853 11.9004 188.6 12.0876 189.394 12.5079C190.095 12.8351 190.001 13.4421 189.254 15.3575C187.339 20.029 185.33 25.0278 182.667 31.5217C182.293 32.3629 181.966 32.7832 181.452 32.9704C180.705 33.25 179.77 33.3907 179.069 33.4372C178.089 30.6341 176.734 27.224 173.931 19.7023C172.389 15.7778 171.735 14.1896 171.128 12.9282C171.875 12.4613 173.51 11.9004 174.351 11.9004C174.772 11.9004 175.098 12.1806 175.332 12.8816Z" fill="#767676"/>
<path d="M207.1 29.4191C207.053 30.7742 206.166 31.9886 205.465 32.4094C204.717 32.8768 202.755 33.4372 200.887 33.4372C194.44 33.4372 190.936 29.5598 190.936 23.0188C190.936 17.1329 194.44 11.9004 200.559 11.9004C205.839 11.9004 208.082 15.8714 208.175 19.5622C208.175 20.029 208.128 20.6365 208.034 21.0103C207.848 21.8044 205.652 22.3648 204.063 22.599C202.802 22.7391 198.224 22.8327 194.813 22.692C194.86 27.6443 197.757 30.4474 201.914 30.4474C203.97 30.4474 206.119 29.7934 207.007 29.3261L207.1 29.4191ZM194.954 20.3098C198.364 20.4028 202.615 20.3563 203.456 20.3098C204.017 20.2632 204.437 19.8895 204.437 19.3285C204.484 16.4789 203.035 14.1896 200.045 14.1896C197.617 14.1896 195.374 16.2917 194.954 20.3098Z" fill="#767676"/>
<path d="M214.425 11.3844C214.425 12.628 213.552 13.5931 212.216 13.5931C210.88 13.5931 210.026 12.628 210.026 11.3844C210.026 10.1224 210.898 9.17578 212.216 9.17578C213.552 9.17578 214.425 10.1224 214.425 11.3844ZM210.546 11.366C210.546 12.4419 211.251 13.1847 212.234 13.1847C213.199 13.1847 213.905 12.4609 213.905 11.366C213.905 10.3637 213.218 9.60312 212.216 9.60312C211.233 9.60312 210.546 10.3637 210.546 11.366ZM211.919 12.2937C211.919 12.4236 211.901 12.4793 211.752 12.4977C211.659 12.4977 211.529 12.4977 211.418 12.5166V10.2896C211.622 10.2522 211.901 10.2155 212.16 10.2155C212.754 10.2155 213.107 10.4378 213.107 10.9019C213.107 11.1989 212.847 11.366 212.624 11.4585C212.754 11.6441 213.088 12.2753 213.293 12.4609V12.4977C213.199 12.5166 213.07 12.535 212.958 12.535C212.773 12.535 212.699 12.4419 212.643 12.3678C212.55 12.238 212.421 12.0525 212.29 11.8112C212.216 11.663 212.142 11.6441 211.919 11.6441V12.2937ZM211.919 11.3287C212.068 11.3287 212.198 11.3287 212.328 11.2914C212.495 11.2357 212.587 11.0874 212.587 10.9208C212.587 10.7164 212.439 10.5492 212.179 10.5492C212.086 10.5492 211.975 10.5492 211.919 10.5681V11.3287Z" fill="#767676"/>
<path d="M36.1433 7.1406C32.1744 3.17176 26.8971 0.98584 21.2838 0.98584C15.671 0.98584 10.3937 3.17176 6.42483 7.1406C2.45545 11.1094 0.269531 16.3868 0.269531 22.0001C0.269531 27.6128 2.45545 32.8902 6.42483 36.859C10.3937 40.8284 15.671 43.0143 21.2838 43.0143C21.8079 43.0143 22.3289 42.9949 22.8465 42.957H22.8492L22.8714 42.9554L22.8709 42.9537C24.6446 42.7146 25.3933 41.7783 25.8677 40.2242C26.5779 37.8998 25.4592 34.3193 22.5436 29.5829C22.2602 29.122 21.9637 28.659 21.6586 28.1976C21.9183 28.0467 22.1698 27.8984 22.4122 27.7562C22.5474 27.6761 22.6794 27.5988 22.8097 27.5225L25.7752 25.2192L25.7714 25.2165L28.9429 22.4815C30.266 21.4651 31.4717 20.9983 32.4314 21.1308C33.3136 21.2525 33.8551 21.8681 34.0471 22.1267C34.3117 22.4831 34.5475 23.4357 34.2446 24.4365C33.9335 25.4642 33.1816 26.1994 32.0084 26.6213C29.9166 27.3748 28.6627 26.9859 27.1426 26.0852L24.333 28.2674C26.6509 29.7679 29.0938 31.2225 33.14 29.7657C35.2994 28.9884 36.8275 27.4397 37.4431 25.4042C38.0052 23.5461 37.726 21.4786 36.7323 20.1371C36.2888 19.5388 35.0268 18.1156 32.8885 17.8203C30.9827 17.5568 28.9564 18.2449 26.8635 19.865L26.8284 19.8921L23.0943 23.1122C20.2949 20.8165 18.9816 18.3612 18.9788 15.4499C18.9772 13.5864 19.3002 11.9852 19.8887 10.9417C20.17 10.4441 20.6374 9.85068 21.2703 9.85068C21.7987 9.85068 22.2813 10.0854 22.7048 10.5496C23.6152 11.5471 24.0712 13.3678 23.8949 15.3022C23.7818 16.5399 22.8049 18.0296 21.0685 19.6097C21.0685 19.6097 22.4013 21.5825 23.243 22.0801L23.2793 22.0385C25.6664 19.8656 26.9744 17.6996 27.1659 15.6003C27.4272 12.7339 26.6666 10.0178 25.1304 8.33552C24.0739 7.17792 22.7389 6.56612 21.2703 6.56612C19.5398 6.56612 18.0328 7.54738 17.0282 9.32868C16.1535 10.879 15.6921 12.9968 15.6943 15.4526C15.6975 19.1239 17.2273 22.2922 20.3555 25.0883C20.1489 25.2094 19.9385 25.3328 19.7232 25.4567C18.2848 23.5455 16.8286 21.8751 15.6889 20.8706C13.6074 19.0363 11.5615 18.2065 9.60877 18.4034C8.15636 18.5495 6.86082 19.2857 5.96071 20.4752C5.01083 21.7312 4.71223 23.7722 5.20069 25.6741C5.77463 27.9098 7.33198 29.696 9.58605 30.7048C10.6214 31.1673 11.6887 31.3615 12.7597 31.361C14.323 31.361 15.8939 30.9477 17.382 30.3575C16.6896 29.2313 15.8409 28.2208 15.261 27.5814C13.7312 28.0753 12.2291 28.2262 10.9508 27.6539C9.27772 26.9058 8.66051 25.7125 8.43765 24.8432C8.16285 23.7722 8.38734 22.8066 8.62644 22.4913C8.86174 22.1797 9.28097 21.7951 9.94415 21.728C10.0129 21.7215 10.0832 21.7177 10.1546 21.7177C11.0861 21.7177 12.2561 22.2998 13.4792 23.3778C14.1304 23.9518 15.0544 24.9547 16.0735 26.2161C16.8308 27.0156 18.4082 28.8077 19.3342 30.7578C19.4565 30.9493 19.5787 31.1408 19.6978 31.335C22.3575 35.6549 22.9618 38.2979 22.6718 39.2483C22.6253 39.4003 22.5642 39.6324 21.9253 39.7168C21.7122 39.7244 21.4985 39.7298 21.2838 39.7298C16.5479 39.7298 12.096 37.8857 8.74706 34.5368C5.39814 31.1879 3.55409 26.736 3.55409 22.0001C3.55409 17.2642 5.39814 12.8118 8.74706 9.46283C12.096 6.11444 16.5479 4.26986 21.2838 4.26986C26.0197 4.26986 30.4721 6.11444 33.821 9.46283C37.1694 12.8118 39.014 17.2642 39.014 22.0001C39.014 26.736 37.1694 31.1879 33.821 34.5368C32.2534 36.1044 30.4445 37.3421 28.4771 38.2151C28.5296 39.0655 28.4842 39.8542 28.3397 40.579C28.2445 41.0588 28.105 41.517 27.9248 41.9481C30.9881 40.9317 33.7945 39.2078 36.1433 36.859C40.1121 32.8902 42.298 27.6128 42.298 22.0001C42.298 16.3868 40.1121 11.1094 36.1433 7.1406Z" fill="#767676"/>
</svg>
