<svg width="163" height="38" viewBox="0 0 163 38" fill="none" xmlns="http://www.w3.org/2000/svg">
<g clip-path="url(#clip0_10389_34252)">
<g clip-path="url(#clip1_10389_34252)">
<g clip-path="url(#clip2_10389_34252)">
<path d="M17.258 24.0105V26.8937L6.25839 18.9902L17.258 11.0869V13.9801L19.7291 12.2058V10.2501C19.7291 9.50418 19.3172 8.80855 18.6643 8.44565C18.0114 8.08274 17.2078 8.11297 16.5849 8.51621L4.37994 17.2765C3.80736 17.6596 3.46582 18.2947 3.46582 18.9802C3.46582 19.6657 3.80736 20.3008 4.37994 20.6838L16.5247 29.4139L16.5749 29.4542C16.9064 29.6659 17.2982 29.7768 17.6798 29.7768C18.0214 29.7768 18.3529 29.6962 18.6643 29.5248C19.3172 29.1618 19.7291 28.4764 19.7291 27.7203V25.7646L17.258 23.9904V24.0105Z" fill="#767676"/>
<path d="M28.0265 29.7865C27.6448 29.7865 27.2631 29.6756 26.9216 29.464L26.8713 29.4236L14.7266 20.6936C14.154 20.3105 13.8125 19.6755 13.8125 18.9899C13.8125 18.3044 14.154 17.6693 14.7266 17.2862L26.9316 8.52597C27.5644 8.12274 28.358 8.09251 29.011 8.45541C29.6639 8.81831 30.0758 9.50385 30.0758 10.2599V27.7401C30.0758 28.4861 29.6639 29.1817 29.011 29.5446C28.6996 29.716 28.3681 29.7966 28.0265 29.7966V29.7865ZM16.595 18.9899L27.5946 26.8934V11.0966L16.595 19V18.9899Z" fill="#767676"/>
<path d="M18.5133 37.5389C8.32737 37.5389 0.0400391 29.2222 0.0400391 19.0002C0.0400391 8.77813 8.32737 0.461426 18.5133 0.461426C28.6992 0.461426 36.9865 8.77813 36.9865 19.0002C36.9865 29.2222 28.6992 37.5389 18.5133 37.5389ZM18.5133 1.35863C8.81958 1.35863 0.934068 9.27211 0.934068 19.0002C0.934068 28.7282 8.81958 36.6316 18.5032 36.6316C28.1869 36.6316 36.0724 28.7181 36.0724 19.0002C36.0724 9.28221 28.207 1.35863 18.5133 1.35863Z" fill="#767676"/>
<path d="M115.942 7.92871C114.807 7.92871 113.893 8.85616 113.893 9.9852V27.3848C113.893 28.5239 114.817 29.4413 115.942 29.4413C117.067 29.4413 117.991 28.5139 117.991 27.3848V9.9852C117.991 8.84606 117.067 7.92871 115.942 7.92871Z" fill="#767676"/>
<path d="M80.2219 7.89844H71.382C70.3273 7.93877 69.4534 8.10002 68.7701 8.40246C68.0268 8.73513 67.4444 9.19889 67.0023 9.78357C66.5705 10.3683 66.2688 11.0336 66.1085 11.7997C65.9476 12.5558 65.8672 13.3723 65.8672 14.2393V23.1206C65.8672 23.9875 65.9476 24.804 66.1085 25.5601C66.2688 26.3162 66.5705 26.9916 67.0023 27.5763C67.4341 28.161 68.0268 28.6146 68.7701 28.9574C69.4534 29.2598 70.3273 29.4211 71.382 29.4513H80.2219C81.2464 29.4614 82.0803 28.6247 82.0803 27.5964C82.0803 26.5682 81.2464 25.7315 80.2219 25.7315H72.4972C71.5629 25.7114 70.9599 25.4593 70.6787 24.9553C70.3975 24.4311 70.2572 23.8867 70.2572 23.0903V20.6911H78.3834C79.4079 20.6911 80.2418 19.8543 80.2418 18.8261V18.7656C80.2418 17.7374 79.4079 16.9007 78.3834 16.9007H70.2572V14.4208C70.2572 13.6243 70.3975 12.9691 70.6787 12.4449C70.9502 11.9409 71.5629 11.6888 72.4972 11.6687H80.2219C81.2464 11.6687 82.0803 10.8319 82.0803 9.80371C82.0803 8.75533 81.2464 7.91857 80.2219 7.91857V7.89844Z" fill="#767676"/>
<path d="M161.226 14.0982C160.694 12.7373 159.89 11.5679 158.836 10.6102C156.866 8.80569 154.345 7.89844 151.281 7.89844H144.671C143.647 7.89844 142.823 8.73513 142.823 9.75334V27.5864C142.823 28.6146 143.657 29.4412 144.671 29.4412H151.281C152.808 29.4412 154.204 29.2195 155.48 28.7659C156.756 28.3122 157.881 27.6469 158.836 26.7597C159.89 25.8021 160.684 24.6327 161.226 23.2718C161.758 21.9109 162.03 20.3685 162.03 18.6648C162.03 16.9611 161.758 15.449 161.226 14.0881V14.0982ZM157.309 22.3241C156.897 23.2415 156.374 23.9674 155.742 24.4916C155.108 25.0157 154.395 25.3585 153.612 25.54C152.828 25.7214 152.055 25.8021 151.291 25.8021H147.595C147.223 25.8021 146.922 25.4996 146.922 25.1266V11.6284H151.291C152.035 11.6284 152.798 11.7191 153.582 11.8905C154.365 12.0719 155.078 12.4146 155.722 12.9187C156.365 13.4328 156.897 14.1486 157.309 15.0861C157.72 16.0136 157.921 17.2333 157.921 18.7253C157.921 20.2173 157.72 21.427 157.309 22.3443V22.3241Z" fill="#767676"/>
<path d="M110.789 7.92871H109.544C108.901 7.92871 108.328 8.3219 108.087 8.91663L103.265 20.9835C103.034 21.5178 102.552 21.5178 102.321 20.9835L100.172 15.6104L101.056 13.5841L102.562 10.1364C103.015 9.09808 102.261 7.93881 101.126 7.93881C100.392 7.93881 99.8099 8.43279 99.629 9.07794L98.4637 11.3562L97.4894 8.92672C97.2481 8.33194 96.676 7.93881 96.0331 7.93881H94.7268C93.602 7.93881 92.8387 9.09808 93.2905 10.1364L95.9527 16.2354L94.8677 18.3523V18.4028L93.602 20.9835C93.3709 21.5178 92.8889 21.5178 92.6579 20.9835L87.8361 8.91663C87.5948 8.3219 87.0221 7.92871 86.3793 7.92871H85.0736C83.9481 7.92871 83.1849 9.08804 83.6372 10.1264L92.0048 29.3002C92.4566 30.1873 93.7223 30.1873 94.1747 29.3002L97.0473 22.7073L97.9115 20.7314L101.648 29.3002C102.1 30.1873 103.366 30.1873 103.818 29.3002L112.195 10.1264C112.648 9.08804 111.894 7.92871 110.759 7.92871H110.789Z" fill="#767676"/>
<path d="M137.811 7.92871C136.675 7.92871 135.762 8.85616 135.762 9.98526V21.7295L134.897 20.7113L123.737 7.90858C122.763 7.03155 121.216 7.72713 121.216 9.04771V27.3949C121.216 28.534 122.14 29.4514 123.265 29.4514C124.39 29.4514 125.314 28.524 125.314 27.3949V15.8926L137.349 29.522C138.333 30.3889 139.86 29.6833 139.86 28.3829V9.98526C139.86 8.84612 138.946 7.92871 137.811 7.92871Z" fill="#767676"/>
<path d="M61.2563 10.1364C60.573 9.4509 59.7698 8.90655 58.8355 8.50326C57.9114 8.10002 56.9167 7.89844 55.8619 7.89844H48.3882C47.2331 7.89844 46.2988 8.83593 46.2988 9.99525V27.3848C46.2988 28.5239 47.223 29.4412 48.3481 29.4412C49.4731 29.4412 50.3973 28.5138 50.3973 27.3848V12.455C50.3973 11.9509 50.7991 11.5477 51.3014 11.5477H55.4099C56.0528 11.5477 56.6254 11.6687 57.1076 11.9005C57.5999 12.1324 58.0118 12.4449 58.3432 12.8179C58.6746 13.1909 58.9256 13.6143 59.1064 14.0982C59.2872 14.5821 59.3677 15.0659 59.3677 15.5599C59.3677 16.0539 59.2975 16.5176 59.1566 16.9712C59.0163 17.4248 58.8052 17.8281 58.524 18.1809C58.2428 18.5337 57.8709 18.816 57.4288 19.0176C57.2982 19.0781 57.1379 19.1084 56.987 19.1587C56.545 19.2999 55.4199 19.3302 55.4199 19.3302H55.0784C51.884 19.3302 52.0347 22.8181 52.0347 22.8181C52.3461 28.4533 57.7306 29.5521 60.5433 29.5824C61.6379 29.5925 62.5221 28.6852 62.5221 27.5864V27.3344C62.5221 26.3061 61.7383 25.4795 60.7139 25.3484C60.553 25.3283 60.3824 25.2778 60.2113 25.2476C60.2113 25.2476 60.1611 25.2375 60.1309 25.2275C59.9204 25.1871 59.7093 25.1266 59.4983 25.0561C58.293 24.6629 57.4288 23.8867 56.8162 22.9895C57.71 22.8887 58.4738 22.5459 58.4738 22.5459C58.5845 22.5157 58.7048 22.4955 58.8052 22.4653C59.8497 22.0822 60.7139 21.548 61.3967 20.8725C62.08 20.1971 62.6025 19.4007 62.9539 18.5035C63.3053 17.5962 63.4861 16.6184 63.4861 15.5599C63.4861 14.5014 63.2853 13.5034 62.8837 12.576C62.4816 11.6485 61.9391 10.8319 61.2563 10.1465V10.1364Z" fill="#767676"/>
</g>
</g>
</g>
<defs>
<clipPath id="clip0_10389_34252">
<rect width="162" height="37.06" fill="white" transform="translate(0.0400391 0.470215)"/>
</clipPath>
<clipPath id="clip1_10389_34252">
<rect width="162" height="37.06" fill="white" transform="translate(0.0400391 0.470215)"/>
</clipPath>
<clipPath id="clip2_10389_34252">
<rect width="162" height="37.0775" fill="white" transform="translate(0.0400391 0.461426)"/>
</clipPath>
</defs>
</svg>
