<svg width="217" height="44" viewBox="0 0 217 44" fill="none" xmlns="http://www.w3.org/2000/svg">
<path d="M11.1879 0.154675C12.5174 -0.0115145 13.8629 0.0747763 15.1988 0.0619925C20.5296 0.0524046 25.8605 0.0683845 31.1945 0.0556007C34.5759 0.033229 37.9796 1.36914 40.335 3.82044C42.7735 6.18864 44.0167 9.59872 44.0615 12.9641C44.0551 19.046 44.0551 25.1279 44.0615 31.2066C44.0263 34.4249 42.8981 37.6816 40.6674 40.0402C38.5676 42.3093 35.605 43.9936 32.4474 43.9361C25.5249 43.9552 18.6025 43.952 11.6832 43.9393C9.99576 43.9936 8.34665 43.511 6.87332 42.7152C2.73775 40.6378 0.0563417 36.1252 0.0403619 31.5198C0.0467538 25.3356 0.0499497 19.1514 0.0403619 12.9673C0.0179902 9.80646 1.15895 6.62329 3.29704 4.27746C5.3073 1.99555 8.17087 0.512622 11.1879 0.154675ZM17.3497 10.3242C13.2588 12.4239 12.3736 18.8606 15.8731 21.8904C18.4075 24.0093 21.8655 24.4695 24.5661 26.2976C26.065 27.5568 24.809 29.7972 23.1919 30.2062C20.0694 31.0372 16.8191 29.8866 14.1345 28.2951C14.1281 30.0177 13.6967 31.702 13.7446 33.4246C17.7875 35.3645 22.7764 35.9238 26.9056 33.9519C31.1498 31.9225 32.0127 25.4347 28.5834 22.2835C26.1098 20.0559 22.5719 19.7523 19.9032 17.8667C18.4874 16.7289 19.3152 14.4182 20.9483 13.99C23.6777 13.2165 26.5668 14.137 29.0053 15.4026C29.1108 13.7151 29.5135 12.0692 29.7628 10.4009C25.8381 8.94036 21.1848 8.2724 17.3497 10.3242Z" fill="#767676"/>
<path d="M112.538 9.99624C114.217 9.2159 116.399 10.8914 115.7 12.7156C115.163 14.6716 112.092 15.1073 111.119 13.3034C110.342 12.0738 111.285 10.4523 112.538 9.99624Z" fill="#767676"/>
<path d="M101.652 13.2494C102.456 13.246 103.263 13.2426 104.067 13.2358C104.077 14.3709 104.071 15.5059 104.094 16.641C105.412 16.6444 106.733 16.641 108.053 16.6477C108.063 17.5531 108.063 18.4618 108.063 19.3705C106.743 19.3908 105.422 19.3874 104.101 19.3772C104.067 21.698 104.064 24.0188 104.077 26.3362C104.094 27.103 104.138 28.0995 104.956 28.4576C106.027 28.6535 107.087 28.2887 108.131 28.086C108.283 28.8258 108.428 29.5656 108.553 30.3122C106.675 31.4033 104.395 31.9607 102.26 31.3797C100.719 30.8966 99.9999 29.1907 100.02 27.684C99.9966 24.9275 100.04 22.1676 100.013 19.411C99.429 19.3941 98.8446 19.3773 98.2636 19.357C98.2636 18.6881 98.2636 18.0192 98.2568 17.347C98.9392 17.0092 99.6892 16.7693 100.287 16.2863C100.973 15.3978 101.23 14.2729 101.652 13.2494Z" fill="#767676"/>
<path d="M173.678 14.2732C174.478 14.263 175.282 14.2563 176.086 14.2495C176.107 15.3744 176.097 16.4993 176.117 17.6276C176.867 17.6513 177.62 17.6749 178.373 17.7019C178.38 18.2728 178.384 18.8437 178.387 19.4146C177.63 19.4856 176.877 19.5633 176.127 19.6545C176.083 21.8773 176.107 24.1001 176.086 26.3229C176.09 27.2654 176.056 28.2349 176.367 29.1369C177.009 29.728 177.955 29.6841 178.752 29.9003C178.715 30.4408 178.681 30.9847 178.647 31.5252C177.306 31.4948 175.725 31.89 174.62 30.9104C173.698 30.1199 173.729 28.7957 173.681 27.6876C173.691 25.046 173.651 22.4009 173.718 19.7592C173.127 19.614 172.536 19.4788 171.948 19.3369C171.962 18.7998 171.975 18.2661 171.992 17.7323C172.556 17.6817 173.12 17.6344 173.691 17.5803C173.688 16.4791 173.674 15.3744 173.678 14.2732Z" fill="#767676"/>
<path d="M60.8121 16.604C62.8626 16.0568 64.9908 16.5094 66.9873 17.0803C66.9704 18.0431 66.9096 19.0059 66.8522 19.9686C65.1496 19.516 63.2781 18.6106 61.5485 19.4416C60.7851 19.695 60.525 20.8368 61.2479 21.2827C62.9876 22.5765 65.305 22.9177 66.8927 24.4548C68.7777 26.2147 68.1291 29.728 65.8151 30.8191C63.0653 32.1704 59.7649 31.6468 57.0117 30.559C57.1029 29.603 57.2313 28.6504 57.3934 27.7045C59.0757 28.3396 60.8324 29.0591 62.6701 28.7787C63.4842 28.6909 63.8896 27.9038 64.3321 27.316C62.5991 25.3533 59.6095 25.3128 57.9272 23.2859C56.9306 22.2624 56.8969 20.7118 57.1536 19.391C57.6603 17.8168 59.2852 16.9351 60.8121 16.604Z" fill="#767676"/>
<path d="M71.2222 19.6606C73.2322 16.0967 78.7858 15.1677 81.718 18.0797C83.4341 19.9072 83.1942 22.559 83.0726 24.8629C80.1134 24.8764 77.1542 24.8595 74.1949 24.873C74.2389 26.2614 74.7591 27.8052 76.1779 28.3289C78.0967 28.9403 80.1607 28.491 82.0626 28.0113C82.272 28.7612 82.4612 29.5146 82.62 30.278C80.1776 31.5245 77.269 32.0144 74.6071 31.2442C72.1512 30.5145 70.506 28.1093 70.2763 25.623C70.1108 23.6062 70.1243 21.4409 71.2222 19.6606ZM75.5428 19.5964C74.5733 20.3362 74.4044 21.6233 74.1781 22.7347C75.9482 22.7617 77.7183 22.7719 79.4884 22.7178C79.3803 21.7753 79.4175 20.7484 78.8871 19.9207C78.144 18.8465 76.5022 18.806 75.5428 19.5964Z" fill="#767676"/>
<path d="M86.5161 19.4111C87.739 17.4045 90.1104 16.391 92.3974 16.364C93.7487 16.2998 95.0695 16.6309 96.3734 16.9383C96.3363 17.9855 96.2552 19.0293 96.1843 20.0732C94.6303 19.705 92.9278 19.3131 91.3806 19.9043C89.8233 20.5664 89.2727 22.3939 89.2625 23.9513C89.249 25.6167 89.8875 27.5185 91.5225 28.2415C93.0392 28.8461 94.6911 28.3023 96.1978 27.9273C96.3903 28.7684 96.5896 29.6062 96.7653 30.4507C94.779 31.6297 92.367 31.8358 90.1341 31.4034C87.8606 30.8696 86.1242 28.8901 85.5871 26.6571C84.8575 24.2519 85.2561 21.5663 86.5161 19.4111Z" fill="#767676"/>
<path d="M111.25 16.6952C112.649 16.6445 114.048 16.6513 115.446 16.6614C115.483 21.5867 115.49 26.5154 115.443 31.4407C114.041 31.5015 112.629 31.5015 111.247 31.238C111.271 26.3904 111.264 21.5428 111.25 16.6952Z" fill="#767676"/>
<path d="M124.262 16.5192C126.624 16.0665 129.384 16.5496 131.036 18.4177C132.782 20.448 133.046 23.3194 132.721 25.88C132.4 28.1872 130.823 30.2952 128.607 31.0823C125.864 32.0585 122.317 31.8119 120.303 29.4945C118.52 27.2549 118.219 24.1267 118.837 21.4073C119.432 18.8501 121.705 16.9246 124.262 16.5192ZM124.668 19.4041C123.567 19.7521 123.094 20.9547 122.877 21.985C122.509 23.8396 122.661 25.8766 123.56 27.5623C124.198 28.7547 125.83 29.2074 126.985 28.5048C128.141 27.8731 128.519 26.4914 128.671 25.2787C128.819 23.5322 128.705 21.6067 127.647 20.1372C127.005 19.1541 125.685 19.1744 124.668 19.4041Z" fill="#767676"/>
<path d="M135.87 16.6613C137.079 16.6579 138.288 16.6613 139.498 16.6343C139.545 17.1207 139.596 17.6038 139.646 18.0902C141.711 16.9248 144.183 15.7492 146.568 16.6579C148.301 17.266 148.96 19.2152 148.997 20.8975C149.085 24.36 149.007 27.8293 149.031 31.2953C147.676 31.3088 146.328 31.3088 144.977 31.2852C144.97 28.2719 144.991 25.2552 144.981 22.2386C144.997 21.3197 144.825 20.2049 143.906 19.7557C142.558 19.4111 141.106 19.8367 140.018 20.6677C139.738 24.2418 139.994 27.853 139.903 31.4405C138.559 31.4811 137.218 31.4777 135.876 31.4541C135.843 26.522 135.86 21.59 135.87 16.6613Z" fill="#767676"/>
<path d="M184.808 17.4348C187.149 17.0024 189.865 17.6071 191.328 19.6137C192.825 21.4919 192.75 24.0154 192.578 26.2787C192.372 28.4373 190.916 30.4304 188.916 31.2648C187.879 31.704 186.727 31.6465 185.629 31.633C183.2 31.6668 180.991 29.8426 180.295 27.5624C179.64 25.4038 179.657 23.0121 180.505 20.9041C181.241 19.1205 182.91 17.7794 184.808 17.4348ZM185.116 19.3941C183.366 19.9785 182.454 21.877 182.4 23.6235C182.275 25.495 182.423 27.6975 183.967 28.9947C185.454 30.2987 187.937 30.025 189.132 28.461C190.419 26.7246 190.396 24.3633 189.98 22.3331C189.565 20.2386 187.21 18.5192 185.116 19.3941Z" fill="#767676"/>
<path d="M200.409 17.479C201.118 17.2898 201.862 17.3405 202.591 17.3101C202.629 18.1073 202.649 18.9079 202.672 19.7085C200.936 19.5193 198.7 19.8943 197.99 21.7117C197.869 24.9007 197.977 28.0964 197.957 31.2853C197.142 31.2988 196.328 31.3056 195.518 31.3056C195.518 26.7586 195.524 22.2083 195.518 17.658C196.318 17.6648 197.119 17.6715 197.919 17.6817C197.94 18.2222 197.96 18.7626 197.987 19.3065C198.727 18.6208 199.416 17.7999 200.409 17.479Z" fill="#767676"/>
<path d="M159.662 20.009C160.283 18.3842 162.023 17.4957 163.678 17.3572C165.442 17.2289 167.381 17.3403 168.847 18.4382C169.698 19.0564 169.894 20.1475 170.164 21.0968C169.418 21.1171 168.675 21.1272 167.931 21.1407C166.975 18.928 163.83 18.4923 162.179 20.134C161.51 20.7894 161.854 21.9278 162.679 22.2656C164.905 23.2959 167.597 23.2453 169.583 24.806C171.104 26.2585 170.779 28.8732 169.289 30.2278C167.54 32.0115 164.803 31.7581 162.543 31.4541C160.584 31.0892 159.385 29.3225 158.979 27.4848C159.625 27.3666 160.273 27.2146 160.935 27.2213C161.851 27.8023 162.003 29.2212 163.155 29.5353C164.712 30.0792 166.901 30.0251 167.881 28.4881C168.04 27.7652 168.225 26.6909 167.377 26.3261C165.229 25.2823 162.682 25.2721 160.648 23.9547C159.365 23.1304 159.199 21.3366 159.662 20.009Z" fill="#767676"/>
<path d="M205.56 18.8772C207.233 17.3064 209.763 16.9888 211.911 17.5868C213.769 18.0969 215.252 19.6271 215.854 21.4412C216.303 22.61 216.242 23.8802 216.269 25.1098C212.817 25.1301 209.368 25.0896 205.918 25.1335C206.091 26.1537 206.236 27.2279 206.827 28.1062C207.868 29.6669 210.08 30.2817 211.78 29.4811C212.82 29.1196 213.296 28.0657 213.874 27.2211C214.6 27.2313 215.327 27.2313 216.053 27.2414C215.793 29.5149 213.854 31.3019 211.617 31.5722C209.976 31.6938 208.185 31.8019 206.712 30.9236C205.003 29.9811 203.841 28.2042 203.554 26.2854C203.118 23.718 203.534 20.7048 205.56 18.8772ZM208.266 19.5731C206.831 20.1778 206.314 21.7452 205.912 23.1167C208.52 23.1775 211.134 23.1539 213.746 23.1303C213.496 22.2351 213.313 21.2689 212.681 20.546C211.648 19.286 209.729 18.7184 208.266 19.5731Z" fill="#767676"/>
<path d="M153.325 28.7886C154.22 28.7886 155.116 28.7953 156.011 28.8122C155.994 29.6939 155.977 30.5756 155.94 31.4539C155.078 31.4674 154.217 31.4674 153.356 31.4573C153.342 30.5688 153.332 29.677 153.325 28.7886Z" fill="#767676"/>
<path d="M17.3474 10.3246C21.1825 8.27275 25.8358 8.94071 29.7604 10.4013C29.5112 12.0695 29.1085 13.7155 29.003 15.4029C26.5645 14.1373 23.6753 13.2169 20.946 13.9903C19.3129 14.4186 18.4851 16.7293 19.9009 17.867C22.5695 19.7526 26.1075 20.0562 28.5811 22.2838C32.0104 25.435 31.1475 31.9228 26.9033 33.9523C22.7741 35.9242 17.7852 35.3649 13.7423 33.4249C13.6944 31.7023 14.1258 30.018 14.1322 28.2954C16.8168 29.887 20.0671 31.0375 23.1896 30.2066C24.8067 29.7975 26.0627 27.5571 24.5638 26.2979C21.8632 24.4699 18.4052 24.0096 15.8708 21.8907C12.3712 18.861 13.2565 12.4243 17.3474 10.3246Z" fill="#202020"/>
</svg>
