<svg width="75" height="75" viewBox="0 0 75 75" fill="none" xmlns="http://www.w3.org/2000/svg">
<g filter="url(#filter0_f_10399_11759)">
<circle cx="45.5356" cy="56.25" r="10.7143" fill="#51C275"/>
</g>
<rect width="75" height="75" rx="21.4286" fill="#51C275" fill-opacity="0.05"/>
<rect x="2.00893" y="2.00893" width="70.9821" height="70.9821" rx="19.4196" stroke="#51C275" stroke-opacity="0.15" stroke-width="4.01786"/>
<path d="M38 19.75C41.8211 19.75 45.4936 21.2292 48.2471 23.877C51.0006 26.5247 52.6215 30.1353 52.7686 33.9512C52.9156 37.7672 51.5777 41.4922 49.0361 44.3438C46.5459 47.1377 43.0893 48.879 39.3672 49.2246V52.5166H55.8818C56.2445 52.5166 56.5931 52.6607 56.8496 52.917C57.1058 53.1732 57.2499 53.5205 57.25 53.8828C57.25 54.2453 57.106 54.5933 56.8496 54.8496C56.5931 55.106 56.2445 55.25 55.8818 55.25H20.1172C19.7547 55.2499 19.4068 55.1059 19.1504 54.8496C18.894 54.5933 18.75 54.2453 18.75 53.8828C18.7501 53.5205 18.8942 53.1732 19.1504 52.917C19.4068 52.6608 19.7547 52.5167 20.1172 52.5166H36.6328V49.2246C32.9106 48.879 29.4541 47.1377 26.9639 44.3438C24.4223 41.4922 23.0844 37.7672 23.2314 33.9512C23.3786 30.1353 24.9994 26.5247 27.7529 23.877C30.5065 21.2293 34.1789 19.75 38 19.75ZM40.3496 22.7188C38.0132 22.2544 35.5914 22.4923 33.3906 23.4033C31.1899 24.3143 29.3088 25.8576 27.9854 27.8369C26.6622 29.8162 25.9561 32.1431 25.9561 34.5234C25.96 37.7143 27.2304 40.7729 29.4883 43.0293C31.7462 45.2857 34.8069 46.5557 38 46.5596L38.4463 46.5508C40.672 46.4683 42.8347 45.7709 44.6914 44.5312C46.672 43.2087 48.2154 41.3282 49.127 39.1289C50.0384 36.9297 50.2772 34.5095 49.8125 32.1748C49.3477 29.8403 48.2009 27.6959 46.5166 26.0127C44.8323 24.3294 42.6859 23.1832 40.3496 22.7188ZM36.5703 27.3398C37.9919 27.0573 39.4657 27.2026 40.8047 27.7568C42.1435 28.311 43.2876 29.2499 44.0928 30.4541C44.8981 31.6585 45.3281 33.0748 45.3281 34.5234C45.3281 36.4659 44.5559 38.3287 43.1816 39.7021C41.8072 41.0755 39.9435 41.8467 38 41.8467C36.5507 41.8467 35.1338 41.4179 33.9287 40.6133C32.7237 39.8085 31.7842 38.6644 31.2295 37.3262C30.6749 35.9879 30.5298 34.5153 30.8125 33.0947C31.0954 31.6741 31.7935 30.369 32.8184 29.3447C33.8432 28.3206 35.1489 27.6224 36.5703 27.3398ZM38.8965 30.0215C38.0055 29.8444 37.0814 29.9358 36.2422 30.2832C35.4029 30.6306 34.6853 31.2189 34.1807 31.9736C33.676 32.7284 33.4072 33.6157 33.4072 34.5234C33.4072 35.7406 33.8908 36.9077 34.752 37.7686C35.6134 38.6293 36.7818 39.1133 38 39.1133C38.9084 39.1133 39.7964 38.8441 40.5518 38.3398C41.3069 37.8356 41.8955 37.1187 42.2432 36.2803C42.5908 35.4415 42.6821 34.5182 42.5049 33.6279C42.3277 32.7376 41.8904 31.9193 41.248 31.2773C40.6058 30.6356 39.7873 30.1986 38.8965 30.0215Z" fill="#51C275" stroke="#51C275" stroke-width="0.5"/>
<defs>
<filter id="filter0_f_10399_11759" x="29.4641" y="40.1786" width="32.143" height="32.1428" filterUnits="userSpaceOnUse" color-interpolation-filters="sRGB">
<feFlood flood-opacity="0" result="BackgroundImageFix"/>
<feBlend mode="normal" in="SourceGraphic" in2="BackgroundImageFix" result="shape"/>
<feGaussianBlur stdDeviation="2.67857" result="effect1_foregroundBlur_10399_11759"/>
</filter>
</defs>
</svg>
