<svg width="75" height="75" viewBox="0 0 75 75" fill="none" xmlns="http://www.w3.org/2000/svg">
<rect width="75" height="75" rx="21.4286" fill="#DD65CF" fill-opacity="0.05"/>
<rect x="2.00893" y="2.00893" width="70.9821" height="70.9821" rx="19.4196" stroke="#DD65CF" stroke-opacity="0.15" stroke-width="4.01786"/>
<path d="M43.8193 19.75C44.1709 19.75 44.5189 19.8196 44.8438 19.9541C45.1687 20.0887 45.4642 20.2856 45.7129 20.5342L53.4658 28.2861C53.7144 28.5347 53.9113 28.8304 54.0459 29.1553C54.1806 29.4803 54.25 29.8289 54.25 30.1807C54.25 30.5324 54.1806 30.8811 54.0459 31.2061C53.9114 31.5307 53.7142 31.8258 53.4658 32.0742L32.0752 53.4658L32.0742 53.4648C31.8258 53.714 31.5311 53.9123 31.2061 54.0469C30.9622 54.1478 30.7052 54.2119 30.4434 54.2373L30.1807 54.25H22.4287C21.7183 54.25 21.0365 53.9682 20.5342 53.4658C20.0319 52.9636 19.75 52.2816 19.75 51.5713V43.8193C19.7495 43.4676 19.8185 43.1189 19.9531 42.7939C20.0877 42.4691 20.2852 42.174 20.5342 41.9258L41.9248 20.5342C42.1735 20.2855 42.4691 20.0887 42.7939 19.9541C43.119 19.8195 43.4676 19.75 43.8193 19.75ZM22.3604 43.752C22.3422 43.77 22.3323 43.7948 22.332 43.8203V51.5713C22.332 51.584 22.3341 51.5968 22.3389 51.6084L22.3604 51.6396L22.3916 51.6611C22.4032 51.6659 22.4159 51.6689 22.4287 51.6689H30.1797C30.2055 51.6688 30.2302 51.6576 30.248 51.6396H30.249L45.582 36.3066L37.6924 28.418L22.3604 43.752ZM43.7822 22.3389C43.7705 22.3437 43.7599 22.3514 43.751 22.3604L39.5195 26.5928L47.4072 34.4805L51.6387 30.25H51.6396C51.6486 30.2411 51.6554 30.2303 51.6602 30.2188C51.665 30.2071 51.6679 30.1943 51.668 30.1816C51.668 30.1689 51.665 30.1562 51.6602 30.1445C51.6554 30.1331 51.6485 30.1222 51.6396 30.1133L51.6387 30.1123L43.8887 22.3604C43.8795 22.3513 43.868 22.3447 43.8564 22.3398C43.845 22.3351 43.8327 22.3321 43.8203 22.332C43.8076 22.332 43.7942 22.3339 43.7822 22.3389Z" fill="#DD65CF" stroke="#DD65CF" stroke-width="0.5"/>
</svg>
