<svg width="75" height="75" viewBox="0 0 75 75" fill="none" xmlns="http://www.w3.org/2000/svg">
<g filter="url(#filter0_f_10406_11833)">
<circle cx="45.5356" cy="56.25" r="10.7143" fill="#ED9913"/>
</g>
<rect width="75" height="75" rx="21.4286" fill="#ED9913" fill-opacity="0.05"/>
<rect x="2.00893" y="2.00893" width="70.9821" height="70.9821" rx="19.4196" stroke="#ED9913" stroke-opacity="0.15" stroke-width="4.01786"/>
<path d="M52.2705 20.7559L52.7158 20.7754C53.3675 20.8156 53.9824 21.0924 54.4443 21.5537C54.9062 22.0152 55.1838 22.6297 55.2246 23.2812V23.2822C55.3532 25.4514 55.1552 30.9907 50.5547 35.5957L49.7002 36.4502V46.6152L49.6875 46.8779C49.6621 47.1394 49.5981 47.3961 49.4971 47.6396C49.396 47.8835 49.2591 48.1105 49.0918 48.3135L48.915 48.5078L42.957 54.4658C42.6053 54.8175 42.162 55.0644 41.6777 55.1787C41.1937 55.293 40.6868 55.2697 40.2148 55.1123C39.7431 54.955 39.3245 54.6697 39.0059 54.2881C38.687 53.9061 38.4805 53.4427 38.4102 52.9502V52.9492L37.4736 46.2354L29.7598 38.5225L23.0537 37.5869C22.561 37.5173 22.0973 37.3115 21.7148 36.9932C21.3324 36.6747 21.0455 36.2561 20.8877 35.7842C20.7299 35.3121 20.7071 34.8047 20.8213 34.3203C20.9355 33.8361 21.1824 33.3929 21.5342 33.041L27.4932 27.085C27.741 26.8359 28.0359 26.6385 28.3604 26.5039H28.3613C28.6861 26.3694 29.0342 26.3001 29.3857 26.3008H39.5469L40.4014 25.4443C44.7159 21.1305 49.8584 20.6884 52.2705 20.7559ZM28.2695 41.8174C28.4392 41.8111 28.6087 41.8384 28.7676 41.8975C28.9266 41.9566 29.0721 42.0467 29.1963 42.1621C29.3204 42.2775 29.4206 42.4162 29.4912 42.5703C29.5617 42.7245 29.6021 42.8911 29.6084 43.0605C29.6147 43.2301 29.5873 43.3997 29.5283 43.5586H29.5273C29.4682 43.7173 29.3789 43.8632 29.2637 43.9873C29.1482 44.1116 29.0087 44.2117 28.8545 44.2822L28.8535 44.2832C27.7313 44.7915 25.1881 46.4568 24.7783 51.2246C29.5477 50.8147 31.2144 48.2637 31.7227 47.1494L31.7812 47.0371C31.8451 46.9277 31.9244 46.8278 32.0176 46.7412C32.1418 46.6258 32.2874 46.5356 32.4463 46.4766C32.6052 46.4176 32.7748 46.3902 32.9443 46.3965C33.1138 46.4026 33.2804 46.4421 33.4346 46.5127C33.5887 46.5833 33.7274 46.6837 33.8428 46.8076C33.9581 46.9319 34.0482 47.0783 34.1074 47.2373C34.1664 47.3961 34.1937 47.5649 34.1875 47.7344C34.1812 47.9037 34.1418 48.0705 34.0713 48.2246L33.9219 48.5518L33.9062 48.5361C33.4655 49.3973 32.6382 50.6236 31.1719 51.6826C29.5089 52.8836 27.042 53.8584 23.4268 53.8584C23.0844 53.8584 22.7558 53.7225 22.5137 53.4805C22.2718 53.2385 22.1358 52.9104 22.1357 52.5684C22.1357 48.9537 23.1113 46.4869 24.3125 44.8242C25.5115 43.1646 26.9238 42.3215 27.7793 41.9336L27.8975 41.8867C28.0172 41.8456 28.1426 41.822 28.2695 41.8174ZM40.0605 46.0879L40.9658 52.582C40.9686 52.5996 40.9768 52.6162 40.9883 52.6299C40.9999 52.6435 41.0153 52.6537 41.0322 52.6592C41.0491 52.6646 41.0674 52.6654 41.085 52.6611C41.1023 52.6569 41.1181 52.6476 41.1309 52.6348L47.0879 46.6777L47.1094 46.6455C47.1139 46.6344 47.116 46.6225 47.1162 46.6104V39.0322L40.0605 46.0879ZM52.5615 23.3516C50.6599 23.2298 48.7537 23.5162 46.9717 24.1914C45.1892 24.8668 43.5721 25.9165 42.2285 27.2686H42.2275L32.1924 37.3037L38.6924 43.8037L48.7285 33.7715L48.7305 33.7705V33.7695C50.0816 32.427 51.1302 30.811 51.8057 29.0303C52.4811 27.2497 52.7683 25.3449 52.6475 23.4443V23.4424C52.6461 23.4194 52.6363 23.3975 52.6201 23.3809C52.6045 23.3648 52.5838 23.3541 52.5615 23.3516ZM29.3857 28.8818C29.3603 28.8818 29.3355 28.8922 29.3174 28.9102L23.3613 34.8799L23.3604 34.8789C23.3483 34.8913 23.3401 34.9071 23.3359 34.9238C23.332 34.94 23.3323 34.9574 23.3369 34.9736C23.342 34.9885 23.3517 35.0015 23.3643 35.0117H23.3633L23.4082 35.0303L23.4141 35.0312L29.9062 35.9365L36.9648 28.8818H29.3857Z" fill="#ED9913" stroke="#ED9913" stroke-width="0.5"/>
<defs>
<filter id="filter0_f_10406_11833" x="29.4641" y="40.1786" width="32.143" height="32.1428" filterUnits="userSpaceOnUse" color-interpolation-filters="sRGB">
<feFlood flood-opacity="0" result="BackgroundImageFix"/>
<feBlend mode="normal" in="SourceGraphic" in2="BackgroundImageFix" result="shape"/>
<feGaussianBlur stdDeviation="2.67857" result="effect1_foregroundBlur_10406_11833"/>
</filter>
</defs>
</svg>
