<svg width="990" height="616" viewBox="0 0 990 616" fill="none" xmlns="http://www.w3.org/2000/svg">
<g clip-path="url(#clip0_10517_17948)">
<circle cx="0.440737" cy="0.440737" r="0.440737" transform="matrix(-1 0 0 1 291.873 33.9331)" fill="white" fill-opacity="0.4"/>
<circle cx="0.451219" cy="0.451219" r="0.451219" transform="matrix(-1 0 0 1 875.408 349.5)" fill="white" fill-opacity="0.5"/>
<circle cx="0.523832" cy="0.523832" r="0.523832" transform="matrix(-1 0 0 1 838.387 455.277)" fill="white" fill-opacity="0.5"/>
<circle cx="0.540332" cy="0.540332" r="0.540332" transform="matrix(-1 0 0 1 420.568 269.287)" fill="white" fill-opacity="0.5"/>
<circle cx="0.440737" cy="0.440737" r="0.440737" transform="matrix(-1 0 0 1 90.8975 347.738)" fill="white" fill-opacity="0.3"/>
<circle cx="0.440737" cy="0.440737" r="0.440737" transform="matrix(-1 0 0 1 611.848 535.492)" fill="white" fill-opacity="0.4"/>
<circle cx="0.440737" cy="0.440737" r="0.440737" transform="matrix(-1 0 0 1 125.274 203.176)" fill="white" fill-opacity="0.3"/>
<circle cx="0.442856" cy="0.442856" r="0.442856" transform="matrix(-1 0 0 1 551.026 471.144)" fill="white" fill-opacity="0.4"/>
<circle cx="0.660138" cy="0.660138" r="0.660138" transform="matrix(-1 0 0 1 727.321 516.98)" fill="white" fill-opacity="0.4"/>
<circle cx="0.440737" cy="0.440737" r="0.440737" transform="matrix(-1 0 0 1 5.39453 338.923)" fill="white" fill-opacity="0.6"/>
<circle cx="0.440737" cy="0.440737" r="0.440737" transform="matrix(-1 0 0 1 562.485 198.769)" fill="white" fill-opacity="0.6"/>
<circle cx="0.577287" cy="0.577287" r="0.577287" transform="matrix(-1 0 0 1 629.478 40.1035)" fill="white" fill-opacity="0.3"/>
<circle cx="0.615439" cy="0.615439" r="0.615439" transform="matrix(-1 0 0 1 361.51 256.946)" fill="white" fill-opacity="0.5"/>
<circle cx="0.440737" cy="0.440737" r="0.440737" transform="matrix(-1 0 0 1 796.076 33.0518)" fill="white" fill-opacity="0.4"/>
<circle cx="0.440737" cy="0.440737" r="0.440737" transform="matrix(-1 0 0 1 782.854 253.42)" fill="white" fill-opacity="0.5"/>
<circle cx="0.440737" cy="0.440737" r="0.440737" transform="matrix(-1 0 0 1 691.181 253.42)" fill="white" fill-opacity="0.3"/>
<circle cx="0.548555" cy="0.548555" r="0.548555" transform="matrix(-1 0 0 1 688.536 49.7998)" fill="white" fill-opacity="0.4"/>
<circle cx="0.440737" cy="0.440737" r="0.440737" transform="matrix(-1 0 0 1 771.395 419.137)" fill="white" fill-opacity="0.4"/>
<circle cx="0.607917" cy="0.607917" r="0.607917" transform="matrix(-1 0 0 1 625.951 545.188)" fill="white" fill-opacity="0.5"/>
<circle cx="0.440737" cy="0.440737" r="0.440737" transform="matrix(-1 0 0 1 132.326 236.672)" fill="white" fill-opacity="0.5"/>
<circle cx="0.440737" cy="0.440737" r="0.440737" transform="matrix(-1 0 0 1 311.266 278.101)" fill="white" fill-opacity="0.4"/>
<circle cx="0.440737" cy="0.440737" r="0.440737" transform="matrix(-1 0 0 1 846.32 274.575)" fill="white" fill-opacity="0.4"/>
<circle cx="0.505643" cy="0.505643" r="0.505643" transform="matrix(-1 0 0 1 548.382 83.2954)" fill="white" fill-opacity="0.5"/>
<circle cx="0.509224" cy="0.509224" r="0.509224" transform="matrix(-1 0 0 1 612.729 117.673)" fill="white" fill-opacity="0.6"/>
<circle cx="0.55385" cy="0.55385" r="0.55385" transform="matrix(-1 0 0 1 232.814 485.247)" fill="white" fill-opacity="0.4"/>
<circle cx="0.59787" cy="0.59787" r="0.59787" transform="matrix(-1 0 0 1 283.059 503.758)" fill="white" fill-opacity="0.6"/>
<circle cx="0.440737" cy="0.440737" r="0.440737" transform="matrix(-1 0 0 1 329.776 368.893)" fill="white" fill-opacity="0.5"/>
<circle cx="0.571201" cy="0.571201" r="0.571201" transform="matrix(-1 0 0 1 342.999 307.19)" fill="white" fill-opacity="0.5"/>
<circle cx="0.440737" cy="0.440737" r="0.440737" transform="matrix(-1 0 0 1 116.46 528.439)" fill="white" fill-opacity="0.5"/>
<circle cx="0.494974" cy="0.494974" r="0.494974" transform="matrix(-1 0 0 1 291.873 110.621)" fill="white" fill-opacity="0.5"/>
<circle cx="0.440737" cy="0.440737" r="0.440737" transform="matrix(-1 0 0 1 967.963 190.835)" fill="white" fill-opacity="0.5"/>
<circle cx="0.465049" cy="0.465049" r="0.465049" transform="matrix(-1 0 0 1 691.181 100.925)" fill="white" fill-opacity="0.4"/>
<circle cx="0.440737" cy="0.440737" r="0.440737" transform="matrix(-1 0 0 1 112.935 72.7178)" fill="white" fill-opacity="0.5"/>
<circle cx="0.440737" cy="0.440737" r="0.440737" transform="matrix(-1 0 0 1 692.062 76.2437)" fill="white" fill-opacity="0.4"/>
<circle cx="0.440737" cy="0.440737" r="0.440737" transform="matrix(-1 0 0 1 975.896 585.735)" fill="white" fill-opacity="0.6"/>
<circle cx="0.491441" cy="0.491441" r="0.491441" transform="matrix(-1 0 0 1 892.156 534.61)" fill="white" fill-opacity="0.3"/>
<circle cx="0.440737" cy="0.440737" r="0.440737" transform="matrix(-1 0 0 1 642.699 498.469)" fill="white" fill-opacity="0.5"/>
<circle cx="0.450258" cy="0.450258" r="0.450258" transform="matrix(-1 0 0 1 242.511 489.655)" fill="white" fill-opacity="0.5"/>
<circle cx="0.440737" cy="0.440737" r="0.440737" transform="matrix(-1 0 0 1 134.971 398.863)" fill="white" fill-opacity="0.5"/>
<circle cx="0.448538" cy="0.448538" r="0.448538" transform="matrix(-1 0 0 1 196.674 108.858)" fill="white" fill-opacity="0.4"/>
<circle cx="0.595891" cy="0.595891" r="0.595891" transform="matrix(-1 0 0 1 637.411 49.7998)" fill="white" fill-opacity="0.6"/>
<circle cx="0.440737" cy="0.440737" r="0.440737" transform="matrix(-1 0 0 1 846.32 445.581)" fill="white" fill-opacity="0.4"/>
<circle cx="0.440737" cy="0.440737" r="0.440737" transform="matrix(-1 0 0 1 728.202 352.145)" fill="white" fill-opacity="0.6"/>
<circle cx="0.440737" cy="0.440737" r="0.440737" transform="matrix(-1 0 0 1 883.342 405.033)" fill="white" fill-opacity="0.4"/>
<circle cx="0.440737" cy="0.440737" r="0.440737" transform="matrix(-1 0 0 1 285.703 384.76)" fill="white" fill-opacity="0.5"/>
<circle cx="0.440737" cy="0.440737" r="0.440737" transform="matrix(-1 0 0 1 479.627 445.581)" fill="white" fill-opacity="0.6"/>
<circle cx="0.476913" cy="0.476913" r="0.476913" transform="matrix(-1 0 0 1 885.104 328.345)" fill="white" fill-opacity="0.6"/>
<circle cx="0.454506" cy="0.454506" r="0.454506" transform="matrix(-1 0 0 1 825.164 59.4961)" fill="white" fill-opacity="0.3"/>
<circle cx="0.440737" cy="0.440737" r="0.440737" transform="matrix(-1 0 0 1 285.703 487.892)" fill="white" fill-opacity="0.5"/>
<circle cx="0.649572" cy="0.649572" r="0.649572" transform="matrix(-1 0 0 1 720.27 167.036)" fill="white" fill-opacity="0.6"/>
<circle cx="0.440737" cy="0.440737" r="0.440737" transform="matrix(-1 0 0 1 359.747 48.918)" fill="white" fill-opacity="0.4"/>
<circle cx="0.440737" cy="0.440737" r="0.440737" transform="matrix(-1 0 0 1 201.081 446.463)" fill="white" fill-opacity="0.3"/>
<circle cx="0.535169" cy="0.535169" r="0.535169" transform="matrix(-1 0 0 1 623.307 413.848)" fill="white" fill-opacity="0.4"/>
<circle cx="0.558274" cy="0.558274" r="0.558274" transform="matrix(-1 0 0 1 892.156 547.832)" fill="white" fill-opacity="0.5"/>
<circle cx="0.56421" cy="0.56421" r="0.56421" transform="matrix(-1 0 0 1 207.252 546.069)" fill="white" fill-opacity="0.3"/>
<circle cx="0.548481" cy="0.548481" r="0.548481" transform="matrix(-1 0 0 1 571.3 79.7695)" fill="white" fill-opacity="0.5"/>
<circle cx="0.4673" cy="0.4673" r="0.4673" transform="matrix(-1 0 0 1 916.838 79.7695)" fill="white" fill-opacity="0.5"/>
<circle cx="0.555802" cy="0.555802" r="0.555802" transform="matrix(-1 0 0 1 333.303 549.595)" fill="white" fill-opacity="0.5"/>
<circle cx="0.440737" cy="0.440737" r="0.440737" transform="matrix(-1 0 0 1 161.415 363.604)" fill="white" fill-opacity="0.6"/>
<circle cx="0.601605" cy="0.601605" r="0.601605" transform="matrix(-1 0 0 1 848.083 511.692)" fill="white" fill-opacity="0.6"/>
<circle cx="0.440737" cy="0.440737" r="0.440737" transform="matrix(-1 0 0 1 483.153 216.398)" fill="white" fill-opacity="0.6"/>
<circle cx="0.513913" cy="0.513913" r="0.513913" transform="matrix(-1 0 0 1 754.646 455.277)" fill="white" fill-opacity="0.5"/>
<circle cx="0.440737" cy="0.440737" r="0.440737" transform="matrix(-1 0 0 1 72.3867 211.991)" fill="white" fill-opacity="0.3"/>
<circle cx="0.449941" cy="0.449941" r="0.449941" transform="matrix(-1 0 0 1 911.549 335.397)" fill="white" fill-opacity="0.6"/>
<circle cx="0.511835" cy="0.511835" r="0.511835" transform="matrix(-1 0 0 1 905.379 402.389)" fill="white" fill-opacity="0.4"/>
<circle cx="0.573909" cy="0.573909" r="0.573909" transform="matrix(-1 0 0 1 945.045 478.196)" fill="white" fill-opacity="0.5"/>
<circle cx="0.58635" cy="0.58635" r="0.58635" transform="matrix(-1 0 0 1 708.811 436.766)" fill="white" fill-opacity="0.5"/>
<circle cx="0.49405" cy="0.49405" r="0.49405" transform="matrix(-1 0 0 1 880.697 304.545)" fill="white" fill-opacity="0.4"/>
<circle cx="0.494437" cy="0.494437" r="0.494437" transform="matrix(-1 0 0 1 547.501 504.64)" fill="white" fill-opacity="0.6"/>
<circle cx="0.445865" cy="0.445865" r="0.445865" transform="matrix(-1 0 0 1 916.838 50.6812)" fill="white" fill-opacity="0.4"/>
<circle cx="0.440737" cy="0.440737" r="0.440737" transform="matrix(-1 0 0 1 229.288 405.033)" fill="white" fill-opacity="0.4"/>
<circle cx="0.61678" cy="0.61678" r="0.61678" transform="matrix(-1 0 0 1 784.617 68.3105)" fill="white" fill-opacity="0.5"/>
<circle cx="0.46706" cy="0.46706" r="0.46706" transform="matrix(-1 0 0 1 460.234 380.352)" fill="white" fill-opacity="0.5"/>
<circle cx="0.440737" cy="0.440737" r="0.440737" transform="matrix(-1 0 0 1 693.825 403.271)" fill="white" fill-opacity="0.4"/>
<circle cx="0.632331" cy="0.632331" r="0.632331" transform="matrix(-1 0 0 1 148.193 250.775)" fill="white" fill-opacity="0.3"/>
<circle cx="0.644699" cy="0.644699" r="0.644699" transform="matrix(-1 0 0 1 150.838 373.3)" fill="white" fill-opacity="0.4"/>
<circle cx="0.622276" cy="0.622276" r="0.622276" transform="matrix(-1 0 0 1 172.874 226.976)" fill="white" fill-opacity="0.6"/>
<circle cx="0.585642" cy="0.585642" r="0.585642" transform="matrix(-1 0 0 1 272.48 551.358)" fill="white" fill-opacity="0.4"/>
<circle cx="0.440737" cy="0.440737" r="0.440737" transform="matrix(-1 0 0 1 216.066 55.9697)" fill="white" fill-opacity="0.5"/>
<circle cx="0.440737" cy="0.440737" r="0.440737" transform="matrix(-1 0 0 1 775.802 495.825)" fill="white" fill-opacity="0.3"/>
<circle cx="0.511461" cy="0.511461" r="0.511461" transform="matrix(-1 0 0 1 62.6904 418.255)" fill="white" fill-opacity="0.5"/>
<circle cx="0.532195" cy="0.532195" r="0.532195" transform="matrix(-1 0 0 1 981.186 481.721)" fill="white" fill-opacity="0.5"/>
<circle cx="0.440737" cy="0.440737" r="0.440737" transform="matrix(-1 0 0 1 681.484 229.62)" fill="white" fill-opacity="0.3"/>
<circle cx="0.440737" cy="0.440737" r="0.440737" transform="matrix(-1 0 0 1 162.297 435.885)" fill="white" fill-opacity="0.5"/>
<circle cx="0.440737" cy="0.440737" r="0.440737" transform="matrix(-1 0 0 1 136.733 262.235)" fill="white" fill-opacity="0.5"/>
<circle cx="0.511599" cy="0.511599" r="0.511599" transform="matrix(-1 0 0 1 276.007 437.648)" fill="white" fill-opacity="0.4"/>
<circle cx="0.64379" cy="0.64379" r="0.64379" transform="matrix(-1 0 0 1 775.802 349.5)" fill="white" fill-opacity="0.5"/>
<circle cx="0.55556" cy="0.55556" r="0.55556" transform="matrix(-1 0 0 1 728.202 506.403)" fill="white" fill-opacity="0.4"/>
<circle cx="0.445346" cy="0.445346" r="0.445346" transform="matrix(-1 0 0 1 533.396 577.802)" fill="white" fill-opacity="0.4"/>
<circle cx="0.57444" cy="0.57444" r="0.57444" transform="matrix(-1 0 0 1 566.012 228.739)" fill="white" fill-opacity="0.6"/>
<circle cx="0.440737" cy="0.440737" r="0.440737" transform="matrix(-1 0 0 1 867.476 440.292)" fill="white" fill-opacity="0.5"/>
<circle cx="0.550989" cy="0.550989" r="0.550989" transform="matrix(-1 0 0 1 954.741 403.271)" fill="white" fill-opacity="0.3"/>
<circle cx="0.451411" cy="0.451411" r="0.451411" transform="matrix(-1 0 0 1 302.451 317.768)" fill="white" fill-opacity="0.4"/>
<circle cx="0.440737" cy="0.440737" r="0.440737" transform="matrix(-1 0 0 1 695.588 457.922)" fill="white" fill-opacity="0.5"/>
<circle cx="0.440737" cy="0.440737" r="0.440737" transform="matrix(-1 0 0 1 343.88 478.196)" fill="white" fill-opacity="0.4"/>
<circle cx="0.462139" cy="0.462139" r="0.462139" transform="matrix(-1 0 0 1 41.5352 469.381)" fill="white" fill-opacity="0.4"/>
<circle cx="0.440737" cy="0.440737" r="0.440737" transform="matrix(-1 0 0 1 759.936 249.013)" fill="white" fill-opacity="0.3"/>
<circle cx="0.444101" cy="0.444101" r="0.444101" transform="matrix(-1 0 0 1 422.331 518.743)" fill="white" fill-opacity="0.5"/>
<circle cx="0.66086" cy="0.66086" r="0.66086" transform="matrix(-1 0 0 1 735.254 163.51)" fill="white" fill-opacity="0.6"/>
<circle cx="0.596592" cy="0.596592" r="0.596592" transform="matrix(-1 0 0 1 539.567 314.242)" fill="white" fill-opacity="0.5"/>
<circle cx="0.440737" cy="0.440737" r="0.440737" transform="matrix(-1 0 0 1 44.1787 102.688)" fill="white" fill-opacity="0.4"/>
<circle cx="0.440737" cy="0.440737" r="0.440737" transform="matrix(-1 0 0 1 251.325 250.775)" fill="white" fill-opacity="0.6"/>
<circle cx="0.460386" cy="0.460386" r="0.460386" transform="matrix(-1 0 0 1 989.118 544.306)" fill="white" fill-opacity="0.4"/>
<circle cx="0.440737" cy="0.440737" r="0.440737" transform="matrix(-1 0 0 1 170.229 501.995)" fill="white" fill-opacity="0.5"/>
<circle cx="0.616741" cy="0.616741" r="0.616741" transform="matrix(-1 0 0 1 245.155 213.754)" fill="white" fill-opacity="0.6"/>
<circle cx="0.525765" cy="0.525765" r="0.525765" transform="matrix(-1 0 0 1 51.2314 534.61)" fill="white" fill-opacity="0.4"/>
<circle cx="0.540513" cy="0.540513" r="0.540513" transform="matrix(-1 0 0 1 792.55 129.132)" fill="white" fill-opacity="0.3"/>
<circle cx="0.440737" cy="0.440737" r="0.440737" transform="matrix(-1 0 0 1 427.62 537.254)" fill="white" fill-opacity="0.4"/>
<circle cx="0.440737" cy="0.440737" r="0.440737" transform="matrix(-1 0 0 1 314.791 104.451)" fill="white" fill-opacity="0.6"/>
<circle cx="0.542189" cy="0.542189" r="0.542189" transform="matrix(-1 0 0 1 747.595 32.1699)" fill="white" fill-opacity="0.5"/>
<circle cx="0.446985" cy="0.446985" r="0.446985" transform="matrix(-1 0 0 1 288.348 184.665)" fill="white" fill-opacity="0.4"/>
<circle cx="0.508" cy="0.508" r="0.508" transform="matrix(-1 0 0 1 163.178 332.753)" fill="white" fill-opacity="0.5"/>
<circle cx="0.477016" cy="0.477016" r="0.477016" transform="matrix(-1 0 0 1 499.9 112.384)" fill="white" fill-opacity="0.6"/>
<circle cx="0.644404" cy="0.644404" r="0.644404" transform="matrix(-1 0 0 1 142.904 402.389)" fill="white" fill-opacity="0.4"/>
<circle cx="0.507193" cy="0.507193" r="0.507193" transform="matrix(-1 0 0 1 823.401 83.2954)" fill="white" fill-opacity="0.4"/>
<circle cx="0.535998" cy="0.535998" r="0.535998" transform="matrix(-1 0 0 1 563.367 295.73)" fill="white" fill-opacity="0.5"/>
<circle cx="0.620824" cy="0.620824" r="0.620824" transform="matrix(-1 0 0 1 374.731 314.242)" fill="white" fill-opacity="0.4"/>
<circle cx="0.507355" cy="0.507355" r="0.507355" transform="matrix(-1 0 0 1 887.749 530.203)" fill="white" fill-opacity="0.6"/>
<g filter="url(#filter0_d_10517_17948)">
<circle cx="0.440737" cy="0.440737" r="0.440737" transform="matrix(-1 0 0 1 6.27539 339.804)" fill="white" fill-opacity="0.6" shape-rendering="crispEdges"/>
</g>
<g filter="url(#filter1_d_10517_17948)">
<circle cx="0.57001" cy="0.57001" r="0.57001" transform="matrix(-1 0 0 1 956.504 315.123)" fill="white" fill-opacity="0.6" shape-rendering="crispEdges"/>
</g>
<circle cx="0.472951" cy="0.472951" r="0.472951" transform="matrix(-1 0 0 1 796.957 151.169)" fill="white" fill-opacity="0.4"/>
<circle cx="0.594354" cy="0.594354" r="0.594354" transform="matrix(-1 0 0 1 473.457 223.45)" fill="white" fill-opacity="0.6"/>
<circle cx="0.440737" cy="0.440737" r="0.440737" transform="matrix(-1 0 0 1 937.111 546.069)" fill="white" fill-opacity="0.3"/>
<circle cx="0.600408" cy="0.600408" r="0.600408" transform="matrix(-1 0 0 1 510.479 338.042)" fill="white" fill-opacity="0.3"/>
<circle cx="0.440737" cy="0.440737" r="0.440737" transform="matrix(-1 0 0 1 212.541 414.729)" fill="white" fill-opacity="0.4"/>
<circle cx="0.440737" cy="0.440737" r="0.440737" transform="matrix(-1 0 0 1 836.624 389.167)" fill="white" fill-opacity="0.6"/>
<circle cx="0.440737" cy="0.440737" r="0.440737" transform="matrix(-1 0 0 1 648.87 444.7)" fill="white" fill-opacity="0.4"/>
<circle cx="0.440737" cy="0.440737" r="0.440737" transform="matrix(-1 0 0 1 566.893 209.346)" fill="white" fill-opacity="0.5"/>
<circle cx="0.620207" cy="0.620207" r="0.620207" transform="matrix(-1 0 0 1 6.27539 369.774)" fill="white" fill-opacity="0.5"/>
<circle cx="0.440737" cy="0.440737" r="0.440737" transform="matrix(-1 0 0 1 511.36 255.183)" fill="white" fill-opacity="0.3"/>
<circle cx="0.499876" cy="0.499876" r="0.499876" transform="matrix(-1 0 0 1 900.09 345.093)" fill="white" fill-opacity="0.5"/>
<circle cx="0.606152" cy="0.606152" r="0.606152" transform="matrix(-1 0 0 1 514.005 118.555)" fill="white" fill-opacity="0.4"/>
<circle cx="0.440737" cy="0.440737" r="0.440737" transform="matrix(-1 0 0 1 393.243 531.084)" fill="white" fill-opacity="0.4"/>
<circle cx="0.440737" cy="0.440737" r="0.440737" transform="matrix(-1 0 0 1 910.667 247.25)" fill="white" fill-opacity="0.3"/>
<circle cx="0.630932" cy="0.630932" r="0.630932" transform="matrix(-1 0 0 1 123.512 394.456)" fill="white" fill-opacity="0.6"/>
<circle cx="0.440737" cy="0.440737" r="0.440737" transform="matrix(-1 0 0 1 479.627 244.605)" fill="white" fill-opacity="0.5"/>
<circle cx="0.440737" cy="0.440737" r="0.440737" transform="matrix(-1 0 0 1 242.511 465.855)" fill="white" fill-opacity="0.5"/>
<circle cx="0.46586" cy="0.46586" r="0.46586" transform="matrix(-1 0 0 1 234.577 112.384)" fill="white" fill-opacity="0.5"/>
<circle cx="0.440737" cy="0.440737" r="0.440737" transform="matrix(-1 0 0 1 953.859 108.858)" fill="white" fill-opacity="0.4"/>
<circle cx="0.440737" cy="0.440737" r="0.440737" transform="matrix(-1 0 0 1 511.36 437.648)" fill="white" fill-opacity="0.5"/>
<circle cx="0.440737" cy="0.440737" r="0.440737" transform="matrix(-1 0 0 1 328.896 389.167)" fill="white" fill-opacity="0.4"/>
<circle cx="0.56628" cy="0.56628" r="0.56628" transform="matrix(-1 0 0 1 909.786 452.633)" fill="white" fill-opacity="0.5"/>
<circle cx="0.587076" cy="0.587076" r="0.587076" transform="matrix(-1 0 0 1 3.63184 252.539)" fill="white" fill-opacity="0.4"/>
<circle cx="0.440737" cy="0.440737" r="0.440737" transform="matrix(-1 0 0 1 528.108 61.2588)" fill="white" fill-opacity="0.3"/>
<circle cx="0.652613" cy="0.652613" r="0.652613" transform="matrix(-1 0 0 1 66.2158 144.117)" fill="white" fill-opacity="0.4"/>
<circle cx="0.440737" cy="0.440737" r="0.440737" transform="matrix(-1 0 0 1 693.825 107.095)" fill="white" fill-opacity="0.6"/>
<circle cx="0.587632" cy="0.587632" r="0.587632" transform="matrix(-1 0 0 1 336.828 191.717)" fill="white" fill-opacity="0.6"/>
<circle cx="0.464618" cy="0.464618" r="0.464618" transform="matrix(-1 0 0 1 603.033 222.569)" fill="white" fill-opacity="0.4"/>
<circle cx="0.546059" cy="0.546059" r="0.546059" transform="matrix(-1 0 0 1 872.764 152.051)" fill="white" fill-opacity="0.5"/>
<circle cx="0.607017" cy="0.607017" r="0.607017" transform="matrix(-1 0 0 1 698.232 390.93)" fill="white" fill-opacity="0.4"/>
<circle cx="0.440737" cy="0.440737" r="0.440737" transform="matrix(-1 0 0 1 108.526 506.403)" fill="white" fill-opacity="0.5"/>
<circle cx="0.440737" cy="0.440737" r="0.440737" transform="matrix(-1 0 0 1 122.631 564.58)" fill="white" fill-opacity="0.4"/>
<circle cx="0.440737" cy="0.440737" r="0.440737" transform="matrix(-1 0 0 1 856.016 206.702)" fill="white" fill-opacity="0.4"/>
<circle cx="0.480692" cy="0.480692" r="0.480692" transform="matrix(-1 0 0 1 663.854 93.873)" fill="white" fill-opacity="0.6"/>
<circle cx="0.5207" cy="0.5207" r="0.5207" transform="matrix(-1 0 0 1 569.537 554.884)" fill="white" fill-opacity="0.6"/>
<circle cx="0.440737" cy="0.440737" r="0.440737" transform="matrix(-1 0 0 1 987.355 586.617)" fill="white" fill-opacity="0.5"/>
<circle cx="0.55448" cy="0.55448" r="0.55448" transform="matrix(-1 0 0 1 576.589 161.747)" fill="white" fill-opacity="0.4"/>
<circle cx="0.440737" cy="0.440737" r="0.440737" transform="matrix(-1 0 0 1 721.15 517.862)" fill="white" fill-opacity="0.6"/>
<circle cx="0.643773" cy="0.643773" r="0.643773" transform="matrix(-1 0 0 1 733.491 268.405)" fill="white" fill-opacity="0.3"/>
<circle cx="0.440737" cy="0.440737" r="0.440737" transform="matrix(-1 0 0 1 752.002 203.176)" fill="white" fill-opacity="0.6"/>
<circle cx="0.440737" cy="0.440737" r="0.440737" transform="matrix(-1 0 0 1 185.215 180.258)" fill="white" fill-opacity="0.6"/>
<circle cx="0.56656" cy="0.56656" r="0.56656" transform="matrix(-1 0 0 1 302.451 250.775)" fill="white" fill-opacity="0.4"/>
<circle cx="0.440737" cy="0.440737" r="0.440737" transform="matrix(-1 0 0 1 522.819 435.885)" fill="white" fill-opacity="0.5"/>
<circle cx="0.440737" cy="0.440737" r="0.440737" transform="matrix(-1 0 0 1 773.157 486.129)" fill="white" fill-opacity="0.4"/>
<circle cx="0.440737" cy="0.440737" r="0.440737" transform="matrix(-1 0 0 1 266.311 263.116)" fill="white" fill-opacity="0.4"/>
<circle cx="0.490717" cy="0.490717" r="0.490717" transform="matrix(-1 0 0 1 722.032 299.257)" fill="white" fill-opacity="0.5"/>
<circle cx="0.48858" cy="0.48858" r="0.48858" transform="matrix(-1 0 0 1 495.493 494.062)" fill="white" fill-opacity="0.5"/>
<circle cx="0.440737" cy="0.440737" r="0.440737" transform="matrix(-1 0 0 1 618.019 491.418)" fill="white" fill-opacity="0.4"/>
<circle cx="0.598864" cy="0.598864" r="0.598864" transform="matrix(-1 0 0 1 881.579 289.561)" fill="white" fill-opacity="0.6"/>
<circle cx="0.440737" cy="0.440737" r="0.440737" transform="matrix(-1 0 0 1 684.129 390.049)" fill="white" fill-opacity="0.5"/>
<circle cx="0.530373" cy="0.530373" r="0.530373" transform="matrix(-1 0 0 1 381.783 164.391)" fill="white" fill-opacity="0.4"/>
<circle cx="0.440737" cy="0.440737" r="0.440737" transform="matrix(-1 0 0 1 279.532 361.841)" fill="white" fill-opacity="0.5"/>
<circle cx="0.617896" cy="0.617896" r="0.617896" transform="matrix(-1 0 0 1 535.16 382.997)" fill="white" fill-opacity="0.5"/>
<circle cx="0.440737" cy="0.440737" r="0.440737" transform="matrix(-1 0 0 1 283.059 509.047)" fill="white" fill-opacity="0.4"/>
<circle cx="0.440737" cy="0.440737" r="0.440737" transform="matrix(-1 0 0 1 729.966 527.558)" fill="white" fill-opacity="0.6"/>
<circle cx="0.440737" cy="0.440737" r="0.440737" transform="matrix(-1 0 0 1 421.45 316.886)" fill="white" fill-opacity="0.5"/>
<circle cx="0.604852" cy="0.604852" r="0.604852" transform="matrix(-1 0 0 1 664.736 287.797)" fill="white" fill-opacity="0.4"/>
<circle cx="0.456963" cy="0.456963" r="0.456963" transform="matrix(-1 0 0 1 186.978 59.4961)" fill="white" fill-opacity="0.3"/>
<circle cx="0.49421" cy="0.49421" r="0.49421" transform="matrix(-1 0 0 1 189.622 60.3774)" fill="white" fill-opacity="0.4"/>
<circle cx="0.62822" cy="0.62822" r="0.62822" transform="matrix(-1 0 0 1 623.307 379.471)" fill="white" fill-opacity="0.3"/>
<circle cx="0.570515" cy="0.570515" r="0.570515" transform="matrix(-1 0 0 1 728.202 478.196)" fill="white" fill-opacity="0.4"/>
<circle cx="0.466615" cy="0.466615" r="0.466615" transform="matrix(-1 0 0 1 332.421 125.606)" fill="white" fill-opacity="0.5"/>
<circle cx="0.52316" cy="0.52316" r="0.52316" transform="matrix(-1 0 0 1 609.204 520.506)" fill="white" fill-opacity="0.4"/>
<circle cx="0.54931" cy="0.54931" r="0.54931" transform="matrix(-1 0 0 1 826.046 327.464)" fill="white" fill-opacity="0.3"/>
<circle cx="0.516154" cy="0.516154" r="0.516154" transform="matrix(-1 0 0 1 349.169 278.101)" fill="white" fill-opacity="0.5"/>
<circle cx="0.440737" cy="0.440737" r="0.440737" transform="matrix(-1 0 0 1 238.985 225.213)" fill="white" fill-opacity="0.3"/>
<circle cx="0.440737" cy="0.440737" r="0.440737" transform="matrix(-1 0 0 1 117.342 386.522)" fill="white" fill-opacity="0.4"/>
<circle cx="0.440737" cy="0.440737" r="0.440737" transform="matrix(-1 0 0 1 358.865 151.169)" fill="white" fill-opacity="0.3"/>
<circle cx="0.538636" cy="0.538636" r="0.538636" transform="matrix(-1 0 0 1 874.527 271.05)" fill="white" fill-opacity="0.4"/>
<circle cx="0.440737" cy="0.440737" r="0.440737" transform="matrix(-1 0 0 1 676.195 450.87)" fill="white" fill-opacity="0.4"/>
<circle cx="0.440737" cy="0.440737" r="0.440737" transform="matrix(-1 0 0 1 957.386 345.093)" fill="white" fill-opacity="0.5"/>
<circle cx="0.440737" cy="0.440737" r="0.440737" transform="matrix(-1 0 0 1 914.193 165.273)" fill="white" fill-opacity="0.4"/>
<circle cx="0.596973" cy="0.596973" r="0.596973" transform="matrix(-1 0 0 1 802.246 415.611)" fill="white" fill-opacity="0.6"/>
<circle cx="0.450177" cy="0.450177" r="0.450177" transform="matrix(-1 0 0 1 189.622 297.494)" fill="white" fill-opacity="0.4"/>
<circle cx="0.603343" cy="0.603343" r="0.603343" transform="matrix(-1 0 0 1 815.469 89.4658)" fill="white" fill-opacity="0.3"/>
<circle cx="0.581415" cy="0.581415" r="0.581415" transform="matrix(-1 0 0 1 760.817 174.088)" fill="white" fill-opacity="0.4"/>
<circle cx="0.440737" cy="0.440737" r="0.440737" transform="matrix(-1 0 0 1 589.812 504.64)" fill="white" fill-opacity="0.5"/>
<circle cx="0.440737" cy="0.440737" r="0.440737" transform="matrix(-1 0 0 1 575.708 540.78)" fill="white" fill-opacity="0.5"/>
<circle cx="0.622501" cy="0.622501" r="0.622501" transform="matrix(-1 0 0 1 969.727 472.025)" fill="white" fill-opacity="0.4"/>
<circle cx="0.440737" cy="0.440737" r="0.440737" transform="matrix(-1 0 0 1 635.647 348.619)" fill="white" fill-opacity="0.5"/>
<circle cx="0.541248" cy="0.541248" r="0.541248" transform="matrix(-1 0 0 1 655.04 337.16)" fill="white" fill-opacity="0.5"/>
<circle cx="0.440737" cy="0.440737" r="0.440737" transform="matrix(-1 0 0 1 476.982 296.612)" fill="white" fill-opacity="0.4"/>
<circle cx="0.440737" cy="0.440737" r="0.440737" transform="matrix(-1 0 0 1 33.6016 263.116)" fill="white" fill-opacity="0.5"/>
<circle cx="0.440737" cy="0.440737" r="0.440737" transform="matrix(-1 0 0 1 917.719 554.884)" fill="white" fill-opacity="0.4"/>
<circle cx="0.440737" cy="0.440737" r="0.440737" transform="matrix(-1 0 0 1 979.422 513.455)" fill="white" fill-opacity="0.4"/>
<circle cx="0.440737" cy="0.440737" r="0.440737" transform="matrix(-1 0 0 1 135.853 547.832)" fill="white" fill-opacity="0.4"/>
<circle cx="0.440737" cy="0.440737" r="0.440737" transform="matrix(-1 0 0 1 143.786 199.65)" fill="white" fill-opacity="0.5"/>
<circle cx="0.599508" cy="0.599508" r="0.599508" transform="matrix(-1 0 0 1 476.101 110.621)" fill="white" fill-opacity="0.4"/>
<circle cx="0.440737" cy="0.440737" r="0.440737" transform="matrix(-1 0 0 1 599.507 340.686)" fill="white" fill-opacity="0.5"/>
<circle cx="0.440737" cy="0.440737" r="0.440737" transform="matrix(-1 0 0 1 409.109 380.352)" fill="white" fill-opacity="0.5"/>
<circle cx="0.574152" cy="0.574152" r="0.574152" transform="matrix(-1 0 0 1 215.186 155.576)" fill="white" fill-opacity="0.5"/>
<circle cx="0.493073" cy="0.493073" r="0.493073" transform="matrix(-1 0 0 1 649.751 321.293)" fill="white" fill-opacity="0.4"/>
<circle cx="0.440737" cy="0.440737" r="0.440737" transform="matrix(-1 0 0 1 125.274 307.19)" fill="white" fill-opacity="0.4"/>
<circle cx="0.440737" cy="0.440737" r="0.440737" transform="matrix(-1 0 0 1 690.299 205.821)" fill="white" fill-opacity="0.4"/>
<circle cx="0.440737" cy="0.440737" r="0.440737" transform="matrix(-1 0 0 1 654.158 565.461)" fill="white" fill-opacity="0.5"/>
<circle cx="0.440737" cy="0.440737" r="0.440737" transform="matrix(-1 0 0 1 449.657 116.792)" fill="white" fill-opacity="0.5"/>
<circle cx="0.56626" cy="0.56626" r="0.56626" transform="matrix(-1 0 0 1 599.507 418.255)" fill="white" fill-opacity="0.4"/>
<circle cx="0.602904" cy="0.602904" r="0.602904" transform="matrix(-1 0 0 1 476.101 74.481)" fill="white" fill-opacity="0.4"/>
<circle cx="0.650632" cy="0.650632" r="0.650632" transform="matrix(-1 0 0 1 45.9424 510.81)" fill="white" fill-opacity="0.3"/>
<circle cx="0.440737" cy="0.440737" r="0.440737" transform="matrix(-1 0 0 1 328.896 445.581)" fill="white" fill-opacity="0.3"/>
<circle cx="0.573299" cy="0.573299" r="0.573299" transform="matrix(-1 0 0 1 105.882 387.404)" fill="white" fill-opacity="0.4"/>
<circle cx="0.636869" cy="0.636869" r="0.636869" transform="matrix(-1 0 0 1 835.742 241.961)" fill="white" fill-opacity="0.4"/>
<circle cx="0.54168" cy="0.54168" r="0.54168" transform="matrix(-1 0 0 1 696.47 196.124)" fill="white" fill-opacity="0.5"/>
<circle cx="0.440737" cy="0.440737" r="0.440737" transform="matrix(-1 0 0 1 681.484 459.685)" fill="white" fill-opacity="0.4"/>
<circle cx="0.440737" cy="0.440737" r="0.440737" transform="matrix(-1 0 0 1 54.7568 471.144)" fill="white" fill-opacity="0.4"/>
<circle cx="0.440737" cy="0.440737" r="0.440737" transform="matrix(-1 0 0 1 951.215 181.139)" fill="white" fill-opacity="0.5"/>
<circle cx="0.440737" cy="0.440737" r="0.440737" transform="matrix(-1 0 0 1 40.6533 376.826)" fill="white" fill-opacity="0.6"/>
<circle cx="0.440737" cy="0.440737" r="0.440737" transform="matrix(-1 0 0 1 861.305 67.4292)" fill="white" fill-opacity="0.4"/>
<circle cx="0.649469" cy="0.649469" r="0.649469" transform="matrix(-1 0 0 1 588.93 91.229)" fill="white" fill-opacity="0.6"/>
<circle cx="0.523994" cy="0.523994" r="0.523994" transform="matrix(-1 0 0 1 179.045 157.339)" fill="white" fill-opacity="0.4"/>
<circle cx="0.610578" cy="0.610578" r="0.610578" transform="matrix(-1 0 0 1 634.767 478.196)" fill="white" fill-opacity="0.3"/>
<circle cx="0.440737" cy="0.440737" r="0.440737" transform="matrix(-1 0 0 1 917.719 219.042)" fill="white" fill-opacity="0.4"/>
<circle cx="0.440737" cy="0.440737" r="0.440737" transform="matrix(-1 0 0 1 533.396 105.333)" fill="white" fill-opacity="0.6"/>
<circle cx="0.440737" cy="0.440737" r="0.440737" transform="matrix(-1 0 0 1 310.384 346.856)" fill="white" fill-opacity="0.5"/>
<circle cx="0.440737" cy="0.440737" r="0.440737" transform="matrix(-1 0 0 1 631.24 549.595)" fill="white" fill-opacity="0.6"/>
<circle cx="0.440737" cy="0.440737" r="0.440737" transform="matrix(-1 0 0 1 910.667 174.969)" fill="white" fill-opacity="0.4"/>
<circle cx="0.440737" cy="0.440737" r="0.440737" transform="matrix(-1 0 0 1 664.736 585.735)" fill="white" fill-opacity="0.5"/>
<circle cx="0.440737" cy="0.440737" r="0.440737" transform="matrix(-1 0 0 1 244.273 319.531)" fill="white" fill-opacity="0.6"/>
<circle cx="0.440737" cy="0.440737" r="0.440737" transform="matrix(-1 0 0 1 278.651 140.591)" fill="white" fill-opacity="0.5"/>
<circle cx="0.440737" cy="0.440737" r="0.440737" transform="matrix(-1 0 0 1 447.894 212.872)" fill="white" fill-opacity="0.5"/>
<circle cx="0.440737" cy="0.440737" r="0.440737" transform="matrix(-1 0 0 1 650.633 37.459)" fill="white" fill-opacity="0.5"/>
<circle cx="0.445894" cy="0.445894" r="0.445894" transform="matrix(-1 0 0 1 419.687 241.08)" fill="white" fill-opacity="0.6"/>
<circle cx="0.592646" cy="0.592646" r="0.592646" transform="matrix(-1 0 0 1 758.173 328.345)" fill="white" fill-opacity="0.4"/>
<circle cx="0.440737" cy="0.440737" r="0.440737" transform="matrix(-1 0 0 1 329.776 104.451)" fill="white" fill-opacity="0.6"/>
<circle cx="0.504461" cy="0.504461" r="0.504461" transform="matrix(-1 0 0 1 990 331.871)" fill="white" fill-opacity="0.5"/>
<circle cx="0.501495" cy="0.501495" r="0.501495" transform="matrix(-1 0 0 1 770.514 62.1401)" fill="white" fill-opacity="0.3"/>
<circle cx="0.607874" cy="0.607874" r="0.607874" transform="matrix(-1 0 0 1 655.04 131.777)" fill="white" fill-opacity="0.5"/>
<circle cx="0.440737" cy="0.440737" r="0.440737" transform="matrix(-1 0 0 1 171.111 465.855)" fill="white" fill-opacity="0.4"/>
<circle cx="0.643949" cy="0.643949" r="0.643949" transform="matrix(-1 0 0 1 582.76 248.131)" fill="white" fill-opacity="0.6"/>
<circle cx="0.440737" cy="0.440737" r="0.440737" transform="matrix(-1 0 0 1 141.142 578.684)" fill="white" fill-opacity="0.3"/>
<circle cx="0.440737" cy="0.440737" r="0.440737" transform="matrix(-1 0 0 1 528.989 182.902)" fill="white" fill-opacity="0.4"/>
<circle cx="0.440737" cy="0.440737" r="0.440737" transform="matrix(-1 0 0 1 234.577 550.477)" fill="white" fill-opacity="0.3"/>
<circle cx="0.440737" cy="0.440737" r="0.440737" transform="matrix(-1 0 0 1 362.392 538.136)" fill="white" fill-opacity="0.3"/>
<circle cx="0.440737" cy="0.440737" r="0.440737" transform="matrix(-1 0 0 1 165.822 28.6445)" fill="white" fill-opacity="0.5"/>
<circle cx="0.440737" cy="0.440737" r="0.440737" transform="matrix(-1 0 0 1 559.841 340.686)" fill="white" fill-opacity="0.4"/>
<circle cx="0.440737" cy="0.440737" r="0.440737" transform="matrix(-1 0 0 1 495.493 232.265)" fill="white" fill-opacity="0.6"/>
<circle cx="0.440737" cy="0.440737" r="0.440737" transform="matrix(-1 0 0 1 718.506 92.9917)" fill="white" fill-opacity="0.6"/>
<g filter="url(#filter2_d_10517_17948)">
<circle cx="0.625596" cy="0.625596" r="0.625596" transform="matrix(-1 0 0 1 865.712 513.455)" fill="white" fill-opacity="0.6" shape-rendering="crispEdges"/>
</g>
<circle cx="0.440737" cy="0.440737" r="0.440737" transform="matrix(-1 0 0 1 93.542 479.077)" fill="white" fill-opacity="0.4"/>
<circle cx="0.440737" cy="0.440737" r="0.440737" transform="matrix(-1 0 0 1 942.4 109.74)" fill="white" fill-opacity="0.3"/>
<circle cx="0.477773" cy="0.477773" r="0.477773" transform="matrix(-1 0 0 1 821.639 267.524)" fill="white" fill-opacity="0.5"/>
<circle cx="0.440737" cy="0.440737" r="0.440737" transform="matrix(-1 0 0 1 236.341 537.254)" fill="white" fill-opacity="0.5"/>
<circle cx="0.440737" cy="0.440737" r="0.440737" transform="matrix(-1 0 0 1 648.87 150.288)" fill="white" fill-opacity="0.3"/>
<circle cx="0.486947" cy="0.486947" r="0.486947" transform="matrix(-1 0 0 1 924.771 460.566)" fill="white" fill-opacity="0.3"/>
<circle cx="0.464759" cy="0.464759" r="0.464759" transform="matrix(-1 0 0 1 395.006 541.662)" fill="white" fill-opacity="0.5"/>
<circle cx="0.464193" cy="0.464193" r="0.464193" transform="matrix(-1 0 0 1 870.119 118.555)" fill="white" fill-opacity="0.4"/>
<circle cx="0.440737" cy="0.440737" r="0.440737" transform="matrix(-1 0 0 1 297.162 555.765)" fill="white" fill-opacity="0.4"/>
<circle cx="0.440737" cy="0.440737" r="0.440737" transform="matrix(-1 0 0 1 186.978 230.501)" fill="white" fill-opacity="0.4"/>
<circle cx="0.440737" cy="0.440737" r="0.440737" transform="matrix(-1 0 0 1 602.151 298.375)" fill="white" fill-opacity="0.4"/>
<circle cx="0.59053" cy="0.59053" r="0.59053" transform="matrix(-1 0 0 1 682.366 507.284)" fill="white" fill-opacity="0.4"/>
<circle cx="0.440737" cy="0.440737" r="0.440737" transform="matrix(-1 0 0 1 147.312 361.841)" fill="white" fill-opacity="0.6"/>
<circle cx="0.440737" cy="0.440737" r="0.440737" transform="matrix(-1 0 0 1 493.73 537.254)" fill="white" fill-opacity="0.4"/>
<circle cx="0.632028" cy="0.632028" r="0.632028" transform="matrix(-1 0 0 1 47.7051 189.954)" fill="white" fill-opacity="0.4"/>
<circle cx="0.440737" cy="0.440737" r="0.440737" transform="matrix(-1 0 0 1 488.441 562.817)" fill="white" fill-opacity="0.4"/>
<circle cx="0.486887" cy="0.486887" r="0.486887" transform="matrix(-1 0 0 1 736.136 48.918)" fill="white" fill-opacity="0.5"/>
<circle cx="0.493992" cy="0.493992" r="0.493992" transform="matrix(-1 0 0 1 471.693 497.588)" fill="white" fill-opacity="0.5"/>
<circle cx="0.537184" cy="0.537184" r="0.537184" transform="matrix(-1 0 0 1 563.367 432.359)" fill="white" fill-opacity="0.5"/>
<circle cx="0.564288" cy="0.564288" r="0.564288" transform="matrix(-1 0 0 1 380.021 60.3774)" fill="white" fill-opacity="0.4"/>
<circle cx="0.440737" cy="0.440737" r="0.440737" transform="matrix(-1 0 0 1 559.841 510.81)" fill="white" fill-opacity="0.6"/>
<circle cx="0.440737" cy="0.440737" r="0.440737" transform="matrix(-1 0 0 1 858.66 150.288)" fill="white" fill-opacity="0.4"/>
<circle cx="0.637122" cy="0.637122" r="0.637122" transform="matrix(-1 0 0 1 695.588 135.303)" fill="white" fill-opacity="0.5"/>
<circle cx="0.474329" cy="0.474329" r="0.474329" transform="matrix(-1 0 0 1 708.811 47.1553)" fill="white" fill-opacity="0.6"/>
<circle cx="0.457496" cy="0.457496" r="0.457496" transform="matrix(-1 0 0 1 816.35 574.276)" fill="white" fill-opacity="0.4"/>
<circle cx="0.618582" cy="0.618582" r="0.618582" transform="matrix(-1 0 0 1 198.437 234.027)" fill="white" fill-opacity="0.4"/>
<circle cx="0.488773" cy="0.488773" r="0.488773" transform="matrix(-1 0 0 1 550.145 459.685)" fill="white" fill-opacity="0.5"/>
<circle cx="0.440737" cy="0.440737" r="0.440737" transform="matrix(-1 0 0 1 331.54 454.396)" fill="white" fill-opacity="0.5"/>
<circle cx="0.440737" cy="0.440737" r="0.440737" transform="matrix(-1 0 0 1 811.061 94.7549)" fill="white" fill-opacity="0.6"/>
<circle cx="0.440737" cy="0.440737" r="0.440737" transform="matrix(-1 0 0 1 392.361 501.995)" fill="white" fill-opacity="0.4"/>
<circle cx="0.440737" cy="0.440737" r="0.440737" transform="matrix(-1 0 0 1 807.535 106.214)" fill="white" fill-opacity="0.5"/>
<circle cx="0.495139" cy="0.495139" r="0.495139" transform="matrix(-1 0 0 1 342.117 104.451)" fill="white" fill-opacity="0.4"/>
<circle cx="0.600722" cy="0.600722" r="0.600722" transform="matrix(-1 0 0 1 574.826 255.183)" fill="white" fill-opacity="0.3"/>
<circle cx="0.440737" cy="0.440737" r="0.440737" transform="matrix(-1 0 0 1 170.229 126.488)" fill="white" fill-opacity="0.5"/>
<circle cx="0.440737" cy="0.440737" r="0.440737" transform="matrix(-1 0 0 1 126.156 462.329)" fill="white" fill-opacity="0.4"/>
<circle cx="0.660099" cy="0.660099" r="0.660099" transform="matrix(-1 0 0 1 628.596 533.729)" fill="white" fill-opacity="0.5"/>
<circle cx="0.59693" cy="0.59693" r="0.59693" transform="matrix(-1 0 0 1 544.856 540.78)" fill="white" fill-opacity="0.4"/>
<circle cx="0.636682" cy="0.636682" r="0.636682" transform="matrix(-1 0 0 1 831.335 130.014)" fill="white" fill-opacity="0.6"/>
<circle cx="0.440737" cy="0.440737" r="0.440737" transform="matrix(-1 0 0 1 80.3193 178.495)" fill="white" fill-opacity="0.5"/>
<circle cx="0.610593" cy="0.610593" r="0.610593" transform="matrix(-1 0 0 1 662.974 132.658)" fill="white" fill-opacity="0.5"/>
<circle cx="0.506858" cy="0.506858" r="0.506858" transform="matrix(-1 0 0 1 143.786 520.506)" fill="white" fill-opacity="0.5"/>
<circle cx="0.440737" cy="0.440737" r="0.440737" transform="matrix(-1 0 0 1 423.213 294.849)" fill="white" fill-opacity="0.6"/>
<circle cx="0.440737" cy="0.440737" r="0.440737" transform="matrix(-1 0 0 1 960.03 510.81)" fill="white" fill-opacity="0.3"/>
<circle cx="0.498379" cy="0.498379" r="0.498379" transform="matrix(-1 0 0 1 549.264 505.521)" fill="white" fill-opacity="0.4"/>
<circle cx="0.440737" cy="0.440737" r="0.440737" transform="matrix(-1 0 0 1 559.841 56.8516)" fill="white" fill-opacity="0.4"/>
<circle cx="0.440737" cy="0.440737" r="0.440737" transform="matrix(-1 0 0 1 803.128 271.931)" fill="white" fill-opacity="0.6"/>
<circle cx="0.628266" cy="0.628266" r="0.628266" transform="matrix(-1 0 0 1 188.741 307.19)" fill="white" fill-opacity="0.3"/>
<circle cx="0.54844" cy="0.54844" r="0.54844" transform="matrix(-1 0 0 1 408.228 508.166)" fill="white" fill-opacity="0.4"/>
<circle cx="0.547114" cy="0.547114" r="0.547114" transform="matrix(-1 0 0 1 274.244 461.448)" fill="white" fill-opacity="0.6"/>
<circle cx="0.583808" cy="0.583808" r="0.583808" transform="matrix(-1 0 0 1 118.223 309.834)" fill="white" fill-opacity="0.3"/>
<circle cx="0.440737" cy="0.440737" r="0.440737" transform="matrix(-1 0 0 1 694.706 202.294)" fill="white" fill-opacity="0.6"/>
<circle cx="0.465788" cy="0.465788" r="0.465788" transform="matrix(-1 0 0 1 224 180.258)" fill="white" fill-opacity="0.4"/>
<circle cx="0.592112" cy="0.592112" r="0.592112" transform="matrix(-1 0 0 1 330.658 268.405)" fill="white" fill-opacity="0.4"/>
<circle cx="0.440737" cy="0.440737" r="0.440737" transform="matrix(-1 0 0 1 119.104 102.688)" fill="white" fill-opacity="0.4"/>
<circle cx="0.440737" cy="0.440737" r="0.440737" transform="matrix(-1 0 0 1 325.369 397.981)" fill="white" fill-opacity="0.4"/>
<circle cx="0.440737" cy="0.440737" r="0.440737" transform="matrix(-1 0 0 1 163.178 356.552)" fill="white" fill-opacity="0.6"/>
<circle cx="0.582653" cy="0.582653" r="0.582653" transform="matrix(-1 0 0 1 930.941 72.7178)" fill="white" fill-opacity="0.6"/>
<circle cx="0.468353" cy="0.468353" r="0.468353" transform="matrix(-1 0 0 1 402.058 40.9849)" fill="white" fill-opacity="0.5"/>
<circle cx="0.440737" cy="0.440737" r="0.440737" transform="matrix(-1 0 0 1 906.26 217.279)" fill="white" fill-opacity="0.5"/>
<circle cx="0.49722" cy="0.49722" r="0.49722" transform="matrix(-1 0 0 1 795.194 277.22)" fill="white" fill-opacity="0.6"/>
<circle cx="0.579734" cy="0.579734" r="0.579734" transform="matrix(-1 0 0 1 645.344 427.07)" fill="white" fill-opacity="0.3"/>
<circle cx="0.640032" cy="0.640032" r="0.640032" transform="matrix(-1 0 0 1 399.413 211.991)" fill="white" fill-opacity="0.6"/>
<circle cx="0.531282" cy="0.531282" r="0.531282" transform="matrix(-1 0 0 1 525.464 102.688)" fill="white" fill-opacity="0.4"/>
<circle cx="0.527241" cy="0.527241" r="0.527241" transform="matrix(-1 0 0 1 610.085 221.687)" fill="white" fill-opacity="0.5"/>
<circle cx="0.440737" cy="0.440737" r="0.440737" transform="matrix(-1 0 0 1 639.174 319.531)" fill="white" fill-opacity="0.4"/>
<circle cx="0.45007" cy="0.45007" r="0.45007" transform="matrix(-1 0 0 1 519.293 106.214)" fill="white" fill-opacity="0.6"/>
<circle cx="0.541305" cy="0.541305" r="0.541305" transform="matrix(-1 0 0 1 58.2832 107.977)" fill="white" fill-opacity="0.3"/>
<circle cx="0.627376" cy="0.627376" r="0.627376" transform="matrix(-1 0 0 1 842.794 301.02)" fill="white" fill-opacity="0.4"/>
<circle cx="0.440737" cy="0.440737" r="0.440737" transform="matrix(-1 0 0 1 839.268 423.544)" fill="white" fill-opacity="0.6"/>
<circle cx="0.440737" cy="0.440737" r="0.440737" transform="matrix(-1 0 0 1 848.083 445.581)" fill="white" fill-opacity="0.6"/>
<circle cx="0.558498" cy="0.558498" r="0.558498" transform="matrix(-1 0 0 1 350.051 266.642)" fill="white" fill-opacity="0.5"/>
<circle cx="0.440737" cy="0.440737" r="0.440737" transform="matrix(-1 0 0 1 846.32 562.817)" fill="white" fill-opacity="0.5"/>
<circle cx="0.520066" cy="0.520066" r="0.520066" transform="matrix(-1 0 0 1 763.461 336.278)" fill="white" fill-opacity="0.3"/>
<circle cx="0.583306" cy="0.583306" r="0.583306" transform="matrix(-1 0 0 1 895.683 356.552)" fill="white" fill-opacity="0.4"/>
<circle cx="0.440737" cy="0.440737" r="0.440737" transform="matrix(-1 0 0 1 63.5713 422.663)" fill="white" fill-opacity="0.5"/>
<circle cx="0.440737" cy="0.440737" r="0.440737" transform="matrix(-1 0 0 1 886.867 62.1401)" fill="white" fill-opacity="0.6"/>
<circle cx="0.473134" cy="0.473134" r="0.473134" transform="matrix(-1 0 0 1 33.6016 435.003)" fill="white" fill-opacity="0.5"/>
<circle cx="0.478339" cy="0.478339" r="0.478339" transform="matrix(-1 0 0 1 322.725 564.58)" fill="white" fill-opacity="0.3"/>
<circle cx="0.440737" cy="0.440737" r="0.440737" transform="matrix(-1 0 0 1 953.859 33.0518)" fill="white" fill-opacity="0.4"/>
<circle cx="0.478723" cy="0.478723" r="0.478723" transform="matrix(-1 0 0 1 201.963 407.678)" fill="white" fill-opacity="0.5"/>
<circle cx="0.440737" cy="0.440737" r="0.440737" transform="matrix(-1 0 0 1 838.387 374.182)" fill="white" fill-opacity="0.3"/>
<circle cx="0.512587" cy="0.512587" r="0.512587" transform="matrix(-1 0 0 1 990 453.514)" fill="white" fill-opacity="0.6"/>
<circle cx="0.541904" cy="0.541904" r="0.541904" transform="matrix(-1 0 0 1 919.482 363.604)" fill="white" fill-opacity="0.6"/>
<circle cx="0.4656" cy="0.4656" r="0.4656" transform="matrix(-1 0 0 1 301.569 137.947)" fill="white" fill-opacity="0.5"/>
<circle cx="0.440737" cy="0.440737" r="0.440737" transform="matrix(-1 0 0 1 305.096 286.916)" fill="white" fill-opacity="0.5"/>
<circle cx="0.440737" cy="0.440737" r="0.440737" transform="matrix(-1 0 0 1 443.486 130.895)" fill="white" fill-opacity="0.6"/>
<circle cx="0.440737" cy="0.440737" r="0.440737" transform="matrix(-1 0 0 1 231.052 149.406)" fill="white" fill-opacity="0.6"/>
<circle cx="0.442247" cy="0.442247" r="0.442247" transform="matrix(-1 0 0 1 748.477 58.6143)" fill="white" fill-opacity="0.3"/>
<circle cx="0.598692" cy="0.598692" r="0.598692" transform="matrix(-1 0 0 1 494.612 122.962)" fill="white" fill-opacity="0.5"/>
<circle cx="0.634315" cy="0.634315" r="0.634315" transform="matrix(-1 0 0 1 525.464 335.397)" fill="white" fill-opacity="0.5"/>
<circle cx="0.510396" cy="0.510396" r="0.510396" transform="matrix(-1 0 0 1 51.2314 460.566)" fill="white" fill-opacity="0.6"/>
<circle cx="0.440737" cy="0.440737" r="0.440737" transform="matrix(-1 0 0 1 707.047 510.81)" fill="white" fill-opacity="0.3"/>
<circle cx="0.440737" cy="0.440737" r="0.440737" transform="matrix(-1 0 0 1 514.886 420.018)" fill="white" fill-opacity="0.4"/>
<circle cx="0.440737" cy="0.440737" r="0.440737" transform="matrix(-1 0 0 1 797.839 89.4658)" fill="white" fill-opacity="0.4"/>
<circle cx="0.440737" cy="0.440737" r="0.440737" transform="matrix(-1 0 0 1 132.326 353.026)" fill="white" fill-opacity="0.4"/>
<circle cx="0.520817" cy="0.520817" r="0.520817" transform="matrix(-1 0 0 1 528.989 201.413)" fill="white" fill-opacity="0.6"/>
<circle cx="0.568042" cy="0.568042" r="0.568042" transform="matrix(-1 0 0 1 247.8 350.382)" fill="white" fill-opacity="0.4"/>
<circle cx="0.440737" cy="0.440737" r="0.440737" transform="matrix(-1 0 0 1 645.344 282.508)" fill="white" fill-opacity="0.6"/>
<circle cx="0.527504" cy="0.527504" r="0.527504" transform="matrix(-1 0 0 1 222.236 495.825)" fill="white" fill-opacity="0.6"/>
<circle cx="0.440737" cy="0.440737" r="0.440737" transform="matrix(-1 0 0 1 683.247 289.561)" fill="white" fill-opacity="0.5"/>
<circle cx="0.466127" cy="0.466127" r="0.466127" transform="matrix(-1 0 0 1 268.955 557.528)" fill="white" fill-opacity="0.5"/>
<circle cx="0.440737" cy="0.440737" r="0.440737" transform="matrix(-1 0 0 1 852.49 192.598)" fill="white" fill-opacity="0.4"/>
<circle cx="0.65563" cy="0.65563" r="0.65563" transform="matrix(-1 0 0 1 846.32 377.708)" fill="white" fill-opacity="0.4"/>
<circle cx="0.588782" cy="0.588782" r="0.588782" transform="matrix(-1 0 0 1 985.593 336.278)" fill="white" fill-opacity="0.5"/>
<g filter="url(#filter3_d_10517_17948)">
<circle cx="0.585651" cy="0.585651" r="0.585651" transform="matrix(-1 0 0 1 112.053 48.0366)" fill="white" fill-opacity="0.6" shape-rendering="crispEdges"/>
</g>
<circle cx="0.641843" cy="0.641843" r="0.641843" transform="matrix(-1 0 0 1 300.688 359.197)" fill="white" fill-opacity="0.4"/>
<circle cx="0.511168" cy="0.511168" r="0.511168" transform="matrix(-1 0 0 1 395.006 568.987)" fill="white" fill-opacity="0.6"/>
<circle cx="0.440737" cy="0.440737" r="0.440737" transform="matrix(-1 0 0 1 565.13 430.596)" fill="white" fill-opacity="0.6"/>
<circle cx="0.49839" cy="0.49839" r="0.49839" transform="matrix(-1 0 0 1 314.791 30.4072)" fill="white" fill-opacity="0.6"/>
<circle cx="0.440737" cy="0.440737" r="0.440737" transform="matrix(-1 0 0 1 603.033 234.909)" fill="white" fill-opacity="0.5"/>
<circle cx="0.440737" cy="0.440737" r="0.440737" transform="matrix(-1 0 0 1 350.051 481.721)" fill="white" fill-opacity="0.6"/>
<circle cx="0.60978" cy="0.60978" r="0.60978" transform="matrix(-1 0 0 1 345.643 562.817)" fill="white" fill-opacity="0.6"/>
<circle cx="0.440737" cy="0.440737" r="0.440737" transform="matrix(-1 0 0 1 893.038 234.909)" fill="white" fill-opacity="0.4"/>
<circle cx="0.440737" cy="0.440737" r="0.440737" transform="matrix(-1 0 0 1 103.238 231.383)" fill="white" fill-opacity="0.4"/>
<circle cx="0.440737" cy="0.440737" r="0.440737" transform="matrix(-1 0 0 1 255.732 152.051)" fill="white" fill-opacity="0.6"/>
<circle cx="0.477443" cy="0.477443" r="0.477443" transform="matrix(-1 0 0 1 283.059 237.553)" fill="white" fill-opacity="0.5"/>
<circle cx="0.619189" cy="0.619189" r="0.619189" transform="matrix(-1 0 0 1 809.298 277.22)" fill="white" fill-opacity="0.4"/>
<circle cx="0.61419" cy="0.61419" r="0.61419" transform="matrix(-1 0 0 1 906.26 369.774)" fill="white" fill-opacity="0.6"/>
<circle cx="0.551378" cy="0.551378" r="0.551378" transform="matrix(-1 0 0 1 380.902 118.555)" fill="white" fill-opacity="0.4"/>
<circle cx="0.440737" cy="0.440737" r="0.440737" transform="matrix(-1 0 0 1 883.342 460.566)" fill="white" fill-opacity="0.4"/>
<circle cx="0.503185" cy="0.503185" r="0.503185" transform="matrix(-1 0 0 1 869.238 125.606)" fill="white" fill-opacity="0.4"/>
<circle cx="0.508772" cy="0.508772" r="0.508772" transform="matrix(-1 0 0 1 275.125 205.821)" fill="white" fill-opacity="0.4"/>
<circle cx="0.442778" cy="0.442778" r="0.442778" transform="matrix(-1 0 0 1 625.951 52.4438)" fill="white" fill-opacity="0.4"/>
<circle cx="0.440737" cy="0.440737" r="0.440737" transform="matrix(-1 0 0 1 656.803 218.161)" fill="white" fill-opacity="0.6"/>
<circle cx="0.440737" cy="0.440737" r="0.440737" transform="matrix(-1 0 0 1 692.062 106.214)" fill="white" fill-opacity="0.3"/>
<circle cx="0.440737" cy="0.440737" r="0.440737" transform="matrix(-1 0 0 1 785.498 57.7329)" fill="white" fill-opacity="0.6"/>
<circle cx="0.618563" cy="0.618563" r="0.618563" transform="matrix(-1 0 0 1 830.453 391.811)" fill="white" fill-opacity="0.3"/>
<circle cx="0.454499" cy="0.454499" r="0.454499" transform="matrix(-1 0 0 1 889.512 38.3403)" fill="white" fill-opacity="0.4"/>
<circle cx="0.440737" cy="0.440737" r="0.440737" transform="matrix(-1 0 0 1 680.603 225.213)" fill="white" fill-opacity="0.5"/>
<circle cx="0.440737" cy="0.440737" r="0.440737" transform="matrix(-1 0 0 1 692.062 414.729)" fill="white" fill-opacity="0.4"/>
<circle cx="0.440737" cy="0.440737" r="0.440737" transform="matrix(-1 0 0 1 332.421 513.455)" fill="white" fill-opacity="0.6"/>
<circle cx="0.62986" cy="0.62986" r="0.62986" transform="matrix(-1 0 0 1 525.464 262.235)" fill="white" fill-opacity="0.4"/>
<circle cx="0.440737" cy="0.440737" r="0.440737" transform="matrix(-1 0 0 1 713.218 397.981)" fill="white" fill-opacity="0.3"/>
<circle cx="0.440737" cy="0.440737" r="0.440737" transform="matrix(-1 0 0 1 454.946 366.249)" fill="white" fill-opacity="0.5"/>
<circle cx="0.573883" cy="0.573883" r="0.573883" transform="matrix(-1 0 0 1 610.085 569.869)" fill="white" fill-opacity="0.5"/>
<circle cx="0.440737" cy="0.440737" r="0.440737" transform="matrix(-1 0 0 1 172.874 138.829)" fill="white" fill-opacity="0.6"/>
<circle cx="0.440737" cy="0.440737" r="0.440737" transform="matrix(-1 0 0 1 938.875 415.611)" fill="white" fill-opacity="0.6"/>
<circle cx="0.544912" cy="0.544912" r="0.544912" transform="matrix(-1 0 0 1 874.527 375.063)" fill="white" fill-opacity="0.4"/>
<circle cx="0.440737" cy="0.440737" r="0.440737" transform="matrix(-1 0 0 1 506.071 516.98)" fill="white" fill-opacity="0.5"/>
<circle cx="0.440737" cy="0.440737" r="0.440737" transform="matrix(-1 0 0 1 945.045 459.685)" fill="white" fill-opacity="0.6"/>
<circle cx="0.440737" cy="0.440737" r="0.440737" transform="matrix(-1 0 0 1 767.869 544.306)" fill="white" fill-opacity="0.4"/>
<circle cx="0.477079" cy="0.477079" r="0.477079" transform="matrix(-1 0 0 1 677.077 493.181)" fill="white" fill-opacity="0.6"/>
</g>
<defs>
<filter id="filter0_d_10517_17948" x="-7.82854" y="326.582" width="27.326" height="27.3258" filterUnits="userSpaceOnUse" color-interpolation-filters="sRGB">
<feFlood flood-opacity="0" result="BackgroundImageFix"/>
<feColorMatrix in="SourceAlpha" type="matrix" values="0 0 0 0 0 0 0 0 0 0 0 0 0 0 0 0 0 0 127 0" result="hardAlpha"/>
<feMorphology radius="2.64442" operator="dilate" in="SourceAlpha" result="effect1_dropShadow_10517_17948"/>
<feOffset/>
<feGaussianBlur stdDeviation="5.28884"/>
<feComposite in2="hardAlpha" operator="out"/>
<feColorMatrix type="matrix" values="0 0 0 0 1 0 0 0 0 1 0 0 0 0 1 0 0 0 0.3 0"/>
<feBlend mode="normal" in2="BackgroundImageFix" result="effect1_dropShadow_10517_17948"/>
<feBlend mode="normal" in="SourceGraphic" in2="effect1_dropShadow_10517_17948" result="shape"/>
</filter>
<filter id="filter1_d_10517_17948" x="942.142" y="301.901" width="27.5838" height="27.5843" filterUnits="userSpaceOnUse" color-interpolation-filters="sRGB">
<feFlood flood-opacity="0" result="BackgroundImageFix"/>
<feColorMatrix in="SourceAlpha" type="matrix" values="0 0 0 0 0 0 0 0 0 0 0 0 0 0 0 0 0 0 127 0" result="hardAlpha"/>
<feMorphology radius="2.64442" operator="dilate" in="SourceAlpha" result="effect1_dropShadow_10517_17948"/>
<feOffset/>
<feGaussianBlur stdDeviation="5.28884"/>
<feComposite in2="hardAlpha" operator="out"/>
<feColorMatrix type="matrix" values="0 0 0 0 1 0 0 0 0 1 0 0 0 0 1 0 0 0 0.3 0"/>
<feBlend mode="normal" in2="BackgroundImageFix" result="effect1_dropShadow_10517_17948"/>
<feBlend mode="normal" in="SourceGraphic" in2="effect1_dropShadow_10517_17948" result="shape"/>
</filter>
<filter id="filter2_d_10517_17948" x="851.239" y="500.233" width="27.6952" height="27.6954" filterUnits="userSpaceOnUse" color-interpolation-filters="sRGB">
<feFlood flood-opacity="0" result="BackgroundImageFix"/>
<feColorMatrix in="SourceAlpha" type="matrix" values="0 0 0 0 0 0 0 0 0 0 0 0 0 0 0 0 0 0 127 0" result="hardAlpha"/>
<feMorphology radius="2.64442" operator="dilate" in="SourceAlpha" result="effect1_dropShadow_10517_17948"/>
<feOffset/>
<feGaussianBlur stdDeviation="5.28884"/>
<feComposite in2="hardAlpha" operator="out"/>
<feColorMatrix type="matrix" values="0 0 0 0 1 0 0 0 0 1 0 0 0 0 1 0 0 0 0.3 0"/>
<feBlend mode="normal" in2="BackgroundImageFix" result="effect1_dropShadow_10517_17948"/>
<feBlend mode="normal" in="SourceGraphic" in2="effect1_dropShadow_10517_17948" result="shape"/>
</filter>
<filter id="filter3_d_10517_17948" x="97.6597" y="34.8145" width="27.6151" height="27.6156" filterUnits="userSpaceOnUse" color-interpolation-filters="sRGB">
<feFlood flood-opacity="0" result="BackgroundImageFix"/>
<feColorMatrix in="SourceAlpha" type="matrix" values="0 0 0 0 0 0 0 0 0 0 0 0 0 0 0 0 0 0 127 0" result="hardAlpha"/>
<feMorphology radius="2.64442" operator="dilate" in="SourceAlpha" result="effect1_dropShadow_10517_17948"/>
<feOffset/>
<feGaussianBlur stdDeviation="5.28884"/>
<feComposite in2="hardAlpha" operator="out"/>
<feColorMatrix type="matrix" values="0 0 0 0 1 0 0 0 0 1 0 0 0 0 1 0 0 0 0.3 0"/>
<feBlend mode="normal" in2="BackgroundImageFix" result="effect1_dropShadow_10517_17948"/>
<feBlend mode="normal" in="SourceGraphic" in2="effect1_dropShadow_10517_17948" result="shape"/>
</filter>
<clipPath id="clip0_10517_17948">
<rect width="990" height="616" rx="40" transform="matrix(-1 0 0 1 990 0)" fill="white"/>
</clipPath>
</defs>
</svg>
