<svg width="990" height="616" viewBox="0 0 990 616" fill="none" xmlns="http://www.w3.org/2000/svg">
<g clip-path="url(#clip0_10517_18349)">
<circle cx="698.568" cy="34.3738" r="0.440737" fill="white" fill-opacity="0.4"/>
<circle cx="115.043" cy="349.952" r="0.451219" fill="white" fill-opacity="0.5"/>
<circle cx="152.137" cy="455.801" r="0.523832" fill="white" fill-opacity="0.5"/>
<circle cx="569.972" cy="269.827" r="0.540332" fill="white" fill-opacity="0.5"/>
<circle cx="899.543" cy="348.178" r="0.440737" fill="white" fill-opacity="0.3"/>
<circle cx="378.593" cy="535.932" r="0.440737" fill="white" fill-opacity="0.4"/>
<circle cx="865.166" cy="203.617" r="0.440737" fill="white" fill-opacity="0.3"/>
<circle cx="439.417" cy="471.587" r="0.442856" fill="white" fill-opacity="0.4"/>
<circle cx="263.339" cy="517.641" r="0.660138" fill="white" fill-opacity="0.4"/>
<circle cx="985.046" cy="339.364" r="0.440737" fill="white" fill-opacity="0.6"/>
<circle cx="427.955" cy="199.209" r="0.440737" fill="white" fill-opacity="0.6"/>
<circle cx="361.1" cy="40.6808" r="0.577287" fill="white" fill-opacity="0.3"/>
<circle cx="629.106" cy="257.561" r="0.615439" fill="white" fill-opacity="0.5"/>
<circle cx="194.365" cy="33.4925" r="0.440737" fill="white" fill-opacity="0.4"/>
<circle cx="207.587" cy="253.861" r="0.440737" fill="white" fill-opacity="0.5"/>
<circle cx="299.26" cy="253.861" r="0.440737" fill="white" fill-opacity="0.3"/>
<circle cx="302.012" cy="50.3484" r="0.548555" fill="white" fill-opacity="0.4"/>
<circle cx="219.046" cy="419.578" r="0.440737" fill="white" fill-opacity="0.4"/>
<circle cx="364.657" cy="545.795" r="0.607917" fill="white" fill-opacity="0.5"/>
<circle cx="858.115" cy="237.113" r="0.440737" fill="white" fill-opacity="0.5"/>
<circle cx="679.175" cy="278.542" r="0.440737" fill="white" fill-opacity="0.4"/>
<circle cx="144.12" cy="275.016" r="0.440737" fill="white" fill-opacity="0.4"/>
<circle cx="442.124" cy="83.8011" r="0.505643" fill="white" fill-opacity="0.5"/>
<circle cx="377.78" cy="118.182" r="0.509224" fill="white" fill-opacity="0.6"/>
<circle cx="757.739" cy="485.801" r="0.55385" fill="white" fill-opacity="0.4"/>
<circle cx="707.539" cy="504.356" r="0.59787" fill="white" fill-opacity="0.6"/>
<circle cx="660.664" cy="369.334" r="0.440737" fill="white" fill-opacity="0.5"/>
<circle cx="647.572" cy="307.761" r="0.571201" fill="white" fill-opacity="0.5"/>
<circle cx="873.981" cy="528.88" r="0.440737" fill="white" fill-opacity="0.5"/>
<circle cx="698.622" cy="111.116" r="0.494974" fill="white" fill-opacity="0.5"/>
<circle cx="22.4778" cy="191.276" r="0.440737" fill="white" fill-opacity="0.5"/>
<circle cx="299.284" cy="101.39" r="0.465049" fill="white" fill-opacity="0.4"/>
<circle cx="877.506" cy="73.1585" r="0.440737" fill="white" fill-opacity="0.5"/>
<circle cx="298.379" cy="76.6844" r="0.440737" fill="white" fill-opacity="0.4"/>
<circle cx="14.5443" cy="586.176" r="0.440737" fill="white" fill-opacity="0.6"/>
<circle cx="98.3352" cy="535.101" r="0.491441" fill="white" fill-opacity="0.3"/>
<circle cx="347.742" cy="498.91" r="0.440737" fill="white" fill-opacity="0.5"/>
<circle cx="747.94" cy="490.105" r="0.450258" fill="white" fill-opacity="0.5"/>
<circle cx="855.47" cy="399.304" r="0.440737" fill="white" fill-opacity="0.5"/>
<circle cx="793.775" cy="109.307" r="0.448538" fill="white" fill-opacity="0.4"/>
<circle cx="353.185" cy="50.3957" r="0.595891" fill="white" fill-opacity="0.6"/>
<circle cx="144.12" cy="446.022" r="0.440737" fill="white" fill-opacity="0.4"/>
<circle cx="262.239" cy="352.586" r="0.440737" fill="white" fill-opacity="0.6"/>
<circle cx="107.099" cy="405.474" r="0.440737" fill="white" fill-opacity="0.4"/>
<circle cx="704.738" cy="385.2" r="0.440737" fill="white" fill-opacity="0.5"/>
<circle cx="510.814" cy="446.022" r="0.440737" fill="white" fill-opacity="0.6"/>
<circle cx="105.372" cy="328.822" r="0.476913" fill="white" fill-opacity="0.6"/>
<circle cx="165.29" cy="59.9506" r="0.454506" fill="white" fill-opacity="0.3"/>
<circle cx="704.738" cy="488.333" r="0.440737" fill="white" fill-opacity="0.5"/>
<circle cx="270.38" cy="167.685" r="0.649572" fill="white" fill-opacity="0.6"/>
<circle cx="630.694" cy="49.3587" r="0.440737" fill="white" fill-opacity="0.4"/>
<circle cx="789.36" cy="446.903" r="0.440737" fill="white" fill-opacity="0.3"/>
<circle cx="367.229" cy="414.383" r="0.535169" fill="white" fill-opacity="0.4"/>
<circle cx="98.402" cy="548.39" r="0.558274" fill="white" fill-opacity="0.5"/>
<circle cx="783.312" cy="546.633" r="0.56421" fill="white" fill-opacity="0.3"/>
<circle cx="419.249" cy="80.318" r="0.548481" fill="white" fill-opacity="0.5"/>
<circle cx="73.6294" cy="80.2368" r="0.4673" fill="white" fill-opacity="0.5"/>
<circle cx="657.253" cy="550.151" r="0.555802" fill="white" fill-opacity="0.5"/>
<circle cx="829.026" cy="364.045" r="0.440737" fill="white" fill-opacity="0.6"/>
<circle cx="142.519" cy="512.293" r="0.601605" fill="white" fill-opacity="0.6"/>
<circle cx="507.287" cy="216.839" r="0.440737" fill="white" fill-opacity="0.6"/>
<circle cx="235.867" cy="455.791" r="0.513913" fill="white" fill-opacity="0.5"/>
<circle cx="918.054" cy="212.431" r="0.440737" fill="white" fill-opacity="0.3"/>
<circle cx="78.9011" cy="335.847" r="0.449941" fill="white" fill-opacity="0.6"/>
<circle cx="85.1329" cy="402.901" r="0.511835" fill="white" fill-opacity="0.4"/>
<circle cx="45.529" cy="478.77" r="0.573909" fill="white" fill-opacity="0.5"/>
<circle cx="281.776" cy="437.353" r="0.58635" fill="white" fill-opacity="0.5"/>
<circle cx="109.797" cy="305.039" r="0.49405" fill="white" fill-opacity="0.4"/>
<circle cx="442.993" cy="505.135" r="0.494437" fill="white" fill-opacity="0.6"/>
<circle cx="73.608" cy="51.127" r="0.445865" fill="white" fill-opacity="0.4"/>
<circle cx="761.153" cy="405.474" r="0.440737" fill="white" fill-opacity="0.4"/>
<circle cx="206" cy="68.9273" r="0.61678" fill="white" fill-opacity="0.5"/>
<circle cx="530.233" cy="380.819" r="0.46706" fill="white" fill-opacity="0.5"/>
<circle cx="296.616" cy="403.711" r="0.440737" fill="white" fill-opacity="0.4"/>
<circle cx="842.439" cy="251.408" r="0.632331" fill="white" fill-opacity="0.3"/>
<circle cx="839.807" cy="373.945" r="0.644699" fill="white" fill-opacity="0.4"/>
<circle cx="817.748" cy="227.598" r="0.622276" fill="white" fill-opacity="0.6"/>
<circle cx="718.105" cy="551.944" r="0.585642" fill="white" fill-opacity="0.4"/>
<circle cx="774.374" cy="56.4105" r="0.440737" fill="white" fill-opacity="0.5"/>
<circle cx="214.639" cy="496.266" r="0.440737" fill="white" fill-opacity="0.3"/>
<circle cx="927.821" cy="418.767" r="0.511461" fill="white" fill-opacity="0.5"/>
<circle cx="9.34665" cy="482.254" r="0.532195" fill="white" fill-opacity="0.5"/>
<circle cx="308.956" cy="230.061" r="0.440737" fill="white" fill-opacity="0.3"/>
<circle cx="828.144" cy="436.326" r="0.440737" fill="white" fill-opacity="0.5"/>
<circle cx="853.707" cy="262.676" r="0.440737" fill="white" fill-opacity="0.5"/>
<circle cx="714.505" cy="438.16" r="0.511599" fill="white" fill-opacity="0.4"/>
<circle cx="214.842" cy="350.144" r="0.64379" fill="white" fill-opacity="0.5"/>
<circle cx="262.353" cy="506.958" r="0.55556" fill="white" fill-opacity="0.4"/>
<circle cx="457.049" cy="578.247" r="0.445346" fill="white" fill-opacity="0.4"/>
<circle cx="424.563" cy="229.313" r="0.57444" fill="white" fill-opacity="0.6"/>
<circle cx="122.965" cy="440.733" r="0.440737" fill="white" fill-opacity="0.5"/>
<circle cx="35.8098" cy="403.822" r="0.550989" fill="white" fill-opacity="0.3"/>
<circle cx="688" cy="318.219" r="0.451411" fill="white" fill-opacity="0.4"/>
<circle cx="294.853" cy="458.363" r="0.440737" fill="white" fill-opacity="0.5"/>
<circle cx="646.561" cy="478.637" r="0.440737" fill="white" fill-opacity="0.4"/>
<circle cx="948.927" cy="469.843" r="0.462139" fill="white" fill-opacity="0.4"/>
<circle cx="230.505" cy="249.453" r="0.440737" fill="white" fill-opacity="0.3"/>
<circle cx="568.113" cy="519.188" r="0.444101" fill="white" fill-opacity="0.5"/>
<circle cx="255.407" cy="164.171" r="0.66086" fill="white" fill-opacity="0.6"/>
<circle cx="451.029" cy="314.838" r="0.596592" fill="white" fill-opacity="0.5"/>
<circle cx="946.262" cy="103.129" r="0.440737" fill="white" fill-opacity="0.4"/>
<circle cx="739.116" cy="251.216" r="0.440737" fill="white" fill-opacity="0.6"/>
<circle cx="1.34222" cy="544.767" r="0.460386" fill="white" fill-opacity="0.4"/>
<circle cx="820.211" cy="502.436" r="0.440737" fill="white" fill-opacity="0.5"/>
<circle cx="745.461" cy="214.371" r="0.616741" fill="white" fill-opacity="0.6"/>
<circle cx="939.294" cy="535.136" r="0.525765" fill="white" fill-opacity="0.4"/>
<circle cx="197.991" cy="129.673" r="0.540513" fill="white" fill-opacity="0.3"/>
<circle cx="562.821" cy="537.695" r="0.440737" fill="white" fill-opacity="0.4"/>
<circle cx="675.65" cy="104.892" r="0.440737" fill="white" fill-opacity="0.6"/>
<circle cx="242.947" cy="32.7121" r="0.542189" fill="white" fill-opacity="0.5"/>
<circle cx="702.099" cy="185.112" r="0.446985" fill="white" fill-opacity="0.4"/>
<circle cx="827.33" cy="333.261" r="0.508" fill="white" fill-opacity="0.5"/>
<circle cx="490.577" cy="112.861" r="0.477016" fill="white" fill-opacity="0.6"/>
<circle cx="847.74" cy="403.033" r="0.644404" fill="white" fill-opacity="0.4"/>
<circle cx="167.106" cy="83.8026" r="0.507193" fill="white" fill-opacity="0.4"/>
<circle cx="427.169" cy="296.266" r="0.535998" fill="white" fill-opacity="0.5"/>
<circle cx="615.889" cy="314.863" r="0.620824" fill="white" fill-opacity="0.4"/>
<circle cx="102.758" cy="530.71" r="0.507355" fill="white" fill-opacity="0.6"/>
<g filter="url(#filter0_d_10517_18349)">
<circle cx="984.165" cy="340.245" r="0.440737" fill="white" fill-opacity="0.6" shape-rendering="crispEdges"/>
</g>
<g filter="url(#filter1_d_10517_18349)">
<circle cx="34.0661" cy="315.693" r="0.57001" fill="white" fill-opacity="0.6" shape-rendering="crispEdges"/>
</g>
<circle cx="193.516" cy="151.642" r="0.472951" fill="white" fill-opacity="0.4"/>
<circle cx="517.137" cy="224.044" r="0.594354" fill="white" fill-opacity="0.6"/>
<circle cx="53.3294" cy="546.51" r="0.440737" fill="white" fill-opacity="0.3"/>
<circle cx="480.122" cy="338.642" r="0.600408" fill="white" fill-opacity="0.3"/>
<circle cx="777.9" cy="415.17" r="0.440737" fill="white" fill-opacity="0.4"/>
<circle cx="153.817" cy="389.607" r="0.440737" fill="white" fill-opacity="0.6"/>
<circle cx="341.571" cy="445.14" r="0.440737" fill="white" fill-opacity="0.4"/>
<circle cx="423.548" cy="209.787" r="0.440737" fill="white" fill-opacity="0.5"/>
<circle cx="984.345" cy="370.395" r="0.620207" fill="white" fill-opacity="0.5"/>
<circle cx="479.08" cy="255.624" r="0.440737" fill="white" fill-opacity="0.3"/>
<circle cx="90.41" cy="345.593" r="0.499876" fill="white" fill-opacity="0.5"/>
<circle cx="476.601" cy="119.161" r="0.606152" fill="white" fill-opacity="0.4"/>
<circle cx="597.198" cy="531.525" r="0.440737" fill="white" fill-opacity="0.4"/>
<circle cx="79.7737" cy="247.69" r="0.440737" fill="white" fill-opacity="0.3"/>
<circle cx="867.119" cy="395.087" r="0.630932" fill="white" fill-opacity="0.6"/>
<circle cx="510.814" cy="245.046" r="0.440737" fill="white" fill-opacity="0.5"/>
<circle cx="747.93" cy="466.296" r="0.440737" fill="white" fill-opacity="0.5"/>
<circle cx="755.889" cy="112.85" r="0.46586" fill="white" fill-opacity="0.5"/>
<circle cx="36.5814" cy="109.299" r="0.440737" fill="white" fill-opacity="0.4"/>
<circle cx="479.08" cy="438.089" r="0.440737" fill="white" fill-opacity="0.5"/>
<circle cx="661.545" cy="389.607" r="0.440737" fill="white" fill-opacity="0.4"/>
<circle cx="80.7801" cy="453.199" r="0.56628" fill="white" fill-opacity="0.5"/>
<circle cx="986.955" cy="253.126" r="0.587076" fill="white" fill-opacity="0.4"/>
<circle cx="462.332" cy="61.6995" r="0.440737" fill="white" fill-opacity="0.3"/>
<circle cx="924.437" cy="144.77" r="0.652613" fill="white" fill-opacity="0.4"/>
<circle cx="296.616" cy="107.536" r="0.440737" fill="white" fill-opacity="0.6"/>
<circle cx="653.76" cy="192.305" r="0.587632" fill="white" fill-opacity="0.6"/>
<circle cx="387.431" cy="223.033" r="0.464618" fill="white" fill-opacity="0.4"/>
<circle cx="117.782" cy="152.597" r="0.546059" fill="white" fill-opacity="0.5"/>
<circle cx="292.375" cy="391.537" r="0.607017" fill="white" fill-opacity="0.4"/>
<circle cx="881.914" cy="506.844" r="0.440737" fill="white" fill-opacity="0.5"/>
<circle cx="867.81" cy="565.021" r="0.440737" fill="white" fill-opacity="0.4"/>
<circle cx="134.425" cy="207.143" r="0.440737" fill="white" fill-opacity="0.4"/>
<circle cx="326.626" cy="94.3537" r="0.480692" fill="white" fill-opacity="0.6"/>
<circle cx="420.984" cy="555.404" r="0.5207" fill="white" fill-opacity="0.6"/>
<circle cx="3.08527" cy="587.057" r="0.440737" fill="white" fill-opacity="0.5"/>
<circle cx="413.966" cy="162.301" r="0.55448" fill="white" fill-opacity="0.4"/>
<circle cx="269.29" cy="518.303" r="0.440737" fill="white" fill-opacity="0.6"/>
<circle cx="257.153" cy="269.049" r="0.643773" fill="white" fill-opacity="0.3"/>
<circle cx="238.439" cy="203.617" r="0.440737" fill="white" fill-opacity="0.6"/>
<circle cx="805.226" cy="180.699" r="0.440737" fill="white" fill-opacity="0.6"/>
<circle cx="688.115" cy="251.342" r="0.56656" fill="white" fill-opacity="0.4"/>
<circle cx="467.621" cy="436.326" r="0.440737" fill="white" fill-opacity="0.5"/>
<circle cx="217.284" cy="486.57" r="0.440737" fill="white" fill-opacity="0.4"/>
<circle cx="724.13" cy="263.557" r="0.440737" fill="white" fill-opacity="0.4"/>
<circle cx="268.458" cy="299.747" r="0.490717" fill="white" fill-opacity="0.5"/>
<circle cx="494.995" cy="494.551" r="0.48858" fill="white" fill-opacity="0.5"/>
<circle cx="372.422" cy="491.859" r="0.440737" fill="white" fill-opacity="0.4"/>
<circle cx="109.02" cy="290.159" r="0.598864" fill="white" fill-opacity="0.6"/>
<circle cx="306.312" cy="390.489" r="0.440737" fill="white" fill-opacity="0.5"/>
<circle cx="608.747" cy="164.921" r="0.530373" fill="white" fill-opacity="0.4"/>
<circle cx="710.909" cy="362.282" r="0.440737" fill="white" fill-opacity="0.5"/>
<circle cx="455.458" cy="383.614" r="0.617896" fill="white" fill-opacity="0.5"/>
<circle cx="707.382" cy="509.488" r="0.440737" fill="white" fill-opacity="0.4"/>
<circle cx="260.475" cy="527.999" r="0.440737" fill="white" fill-opacity="0.6"/>
<circle cx="568.991" cy="317.327" r="0.440737" fill="white" fill-opacity="0.5"/>
<circle cx="325.869" cy="288.402" r="0.604852" fill="white" fill-opacity="0.4"/>
<circle cx="803.479" cy="59.9531" r="0.456963" fill="white" fill-opacity="0.3"/>
<circle cx="800.872" cy="60.8717" r="0.49421" fill="white" fill-opacity="0.4"/>
<circle cx="367.322" cy="380.099" r="0.62822" fill="white" fill-opacity="0.3"/>
<circle cx="262.368" cy="478.766" r="0.570515" fill="white" fill-opacity="0.4"/>
<circle cx="658.046" cy="126.073" r="0.466615" fill="white" fill-opacity="0.5"/>
<circle cx="381.319" cy="521.029" r="0.52316" fill="white" fill-opacity="0.4"/>
<circle cx="164.503" cy="328.013" r="0.54931" fill="white" fill-opacity="0.3"/>
<circle cx="641.347" cy="278.617" r="0.516154" fill="white" fill-opacity="0.5"/>
<circle cx="751.455" cy="225.654" r="0.440737" fill="white" fill-opacity="0.3"/>
<circle cx="873.099" cy="386.963" r="0.440737" fill="white" fill-opacity="0.4"/>
<circle cx="631.576" cy="151.61" r="0.440737" fill="white" fill-opacity="0.3"/>
<circle cx="116.011" cy="271.588" r="0.538636" fill="white" fill-opacity="0.4"/>
<circle cx="314.245" cy="451.311" r="0.440737" fill="white" fill-opacity="0.4"/>
<circle cx="33.055" cy="345.534" r="0.440737" fill="white" fill-opacity="0.5"/>
<circle cx="76.2474" cy="165.713" r="0.440737" fill="white" fill-opacity="0.4"/>
<circle cx="188.351" cy="416.208" r="0.596973" fill="white" fill-opacity="0.6"/>
<circle cx="800.828" cy="297.944" r="0.450177" fill="white" fill-opacity="0.4"/>
<circle cx="175.135" cy="90.0692" r="0.603343" fill="white" fill-opacity="0.3"/>
<circle cx="229.764" cy="174.669" r="0.581415" fill="white" fill-opacity="0.4"/>
<circle cx="400.629" cy="505.081" r="0.440737" fill="white" fill-opacity="0.5"/>
<circle cx="414.733" cy="541.221" r="0.440737" fill="white" fill-opacity="0.5"/>
<circle cx="20.8959" cy="472.648" r="0.622501" fill="white" fill-opacity="0.4"/>
<circle cx="354.793" cy="349.06" r="0.440737" fill="white" fill-opacity="0.5"/>
<circle cx="335.501" cy="337.701" r="0.541248" fill="white" fill-opacity="0.5"/>
<circle cx="513.458" cy="297.053" r="0.440737" fill="white" fill-opacity="0.4"/>
<circle cx="956.839" cy="263.557" r="0.440737" fill="white" fill-opacity="0.5"/>
<circle cx="72.722" cy="555.325" r="0.440737" fill="white" fill-opacity="0.4"/>
<circle cx="11.0189" cy="513.896" r="0.440737" fill="white" fill-opacity="0.4"/>
<circle cx="854.588" cy="548.273" r="0.440737" fill="white" fill-opacity="0.4"/>
<circle cx="846.655" cy="200.091" r="0.440737" fill="white" fill-opacity="0.5"/>
<circle cx="514.499" cy="111.221" r="0.599508" fill="white" fill-opacity="0.4"/>
<circle cx="390.934" cy="341.127" r="0.440737" fill="white" fill-opacity="0.5"/>
<circle cx="581.331" cy="380.793" r="0.440737" fill="white" fill-opacity="0.5"/>
<circle cx="775.389" cy="156.15" r="0.574152" fill="white" fill-opacity="0.5"/>
<circle cx="340.742" cy="321.787" r="0.493073" fill="white" fill-opacity="0.4"/>
<circle cx="865.166" cy="307.631" r="0.440737" fill="white" fill-opacity="0.4"/>
<circle cx="300.142" cy="206.261" r="0.440737" fill="white" fill-opacity="0.4"/>
<circle cx="336.283" cy="565.902" r="0.440737" fill="white" fill-opacity="0.5"/>
<circle cx="540.784" cy="117.232" r="0.440737" fill="white" fill-opacity="0.5"/>
<circle cx="391.059" cy="418.822" r="0.56626" fill="white" fill-opacity="0.4"/>
<circle cx="514.502" cy="75.0839" r="0.602904" fill="white" fill-opacity="0.4"/>
<circle cx="944.708" cy="511.461" r="0.650632" fill="white" fill-opacity="0.3"/>
<circle cx="661.545" cy="446.022" r="0.440737" fill="white" fill-opacity="0.3"/>
<circle cx="884.691" cy="387.977" r="0.573299" fill="white" fill-opacity="0.4"/>
<circle cx="154.895" cy="242.598" r="0.636869" fill="white" fill-opacity="0.4"/>
<circle cx="294.072" cy="196.666" r="0.54168" fill="white" fill-opacity="0.5"/>
<circle cx="308.956" cy="460.125" r="0.440737" fill="white" fill-opacity="0.4"/>
<circle cx="935.684" cy="471.585" r="0.440737" fill="white" fill-opacity="0.4"/>
<circle cx="39.2259" cy="181.58" r="0.440737" fill="white" fill-opacity="0.5"/>
<circle cx="949.787" cy="377.267" r="0.440737" fill="white" fill-opacity="0.6"/>
<circle cx="129.136" cy="67.8699" r="0.440737" fill="white" fill-opacity="0.4"/>
<circle cx="401.72" cy="91.8785" r="0.649469" fill="white" fill-opacity="0.6"/>
<circle cx="811.479" cy="157.863" r="0.523994" fill="white" fill-opacity="0.4"/>
<circle cx="355.844" cy="478.806" r="0.610578" fill="white" fill-opacity="0.3"/>
<circle cx="72.722" cy="219.483" r="0.440737" fill="white" fill-opacity="0.4"/>
<circle cx="457.044" cy="105.773" r="0.440737" fill="white" fill-opacity="0.6"/>
<circle cx="680.057" cy="347.297" r="0.440737" fill="white" fill-opacity="0.5"/>
<circle cx="359.201" cy="550.036" r="0.440737" fill="white" fill-opacity="0.6"/>
<circle cx="79.7737" cy="175.41" r="0.440737" fill="white" fill-opacity="0.4"/>
<circle cx="325.704" cy="586.176" r="0.440737" fill="white" fill-opacity="0.5"/>
<circle cx="746.167" cy="319.971" r="0.440737" fill="white" fill-opacity="0.6"/>
<circle cx="711.789" cy="141.032" r="0.440737" fill="white" fill-opacity="0.5"/>
<circle cx="542.547" cy="213.313" r="0.440737" fill="white" fill-opacity="0.5"/>
<circle cx="339.808" cy="37.8997" r="0.440737" fill="white" fill-opacity="0.5"/>
<circle cx="570.759" cy="241.525" r="0.445894" fill="white" fill-opacity="0.6"/>
<circle cx="232.42" cy="328.938" r="0.592646" fill="white" fill-opacity="0.4"/>
<circle cx="660.664" cy="104.892" r="0.440737" fill="white" fill-opacity="0.6"/>
<circle cx="0.504461" cy="332.376" r="0.504461" fill="white" fill-opacity="0.5"/>
<circle cx="219.988" cy="62.6416" r="0.501495" fill="white" fill-opacity="0.3"/>
<circle cx="335.568" cy="132.385" r="0.607874" fill="white" fill-opacity="0.5"/>
<circle cx="819.329" cy="466.296" r="0.440737" fill="white" fill-opacity="0.4"/>
<circle cx="407.884" cy="248.775" r="0.643949" fill="white" fill-opacity="0.6"/>
<circle cx="849.299" cy="579.124" r="0.440737" fill="white" fill-opacity="0.3"/>
<circle cx="461.451" cy="183.343" r="0.440737" fill="white" fill-opacity="0.4"/>
<circle cx="755.864" cy="550.917" r="0.440737" fill="white" fill-opacity="0.3"/>
<circle cx="628.049" cy="538.576" r="0.440737" fill="white" fill-opacity="0.3"/>
<circle cx="824.618" cy="29.0853" r="0.440737" fill="white" fill-opacity="0.5"/>
<circle cx="430.6" cy="341.127" r="0.440737" fill="white" fill-opacity="0.4"/>
<circle cx="494.948" cy="232.705" r="0.440737" fill="white" fill-opacity="0.6"/>
<circle cx="271.935" cy="93.4324" r="0.440737" fill="white" fill-opacity="0.6"/>
<g filter="url(#filter2_d_10517_18349)">
<circle cx="124.914" cy="514.08" r="0.625596" fill="white" fill-opacity="0.6" shape-rendering="crispEdges"/>
</g>
<circle cx="896.899" cy="479.518" r="0.440737" fill="white" fill-opacity="0.4"/>
<circle cx="48.0403" cy="110.18" r="0.440737" fill="white" fill-opacity="0.3"/>
<circle cx="168.839" cy="268.001" r="0.477773" fill="white" fill-opacity="0.5"/>
<circle cx="754.1" cy="537.695" r="0.440737" fill="white" fill-opacity="0.5"/>
<circle cx="341.571" cy="150.728" r="0.440737" fill="white" fill-opacity="0.3"/>
<circle cx="65.7155" cy="461.053" r="0.486947" fill="white" fill-opacity="0.3"/>
<circle cx="595.459" cy="542.126" r="0.464759" fill="white" fill-opacity="0.5"/>
<circle cx="120.345" cy="119.019" r="0.464193" fill="white" fill-opacity="0.4"/>
<circle cx="693.279" cy="556.206" r="0.440737" fill="white" fill-opacity="0.4"/>
<circle cx="803.463" cy="230.942" r="0.440737" fill="white" fill-opacity="0.4"/>
<circle cx="388.289" cy="298.816" r="0.440737" fill="white" fill-opacity="0.4"/>
<circle cx="308.224" cy="507.875" r="0.59053" fill="white" fill-opacity="0.4"/>
<circle cx="843.129" cy="362.282" r="0.440737" fill="white" fill-opacity="0.6"/>
<circle cx="496.71" cy="537.695" r="0.440737" fill="white" fill-opacity="0.4"/>
<circle cx="942.927" cy="190.586" r="0.632028" fill="white" fill-opacity="0.4"/>
<circle cx="501.999" cy="563.258" r="0.440737" fill="white" fill-opacity="0.4"/>
<circle cx="254.351" cy="49.4049" r="0.486887" fill="white" fill-opacity="0.5"/>
<circle cx="518.801" cy="498.082" r="0.493992" fill="white" fill-opacity="0.5"/>
<circle cx="427.17" cy="432.896" r="0.537184" fill="white" fill-opacity="0.5"/>
<circle cx="610.544" cy="60.9417" r="0.564288" fill="white" fill-opacity="0.4"/>
<circle cx="430.6" cy="511.251" r="0.440737" fill="white" fill-opacity="0.6"/>
<circle cx="131.781" cy="150.728" r="0.440737" fill="white" fill-opacity="0.4"/>
<circle cx="295.049" cy="135.94" r="0.637122" fill="white" fill-opacity="0.5"/>
<circle cx="281.664" cy="47.6296" r="0.474329" fill="white" fill-opacity="0.6"/>
<circle cx="174.108" cy="574.734" r="0.457496" fill="white" fill-opacity="0.4"/>
<circle cx="792.182" cy="234.646" r="0.618582" fill="white" fill-opacity="0.4"/>
<circle cx="440.344" cy="460.173" r="0.488773" fill="white" fill-opacity="0.5"/>
<circle cx="658.901" cy="454.836" r="0.440737" fill="white" fill-opacity="0.5"/>
<circle cx="179.38" cy="95.1956" r="0.440737" fill="white" fill-opacity="0.6"/>
<circle cx="598.079" cy="502.436" r="0.440737" fill="white" fill-opacity="0.4"/>
<circle cx="182.906" cy="106.655" r="0.440737" fill="white" fill-opacity="0.5"/>
<circle cx="648.378" cy="104.946" r="0.495139" fill="white" fill-opacity="0.4"/>
<circle cx="415.775" cy="255.784" r="0.600722" fill="white" fill-opacity="0.3"/>
<circle cx="820.211" cy="126.929" r="0.440737" fill="white" fill-opacity="0.5"/>
<circle cx="864.284" cy="462.77" r="0.440737" fill="white" fill-opacity="0.4"/>
<circle cx="362.064" cy="534.389" r="0.660099" fill="white" fill-opacity="0.5"/>
<circle cx="445.74" cy="541.377" r="0.59693" fill="white" fill-opacity="0.4"/>
<circle cx="159.302" cy="130.65" r="0.636682" fill="white" fill-opacity="0.6"/>
<circle cx="910.121" cy="178.936" r="0.440737" fill="white" fill-opacity="0.5"/>
<circle cx="327.637" cy="133.269" r="0.610593" fill="white" fill-opacity="0.5"/>
<circle cx="846.721" cy="521.013" r="0.506858" fill="white" fill-opacity="0.5"/>
<circle cx="567.228" cy="295.29" r="0.440737" fill="white" fill-opacity="0.6"/>
<circle cx="30.4105" cy="511.251" r="0.440737" fill="white" fill-opacity="0.3"/>
<circle cx="441.235" cy="506.02" r="0.498379" fill="white" fill-opacity="0.4"/>
<circle cx="430.6" cy="57.2923" r="0.440737" fill="white" fill-opacity="0.4"/>
<circle cx="187.313" cy="272.372" r="0.440737" fill="white" fill-opacity="0.6"/>
<circle cx="801.887" cy="307.818" r="0.628266" fill="white" fill-opacity="0.3"/>
<circle cx="582.321" cy="508.714" r="0.54844" fill="white" fill-opacity="0.4"/>
<circle cx="716.303" cy="461.995" r="0.547114" fill="white" fill-opacity="0.6"/>
<circle cx="872.361" cy="310.418" r="0.583808" fill="white" fill-opacity="0.3"/>
<circle cx="295.735" cy="202.735" r="0.440737" fill="white" fill-opacity="0.6"/>
<circle cx="766.466" cy="180.724" r="0.465788" fill="white" fill-opacity="0.4"/>
<circle cx="659.934" cy="268.997" r="0.592112" fill="white" fill-opacity="0.4"/>
<circle cx="871.336" cy="103.129" r="0.440737" fill="white" fill-opacity="0.4"/>
<circle cx="665.072" cy="398.422" r="0.440737" fill="white" fill-opacity="0.4"/>
<circle cx="827.263" cy="356.993" r="0.440737" fill="white" fill-opacity="0.6"/>
<circle cx="59.6412" cy="73.3004" r="0.582653" fill="white" fill-opacity="0.6"/>
<circle cx="588.411" cy="41.4532" r="0.468353" fill="white" fill-opacity="0.5"/>
<circle cx="84.181" cy="217.72" r="0.440737" fill="white" fill-opacity="0.5"/>
<circle cx="195.303" cy="277.717" r="0.49722" fill="white" fill-opacity="0.6"/>
<circle cx="345.236" cy="427.65" r="0.579734" fill="white" fill-opacity="0.3"/>
<circle cx="591.227" cy="212.631" r="0.640032" fill="white" fill-opacity="0.6"/>
<circle cx="465.067" cy="103.219" r="0.531282" fill="white" fill-opacity="0.4"/>
<circle cx="380.442" cy="222.214" r="0.527241" fill="white" fill-opacity="0.5"/>
<circle cx="351.267" cy="319.971" r="0.440737" fill="white" fill-opacity="0.4"/>
<circle cx="471.157" cy="106.664" r="0.45007" fill="white" fill-opacity="0.6"/>
<circle cx="932.258" cy="108.518" r="0.541305" fill="white" fill-opacity="0.3"/>
<circle cx="147.833" cy="301.647" r="0.627376" fill="white" fill-opacity="0.4"/>
<circle cx="151.173" cy="423.985" r="0.440737" fill="white" fill-opacity="0.6"/>
<circle cx="142.358" cy="446.022" r="0.440737" fill="white" fill-opacity="0.6"/>
<circle cx="640.508" cy="267.201" r="0.558498" fill="white" fill-opacity="0.5"/>
<circle cx="144.12" cy="563.258" r="0.440737" fill="white" fill-opacity="0.5"/>
<circle cx="227.059" cy="336.798" r="0.520066" fill="white" fill-opacity="0.3"/>
<circle cx="94.9007" cy="357.136" r="0.583306" fill="white" fill-opacity="0.4"/>
<circle cx="926.869" cy="423.104" r="0.440737" fill="white" fill-opacity="0.5"/>
<circle cx="103.574" cy="62.5809" r="0.440737" fill="white" fill-opacity="0.6"/>
<circle cx="956.872" cy="435.477" r="0.473134" fill="white" fill-opacity="0.5"/>
<circle cx="667.754" cy="565.058" r="0.478339" fill="white" fill-opacity="0.3"/>
<circle cx="36.5814" cy="33.4925" r="0.440737" fill="white" fill-opacity="0.4"/>
<circle cx="788.516" cy="408.157" r="0.478723" fill="white" fill-opacity="0.5"/>
<circle cx="152.054" cy="374.622" r="0.440737" fill="white" fill-opacity="0.3"/>
<circle cx="0.512587" cy="454.027" r="0.512587" fill="white" fill-opacity="0.6"/>
<circle cx="71.0595" cy="364.146" r="0.541904" fill="white" fill-opacity="0.6"/>
<circle cx="688.896" cy="138.412" r="0.4656" fill="white" fill-opacity="0.5"/>
<circle cx="685.345" cy="287.357" r="0.440737" fill="white" fill-opacity="0.5"/>
<circle cx="546.954" cy="131.336" r="0.440737" fill="white" fill-opacity="0.6"/>
<circle cx="759.389" cy="149.847" r="0.440737" fill="white" fill-opacity="0.6"/>
<circle cx="241.966" cy="59.0565" r="0.442247" fill="white" fill-opacity="0.3"/>
<circle cx="495.986" cy="123.561" r="0.598692" fill="white" fill-opacity="0.5"/>
<circle cx="465.17" cy="336.031" r="0.634315" fill="white" fill-opacity="0.5"/>
<circle cx="939.279" cy="461.077" r="0.510396" fill="white" fill-opacity="0.6"/>
<circle cx="283.394" cy="511.251" r="0.440737" fill="white" fill-opacity="0.3"/>
<circle cx="475.555" cy="420.459" r="0.440737" fill="white" fill-opacity="0.4"/>
<circle cx="192.602" cy="89.9066" r="0.440737" fill="white" fill-opacity="0.4"/>
<circle cx="858.115" cy="353.467" r="0.440737" fill="white" fill-opacity="0.4"/>
<circle cx="461.532" cy="201.934" r="0.520817" fill="white" fill-opacity="0.6"/>
<circle cx="742.768" cy="350.95" r="0.568042" fill="white" fill-opacity="0.4"/>
<circle cx="345.097" cy="282.949" r="0.440737" fill="white" fill-opacity="0.6"/>
<circle cx="768.291" cy="496.353" r="0.527504" fill="white" fill-opacity="0.6"/>
<circle cx="307.194" cy="290.001" r="0.440737" fill="white" fill-opacity="0.5"/>
<circle cx="721.511" cy="557.994" r="0.466127" fill="white" fill-opacity="0.5"/>
<circle cx="137.951" cy="193.039" r="0.440737" fill="white" fill-opacity="0.4"/>
<circle cx="144.335" cy="378.363" r="0.65563" fill="white" fill-opacity="0.4"/>
<circle cx="4.99601" cy="336.867" r="0.588782" fill="white" fill-opacity="0.5"/>
<g filter="url(#filter3_d_10517_18349)">
<circle cx="878.533" cy="48.6223" r="0.585651" fill="white" fill-opacity="0.6" shape-rendering="crispEdges"/>
</g>
<circle cx="689.953" cy="359.839" r="0.641843" fill="white" fill-opacity="0.4"/>
<circle cx="595.505" cy="569.498" r="0.511168" fill="white" fill-opacity="0.6"/>
<circle cx="425.311" cy="431.037" r="0.440737" fill="white" fill-opacity="0.6"/>
<circle cx="675.707" cy="30.9056" r="0.49839" fill="white" fill-opacity="0.6"/>
<circle cx="387.408" cy="235.35" r="0.440737" fill="white" fill-opacity="0.5"/>
<circle cx="640.39" cy="482.162" r="0.440737" fill="white" fill-opacity="0.6"/>
<circle cx="644.967" cy="563.427" r="0.60978" fill="white" fill-opacity="0.6"/>
<circle cx="97.4026" cy="235.35" r="0.440737" fill="white" fill-opacity="0.4"/>
<circle cx="887.202" cy="231.824" r="0.440737" fill="white" fill-opacity="0.4"/>
<circle cx="734.708" cy="152.492" r="0.440737" fill="white" fill-opacity="0.6"/>
<circle cx="707.419" cy="238.031" r="0.477443" fill="white" fill-opacity="0.5"/>
<circle cx="181.321" cy="277.839" r="0.619189" fill="white" fill-opacity="0.4"/>
<circle cx="84.3544" cy="370.389" r="0.61419" fill="white" fill-opacity="0.6"/>
<circle cx="609.649" cy="119.106" r="0.551378" fill="white" fill-opacity="0.4"/>
<circle cx="107.099" cy="461.007" r="0.440737" fill="white" fill-opacity="0.4"/>
<circle cx="121.265" cy="126.11" r="0.503185" fill="white" fill-opacity="0.4"/>
<circle cx="715.384" cy="206.329" r="0.508772" fill="white" fill-opacity="0.4"/>
<circle cx="364.492" cy="52.8866" r="0.442778" fill="white" fill-opacity="0.4"/>
<circle cx="333.638" cy="218.602" r="0.440737" fill="white" fill-opacity="0.6"/>
<circle cx="298.379" cy="106.655" r="0.440737" fill="white" fill-opacity="0.3"/>
<circle cx="204.943" cy="58.1736" r="0.440737" fill="white" fill-opacity="0.6"/>
<circle cx="160.165" cy="392.43" r="0.618563" fill="white" fill-opacity="0.3"/>
<circle cx="100.943" cy="38.7948" r="0.454499" fill="white" fill-opacity="0.4"/>
<circle cx="309.838" cy="225.654" r="0.440737" fill="white" fill-opacity="0.5"/>
<circle cx="298.379" cy="415.17" r="0.440737" fill="white" fill-opacity="0.4"/>
<circle cx="658.02" cy="513.896" r="0.440737" fill="white" fill-opacity="0.6"/>
<circle cx="465.166" cy="262.865" r="0.62986" fill="white" fill-opacity="0.4"/>
<circle cx="277.223" cy="398.422" r="0.440737" fill="white" fill-opacity="0.3"/>
<circle cx="535.494" cy="366.689" r="0.440737" fill="white" fill-opacity="0.5"/>
<circle cx="380.489" cy="570.443" r="0.573883" fill="white" fill-opacity="0.5"/>
<circle cx="817.567" cy="139.269" r="0.440737" fill="white" fill-opacity="0.6"/>
<circle cx="51.5657" cy="416.052" r="0.440737" fill="white" fill-opacity="0.6"/>
<circle cx="116.018" cy="375.608" r="0.544912" fill="white" fill-opacity="0.4"/>
<circle cx="484.369" cy="517.421" r="0.440737" fill="white" fill-opacity="0.5"/>
<circle cx="45.3958" cy="460.125" r="0.440737" fill="white" fill-opacity="0.6"/>
<circle cx="222.572" cy="544.747" r="0.440737" fill="white" fill-opacity="0.4"/>
<circle cx="313.4" cy="493.658" r="0.477079" fill="white" fill-opacity="0.6"/>
</g>
<defs>
<filter id="filter0_d_10517_18349" x="970.503" y="326.582" width="27.326" height="27.3258" filterUnits="userSpaceOnUse" color-interpolation-filters="sRGB">
<feFlood flood-opacity="0" result="BackgroundImageFix"/>
<feColorMatrix in="SourceAlpha" type="matrix" values="0 0 0 0 0 0 0 0 0 0 0 0 0 0 0 0 0 0 127 0" result="hardAlpha"/>
<feMorphology radius="2.64442" operator="dilate" in="SourceAlpha" result="effect1_dropShadow_10517_18349"/>
<feOffset/>
<feGaussianBlur stdDeviation="5.28884"/>
<feComposite in2="hardAlpha" operator="out"/>
<feColorMatrix type="matrix" values="0 0 0 0 1 0 0 0 0 1 0 0 0 0 1 0 0 0 0.3 0"/>
<feBlend mode="normal" in2="BackgroundImageFix" result="effect1_dropShadow_10517_18349"/>
<feBlend mode="normal" in="SourceGraphic" in2="effect1_dropShadow_10517_18349" result="shape"/>
</filter>
<filter id="filter1_d_10517_18349" x="20.274" y="301.901" width="27.5838" height="27.5843" filterUnits="userSpaceOnUse" color-interpolation-filters="sRGB">
<feFlood flood-opacity="0" result="BackgroundImageFix"/>
<feColorMatrix in="SourceAlpha" type="matrix" values="0 0 0 0 0 0 0 0 0 0 0 0 0 0 0 0 0 0 127 0" result="hardAlpha"/>
<feMorphology radius="2.64442" operator="dilate" in="SourceAlpha" result="effect1_dropShadow_10517_18349"/>
<feOffset/>
<feGaussianBlur stdDeviation="5.28884"/>
<feComposite in2="hardAlpha" operator="out"/>
<feColorMatrix type="matrix" values="0 0 0 0 1 0 0 0 0 1 0 0 0 0 1 0 0 0 0.3 0"/>
<feBlend mode="normal" in2="BackgroundImageFix" result="effect1_dropShadow_10517_18349"/>
<feBlend mode="normal" in="SourceGraphic" in2="effect1_dropShadow_10517_18349" result="shape"/>
</filter>
<filter id="filter2_d_10517_18349" x="111.066" y="500.233" width="27.6952" height="27.6954" filterUnits="userSpaceOnUse" color-interpolation-filters="sRGB">
<feFlood flood-opacity="0" result="BackgroundImageFix"/>
<feColorMatrix in="SourceAlpha" type="matrix" values="0 0 0 0 0 0 0 0 0 0 0 0 0 0 0 0 0 0 127 0" result="hardAlpha"/>
<feMorphology radius="2.64442" operator="dilate" in="SourceAlpha" result="effect1_dropShadow_10517_18349"/>
<feOffset/>
<feGaussianBlur stdDeviation="5.28884"/>
<feComposite in2="hardAlpha" operator="out"/>
<feColorMatrix type="matrix" values="0 0 0 0 1 0 0 0 0 1 0 0 0 0 1 0 0 0 0.3 0"/>
<feBlend mode="normal" in2="BackgroundImageFix" result="effect1_dropShadow_10517_18349"/>
<feBlend mode="normal" in="SourceGraphic" in2="effect1_dropShadow_10517_18349" result="shape"/>
</filter>
<filter id="filter3_d_10517_18349" x="864.725" y="34.8145" width="27.6151" height="27.6156" filterUnits="userSpaceOnUse" color-interpolation-filters="sRGB">
<feFlood flood-opacity="0" result="BackgroundImageFix"/>
<feColorMatrix in="SourceAlpha" type="matrix" values="0 0 0 0 0 0 0 0 0 0 0 0 0 0 0 0 0 0 127 0" result="hardAlpha"/>
<feMorphology radius="2.64442" operator="dilate" in="SourceAlpha" result="effect1_dropShadow_10517_18349"/>
<feOffset/>
<feGaussianBlur stdDeviation="5.28884"/>
<feComposite in2="hardAlpha" operator="out"/>
<feColorMatrix type="matrix" values="0 0 0 0 1 0 0 0 0 1 0 0 0 0 1 0 0 0 0.3 0"/>
<feBlend mode="normal" in2="BackgroundImageFix" result="effect1_dropShadow_10517_18349"/>
<feBlend mode="normal" in="SourceGraphic" in2="effect1_dropShadow_10517_18349" result="shape"/>
</filter>
<clipPath id="clip0_10517_18349">
<rect width="990" height="616" rx="40" fill="white"/>
</clipPath>
</defs>
</svg>
