<svg width="137" height="72" viewBox="0 0 137 72" fill="none" xmlns="http://www.w3.org/2000/svg">
<path d="M25.3536 26.0407C28.3104 24.9736 31.6771 24.1733 34.9284 24.3964C33.4096 26.5112 31.7695 28.5678 30.2681 30.6923C32.0987 30.5516 33.912 30.2751 35.7311 30.0908C35.8177 30.2024 35.9794 30.4303 36.0603 30.5467C31.2845 35.6154 27.6347 41.3583 24.5971 47.2855C24.3026 47.9452 23.6616 49.0996 22.6568 48.2993C23.0148 44.2928 24.2853 40.3931 25.2843 36.474C24.0832 36.8814 22.8993 37.3276 21.6404 37.5896C20.6587 37.1627 21.4729 36.2314 21.5538 35.5621C22.7261 32.3705 23.6905 29.0868 25.3536 26.0407Z" fill="#767676"/>
<path d="M46.3126 45.9624C43.8862 50.3874 39.9283 53.7747 35.1816 55.4887C30.435 57.2027 25.226 57.1254 20.5323 55.2714C15.8385 53.4175 11.9828 49.9142 9.68862 45.4192C7.39447 40.9242 6.81965 35.7465 8.07204 30.8577C9.32444 25.969 12.3179 21.7054 16.4908 18.867C20.6636 16.0287 25.7288 14.8109 30.7358 15.442C35.7427 16.0732 40.3473 18.51 43.6852 22.295C47.0231 26.0801 48.8648 30.9532 48.8648 35.9998" stroke="#767676" stroke-width="2.19926" stroke-linecap="round"/>
<path d="M50.0286 44.381C50.0286 46.1811 48.5693 47.6404 46.7692 47.6404C44.9691 47.6404 43.5098 46.1811 43.5098 44.381C43.5098 42.5809 44.9691 41.1216 46.7692 41.1216C48.5693 41.1216 50.0286 42.5809 50.0286 44.381Z" fill="#767676"/>
<path d="M67.0569 45.9787C65.5329 45.9787 64.1877 45.7117 63.0212 45.1775C61.8547 44.6434 60.9422 43.879 60.2837 42.8844C59.6252 41.8897 59.2959 40.6925 59.2959 39.2927V38.5191H62.9647V39.2927C62.9647 40.453 63.3316 41.328 64.0654 41.9174C64.7992 42.4883 65.7963 42.7738 67.0569 42.7738C68.3363 42.7738 69.2864 42.5252 69.9073 42.0279C70.547 41.5306 70.8669 40.8951 70.8669 40.1215C70.8669 39.5874 70.707 39.1545 70.3871 38.823C70.0861 38.4914 69.6345 38.2244 69.0325 38.0217C68.4492 37.8007 67.7342 37.5981 66.8876 37.4139L66.2385 37.2758C64.8838 36.9811 63.7173 36.6127 62.739 36.1706C61.7794 35.7102 61.0362 35.1116 60.5094 34.3748C60.0014 33.638 59.7474 32.6802 59.7474 31.5014C59.7474 30.3226 60.0297 29.3188 60.5941 28.4899C61.1774 27.6427 61.9864 26.998 63.0212 26.5559C64.0748 26.0955 65.3072 25.8652 66.7183 25.8652C68.1294 25.8652 69.3805 26.1047 70.4718 26.5836C71.5818 27.044 72.4473 27.744 73.0682 28.6833C73.7079 29.6043 74.0277 30.7647 74.0277 32.1645V32.9934H70.3589V32.1645C70.3589 31.4278 70.2084 30.8384 69.9073 30.3963C69.6251 29.9358 69.2112 29.6043 68.6656 29.4017C68.1199 29.1806 67.4708 29.0701 66.7183 29.0701C65.5894 29.0701 64.7521 29.282 64.2065 29.7056C63.6797 30.1108 63.4163 30.6726 63.4163 31.3909C63.4163 31.8698 63.5386 32.275 63.7832 32.6066C64.0466 32.9381 64.4323 33.2144 64.9403 33.4354C65.4483 33.6565 66.0974 33.8499 66.8876 34.0156L67.5367 34.1538C68.9478 34.4485 70.1707 34.8261 71.2055 35.2865C72.2592 35.747 73.0776 36.3548 73.6608 37.11C74.2441 37.8652 74.5357 38.8322 74.5357 40.011C74.5357 41.1898 74.2253 42.2305 73.6044 43.133C73.0023 44.0171 72.1369 44.717 71.008 45.2328C69.8979 45.7301 68.5809 45.9787 67.0569 45.9787Z" fill="#767676"/>
<path d="M82.2742 45.5919V38.9335L75.5574 26.252H79.706L83.8829 34.5406H84.3909L88.5677 26.252H92.7163L85.9995 38.9335V45.5919H82.2742Z" fill="#767676"/>
<path d="M95.292 45.5919V26.252H102.376L106.299 43.1054H106.807V26.252H110.475V45.5919H103.392L99.4688 28.7386H98.9608V45.5919H95.292Z" fill="#767676"/>
<path d="M122.192 45.9787C119.746 45.9787 117.808 45.3157 116.378 43.9895C114.948 42.6449 114.233 40.7293 114.233 38.2428V33.6012C114.233 31.1146 114.948 29.2083 116.378 27.8821C117.808 26.5375 119.746 25.8652 122.192 25.8652C124.619 25.8652 126.491 26.5191 127.808 27.8269C129.144 29.1162 129.812 30.8936 129.812 33.1591V33.3249H126.143V33.0486C126.143 31.9067 125.814 30.9673 125.155 30.2305C124.516 29.4938 123.528 29.1254 122.192 29.1254C120.875 29.1254 119.84 29.5214 119.088 30.3134C118.335 31.1054 117.959 32.1829 117.959 33.5459V38.298C117.959 39.6426 118.335 40.7201 119.088 41.5306C119.84 42.3226 120.875 42.7186 122.192 42.7186C123.528 42.7186 124.516 42.3502 125.155 41.6134C125.814 40.8583 126.143 39.9189 126.143 38.7953V38.298H129.812V38.6848C129.812 40.9504 129.144 42.737 127.808 44.0447C126.491 45.3341 124.619 45.9787 122.192 45.9787Z" fill="#767676"/>
</svg>
