<svg width="124" height="44" viewBox="0 0 124 44" fill="none" xmlns="http://www.w3.org/2000/svg">
<path d="M19.3536 12.0407C22.3104 10.9736 25.6771 10.1733 28.9284 10.3964C27.4096 12.5112 25.7695 14.5678 24.2681 16.6923C26.0987 16.5516 27.912 16.2751 29.7311 16.0908C29.8177 16.2024 29.9794 16.4303 30.0603 16.5467C25.2845 21.6154 21.6347 27.3583 18.5971 33.2855C18.3026 33.9452 17.6616 35.0996 16.6568 34.2993C17.0148 30.2928 18.2853 26.3931 19.2843 22.474C18.0832 22.8814 16.8993 23.3276 15.6404 23.5896C14.6587 23.1627 15.4729 22.2314 15.5538 21.5621C16.7261 18.3705 17.6905 15.0868 19.3536 12.0407Z" fill="#767676"/>
<path d="M40.3126 31.9624C37.8862 36.3874 33.9283 39.7747 29.1816 41.4887C24.435 43.2027 19.226 43.1254 14.5323 41.2714C9.83854 39.4175 5.98277 35.9142 3.68862 31.4192C1.39447 26.9242 0.819647 21.7465 2.07204 16.8577C3.32444 11.969 6.31795 7.70536 10.4908 4.86705C14.6636 2.02874 19.7288 0.810879 24.7358 1.44203C29.7427 2.07319 34.3473 4.50996 37.6852 8.29503C41.0231 12.0801 42.8648 16.9532 42.8648 21.9998" stroke="#767676" stroke-width="2.19926" stroke-linecap="round"/>
<path d="M44.0286 30.381C44.0286 32.1811 42.5693 33.6404 40.7692 33.6404C38.9691 33.6404 37.5098 32.1811 37.5098 30.381C37.5098 28.5809 38.9691 27.1216 40.7692 27.1216C42.5693 27.1216 44.0286 28.5809 44.0286 30.381Z" fill="#767676"/>
<path d="M61.0569 31.9787C59.5329 31.9787 58.1877 31.7117 57.0212 31.1775C55.8547 30.6434 54.9422 29.879 54.2837 28.8844C53.6252 27.8897 53.2959 26.6925 53.2959 25.2927V24.5191H56.9647V25.2927C56.9647 26.453 57.3316 27.328 58.0654 27.9174C58.7992 28.4883 59.7963 28.7738 61.0569 28.7738C62.3363 28.7738 63.2864 28.5252 63.9073 28.0279C64.547 27.5306 64.8669 26.8951 64.8669 26.1215C64.8669 25.5874 64.707 25.1545 64.3871 24.823C64.0861 24.4914 63.6345 24.2244 63.0325 24.0217C62.4492 23.8007 61.7342 23.5981 60.8876 23.4139L60.2385 23.2758C58.8838 22.9811 57.7173 22.6127 56.739 22.1706C55.7794 21.7102 55.0362 21.1116 54.5094 20.3748C54.0014 19.638 53.7474 18.6802 53.7474 17.5014C53.7474 16.3226 54.0297 15.3188 54.5941 14.4899C55.1774 13.6427 55.9864 12.998 57.0212 12.5559C58.0748 12.0955 59.3072 11.8652 60.7183 11.8652C62.1294 11.8652 63.3805 12.1047 64.4718 12.5836C65.5818 13.044 66.4473 13.744 67.0682 14.6833C67.7079 15.6043 68.0277 16.7647 68.0277 18.1645V18.9934H64.3589V18.1645C64.3589 17.4278 64.2084 16.8384 63.9073 16.3963C63.6251 15.9358 63.2112 15.6043 62.6656 15.4017C62.1199 15.1806 61.4708 15.0701 60.7183 15.0701C59.5894 15.0701 58.7521 15.282 58.2065 15.7056C57.6797 16.1108 57.4163 16.6726 57.4163 17.3909C57.4163 17.8698 57.5386 18.275 57.7832 18.6066C58.0466 18.9381 58.4323 19.2144 58.9403 19.4354C59.4483 19.6565 60.0974 19.8499 60.8876 20.0156L61.5367 20.1538C62.9478 20.4485 64.1707 20.8261 65.2055 21.2865C66.2592 21.747 67.0776 22.3548 67.6608 23.11C68.2441 23.8652 68.5357 24.8322 68.5357 26.011C68.5357 27.1898 68.2253 28.2305 67.6044 29.133C67.0023 30.0171 66.1369 30.717 65.008 31.2328C63.8979 31.7301 62.5809 31.9787 61.0569 31.9787Z" fill="#767676"/>
<path d="M76.2742 31.5919V24.9335L69.5574 12.252H73.706L77.8829 20.5406H78.3909L82.5677 12.252H86.7163L79.9995 24.9335V31.5919H76.2742Z" fill="#767676"/>
<path d="M89.292 31.5919V12.252H96.3757L100.299 29.1054H100.807V12.252H104.475V31.5919H97.3917L93.4688 14.7386H92.9608V31.5919H89.292Z" fill="#767676"/>
<path d="M116.192 31.9787C113.746 31.9787 111.808 31.3157 110.378 29.9895C108.948 28.6449 108.233 26.7293 108.233 24.2428V19.6012C108.233 17.1146 108.948 15.2083 110.378 13.8821C111.808 12.5375 113.746 11.8652 116.192 11.8652C118.619 11.8652 120.491 12.5191 121.808 13.8269C123.144 15.1162 123.812 16.8936 123.812 19.1591V19.3249H120.143V19.0486C120.143 17.9067 119.814 16.9673 119.155 16.2305C118.516 15.4938 117.528 15.1254 116.192 15.1254C114.875 15.1254 113.84 15.5214 113.088 16.3134C112.335 17.1054 111.959 18.1829 111.959 19.5459V24.298C111.959 25.6426 112.335 26.7201 113.088 27.5306C113.84 28.3226 114.875 28.7186 116.192 28.7186C117.528 28.7186 118.516 28.3502 119.155 27.6134C119.814 26.8583 120.143 25.9189 120.143 24.7953V24.298H123.812V24.6848C123.812 26.9504 123.144 28.737 121.808 30.0447C120.491 31.3341 118.619 31.9787 116.192 31.9787Z" fill="#767676"/>
</svg>
