<svg width="152" height="24" viewBox="0 0 152 24" fill="none" xmlns="http://www.w3.org/2000/svg">
<path d="M9.17204 23.615L0.269531 0.417113H3.66867L9.36628 15.2406C9.88424 16.5562 10.3375 17.8717 10.8231 19.6043C11.3734 17.7754 11.9237 16.2353 12.3122 15.2086L17.9774 0.417113H21.2795L12.4741 23.615H9.17204Z" fill="#767676"/>
<path d="M27.4933 0.417113V23.615H24.3207V0.417113H27.4933Z" fill="#767676"/>
<path d="M39.4583 23.615L30.5558 0.417113H33.9549L39.6525 15.2406C40.1705 16.5562 40.6237 17.8717 41.1093 19.6043C41.6596 17.7754 42.21 16.2353 42.5984 15.2086L48.2637 0.417113H51.5657L42.7603 23.615H39.4583Z" fill="#767676"/>
<path d="M57.7795 0.417113V23.615H54.607V0.417113H57.7795Z" fill="#767676"/>
<path d="M70.9747 23.615H63.2376V0.417113H70.8452C77.8377 0.417113 82.5641 5.10161 82.5641 12.0321C82.5641 18.9305 77.9025 23.615 70.9747 23.615ZM70.6186 3.30481H66.4101V20.6952H70.7481C75.9601 20.6952 79.2621 17.3583 79.2621 12.0321C79.2621 6.64171 75.9601 3.30481 70.6186 3.30481Z" fill="#767676"/>
<path d="M107.707 12C107.707 19.0588 103.046 24 96.4093 24C89.8053 24 85.2083 19.0588 85.2083 12C85.2083 4.97326 89.8376 0 96.4417 0C103.078 0 107.707 4.94118 107.707 12ZM104.373 12C104.373 6.60963 101.2 3.04813 96.4417 3.04813C91.6829 3.04813 88.5427 6.60963 88.5427 12C88.5427 17.3904 91.6829 20.984 96.4417 20.984C101.2 20.984 104.373 17.3583 104.373 12Z" fill="#767676"/>
<path d="M114.938 23.615H111.765V0.417113H120.603C125.621 0.417113 128.599 3.04813 128.599 7.37968C128.599 10.5882 126.98 12.8984 124.067 13.8289L128.826 23.615H125.297L120.927 14.4385H114.938V23.615ZM114.938 3.24064V11.6471H120.635C123.581 11.6471 125.265 10.0749 125.265 7.41177C125.265 4.71658 123.516 3.24064 120.603 3.24064H114.938Z" fill="#767676"/>
<path d="M133.918 23.615H130.616L139.162 0.417113H142.691L151.27 23.615H147.935L145.831 17.8396H135.99L133.918 23.615ZM140.522 5.42246L136.961 15.1123H144.892L141.299 5.42246C141.137 4.97326 140.975 4.42781 140.91 4.07487C140.846 4.39572 140.684 4.94118 140.522 5.42246Z" fill="#767676"/>
</svg>
